<?xml version="1.0" encoding="utf-8" standalone="no"?>
<!DOCTYPE svg PUBLIC "-//W3C//DTD SVG 1.1//EN"
  "http://www.w3.org/Graphics/SVG/1.1/DTD/svg11.dtd">
<svg xmlns:xlink="http://www.w3.org/1999/xlink" width="460.8pt" height="345.6pt" viewBox="0 0 460.8 345.6" xmlns="http://www.w3.org/2000/svg" version="1.1">
 <metadata>
  <rdf:RDF xmlns:dc="http://purl.org/dc/elements/1.1/" xmlns:cc="http://creativecommons.org/ns#" xmlns:rdf="http://www.w3.org/1999/02/22-rdf-syntax-ns#">
   <cc:Work>
    <dc:type rdf:resource="http://purl.org/dc/dcmitype/StillImage"/>
    <dc:date>2025-08-28T14:59:56.485414</dc:date>
    <dc:format>image/svg+xml</dc:format>
    <dc:creator>
     <cc:Agent>
      <dc:title>Matplotlib v3.10.3, https://matplotlib.org/</dc:title>
     </cc:Agent>
    </dc:creator>
   </cc:Work>
  </rdf:RDF>
 </metadata>
 <defs>
  <style type="text/css">*{stroke-linejoin: round; stroke-linecap: butt}</style>
 </defs>
 <g id="figure_1">
  <g id="patch_1">
   <path d="M 0 345.6 
L 460.8 345.6 
L 460.8 0 
L 0 0 
z
" style="fill: #ffffff"/>
  </g>
  <g id="axes_1">
   <g id="patch_2">
    <path d="M 57.6 307.584 
L 414.72 307.584 
L 414.72 41.472 
L 57.6 41.472 
z
" style="fill: #ffffff"/>
   </g>
   <g id="matplotlib.axis_1">
    <g id="xtick_1">
     <g id="line2d_1">
      <defs>
       <path id="mc1b4f7e9c1" d="M 0 0 
L 0 3.5 
" style="stroke: #000000; stroke-width: 0.8"/>
      </defs>
      <g>
       <use xlink:href="#mc1b4f7e9c1" x="73.832727" y="307.584" style="stroke: #000000; stroke-width: 0.8"/>
      </g>
     </g>
     <g id="text_1">
      <!-- 0 -->
      <g transform="translate(70.651477 322.182437) scale(0.1 -0.1)">
       <defs>
        <path id="DejaVuSans-30" d="M 2034 4250 
Q 1547 4250 1301 3770 
Q 1056 3291 1056 2328 
Q 1056 1369 1301 889 
Q 1547 409 2034 409 
Q 2525 409 2770 889 
Q 3016 1369 3016 2328 
Q 3016 3291 2770 3770 
Q 2525 4250 2034 4250 
z
M 2034 4750 
Q 2819 4750 3233 4129 
Q 3647 3509 3647 2328 
Q 3647 1150 3233 529 
Q 2819 -91 2034 -91 
Q 1250 -91 836 529 
Q 422 1150 422 2328 
Q 422 3509 836 4129 
Q 1250 4750 2034 4750 
z
" transform="scale(0.015625)"/>
       </defs>
       <use xlink:href="#DejaVuSans-30"/>
      </g>
     </g>
    </g>
    <g id="xtick_2">
     <g id="line2d_2">
      <g>
       <use xlink:href="#mc1b4f7e9c1" x="120.278299" y="307.584" style="stroke: #000000; stroke-width: 0.8"/>
      </g>
     </g>
     <g id="text_2">
      <!-- 100 -->
      <g transform="translate(110.734549 322.182437) scale(0.1 -0.1)">
       <defs>
        <path id="DejaVuSans-31" d="M 794 531 
L 1825 531 
L 1825 4091 
L 703 3866 
L 703 4441 
L 1819 4666 
L 2450 4666 
L 2450 531 
L 3481 531 
L 3481 0 
L 794 0 
L 794 531 
z
" transform="scale(0.015625)"/>
       </defs>
       <use xlink:href="#DejaVuSans-31"/>
       <use xlink:href="#DejaVuSans-30" transform="translate(63.623047 0)"/>
       <use xlink:href="#DejaVuSans-30" transform="translate(127.246094 0)"/>
      </g>
     </g>
    </g>
    <g id="xtick_3">
     <g id="line2d_3">
      <g>
       <use xlink:href="#mc1b4f7e9c1" x="166.72387" y="307.584" style="stroke: #000000; stroke-width: 0.8"/>
      </g>
     </g>
     <g id="text_3">
      <!-- 200 -->
      <g transform="translate(157.18012 322.182437) scale(0.1 -0.1)">
       <defs>
        <path id="DejaVuSans-32" d="M 1228 531 
L 3431 531 
L 3431 0 
L 469 0 
L 469 531 
Q 828 903 1448 1529 
Q 2069 2156 2228 2338 
Q 2531 2678 2651 2914 
Q 2772 3150 2772 3378 
Q 2772 3750 2511 3984 
Q 2250 4219 1831 4219 
Q 1534 4219 1204 4116 
Q 875 4013 500 3803 
L 500 4441 
Q 881 4594 1212 4672 
Q 1544 4750 1819 4750 
Q 2544 4750 2975 4387 
Q 3406 4025 3406 3419 
Q 3406 3131 3298 2873 
Q 3191 2616 2906 2266 
Q 2828 2175 2409 1742 
Q 1991 1309 1228 531 
z
" transform="scale(0.015625)"/>
       </defs>
       <use xlink:href="#DejaVuSans-32"/>
       <use xlink:href="#DejaVuSans-30" transform="translate(63.623047 0)"/>
       <use xlink:href="#DejaVuSans-30" transform="translate(127.246094 0)"/>
      </g>
     </g>
    </g>
    <g id="xtick_4">
     <g id="line2d_4">
      <g>
       <use xlink:href="#mc1b4f7e9c1" x="213.169442" y="307.584" style="stroke: #000000; stroke-width: 0.8"/>
      </g>
     </g>
     <g id="text_4">
      <!-- 300 -->
      <g transform="translate(203.625692 322.182437) scale(0.1 -0.1)">
       <defs>
        <path id="DejaVuSans-33" d="M 2597 2516 
Q 3050 2419 3304 2112 
Q 3559 1806 3559 1356 
Q 3559 666 3084 287 
Q 2609 -91 1734 -91 
Q 1441 -91 1130 -33 
Q 819 25 488 141 
L 488 750 
Q 750 597 1062 519 
Q 1375 441 1716 441 
Q 2309 441 2620 675 
Q 2931 909 2931 1356 
Q 2931 1769 2642 2001 
Q 2353 2234 1838 2234 
L 1294 2234 
L 1294 2753 
L 1863 2753 
Q 2328 2753 2575 2939 
Q 2822 3125 2822 3475 
Q 2822 3834 2567 4026 
Q 2313 4219 1838 4219 
Q 1578 4219 1281 4162 
Q 984 4106 628 3988 
L 628 4550 
Q 988 4650 1302 4700 
Q 1616 4750 1894 4750 
Q 2613 4750 3031 4423 
Q 3450 4097 3450 3541 
Q 3450 3153 3228 2886 
Q 3006 2619 2597 2516 
z
" transform="scale(0.015625)"/>
       </defs>
       <use xlink:href="#DejaVuSans-33"/>
       <use xlink:href="#DejaVuSans-30" transform="translate(63.623047 0)"/>
       <use xlink:href="#DejaVuSans-30" transform="translate(127.246094 0)"/>
      </g>
     </g>
    </g>
    <g id="xtick_5">
     <g id="line2d_5">
      <g>
       <use xlink:href="#mc1b4f7e9c1" x="259.615014" y="307.584" style="stroke: #000000; stroke-width: 0.8"/>
      </g>
     </g>
     <g id="text_5">
      <!-- 400 -->
      <g transform="translate(250.071264 322.182437) scale(0.1 -0.1)">
       <defs>
        <path id="DejaVuSans-34" d="M 2419 4116 
L 825 1625 
L 2419 1625 
L 2419 4116 
z
M 2253 4666 
L 3047 4666 
L 3047 1625 
L 3713 1625 
L 3713 1100 
L 3047 1100 
L 3047 0 
L 2419 0 
L 2419 1100 
L 313 1100 
L 313 1709 
L 2253 4666 
z
" transform="scale(0.015625)"/>
       </defs>
       <use xlink:href="#DejaVuSans-34"/>
       <use xlink:href="#DejaVuSans-30" transform="translate(63.623047 0)"/>
       <use xlink:href="#DejaVuSans-30" transform="translate(127.246094 0)"/>
      </g>
     </g>
    </g>
    <g id="xtick_6">
     <g id="line2d_6">
      <g>
       <use xlink:href="#mc1b4f7e9c1" x="306.060585" y="307.584" style="stroke: #000000; stroke-width: 0.8"/>
      </g>
     </g>
     <g id="text_6">
      <!-- 500 -->
      <g transform="translate(296.516835 322.182437) scale(0.1 -0.1)">
       <defs>
        <path id="DejaVuSans-35" d="M 691 4666 
L 3169 4666 
L 3169 4134 
L 1269 4134 
L 1269 2991 
Q 1406 3038 1543 3061 
Q 1681 3084 1819 3084 
Q 2600 3084 3056 2656 
Q 3513 2228 3513 1497 
Q 3513 744 3044 326 
Q 2575 -91 1722 -91 
Q 1428 -91 1123 -41 
Q 819 9 494 109 
L 494 744 
Q 775 591 1075 516 
Q 1375 441 1709 441 
Q 2250 441 2565 725 
Q 2881 1009 2881 1497 
Q 2881 1984 2565 2268 
Q 2250 2553 1709 2553 
Q 1456 2553 1204 2497 
Q 953 2441 691 2322 
L 691 4666 
z
" transform="scale(0.015625)"/>
       </defs>
       <use xlink:href="#DejaVuSans-35"/>
       <use xlink:href="#DejaVuSans-30" transform="translate(63.623047 0)"/>
       <use xlink:href="#DejaVuSans-30" transform="translate(127.246094 0)"/>
      </g>
     </g>
    </g>
    <g id="xtick_7">
     <g id="line2d_7">
      <g>
       <use xlink:href="#mc1b4f7e9c1" x="352.506157" y="307.584" style="stroke: #000000; stroke-width: 0.8"/>
      </g>
     </g>
     <g id="text_7">
      <!-- 600 -->
      <g transform="translate(342.962407 322.182437) scale(0.1 -0.1)">
       <defs>
        <path id="DejaVuSans-36" d="M 2113 2584 
Q 1688 2584 1439 2293 
Q 1191 2003 1191 1497 
Q 1191 994 1439 701 
Q 1688 409 2113 409 
Q 2538 409 2786 701 
Q 3034 994 3034 1497 
Q 3034 2003 2786 2293 
Q 2538 2584 2113 2584 
z
M 3366 4563 
L 3366 3988 
Q 3128 4100 2886 4159 
Q 2644 4219 2406 4219 
Q 1781 4219 1451 3797 
Q 1122 3375 1075 2522 
Q 1259 2794 1537 2939 
Q 1816 3084 2150 3084 
Q 2853 3084 3261 2657 
Q 3669 2231 3669 1497 
Q 3669 778 3244 343 
Q 2819 -91 2113 -91 
Q 1303 -91 875 529 
Q 447 1150 447 2328 
Q 447 3434 972 4092 
Q 1497 4750 2381 4750 
Q 2619 4750 2861 4703 
Q 3103 4656 3366 4563 
z
" transform="scale(0.015625)"/>
       </defs>
       <use xlink:href="#DejaVuSans-36"/>
       <use xlink:href="#DejaVuSans-30" transform="translate(63.623047 0)"/>
       <use xlink:href="#DejaVuSans-30" transform="translate(127.246094 0)"/>
      </g>
     </g>
    </g>
    <g id="xtick_8">
     <g id="line2d_8">
      <g>
       <use xlink:href="#mc1b4f7e9c1" x="398.951728" y="307.584" style="stroke: #000000; stroke-width: 0.8"/>
      </g>
     </g>
     <g id="text_8">
      <!-- 700 -->
      <g transform="translate(389.407978 322.182437) scale(0.1 -0.1)">
       <defs>
        <path id="DejaVuSans-37" d="M 525 4666 
L 3525 4666 
L 3525 4397 
L 1831 0 
L 1172 0 
L 2766 4134 
L 525 4134 
L 525 4666 
z
" transform="scale(0.015625)"/>
       </defs>
       <use xlink:href="#DejaVuSans-37"/>
       <use xlink:href="#DejaVuSans-30" transform="translate(63.623047 0)"/>
       <use xlink:href="#DejaVuSans-30" transform="translate(127.246094 0)"/>
      </g>
     </g>
    </g>
    <g id="text_9">
     <!-- iteration -->
     <g transform="translate(215.037344 335.860562) scale(0.1 -0.1)">
      <defs>
       <path id="DejaVuSans-69" d="M 603 3500 
L 1178 3500 
L 1178 0 
L 603 0 
L 603 3500 
z
M 603 4863 
L 1178 4863 
L 1178 4134 
L 603 4134 
L 603 4863 
z
" transform="scale(0.015625)"/>
       <path id="DejaVuSans-74" d="M 1172 4494 
L 1172 3500 
L 2356 3500 
L 2356 3053 
L 1172 3053 
L 1172 1153 
Q 1172 725 1289 603 
Q 1406 481 1766 481 
L 2356 481 
L 2356 0 
L 1766 0 
Q 1100 0 847 248 
Q 594 497 594 1153 
L 594 3053 
L 172 3053 
L 172 3500 
L 594 3500 
L 594 4494 
L 1172 4494 
z
" transform="scale(0.015625)"/>
       <path id="DejaVuSans-65" d="M 3597 1894 
L 3597 1613 
L 953 1613 
Q 991 1019 1311 708 
Q 1631 397 2203 397 
Q 2534 397 2845 478 
Q 3156 559 3463 722 
L 3463 178 
Q 3153 47 2828 -22 
Q 2503 -91 2169 -91 
Q 1331 -91 842 396 
Q 353 884 353 1716 
Q 353 2575 817 3079 
Q 1281 3584 2069 3584 
Q 2775 3584 3186 3129 
Q 3597 2675 3597 1894 
z
M 3022 2063 
Q 3016 2534 2758 2815 
Q 2500 3097 2075 3097 
Q 1594 3097 1305 2825 
Q 1016 2553 972 2059 
L 3022 2063 
z
" transform="scale(0.015625)"/>
       <path id="DejaVuSans-72" d="M 2631 2963 
Q 2534 3019 2420 3045 
Q 2306 3072 2169 3072 
Q 1681 3072 1420 2755 
Q 1159 2438 1159 1844 
L 1159 0 
L 581 0 
L 581 3500 
L 1159 3500 
L 1159 2956 
Q 1341 3275 1631 3429 
Q 1922 3584 2338 3584 
Q 2397 3584 2469 3576 
Q 2541 3569 2628 3553 
L 2631 2963 
z
" transform="scale(0.015625)"/>
       <path id="DejaVuSans-61" d="M 2194 1759 
Q 1497 1759 1228 1600 
Q 959 1441 959 1056 
Q 959 750 1161 570 
Q 1363 391 1709 391 
Q 2188 391 2477 730 
Q 2766 1069 2766 1631 
L 2766 1759 
L 2194 1759 
z
M 3341 1997 
L 3341 0 
L 2766 0 
L 2766 531 
Q 2569 213 2275 61 
Q 1981 -91 1556 -91 
Q 1019 -91 701 211 
Q 384 513 384 1019 
Q 384 1609 779 1909 
Q 1175 2209 1959 2209 
L 2766 2209 
L 2766 2266 
Q 2766 2663 2505 2880 
Q 2244 3097 1772 3097 
Q 1472 3097 1187 3025 
Q 903 2953 641 2809 
L 641 3341 
Q 956 3463 1253 3523 
Q 1550 3584 1831 3584 
Q 2591 3584 2966 3190 
Q 3341 2797 3341 1997 
z
" transform="scale(0.015625)"/>
       <path id="DejaVuSans-6f" d="M 1959 3097 
Q 1497 3097 1228 2736 
Q 959 2375 959 1747 
Q 959 1119 1226 758 
Q 1494 397 1959 397 
Q 2419 397 2687 759 
Q 2956 1122 2956 1747 
Q 2956 2369 2687 2733 
Q 2419 3097 1959 3097 
z
M 1959 3584 
Q 2709 3584 3137 3096 
Q 3566 2609 3566 1747 
Q 3566 888 3137 398 
Q 2709 -91 1959 -91 
Q 1206 -91 779 398 
Q 353 888 353 1747 
Q 353 2609 779 3096 
Q 1206 3584 1959 3584 
z
" transform="scale(0.015625)"/>
       <path id="DejaVuSans-6e" d="M 3513 2113 
L 3513 0 
L 2938 0 
L 2938 2094 
Q 2938 2591 2744 2837 
Q 2550 3084 2163 3084 
Q 1697 3084 1428 2787 
Q 1159 2491 1159 1978 
L 1159 0 
L 581 0 
L 581 3500 
L 1159 3500 
L 1159 2956 
Q 1366 3272 1645 3428 
Q 1925 3584 2291 3584 
Q 2894 3584 3203 3211 
Q 3513 2838 3513 2113 
z
" transform="scale(0.015625)"/>
      </defs>
      <use xlink:href="#DejaVuSans-69"/>
      <use xlink:href="#DejaVuSans-74" transform="translate(27.783203 0)"/>
      <use xlink:href="#DejaVuSans-65" transform="translate(66.992188 0)"/>
      <use xlink:href="#DejaVuSans-72" transform="translate(128.515625 0)"/>
      <use xlink:href="#DejaVuSans-61" transform="translate(169.628906 0)"/>
      <use xlink:href="#DejaVuSans-74" transform="translate(230.908203 0)"/>
      <use xlink:href="#DejaVuSans-69" transform="translate(270.117188 0)"/>
      <use xlink:href="#DejaVuSans-6f" transform="translate(297.900391 0)"/>
      <use xlink:href="#DejaVuSans-6e" transform="translate(359.082031 0)"/>
     </g>
    </g>
   </g>
   <g id="matplotlib.axis_2">
    <g id="ytick_1">
     <g id="line2d_9">
      <defs>
       <path id="m3400598d5f" d="M 0 0 
L -3.5 0 
" style="stroke: #000000; stroke-width: 0.8"/>
      </defs>
      <g>
       <use xlink:href="#m3400598d5f" x="57.6" y="291.193222" style="stroke: #000000; stroke-width: 0.8"/>
      </g>
     </g>
     <g id="text_10">
      <!-- 6200 -->
      <g transform="translate(25.15 294.992441) scale(0.1 -0.1)">
       <use xlink:href="#DejaVuSans-36"/>
       <use xlink:href="#DejaVuSans-32" transform="translate(63.623047 0)"/>
       <use xlink:href="#DejaVuSans-30" transform="translate(127.246094 0)"/>
       <use xlink:href="#DejaVuSans-30" transform="translate(190.869141 0)"/>
      </g>
     </g>
    </g>
    <g id="ytick_2">
     <g id="line2d_10">
      <g>
       <use xlink:href="#m3400598d5f" x="57.6" y="249.288956" style="stroke: #000000; stroke-width: 0.8"/>
      </g>
     </g>
     <g id="text_11">
      <!-- 6400 -->
      <g transform="translate(25.15 253.088174) scale(0.1 -0.1)">
       <use xlink:href="#DejaVuSans-36"/>
       <use xlink:href="#DejaVuSans-34" transform="translate(63.623047 0)"/>
       <use xlink:href="#DejaVuSans-30" transform="translate(127.246094 0)"/>
       <use xlink:href="#DejaVuSans-30" transform="translate(190.869141 0)"/>
      </g>
     </g>
    </g>
    <g id="ytick_3">
     <g id="line2d_11">
      <g>
       <use xlink:href="#m3400598d5f" x="57.6" y="207.384689" style="stroke: #000000; stroke-width: 0.8"/>
      </g>
     </g>
     <g id="text_12">
      <!-- 6600 -->
      <g transform="translate(25.15 211.183908) scale(0.1 -0.1)">
       <use xlink:href="#DejaVuSans-36"/>
       <use xlink:href="#DejaVuSans-36" transform="translate(63.623047 0)"/>
       <use xlink:href="#DejaVuSans-30" transform="translate(127.246094 0)"/>
       <use xlink:href="#DejaVuSans-30" transform="translate(190.869141 0)"/>
      </g>
     </g>
    </g>
    <g id="ytick_4">
     <g id="line2d_12">
      <g>
       <use xlink:href="#m3400598d5f" x="57.6" y="165.480423" style="stroke: #000000; stroke-width: 0.8"/>
      </g>
     </g>
     <g id="text_13">
      <!-- 6800 -->
      <g transform="translate(25.15 169.279642) scale(0.1 -0.1)">
       <defs>
        <path id="DejaVuSans-38" d="M 2034 2216 
Q 1584 2216 1326 1975 
Q 1069 1734 1069 1313 
Q 1069 891 1326 650 
Q 1584 409 2034 409 
Q 2484 409 2743 651 
Q 3003 894 3003 1313 
Q 3003 1734 2745 1975 
Q 2488 2216 2034 2216 
z
M 1403 2484 
Q 997 2584 770 2862 
Q 544 3141 544 3541 
Q 544 4100 942 4425 
Q 1341 4750 2034 4750 
Q 2731 4750 3128 4425 
Q 3525 4100 3525 3541 
Q 3525 3141 3298 2862 
Q 3072 2584 2669 2484 
Q 3125 2378 3379 2068 
Q 3634 1759 3634 1313 
Q 3634 634 3220 271 
Q 2806 -91 2034 -91 
Q 1263 -91 848 271 
Q 434 634 434 1313 
Q 434 1759 690 2068 
Q 947 2378 1403 2484 
z
M 1172 3481 
Q 1172 3119 1398 2916 
Q 1625 2713 2034 2713 
Q 2441 2713 2670 2916 
Q 2900 3119 2900 3481 
Q 2900 3844 2670 4047 
Q 2441 4250 2034 4250 
Q 1625 4250 1398 4047 
Q 1172 3844 1172 3481 
z
" transform="scale(0.015625)"/>
       </defs>
       <use xlink:href="#DejaVuSans-36"/>
       <use xlink:href="#DejaVuSans-38" transform="translate(63.623047 0)"/>
       <use xlink:href="#DejaVuSans-30" transform="translate(127.246094 0)"/>
       <use xlink:href="#DejaVuSans-30" transform="translate(190.869141 0)"/>
      </g>
     </g>
    </g>
    <g id="ytick_5">
     <g id="line2d_13">
      <g>
       <use xlink:href="#m3400598d5f" x="57.6" y="123.576156" style="stroke: #000000; stroke-width: 0.8"/>
      </g>
     </g>
     <g id="text_14">
      <!-- 7000 -->
      <g transform="translate(25.15 127.375375) scale(0.1 -0.1)">
       <use xlink:href="#DejaVuSans-37"/>
       <use xlink:href="#DejaVuSans-30" transform="translate(63.623047 0)"/>
       <use xlink:href="#DejaVuSans-30" transform="translate(127.246094 0)"/>
       <use xlink:href="#DejaVuSans-30" transform="translate(190.869141 0)"/>
      </g>
     </g>
    </g>
    <g id="ytick_6">
     <g id="line2d_14">
      <g>
       <use xlink:href="#m3400598d5f" x="57.6" y="81.67189" style="stroke: #000000; stroke-width: 0.8"/>
      </g>
     </g>
     <g id="text_15">
      <!-- 7200 -->
      <g transform="translate(25.15 85.471109) scale(0.1 -0.1)">
       <use xlink:href="#DejaVuSans-37"/>
       <use xlink:href="#DejaVuSans-32" transform="translate(63.623047 0)"/>
       <use xlink:href="#DejaVuSans-30" transform="translate(127.246094 0)"/>
       <use xlink:href="#DejaVuSans-30" transform="translate(190.869141 0)"/>
      </g>
     </g>
    </g>
    <g id="text_16">
     <!-- ELBO -->
     <g transform="translate(19.070312 187.752219) rotate(-90) scale(0.1 -0.1)">
      <defs>
       <path id="DejaVuSans-45" d="M 628 4666 
L 3578 4666 
L 3578 4134 
L 1259 4134 
L 1259 2753 
L 3481 2753 
L 3481 2222 
L 1259 2222 
L 1259 531 
L 3634 531 
L 3634 0 
L 628 0 
L 628 4666 
z
" transform="scale(0.015625)"/>
       <path id="DejaVuSans-4c" d="M 628 4666 
L 1259 4666 
L 1259 531 
L 3531 531 
L 3531 0 
L 628 0 
L 628 4666 
z
" transform="scale(0.015625)"/>
       <path id="DejaVuSans-42" d="M 1259 2228 
L 1259 519 
L 2272 519 
Q 2781 519 3026 730 
Q 3272 941 3272 1375 
Q 3272 1813 3026 2020 
Q 2781 2228 2272 2228 
L 1259 2228 
z
M 1259 4147 
L 1259 2741 
L 2194 2741 
Q 2656 2741 2882 2914 
Q 3109 3088 3109 3444 
Q 3109 3797 2882 3972 
Q 2656 4147 2194 4147 
L 1259 4147 
z
M 628 4666 
L 2241 4666 
Q 2963 4666 3353 4366 
Q 3744 4066 3744 3513 
Q 3744 3084 3544 2831 
Q 3344 2578 2956 2516 
Q 3422 2416 3680 2098 
Q 3938 1781 3938 1306 
Q 3938 681 3513 340 
Q 3088 0 2303 0 
L 628 0 
L 628 4666 
z
" transform="scale(0.015625)"/>
       <path id="DejaVuSans-4f" d="M 2522 4238 
Q 1834 4238 1429 3725 
Q 1025 3213 1025 2328 
Q 1025 1447 1429 934 
Q 1834 422 2522 422 
Q 3209 422 3611 934 
Q 4013 1447 4013 2328 
Q 4013 3213 3611 3725 
Q 3209 4238 2522 4238 
z
M 2522 4750 
Q 3503 4750 4090 4092 
Q 4678 3434 4678 2328 
Q 4678 1225 4090 567 
Q 3503 -91 2522 -91 
Q 1538 -91 948 565 
Q 359 1222 359 2328 
Q 359 3434 948 4092 
Q 1538 4750 2522 4750 
z
" transform="scale(0.015625)"/>
      </defs>
      <use xlink:href="#DejaVuSans-45"/>
      <use xlink:href="#DejaVuSans-4c" transform="translate(63.183594 0)"/>
      <use xlink:href="#DejaVuSans-42" transform="translate(118.896484 0)"/>
      <use xlink:href="#DejaVuSans-4f" transform="translate(185.75 0)"/>
     </g>
    </g>
   </g>
   <g id="line2d_15">
    <path d="M 73.832727 54.814284 
L 74.297183 56.853024 
L 74.761639 61.113735 
L 75.226094 67.562654 
L 75.69055 64.811459 
L 76.155006 73.830493 
L 76.619462 53.568 
L 77.083917 56.95891 
L 77.548373 71.248102 
L 78.012829 77.424377 
L 78.477284 73.334824 
L 78.94174 77.959332 
L 79.406196 86.283917 
L 79.870652 78.556897 
L 80.335107 90.455826 
L 80.799563 80.109074 
L 81.264019 87.85635 
L 81.728474 91.334527 
L 82.19293 88.651979 
L 83.121842 97.196623 
L 83.586297 95.75821 
L 84.050753 99.830985 
L 84.515209 89.102531 
L 84.979664 108.176441 
L 85.44412 94.637148 
L 85.908576 101.088625 
L 86.373032 103.951333 
L 86.837487 114.084063 
L 87.301943 112.895786 
L 87.766399 112.26978 
L 88.230854 113.711569 
L 89.159766 110.465011 
L 89.624222 127.917483 
L 90.088677 106.804731 
L 90.553133 125.53336 
L 91.017589 125.861453 
L 91.482044 126.900978 
L 91.9465 130.043798 
L 92.410956 124.941933 
L 92.875412 129.399376 
L 93.339867 131.860843 
L 93.804323 133.226721 
L 94.268779 138.641743 
L 94.733234 125.803753 
L 95.19769 137.687336 
L 95.662146 137.114017 
L 96.126602 136.029376 
L 96.591057 139.412716 
L 97.055513 140.578792 
L 97.519969 133.441358 
L 97.984425 141.953162 
L 98.44888 141.16848 
L 98.913336 147.516731 
L 99.377792 155.542892 
L 99.842247 134.76744 
L 100.306703 139.793087 
L 100.771159 142.927723 
L 101.235615 152.563862 
L 102.164526 149.597315 
L 102.628982 151.285455 
L 103.093437 160.694579 
L 103.557893 158.542075 
L 104.022349 153.890353 
L 104.486805 158.686837 
L 104.95126 160.983182 
L 105.415716 153.691881 
L 105.880172 163.882925 
L 106.344627 162.395917 
L 106.809083 168.27786 
L 107.273539 157.661737 
L 107.737995 158.323653 
L 108.20245 170.359467 
L 108.666906 162.350084 
L 109.131362 172.286183 
L 109.595817 171.453008 
L 110.060273 169.461533 
L 110.524729 164.317416 
L 110.989185 168.496487 
L 111.918096 173.543004 
L 112.382552 173.331334 
L 112.847007 175.099887 
L 113.311463 170.338699 
L 113.775919 179.176857 
L 114.240375 175.31483 
L 114.70483 176.226166 
L 115.169286 179.377887 
L 115.633742 175.553713 
L 116.098197 179.32479 
L 116.562653 181.167412 
L 117.027109 185.171438 
L 117.491565 185.572168 
L 117.95602 183.175973 
L 118.420476 186.74029 
L 119.349387 183.65957 
L 119.813843 192.472152 
L 120.278299 186.406264 
L 120.742755 190.794651 
L 121.20721 183.290759 
L 122.136122 195.196952 
L 122.600577 188.705678 
L 123.065033 196.954148 
L 123.529489 194.448998 
L 123.993945 201.231842 
L 124.922856 189.82009 
L 125.387312 196.828006 
L 125.851767 200.748653 
L 126.316223 195.821015 
L 127.245135 200.801955 
L 127.70959 198.479112 
L 128.174046 205.500634 
L 128.638502 204.592572 
L 129.102957 205.495417 
L 129.567413 201.16033 
L 130.031869 206.001521 
L 130.496325 206.185773 
L 130.96078 209.445221 
L 131.425236 203.722465 
L 131.889692 208.571124 
L 132.354147 208.919985 
L 132.818603 206.519698 
L 133.283059 206.153035 
L 133.747515 199.083839 
L 134.21197 202.734502 
L 134.676426 207.457019 
L 135.605337 204.216804 
L 136.069793 209.374016 
L 136.534249 211.082209 
L 136.998705 212.092372 
L 137.46316 215.002549 
L 137.927616 216.639946 
L 138.392072 210.062838 
L 138.856528 207.170155 
L 139.320983 211.716706 
L 139.785439 209.192425 
L 140.71435 211.807758 
L 142.107718 218.276934 
L 142.572173 218.39612 
L 143.036629 210.685162 
L 143.501085 218.331565 
L 144.429996 211.656858 
L 144.894452 211.825048 
L 145.823363 226.960713 
L 146.287819 221.116725 
L 146.752275 219.673299 
L 147.21673 221.334022 
L 147.681186 226.219818 
L 148.145642 217.608778 
L 148.610098 219.819494 
L 149.074553 222.850187 
L 149.539009 223.953857 
L 150.003465 222.483013 
L 150.46792 221.916958 
L 150.932376 215.828972 
L 151.396832 223.130811 
L 151.861288 226.460849 
L 152.325743 221.869181 
L 152.790199 225.589208 
L 153.254655 223.967157 
L 153.71911 219.290064 
L 154.183566 216.619894 
L 154.648022 225.523221 
L 155.112478 220.349845 
L 155.576933 221.406863 
L 156.041389 230.621914 
L 156.505845 224.795728 
L 156.9703 223.04293 
L 157.434756 223.973602 
L 158.363668 228.72814 
L 158.828123 228.397592 
L 159.292579 229.114036 
L 159.757035 226.862602 
L 160.22149 229.341665 
L 160.685946 229.067999 
L 161.614858 230.658233 
L 162.079313 228.60343 
L 162.543769 235.19793 
L 163.008225 225.674837 
L 163.937136 229.124983 
L 164.401592 234.619802 
L 164.866048 230.709692 
L 165.330503 231.65305 
L 165.794959 229.027793 
L 166.259415 224.128083 
L 166.72387 232.166827 
L 167.188326 230.377609 
L 167.652782 236.116939 
L 168.117238 236.217198 
L 168.581693 232.524998 
L 169.046149 232.658404 
L 169.510605 237.41591 
L 169.97506 232.939642 
L 170.439516 242.795124 
L 170.903972 225.51831 
L 171.368428 241.122637 
L 172.297339 228.243213 
L 172.761795 239.015249 
L 173.22625 232.682549 
L 173.690706 235.015826 
L 174.155162 228.87546 
L 174.619618 232.971561 
L 175.084073 235.515076 
L 175.548529 235.713958 
L 176.012985 237.662875 
L 176.47744 237.316673 
L 176.941896 234.186335 
L 177.406352 240.173448 
L 177.870808 235.944861 
L 178.335263 233.861822 
L 178.799719 242.204618 
L 179.264175 231.326798 
L 179.728631 241.46362 
L 180.193086 234.270225 
L 180.657542 237.786971 
L 181.121998 238.792019 
L 181.586453 236.242467 
L 182.050909 237.532947 
L 182.515365 241.463109 
L 182.979821 231.535092 
L 183.444276 235.055009 
L 183.908732 236.307431 
L 184.837643 240.903908 
L 185.302099 235.044779 
L 185.766555 240.68344 
L 186.231011 240.648963 
L 186.695466 241.897088 
L 187.159922 243.885801 
L 188.088833 242.179758 
L 189.017745 236.320731 
L 189.482201 239.541508 
L 189.946656 239.314492 
L 190.411112 239.858143 
L 190.875568 244.330114 
L 191.340023 239.378842 
L 191.804479 239.486263 
L 192.268935 240.639448 
L 192.733391 240.477295 
L 193.197846 237.528957 
L 193.662302 237.884366 
L 194.126758 241.111588 
L 194.591213 238.528173 
L 195.055669 241.25236 
L 195.520125 239.174641 
L 195.984581 241.443978 
L 196.449036 240.350743 
L 196.913492 238.399882 
L 197.377948 242.747552 
L 197.842403 242.129014 
L 198.306859 243.549421 
L 198.771315 241.747415 
L 199.235771 243.020401 
L 199.700226 247.8442 
L 200.164682 251.379565 
L 200.629138 243.474534 
L 201.558049 244.985072 
L 202.486961 244.973921 
L 202.951416 248.522075 
L 203.415872 239.848014 
L 203.880328 242.348971 
L 204.344783 247.837038 
L 204.809239 249.373664 
L 205.273695 246.371719 
L 205.738151 248.027735 
L 206.202606 243.92478 
L 207.131518 251.584278 
L 207.595973 248.759321 
L 208.060429 247.168371 
L 208.524885 247.23804 
L 208.989341 251.440028 
L 209.453796 245.11766 
L 209.918252 246.102656 
L 210.382708 246.547684 
L 210.847163 247.627005 
L 211.311619 250.440607 
L 211.776075 246.731834 
L 212.240531 246.310336 
L 212.704986 247.561735 
L 213.169442 250.798675 
L 213.633898 251.602795 
L 214.098353 248.809144 
L 214.562809 251.546016 
L 215.491721 245.969454 
L 215.956176 248.9093 
L 216.420632 248.069476 
L 216.885088 251.887204 
L 217.349544 250.920214 
L 217.813999 252.404051 
L 218.278455 248.709294 
L 218.742911 247.357942 
L 219.207366 254.689143 
L 219.671822 250.105966 
L 220.136278 248.094438 
L 220.600734 250.738213 
L 221.065189 252.164145 
L 221.529645 252.847135 
L 221.994101 244.597233 
L 222.458556 250.228323 
L 222.923012 245.882904 
L 223.387468 252.601091 
L 223.851924 254.858867 
L 224.316379 248.281657 
L 224.780835 248.198381 
L 225.245291 253.937812 
L 225.709746 256.249913 
L 226.174202 253.111083 
L 226.638658 252.989135 
L 227.103114 249.10276 
L 228.032025 256.178299 
L 228.496481 251.729449 
L 228.960936 253.523885 
L 229.889848 246.427373 
L 230.354304 252.897572 
L 230.818759 250.238247 
L 231.283215 256.607675 
L 231.747671 251.736611 
L 232.212126 253.118858 
L 232.676582 250.453497 
L 233.141038 254.042266 
L 233.605494 255.034628 
L 234.069949 254.569241 
L 234.534405 250.843383 
L 234.998861 256.024125 
L 235.463316 254.421717 
L 235.927772 248.24227 
L 236.392228 254.43962 
L 236.856684 251.259766 
L 237.321139 258.389118 
L 237.785595 248.897535 
L 238.250051 248.814975 
L 239.178962 256.08735 
L 239.643418 253.160803 
L 240.107874 254.201146 
L 240.572329 254.035207 
L 241.036785 258.932564 
L 241.501241 252.079436 
L 241.965696 259.141778 
L 242.430152 253.849932 
L 242.894608 258.497357 
L 243.359064 258.392801 
L 243.823519 251.670522 
L 244.287975 254.049121 
L 244.752431 257.371793 
L 245.216886 253.029955 
L 245.681342 256.309659 
L 246.145798 252.834859 
L 246.610254 254.86521 
L 247.074709 251.577731 
L 247.539165 251.733849 
L 248.468076 258.633832 
L 248.932532 255.453364 
L 249.396988 258.594035 
L 249.861444 252.513518 
L 250.325899 258.812355 
L 250.790355 250.559179 
L 251.254811 260.072143 
L 251.719266 255.500424 
L 252.183722 252.073707 
L 252.648178 259.785586 
L 253.112634 256.655144 
L 253.577089 256.181062 
L 254.041545 254.408417 
L 254.506001 260.460596 
L 254.970456 257.165034 
L 255.434912 256.700773 
L 255.899368 255.773784 
L 256.363824 258.126909 
L 256.828279 252.387477 
L 257.292735 258.808058 
L 257.757191 255.276375 
L 258.221647 257.99913 
L 258.686102 259.961346 
L 260.079469 255.942895 
L 260.543925 259.163876 
L 261.008381 259.441021 
L 261.472837 258.01335 
L 261.937292 262.434168 
L 262.401748 257.145392 
L 262.866204 257.660601 
L 263.330659 263.631345 
L 264.259571 260.873091 
L 264.724027 266.63237 
L 265.188482 259.725225 
L 265.652938 256.055226 
L 266.117394 257.33793 
L 266.581849 263.137415 
L 267.046305 261.682326 
L 267.510761 263.047796 
L 267.975217 259.386799 
L 268.439672 263.996985 
L 268.904128 260.277572 
L 269.368584 260.085954 
L 269.833039 264.842641 
L 270.297495 259.09615 
L 270.761951 259.559082 
L 271.226407 264.104917 
L 271.690862 259.783846 
L 272.155318 259.381991 
L 272.619774 261.370193 
L 273.084229 265.686353 
L 273.548685 261.992619 
L 274.013141 264.801514 
L 274.477597 259.703434 
L 274.942052 262.61218 
L 275.406508 257.147131 
L 275.870964 265.725945 
L 276.335419 264.83906 
L 276.799875 259.128069 
L 277.264331 265.191706 
L 277.728787 266.108669 
L 278.193242 262.975261 
L 278.657698 263.031529 
L 279.122154 261.946888 
L 279.586609 262.35437 
L 280.051065 264.334695 
L 280.979977 265.969636 
L 281.444432 261.424722 
L 281.908888 266.655082 
L 282.373344 264.810517 
L 282.837799 264.648772 
L 283.302255 262.832034 
L 283.766711 264.308607 
L 284.231167 268.862217 
L 285.160078 262.625991 
L 285.624534 265.903445 
L 286.088989 265.246031 
L 286.553445 268.05687 
L 287.017901 264.279552 
L 287.482357 264.451323 
L 287.946812 268.135952 
L 288.411268 263.471442 
L 288.875724 268.456065 
L 289.340179 267.33132 
L 289.804635 265.37381 
L 290.269091 264.690308 
L 290.733547 270.23403 
L 291.198002 270.575013 
L 291.662458 267.346564 
L 292.126914 266.127289 
L 292.591369 266.657947 
L 293.055825 266.890384 
L 293.520281 269.215478 
L 293.984737 263.616511 
L 294.449192 270.541048 
L 294.913648 268.061985 
L 295.378104 268.047253 
L 295.84256 270.175716 
L 296.307015 271.318057 
L 296.771471 269.723424 
L 297.235927 270.94454 
L 297.700382 271.428035 
L 298.629294 266.617638 
L 299.09375 272.963945 
L 299.558205 274.108026 
L 300.022661 269.106216 
L 300.487117 272.989112 
L 300.951572 266.687513 
L 301.416028 271.875723 
L 301.880484 268.811474 
L 302.34494 268.167257 
L 302.809395 273.789447 
L 303.273851 269.486075 
L 303.738307 272.490272 
L 304.202762 272.025396 
L 304.667218 272.472573 
L 305.131674 273.81799 
L 305.59613 272.955352 
L 306.060585 269.228777 
L 306.525041 276.548622 
L 306.989497 271.801757 
L 307.453952 264.103382 
L 307.918408 272.205454 
L 308.382864 270.140113 
L 308.84732 274.619757 
L 309.311775 269.554927 
L 309.776231 270.709954 
L 310.705142 275.741126 
L 311.169598 276.450409 
L 311.634054 272.823173 
L 312.09851 273.741466 
L 312.562965 273.558135 
L 313.027421 274.078357 
L 313.491877 272.483929 
L 313.956332 275.071538 
L 314.420788 275.848854 
L 314.885244 269.337016 
L 315.3497 274.01104 
L 315.814155 275.222336 
L 316.278611 269.804143 
L 316.743067 276.208252 
L 317.207522 271.893934 
L 317.671978 274.184448 
L 318.136434 272.956375 
L 318.60089 275.446282 
L 319.065345 274.559295 
L 319.529801 273.940347 
L 319.994257 275.46173 
L 320.458712 276.546678 
L 320.923168 277.943658 
L 321.85208 276.813797 
L 322.316535 276.693486 
L 322.780991 277.316526 
L 323.245447 273.447236 
L 323.709902 275.223461 
L 324.174358 280.135549 
L 324.638814 272.10591 
L 325.10327 277.892198 
L 325.567725 279.221656 
L 326.032181 278.689566 
L 326.496637 277.416069 
L 326.961092 277.88207 
L 327.425548 277.819357 
L 327.890004 276.9293 
L 328.35446 281.922108 
L 328.818915 280.175039 
L 329.283371 277.683904 
L 329.747827 282.048557 
L 330.212282 276.217255 
L 330.676738 278.103356 
L 331.141194 281.715042 
L 331.60565 278.65069 
L 332.070105 283.74703 
L 332.534561 278.703377 
L 332.999017 278.724247 
L 333.463472 285.64725 
L 333.927928 277.207571 
L 334.392384 277.080098 
L 334.85684 280.015545 
L 335.321295 279.808582 
L 335.785751 283.27305 
L 336.250207 277.47203 
L 337.643574 285.107077 
L 338.572485 279.008452 
L 339.036941 277.224144 
L 339.501397 282.970533 
L 339.965853 285.140736 
L 340.430308 284.629618 
L 340.894764 285.854725 
L 341.35922 279.468109 
L 341.823675 285.273733 
L 342.288131 281.326384 
L 342.752587 279.555376 
L 343.217043 286.266299 
L 343.681498 280.343945 
L 344.145954 277.582724 
L 344.61041 285.395374 
L 345.074865 279.751291 
L 345.539321 283.797876 
L 346.003777 283.175041 
L 346.468233 280.930155 
L 346.932688 280.698536 
L 347.397144 281.147554 
L 347.8616 287.221115 
L 348.326055 280.20123 
L 348.790511 281.449559 
L 349.254967 279.795487 
L 349.719423 281.95372 
L 350.183878 278.078803 
L 350.648334 286.22773 
L 351.11279 281.605882 
L 351.577245 285.948436 
L 352.041701 286.240109 
L 352.506157 279.038632 
L 352.970613 285.726945 
L 353.435068 282.508931 
L 353.899524 285.535737 
L 354.36398 283.015854 
L 354.828435 286.26855 
L 355.292891 283.146805 
L 355.757347 284.990347 
L 356.221803 284.384188 
L 356.686258 284.056299 
L 357.150714 281.714632 
L 357.61517 285.333786 
L 358.079625 280.619351 
L 358.544081 282.694513 
L 359.008537 283.876344 
L 359.472993 285.607964 
L 359.937448 281.156557 
L 360.401904 284.687728 
L 360.86636 279.381559 
L 361.330815 283.706517 
L 361.795271 282.347289 
L 362.259727 282.503816 
L 362.724183 279.974521 
L 363.188638 284.733458 
L 363.653094 285.275779 
L 364.11755 283.772811 
L 364.582005 283.920335 
L 365.046461 281.285461 
L 365.510917 286.251772 
L 365.975373 286.15939 
L 366.439828 284.75883 
L 366.904284 283.925144 
L 367.36874 286.626414 
L 367.833195 281.675347 
L 368.297651 289.819568 
L 368.762107 284.412117 
L 369.226563 281.809674 
L 369.691018 286.361955 
L 370.155474 287.488234 
L 370.61993 287.861444 
L 371.084385 281.234616 
L 371.548841 287.466852 
L 372.013297 287.470842 
L 372.477753 279.319153 
L 372.942208 284.390838 
L 373.406664 288.122425 
L 373.87112 284.5223 
L 374.335575 285.310767 
L 374.800031 284.971216 
L 375.264487 285.77554 
L 375.728943 285.150966 
L 376.657854 284.827784 
L 377.12231 285.526018 
L 377.586766 283.723807 
L 378.051221 288.839074 
L 378.515677 286.411368 
L 378.980133 285.471591 
L 379.444588 287.639953 
L 379.909044 284.653149 
L 380.3735 287.059882 
L 380.837956 286.353975 
L 381.302411 287.671463 
L 381.766867 281.135175 
L 382.231323 290.211398 
L 382.695778 286.076727 
L 383.160234 285.894522 
L 383.62469 284.569872 
L 384.089146 290.241475 
L 384.553601 291.020428 
L 385.018057 286.656696 
L 385.482513 285.343505 
L 385.946968 291.375632 
L 386.411424 292.672966 
L 386.87588 284.793 
L 387.340336 284.84405 
L 387.804791 283.84023 
L 388.269247 286.11857 
L 388.733703 290.046481 
L 389.198158 284.217532 
L 389.662614 289.778646 
L 390.12707 288.636816 
L 390.591526 288.507298 
L 391.055981 289.37986 
L 391.520437 286.608101 
L 391.984893 284.69448 
L 392.449348 290.463989 
L 392.913804 285.491541 
L 393.842716 295.488 
L 394.307171 286.765038 
L 394.771627 288.42218 
L 395.236083 288.287443 
L 396.164994 290.637295 
L 396.62945 287.832901 
L 397.093906 287.302857 
L 397.558361 286.377505 
L 398.022817 288.862911 
L 398.487273 288.021552 
L 398.487273 288.021552 
" clip-path="url(#p3ff3e943e0)" style="fill: none; stroke: #1f77b4; stroke-width: 1.5; stroke-linecap: square"/>
   </g>
   <g id="patch_3">
    <path d="M 57.6 307.584 
L 57.6 41.472 
" style="fill: none; stroke: #000000; stroke-width: 0.8; stroke-linejoin: miter; stroke-linecap: square"/>
   </g>
   <g id="patch_4">
    <path d="M 414.72 307.584 
L 414.72 41.472 
" style="fill: none; stroke: #000000; stroke-width: 0.8; stroke-linejoin: miter; stroke-linecap: square"/>
   </g>
   <g id="patch_5">
    <path d="M 57.6 307.584 
L 414.72 307.584 
" style="fill: none; stroke: #000000; stroke-width: 0.8; stroke-linejoin: miter; stroke-linecap: square"/>
   </g>
   <g id="patch_6">
    <path d="M 57.6 41.472 
L 414.72 41.472 
" style="fill: none; stroke: #000000; stroke-width: 0.8; stroke-linejoin: miter; stroke-linecap: square"/>
   </g>
   <g id="text_17">
    <!-- ELBO -->
    <g transform="translate(220.290937 35.472) scale(0.12 -0.12)">
     <use xlink:href="#DejaVuSans-45"/>
     <use xlink:href="#DejaVuSans-4c" transform="translate(63.183594 0)"/>
     <use xlink:href="#DejaVuSans-42" transform="translate(118.896484 0)"/>
     <use xlink:href="#DejaVuSans-4f" transform="translate(185.75 0)"/>
    </g>
   </g>
  </g>
 </g>
 <defs>
  <clipPath id="p3ff3e943e0">
   <rect x="57.6" y="41.472" width="357.12" height="266.112"/>
  </clipPath>
 </defs>
</svg>
