<?xml version="1.0" encoding="utf-8" standalone="no"?>
<!DOCTYPE svg PUBLIC "-//W3C//DTD SVG 1.1//EN"
  "http://www.w3.org/Graphics/SVG/1.1/DTD/svg11.dtd">
<svg xmlns:xlink="http://www.w3.org/1999/xlink" width="360pt" height="360pt" viewBox="0 0 360 360" xmlns="http://www.w3.org/2000/svg" version="1.1">
 <metadata>
  <rdf:RDF xmlns:dc="http://purl.org/dc/elements/1.1/" xmlns:cc="http://creativecommons.org/ns#" xmlns:rdf="http://www.w3.org/1999/02/22-rdf-syntax-ns#">
   <cc:Work>
    <dc:type rdf:resource="http://purl.org/dc/dcmitype/StillImage"/>
    <dc:date>2025-05-19T22:27:59.759882</dc:date>
    <dc:format>image/svg+xml</dc:format>
    <dc:creator>
     <cc:Agent>
      <dc:title>Matplotlib v3.8.4, https://matplotlib.org/</dc:title>
     </cc:Agent>
    </dc:creator>
   </cc:Work>
  </rdf:RDF>
 </metadata>
 <defs>
  <style type="text/css">*{stroke-linejoin: round; stroke-linecap: butt}</style>
 </defs>
 <g id="figure_1">
  <g id="patch_1">
   <path d="M 0 360 
L 360 360 
L 360 0 
L 0 0 
z
" style="fill: #ffffff"/>
  </g>
  <g id="axes_1">
   <g id="patch_2">
    <path d="M 45.61 159.871591 
L 192.43258 159.871591 
L 192.43258 8.6 
L 45.61 8.6 
z
" style="fill: #ffffff"/>
   </g>
   <g id="matplotlib.axis_1">
    <g id="xtick_1">
     <g id="line2d_1">
      <defs>
       <path id="me9e8ee28f6" d="M 0 0 
L 0 3.5 
" style="stroke: #000000; stroke-width: 0.8"/>
      </defs>
      <g>
       <use xlink:href="#me9e8ee28f6" x="72.806761" y="159.871591" style="stroke: #000000; stroke-width: 0.8"/>
      </g>
     </g>
    </g>
    <g id="xtick_2">
     <g id="line2d_2">
      <g>
       <use xlink:href="#me9e8ee28f6" x="119.699005" y="159.871591" style="stroke: #000000; stroke-width: 0.8"/>
      </g>
     </g>
    </g>
    <g id="xtick_3">
     <g id="line2d_3">
      <g>
       <use xlink:href="#me9e8ee28f6" x="166.59125" y="159.871591" style="stroke: #000000; stroke-width: 0.8"/>
      </g>
     </g>
    </g>
   </g>
   <g id="patch_3">
    <path d="M 45.61 159.871591 
L 192.43258 159.871591 
" style="fill: none; stroke: #000000; stroke-width: 0.8; stroke-linejoin: miter; stroke-linecap: square"/>
   </g>
   <g id="text_1">
    <!-- r = 1.00  -->
    <g transform="translate(60.292258 23.727159) scale(0.1 -0.1)">
     <defs>
      <path id="DejaVuSans-72" d="M 2631 2963 
Q 2534 3019 2420 3045 
Q 2306 3072 2169 3072 
Q 1681 3072 1420 2755 
Q 1159 2438 1159 1844 
L 1159 0 
L 581 0 
L 581 3500 
L 1159 3500 
L 1159 2956 
Q 1341 3275 1631 3429 
Q 1922 3584 2338 3584 
Q 2397 3584 2469 3576 
Q 2541 3569 2628 3553 
L 2631 2963 
z
" transform="scale(0.015625)"/>
      <path id="DejaVuSans-20" transform="scale(0.015625)"/>
      <path id="DejaVuSans-3d" d="M 678 2906 
L 4684 2906 
L 4684 2381 
L 678 2381 
L 678 2906 
z
M 678 1631 
L 4684 1631 
L 4684 1100 
L 678 1100 
L 678 1631 
z
" transform="scale(0.015625)"/>
      <path id="DejaVuSans-31" d="M 794 531 
L 1825 531 
L 1825 4091 
L 703 3866 
L 703 4441 
L 1819 4666 
L 2450 4666 
L 2450 531 
L 3481 531 
L 3481 0 
L 794 0 
L 794 531 
z
" transform="scale(0.015625)"/>
      <path id="DejaVuSans-2e" d="M 684 794 
L 1344 794 
L 1344 0 
L 684 0 
L 684 794 
z
" transform="scale(0.015625)"/>
      <path id="DejaVuSans-30" d="M 2034 4250 
Q 1547 4250 1301 3770 
Q 1056 3291 1056 2328 
Q 1056 1369 1301 889 
Q 1547 409 2034 409 
Q 2525 409 2770 889 
Q 3016 1369 3016 2328 
Q 3016 3291 2770 3770 
Q 2525 4250 2034 4250 
z
M 2034 4750 
Q 2819 4750 3233 4129 
Q 3647 3509 3647 2328 
Q 3647 1150 3233 529 
Q 2819 -91 2034 -91 
Q 1250 -91 836 529 
Q 422 1150 422 2328 
Q 422 3509 836 4129 
Q 1250 4750 2034 4750 
z
" transform="scale(0.015625)"/>
     </defs>
     <use xlink:href="#DejaVuSans-72"/>
     <use xlink:href="#DejaVuSans-20" x="41.113281"/>
     <use xlink:href="#DejaVuSans-3d" x="72.900391"/>
     <use xlink:href="#DejaVuSans-20" x="156.689453"/>
     <use xlink:href="#DejaVuSans-31" x="188.476562"/>
     <use xlink:href="#DejaVuSans-2e" x="252.099609"/>
     <use xlink:href="#DejaVuSans-30" x="283.886719"/>
     <use xlink:href="#DejaVuSans-30" x="347.509766"/>
     <use xlink:href="#DejaVuSans-20" x="411.132812"/>
    </g>
   </g>
   <g id="text_2">
    <!-- p = 0.000 -->
    <g transform="translate(119.02129 23.727159) scale(0.1 -0.1)">
     <defs>
      <path id="DejaVuSans-70" d="M 1159 525 
L 1159 -1331 
L 581 -1331 
L 581 3500 
L 1159 3500 
L 1159 2969 
Q 1341 3281 1617 3432 
Q 1894 3584 2278 3584 
Q 2916 3584 3314 3078 
Q 3713 2572 3713 1747 
Q 3713 922 3314 415 
Q 2916 -91 2278 -91 
Q 1894 -91 1617 61 
Q 1341 213 1159 525 
z
M 3116 1747 
Q 3116 2381 2855 2742 
Q 2594 3103 2138 3103 
Q 1681 3103 1420 2742 
Q 1159 2381 1159 1747 
Q 1159 1113 1420 752 
Q 1681 391 2138 391 
Q 2594 391 2855 752 
Q 3116 1113 3116 1747 
z
" transform="scale(0.015625)"/>
     </defs>
     <use xlink:href="#DejaVuSans-70"/>
     <use xlink:href="#DejaVuSans-20" x="63.476562"/>
     <use xlink:href="#DejaVuSans-3d" x="95.263672"/>
     <use xlink:href="#DejaVuSans-20" x="179.052734"/>
     <use xlink:href="#DejaVuSans-30" x="210.839844"/>
     <use xlink:href="#DejaVuSans-2e" x="274.462891"/>
     <use xlink:href="#DejaVuSans-30" x="306.25"/>
     <use xlink:href="#DejaVuSans-30" x="369.873047"/>
     <use xlink:href="#DejaVuSans-30" x="433.496094"/>
    </g>
   </g>
  </g>
  <g id="axes_2">
   <g id="patch_4">
    <path d="M 45.61 320.24 
L 192.43258 320.24 
L 192.43258 168.968409 
L 45.61 168.968409 
z
" style="fill: #ffffff"/>
   </g>
   <g id="PathCollection_1">
    <defs>
     <path id="m57abb6c35d" d="M 0 3 
C 0.795609 3 1.55874 2.683901 2.12132 2.12132 
C 2.683901 1.55874 3 0.795609 3 0 
C 3 -0.795609 2.683901 -1.55874 2.12132 -2.12132 
C 1.55874 -2.683901 0.795609 -3 0 -3 
C -0.795609 -3 -1.55874 -2.683901 -2.12132 -2.12132 
C -2.683901 -1.55874 -3 -0.795609 -3 0 
C -3 0.795609 -2.683901 1.55874 -2.12132 2.12132 
C -1.55874 2.683901 -0.795609 3 0 3 
z
" style="stroke: #1f77b4; stroke-opacity: 0.8"/>
    </defs>
    <g clip-path="url(#pcc93827b9f)">
     <use xlink:href="#m57abb6c35d" x="176.710978" y="214.504122" style="fill: #1f77b4; fill-opacity: 0.8; stroke: #1f77b4; stroke-opacity: 0.8"/>
     <use xlink:href="#m57abb6c35d" x="137.155553" y="303.003511" style="fill: #1f77b4; fill-opacity: 0.8; stroke: #1f77b4; stroke-opacity: 0.8"/>
     <use xlink:href="#m57abb6c35d" x="163.44101" y="227.309731" style="fill: #1f77b4; fill-opacity: 0.8; stroke: #1f77b4; stroke-opacity: 0.8"/>
     <use xlink:href="#m57abb6c35d" x="109.027119" y="175.844391" style="fill: #1f77b4; fill-opacity: 0.8; stroke: #1f77b4; stroke-opacity: 0.8"/>
     <use xlink:href="#m57abb6c35d" x="118.026055" y="250.323908" style="fill: #1f77b4; fill-opacity: 0.8; stroke: #1f77b4; stroke-opacity: 0.8"/>
     <use xlink:href="#m57abb6c35d" x="149.896987" y="275.981981" style="fill: #1f77b4; fill-opacity: 0.8; stroke: #1f77b4; stroke-opacity: 0.8"/>
     <use xlink:href="#m57abb6c35d" x="52.283754" y="291.700924" style="fill: #1f77b4; fill-opacity: 0.8; stroke: #1f77b4; stroke-opacity: 0.8"/>
     <use xlink:href="#m57abb6c35d" x="66.834607" y="305.394077" style="fill: #1f77b4; fill-opacity: 0.8; stroke: #1f77b4; stroke-opacity: 0.8"/>
     <use xlink:href="#m57abb6c35d" x="165.547475" y="306.87492" style="fill: #1f77b4; fill-opacity: 0.8; stroke: #1f77b4; stroke-opacity: 0.8"/>
     <use xlink:href="#m57abb6c35d" x="82.183468" y="313.364019" style="fill: #1f77b4; fill-opacity: 0.8; stroke: #1f77b4; stroke-opacity: 0.8"/>
     <use xlink:href="#m57abb6c35d" x="57.619087" y="250.380272" style="fill: #1f77b4; fill-opacity: 0.8; stroke: #1f77b4; stroke-opacity: 0.8"/>
     <use xlink:href="#m57abb6c35d" x="70.673195" y="194.706923" style="fill: #1f77b4; fill-opacity: 0.8; stroke: #1f77b4; stroke-opacity: 0.8"/>
     <use xlink:href="#m57abb6c35d" x="72.705506" y="185.34084" style="fill: #1f77b4; fill-opacity: 0.8; stroke: #1f77b4; stroke-opacity: 0.8"/>
     <use xlink:href="#m57abb6c35d" x="157.147876" y="190.303599" style="fill: #1f77b4; fill-opacity: 0.8; stroke: #1f77b4; stroke-opacity: 0.8"/>
     <use xlink:href="#m57abb6c35d" x="70.421914" y="183.847455" style="fill: #1f77b4; fill-opacity: 0.8; stroke: #1f77b4; stroke-opacity: 0.8"/>
     <use xlink:href="#m57abb6c35d" x="130.677368" y="235.572401" style="fill: #1f77b4; fill-opacity: 0.8; stroke: #1f77b4; stroke-opacity: 0.8"/>
     <use xlink:href="#m57abb6c35d" x="185.758826" y="310.901327" style="fill: #1f77b4; fill-opacity: 0.8; stroke: #1f77b4; stroke-opacity: 0.8"/>
     <use xlink:href="#m57abb6c35d" x="103.174589" y="304.15686" style="fill: #1f77b4; fill-opacity: 0.8; stroke: #1f77b4; stroke-opacity: 0.8"/>
    </g>
   </g>
   <g id="PolyCollection_1">
    <path d="M 52.283754 198.340962 
L 52.283754 286.315597 
L 53.631987 285.709325 
L 54.98022 285.31384 
L 56.328453 284.551044 
L 57.676686 284.04522 
L 59.024919 283.775825 
L 60.373152 283.317904 
L 61.721385 282.824321 
L 63.069618 282.414095 
L 64.417851 282.203391 
L 65.766084 281.992686 
L 67.114317 281.772601 
L 68.46255 281.239158 
L 69.810783 280.943431 
L 71.159016 280.403548 
L 72.50725 280.100059 
L 73.855483 279.79657 
L 75.203716 279.790222 
L 76.551949 279.498828 
L 77.900182 278.885279 
L 79.248415 278.533985 
L 80.596648 278.271046 
L 81.944881 277.971923 
L 83.293114 277.58484 
L 84.641347 276.980869 
L 85.98958 276.924745 
L 87.337813 276.751858 
L 88.686046 276.588727 
L 90.034279 276.136565 
L 91.382512 275.843422 
L 92.730745 275.537824 
L 94.078978 275.236849 
L 95.427211 274.942312 
L 96.775445 274.667087 
L 98.123678 274.321901 
L 99.471911 274.022944 
L 100.820144 273.940242 
L 102.168377 273.941397 
L 103.51661 273.728156 
L 104.864843 273.446749 
L 106.213076 273.15804 
L 107.561309 273.296894 
L 108.909542 272.941199 
L 110.257775 272.910765 
L 111.606008 273.184552 
L 112.954241 273.241879 
L 114.302474 273.240397 
L 115.650707 273.56773 
L 116.99894 274.007989 
L 118.347173 273.78457 
L 119.695407 273.930771 
L 121.04364 273.874938 
L 122.391873 274.130691 
L 123.740106 274.7253 
L 125.088339 274.916411 
L 126.436572 274.470928 
L 127.784805 274.565661 
L 129.133038 275.248601 
L 130.481271 275.916252 
L 131.829504 276.019533 
L 133.177737 276.701926 
L 134.52597 277.420618 
L 135.874203 278.145633 
L 137.222436 278.735407 
L 138.570669 279.098089 
L 139.918902 279.452588 
L 141.267135 280.084229 
L 142.615369 280.611966 
L 143.963602 281.121331 
L 145.311835 281.450849 
L 146.660068 281.777854 
L 148.008301 282.105548 
L 149.356534 282.444386 
L 150.704767 282.788733 
L 152.053 283.141535 
L 153.401233 284.067611 
L 154.749466 284.989644 
L 156.097699 285.901324 
L 157.445932 286.342007 
L 158.794165 287.547429 
L 160.142398 287.963437 
L 161.490631 288.495619 
L 162.838864 288.776737 
L 164.187097 289.164034 
L 165.535331 290.242523 
L 166.883564 290.934273 
L 168.231797 291.337466 
L 169.58003 291.732527 
L 170.928263 292.36274 
L 172.276496 293.172233 
L 173.624729 293.974012 
L 174.972962 294.680267 
L 176.321195 295.172984 
L 177.669428 296.191352 
L 179.017661 296.65261 
L 180.365894 297.537418 
L 181.714127 298.418787 
L 183.06236 299.214619 
L 184.410593 299.833084 
L 185.758826 300.856315 
L 185.758826 217.227776 
L 185.758826 217.227776 
L 184.410593 217.823808 
L 183.06236 218.078275 
L 181.714127 218.667767 
L 180.365894 219.443292 
L 179.017661 219.740638 
L 177.669428 220.073794 
L 176.321195 220.852083 
L 174.972962 221.564806 
L 173.624729 221.876131 
L 172.276496 222.020214 
L 170.928263 222.475499 
L 169.58003 222.72671 
L 168.231797 223.162575 
L 166.883564 223.513759 
L 165.535331 223.734491 
L 164.187097 224.278715 
L 162.838864 224.594832 
L 161.490631 225.092671 
L 160.142398 225.315843 
L 158.794165 225.479941 
L 157.445932 225.64404 
L 156.097699 225.813096 
L 154.749466 225.980736 
L 153.401233 226.138011 
L 152.053 226.065143 
L 150.704767 226.187289 
L 149.356534 226.433557 
L 148.008301 226.679825 
L 146.660068 226.820276 
L 145.311835 227.077204 
L 143.963602 227.28503 
L 142.615369 227.48141 
L 141.267135 227.700036 
L 139.918902 227.918661 
L 138.570669 228.219709 
L 137.222436 228.649972 
L 135.874203 228.896241 
L 134.52597 228.824427 
L 133.177737 229.018094 
L 131.829504 229.065265 
L 130.481271 229.376338 
L 129.133038 229.131435 
L 127.784805 229.245964 
L 126.436572 229.344489 
L 125.088339 229.165255 
L 123.740106 228.866439 
L 122.391873 228.446488 
L 121.04364 228.260852 
L 119.695407 227.94991 
L 118.347173 227.558982 
L 116.99894 227.503429 
L 115.650707 227.329572 
L 114.302474 227.214057 
L 112.954241 226.781671 
L 111.606008 226.524583 
L 110.257775 226.374798 
L 108.909542 226.243772 
L 107.561309 225.670693 
L 106.213076 225.508928 
L 104.864843 224.958294 
L 103.51661 224.64705 
L 102.168377 224.229233 
L 100.820144 223.72407 
L 99.471911 223.602342 
L 98.123678 223.06916 
L 96.775445 222.255515 
L 95.427211 221.739473 
L 94.078978 221.077671 
L 92.730745 220.409326 
L 91.382512 219.747213 
L 90.034279 219.079791 
L 88.686046 218.674394 
L 87.337813 218.403786 
L 85.98958 217.881158 
L 84.641347 217.289514 
L 83.293114 216.326576 
L 81.944881 215.446268 
L 80.596648 214.423492 
L 79.248415 213.750247 
L 77.900182 212.866851 
L 76.551949 211.937663 
L 75.203716 210.701393 
L 73.855483 209.823639 
L 72.50725 209.586736 
L 71.159016 209.212869 
L 69.810783 208.233209 
L 68.46255 207.551585 
L 67.114317 206.75056 
L 65.766084 205.717696 
L 64.417851 204.801622 
L 63.069618 204.075851 
L 61.721385 203.352315 
L 60.373152 202.639067 
L 59.024919 201.925818 
L 57.676686 201.21257 
L 56.328453 200.532842 
L 54.98022 199.989003 
L 53.631987 199.261975 
L 52.283754 198.340962 
z
" clip-path="url(#pcc93827b9f)" style="fill: #008000; fill-opacity: 0.15"/>
   </g>
   <g id="matplotlib.axis_2">
    <g id="xtick_4">
     <g id="line2d_4">
      <g>
       <use xlink:href="#me9e8ee28f6" x="72.806761" y="320.24" style="stroke: #000000; stroke-width: 0.8"/>
      </g>
     </g>
     <g id="text_3">
      <!-- 2 -->
      <g transform="translate(69.625511 334.838438) scale(0.1 -0.1)">
       <defs>
        <path id="DejaVuSans-32" d="M 1228 531 
L 3431 531 
L 3431 0 
L 469 0 
L 469 531 
Q 828 903 1448 1529 
Q 2069 2156 2228 2338 
Q 2531 2678 2651 2914 
Q 2772 3150 2772 3378 
Q 2772 3750 2511 3984 
Q 2250 4219 1831 4219 
Q 1534 4219 1204 4116 
Q 875 4013 500 3803 
L 500 4441 
Q 881 4594 1212 4672 
Q 1544 4750 1819 4750 
Q 2544 4750 2975 4387 
Q 3406 4025 3406 3419 
Q 3406 3131 3298 2873 
Q 3191 2616 2906 2266 
Q 2828 2175 2409 1742 
Q 1991 1309 1228 531 
z
" transform="scale(0.015625)"/>
       </defs>
       <use xlink:href="#DejaVuSans-32"/>
      </g>
     </g>
    </g>
    <g id="xtick_5">
     <g id="line2d_5">
      <g>
       <use xlink:href="#me9e8ee28f6" x="119.699005" y="320.24" style="stroke: #000000; stroke-width: 0.8"/>
      </g>
     </g>
     <g id="text_4">
      <!-- 4 -->
      <g transform="translate(116.517755 334.838438) scale(0.1 -0.1)">
       <defs>
        <path id="DejaVuSans-34" d="M 2419 4116 
L 825 1625 
L 2419 1625 
L 2419 4116 
z
M 2253 4666 
L 3047 4666 
L 3047 1625 
L 3713 1625 
L 3713 1100 
L 3047 1100 
L 3047 0 
L 2419 0 
L 2419 1100 
L 313 1100 
L 313 1709 
L 2253 4666 
z
" transform="scale(0.015625)"/>
       </defs>
       <use xlink:href="#DejaVuSans-34"/>
      </g>
     </g>
    </g>
    <g id="xtick_6">
     <g id="line2d_6">
      <g>
       <use xlink:href="#me9e8ee28f6" x="166.59125" y="320.24" style="stroke: #000000; stroke-width: 0.8"/>
      </g>
     </g>
     <g id="text_5">
      <!-- 6 -->
      <g transform="translate(163.41 334.838438) scale(0.1 -0.1)">
       <defs>
        <path id="DejaVuSans-36" d="M 2113 2584 
Q 1688 2584 1439 2293 
Q 1191 2003 1191 1497 
Q 1191 994 1439 701 
Q 1688 409 2113 409 
Q 2538 409 2786 701 
Q 3034 994 3034 1497 
Q 3034 2003 2786 2293 
Q 2538 2584 2113 2584 
z
M 3366 4563 
L 3366 3988 
Q 3128 4100 2886 4159 
Q 2644 4219 2406 4219 
Q 1781 4219 1451 3797 
Q 1122 3375 1075 2522 
Q 1259 2794 1537 2939 
Q 1816 3084 2150 3084 
Q 2853 3084 3261 2657 
Q 3669 2231 3669 1497 
Q 3669 778 3244 343 
Q 2819 -91 2113 -91 
Q 1303 -91 875 529 
Q 447 1150 447 2328 
Q 447 3434 972 4092 
Q 1497 4750 2381 4750 
Q 2619 4750 2861 4703 
Q 3103 4656 3366 4563 
z
" transform="scale(0.015625)"/>
       </defs>
       <use xlink:href="#DejaVuSans-36"/>
      </g>
     </g>
    </g>
    <g id="text_6">
     <!-- dec temp -->
     <g transform="translate(95.350978 348.516563) scale(0.1 -0.1)">
      <defs>
       <path id="DejaVuSans-64" d="M 2906 2969 
L 2906 4863 
L 3481 4863 
L 3481 0 
L 2906 0 
L 2906 525 
Q 2725 213 2448 61 
Q 2172 -91 1784 -91 
Q 1150 -91 751 415 
Q 353 922 353 1747 
Q 353 2572 751 3078 
Q 1150 3584 1784 3584 
Q 2172 3584 2448 3432 
Q 2725 3281 2906 2969 
z
M 947 1747 
Q 947 1113 1208 752 
Q 1469 391 1925 391 
Q 2381 391 2643 752 
Q 2906 1113 2906 1747 
Q 2906 2381 2643 2742 
Q 2381 3103 1925 3103 
Q 1469 3103 1208 2742 
Q 947 2381 947 1747 
z
" transform="scale(0.015625)"/>
       <path id="DejaVuSans-65" d="M 3597 1894 
L 3597 1613 
L 953 1613 
Q 991 1019 1311 708 
Q 1631 397 2203 397 
Q 2534 397 2845 478 
Q 3156 559 3463 722 
L 3463 178 
Q 3153 47 2828 -22 
Q 2503 -91 2169 -91 
Q 1331 -91 842 396 
Q 353 884 353 1716 
Q 353 2575 817 3079 
Q 1281 3584 2069 3584 
Q 2775 3584 3186 3129 
Q 3597 2675 3597 1894 
z
M 3022 2063 
Q 3016 2534 2758 2815 
Q 2500 3097 2075 3097 
Q 1594 3097 1305 2825 
Q 1016 2553 972 2059 
L 3022 2063 
z
" transform="scale(0.015625)"/>
       <path id="DejaVuSans-63" d="M 3122 3366 
L 3122 2828 
Q 2878 2963 2633 3030 
Q 2388 3097 2138 3097 
Q 1578 3097 1268 2742 
Q 959 2388 959 1747 
Q 959 1106 1268 751 
Q 1578 397 2138 397 
Q 2388 397 2633 464 
Q 2878 531 3122 666 
L 3122 134 
Q 2881 22 2623 -34 
Q 2366 -91 2075 -91 
Q 1284 -91 818 406 
Q 353 903 353 1747 
Q 353 2603 823 3093 
Q 1294 3584 2113 3584 
Q 2378 3584 2631 3529 
Q 2884 3475 3122 3366 
z
" transform="scale(0.015625)"/>
       <path id="DejaVuSans-74" d="M 1172 4494 
L 1172 3500 
L 2356 3500 
L 2356 3053 
L 1172 3053 
L 1172 1153 
Q 1172 725 1289 603 
Q 1406 481 1766 481 
L 2356 481 
L 2356 0 
L 1766 0 
Q 1100 0 847 248 
Q 594 497 594 1153 
L 594 3053 
L 172 3053 
L 172 3500 
L 594 3500 
L 594 4494 
L 1172 4494 
z
" transform="scale(0.015625)"/>
       <path id="DejaVuSans-6d" d="M 3328 2828 
Q 3544 3216 3844 3400 
Q 4144 3584 4550 3584 
Q 5097 3584 5394 3201 
Q 5691 2819 5691 2113 
L 5691 0 
L 5113 0 
L 5113 2094 
Q 5113 2597 4934 2840 
Q 4756 3084 4391 3084 
Q 3944 3084 3684 2787 
Q 3425 2491 3425 1978 
L 3425 0 
L 2847 0 
L 2847 2094 
Q 2847 2600 2669 2842 
Q 2491 3084 2119 3084 
Q 1678 3084 1418 2786 
Q 1159 2488 1159 1978 
L 1159 0 
L 581 0 
L 581 3500 
L 1159 3500 
L 1159 2956 
Q 1356 3278 1631 3431 
Q 1906 3584 2284 3584 
Q 2666 3584 2933 3390 
Q 3200 3197 3328 2828 
z
" transform="scale(0.015625)"/>
      </defs>
      <use xlink:href="#DejaVuSans-64"/>
      <use xlink:href="#DejaVuSans-65" x="63.476562"/>
      <use xlink:href="#DejaVuSans-63" x="125"/>
      <use xlink:href="#DejaVuSans-20" x="179.980469"/>
      <use xlink:href="#DejaVuSans-74" x="211.767578"/>
      <use xlink:href="#DejaVuSans-65" x="250.976562"/>
      <use xlink:href="#DejaVuSans-6d" x="312.5"/>
      <use xlink:href="#DejaVuSans-70" x="409.912109"/>
     </g>
    </g>
   </g>
   <g id="matplotlib.axis_3">
    <g id="ytick_1">
     <g id="line2d_7">
      <defs>
       <path id="mb5d7e7f07a" d="M 0 0 
L -3.5 0 
" style="stroke: #000000; stroke-width: 0.8"/>
      </defs>
      <g>
       <use xlink:href="#mb5d7e7f07a" x="45.61" y="313.774369" style="stroke: #000000; stroke-width: 0.8"/>
      </g>
     </g>
     <g id="text_7">
      <!-- 0.0 -->
      <g transform="translate(22.706875 317.573588) scale(0.1 -0.1)">
       <use xlink:href="#DejaVuSans-30"/>
       <use xlink:href="#DejaVuSans-2e" x="63.623047"/>
       <use xlink:href="#DejaVuSans-30" x="95.410156"/>
      </g>
     </g>
    </g>
    <g id="ytick_2">
     <g id="line2d_8">
      <g>
       <use xlink:href="#mb5d7e7f07a" x="45.61" y="285.508671" style="stroke: #000000; stroke-width: 0.8"/>
      </g>
     </g>
     <g id="text_8">
      <!-- 0.2 -->
      <g transform="translate(22.706875 289.30789) scale(0.1 -0.1)">
       <use xlink:href="#DejaVuSans-30"/>
       <use xlink:href="#DejaVuSans-2e" x="63.623047"/>
       <use xlink:href="#DejaVuSans-32" x="95.410156"/>
      </g>
     </g>
    </g>
    <g id="ytick_3">
     <g id="line2d_9">
      <g>
       <use xlink:href="#mb5d7e7f07a" x="45.61" y="257.242973" style="stroke: #000000; stroke-width: 0.8"/>
      </g>
     </g>
     <g id="text_9">
      <!-- 0.4 -->
      <g transform="translate(22.706875 261.042192) scale(0.1 -0.1)">
       <use xlink:href="#DejaVuSans-30"/>
       <use xlink:href="#DejaVuSans-2e" x="63.623047"/>
       <use xlink:href="#DejaVuSans-34" x="95.410156"/>
      </g>
     </g>
    </g>
    <g id="ytick_4">
     <g id="line2d_10">
      <g>
       <use xlink:href="#mb5d7e7f07a" x="45.61" y="228.977275" style="stroke: #000000; stroke-width: 0.8"/>
      </g>
     </g>
     <g id="text_10">
      <!-- 0.6 -->
      <g transform="translate(22.706875 232.776494) scale(0.1 -0.1)">
       <use xlink:href="#DejaVuSans-30"/>
       <use xlink:href="#DejaVuSans-2e" x="63.623047"/>
       <use xlink:href="#DejaVuSans-36" x="95.410156"/>
      </g>
     </g>
    </g>
    <g id="ytick_5">
     <g id="line2d_11">
      <g>
       <use xlink:href="#mb5d7e7f07a" x="45.61" y="200.711577" style="stroke: #000000; stroke-width: 0.8"/>
      </g>
     </g>
     <g id="text_11">
      <!-- 0.8 -->
      <g transform="translate(22.706875 204.510796) scale(0.1 -0.1)">
       <defs>
        <path id="DejaVuSans-38" d="M 2034 2216 
Q 1584 2216 1326 1975 
Q 1069 1734 1069 1313 
Q 1069 891 1326 650 
Q 1584 409 2034 409 
Q 2484 409 2743 651 
Q 3003 894 3003 1313 
Q 3003 1734 2745 1975 
Q 2488 2216 2034 2216 
z
M 1403 2484 
Q 997 2584 770 2862 
Q 544 3141 544 3541 
Q 544 4100 942 4425 
Q 1341 4750 2034 4750 
Q 2731 4750 3128 4425 
Q 3525 4100 3525 3541 
Q 3525 3141 3298 2862 
Q 3072 2584 2669 2484 
Q 3125 2378 3379 2068 
Q 3634 1759 3634 1313 
Q 3634 634 3220 271 
Q 2806 -91 2034 -91 
Q 1263 -91 848 271 
Q 434 634 434 1313 
Q 434 1759 690 2068 
Q 947 2378 1403 2484 
z
M 1172 3481 
Q 1172 3119 1398 2916 
Q 1625 2713 2034 2713 
Q 2441 2713 2670 2916 
Q 2900 3119 2900 3481 
Q 2900 3844 2670 4047 
Q 2441 4250 2034 4250 
Q 1625 4250 1398 4047 
Q 1172 3844 1172 3481 
z
" transform="scale(0.015625)"/>
       </defs>
       <use xlink:href="#DejaVuSans-30"/>
       <use xlink:href="#DejaVuSans-2e" x="63.623047"/>
       <use xlink:href="#DejaVuSans-38" x="95.410156"/>
      </g>
     </g>
    </g>
    <g id="ytick_6">
     <g id="line2d_12">
      <g>
       <use xlink:href="#mb5d7e7f07a" x="45.61" y="172.445879" style="stroke: #000000; stroke-width: 0.8"/>
      </g>
     </g>
     <g id="text_12">
      <!-- 1.0 -->
      <g transform="translate(22.706875 176.245098) scale(0.1 -0.1)">
       <use xlink:href="#DejaVuSans-31"/>
       <use xlink:href="#DejaVuSans-2e" x="63.623047"/>
       <use xlink:href="#DejaVuSans-30" x="95.410156"/>
      </g>
     </g>
    </g>
    <g id="text_13">
     <!-- reward rate -->
     <g transform="translate(16.627188 273.664361) rotate(-90) scale(0.1 -0.1)">
      <defs>
       <path id="DejaVuSans-77" d="M 269 3500 
L 844 3500 
L 1563 769 
L 2278 3500 
L 2956 3500 
L 3675 769 
L 4391 3500 
L 4966 3500 
L 4050 0 
L 3372 0 
L 2619 2869 
L 1863 0 
L 1184 0 
L 269 3500 
z
" transform="scale(0.015625)"/>
       <path id="DejaVuSans-61" d="M 2194 1759 
Q 1497 1759 1228 1600 
Q 959 1441 959 1056 
Q 959 750 1161 570 
Q 1363 391 1709 391 
Q 2188 391 2477 730 
Q 2766 1069 2766 1631 
L 2766 1759 
L 2194 1759 
z
M 3341 1997 
L 3341 0 
L 2766 0 
L 2766 531 
Q 2569 213 2275 61 
Q 1981 -91 1556 -91 
Q 1019 -91 701 211 
Q 384 513 384 1019 
Q 384 1609 779 1909 
Q 1175 2209 1959 2209 
L 2766 2209 
L 2766 2266 
Q 2766 2663 2505 2880 
Q 2244 3097 1772 3097 
Q 1472 3097 1187 3025 
Q 903 2953 641 2809 
L 641 3341 
Q 956 3463 1253 3523 
Q 1550 3584 1831 3584 
Q 2591 3584 2966 3190 
Q 3341 2797 3341 1997 
z
" transform="scale(0.015625)"/>
      </defs>
      <use xlink:href="#DejaVuSans-72"/>
      <use xlink:href="#DejaVuSans-65" x="38.863281"/>
      <use xlink:href="#DejaVuSans-77" x="100.386719"/>
      <use xlink:href="#DejaVuSans-61" x="182.173828"/>
      <use xlink:href="#DejaVuSans-72" x="243.453125"/>
      <use xlink:href="#DejaVuSans-64" x="282.816406"/>
      <use xlink:href="#DejaVuSans-20" x="346.292969"/>
      <use xlink:href="#DejaVuSans-72" x="378.080078"/>
      <use xlink:href="#DejaVuSans-61" x="419.193359"/>
      <use xlink:href="#DejaVuSans-74" x="480.472656"/>
      <use xlink:href="#DejaVuSans-65" x="519.681641"/>
     </g>
    </g>
   </g>
   <g id="line2d_13">
    <path d="M 52.283754 244.100924 
L 53.631987 244.251136 
L 54.98022 244.401348 
L 56.328453 244.551559 
L 57.676686 244.701771 
L 59.024919 244.851983 
L 60.373152 245.002195 
L 61.721385 245.152407 
L 63.069618 245.302619 
L 64.417851 245.45283 
L 65.766084 245.603042 
L 67.114317 245.753254 
L 68.46255 245.903466 
L 69.810783 246.053678 
L 71.159016 246.20389 
L 72.50725 246.354101 
L 73.855483 246.504313 
L 75.203716 246.654525 
L 76.551949 246.804737 
L 77.900182 246.954949 
L 79.248415 247.105161 
L 80.596648 247.255372 
L 81.944881 247.405584 
L 83.293114 247.555796 
L 84.641347 247.706008 
L 85.98958 247.85622 
L 87.337813 248.006432 
L 88.686046 248.156643 
L 90.034279 248.306855 
L 91.382512 248.457067 
L 92.730745 248.607279 
L 94.078978 248.757491 
L 95.427211 248.907703 
L 96.775445 249.057914 
L 98.123678 249.208126 
L 99.471911 249.358338 
L 100.820144 249.50855 
L 102.168377 249.658762 
L 103.51661 249.808974 
L 104.864843 249.959185 
L 106.213076 250.109397 
L 107.561309 250.259609 
L 108.909542 250.409821 
L 110.257775 250.560033 
L 111.606008 250.710245 
L 112.954241 250.860456 
L 114.302474 251.010668 
L 115.650707 251.16088 
L 116.99894 251.311092 
L 118.347173 251.461304 
L 119.695407 251.611516 
L 121.04364 251.761727 
L 122.391873 251.911939 
L 123.740106 252.062151 
L 125.088339 252.212363 
L 126.436572 252.362575 
L 127.784805 252.512787 
L 129.133038 252.662998 
L 130.481271 252.81321 
L 131.829504 252.963422 
L 133.177737 253.113634 
L 134.52597 253.263846 
L 135.874203 253.414058 
L 137.222436 253.564269 
L 138.570669 253.714481 
L 139.918902 253.864693 
L 141.267135 254.014905 
L 142.615369 254.165117 
L 143.963602 254.315329 
L 145.311835 254.46554 
L 146.660068 254.615752 
L 148.008301 254.765964 
L 149.356534 254.916176 
L 150.704767 255.066388 
L 152.053 255.2166 
L 153.401233 255.366811 
L 154.749466 255.517023 
L 156.097699 255.667235 
L 157.445932 255.817447 
L 158.794165 255.967659 
L 160.142398 256.117871 
L 161.490631 256.268082 
L 162.838864 256.418294 
L 164.187097 256.568506 
L 165.535331 256.718718 
L 166.883564 256.86893 
L 168.231797 257.019142 
L 169.58003 257.169353 
L 170.928263 257.319565 
L 172.276496 257.469777 
L 173.624729 257.619989 
L 174.972962 257.770201 
L 176.321195 257.920413 
L 177.669428 258.070624 
L 179.017661 258.220836 
L 180.365894 258.371048 
L 181.714127 258.52126 
L 183.06236 258.671472 
L 184.410593 258.821684 
L 185.758826 258.971895 
" clip-path="url(#pcc93827b9f)" style="fill: none; stroke: #008000; stroke-opacity: 0.6; stroke-width: 2.25; stroke-linecap: square"/>
   </g>
   <g id="patch_5">
    <path d="M 45.61 320.24 
L 45.61 168.968409 
" style="fill: none; stroke: #000000; stroke-width: 0.8; stroke-linejoin: miter; stroke-linecap: square"/>
   </g>
   <g id="patch_6">
    <path d="M 45.61 320.24 
L 192.43258 320.24 
" style="fill: none; stroke: #000000; stroke-width: 0.8; stroke-linejoin: miter; stroke-linecap: square"/>
   </g>
   <g id="text_14">
    <!-- r = -0.10  -->
    <g transform="translate(60.292258 184.095568) scale(0.1 -0.1)">
     <defs>
      <path id="DejaVuSans-2d" d="M 313 2009 
L 1997 2009 
L 1997 1497 
L 313 1497 
L 313 2009 
z
" transform="scale(0.015625)"/>
     </defs>
     <use xlink:href="#DejaVuSans-72"/>
     <use xlink:href="#DejaVuSans-20" x="41.113281"/>
     <use xlink:href="#DejaVuSans-3d" x="72.900391"/>
     <use xlink:href="#DejaVuSans-20" x="156.689453"/>
     <use xlink:href="#DejaVuSans-2d" x="188.476562"/>
     <use xlink:href="#DejaVuSans-30" x="224.560547"/>
     <use xlink:href="#DejaVuSans-2e" x="288.183594"/>
     <use xlink:href="#DejaVuSans-31" x="319.970703"/>
     <use xlink:href="#DejaVuSans-30" x="383.59375"/>
     <use xlink:href="#DejaVuSans-20" x="447.216797"/>
    </g>
   </g>
   <g id="text_15">
    <!-- p = 0.702 -->
    <g transform="translate(119.02129 184.095568) scale(0.1 -0.1)">
     <defs>
      <path id="DejaVuSans-37" d="M 525 4666 
L 3525 4666 
L 3525 4397 
L 1831 0 
L 1172 0 
L 2766 4134 
L 525 4134 
L 525 4666 
z
" transform="scale(0.015625)"/>
     </defs>
     <use xlink:href="#DejaVuSans-70"/>
     <use xlink:href="#DejaVuSans-20" x="63.476562"/>
     <use xlink:href="#DejaVuSans-3d" x="95.263672"/>
     <use xlink:href="#DejaVuSans-20" x="179.052734"/>
     <use xlink:href="#DejaVuSans-30" x="210.839844"/>
     <use xlink:href="#DejaVuSans-2e" x="274.462891"/>
     <use xlink:href="#DejaVuSans-37" x="306.25"/>
     <use xlink:href="#DejaVuSans-30" x="369.873047"/>
     <use xlink:href="#DejaVuSans-32" x="433.496094"/>
    </g>
   </g>
  </g>
  <g id="axes_3">
   <g id="patch_7">
    <path d="M 199.684915 320.24 
L 346.507495 320.24 
L 346.507495 168.968409 
L 199.684915 168.968409 
z
" style="fill: #ffffff"/>
   </g>
   <g id="matplotlib.axis_4">
    <g id="xtick_7">
     <g id="line2d_14">
      <g>
       <use xlink:href="#me9e8ee28f6" x="205.960387" y="320.24" style="stroke: #000000; stroke-width: 0.8"/>
      </g>
     </g>
     <g id="text_16">
      <!-- 0.0 -->
      <g transform="translate(198.008825 334.838438) scale(0.1 -0.1)">
       <use xlink:href="#DejaVuSans-30"/>
       <use xlink:href="#DejaVuSans-2e" x="63.623047"/>
       <use xlink:href="#DejaVuSans-30" x="95.410156"/>
      </g>
     </g>
    </g>
    <g id="xtick_8">
     <g id="line2d_15">
      <g>
       <use xlink:href="#me9e8ee28f6" x="274.546344" y="320.24" style="stroke: #000000; stroke-width: 0.8"/>
      </g>
     </g>
     <g id="text_17">
      <!-- 0.5 -->
      <g transform="translate(266.594781 334.838438) scale(0.1 -0.1)">
       <defs>
        <path id="DejaVuSans-35" d="M 691 4666 
L 3169 4666 
L 3169 4134 
L 1269 4134 
L 1269 2991 
Q 1406 3038 1543 3061 
Q 1681 3084 1819 3084 
Q 2600 3084 3056 2656 
Q 3513 2228 3513 1497 
Q 3513 744 3044 326 
Q 2575 -91 1722 -91 
Q 1428 -91 1123 -41 
Q 819 9 494 109 
L 494 744 
Q 775 591 1075 516 
Q 1375 441 1709 441 
Q 2250 441 2565 725 
Q 2881 1009 2881 1497 
Q 2881 1984 2565 2268 
Q 2250 2553 1709 2553 
Q 1456 2553 1204 2497 
Q 953 2441 691 2322 
L 691 4666 
z
" transform="scale(0.015625)"/>
       </defs>
       <use xlink:href="#DejaVuSans-30"/>
       <use xlink:href="#DejaVuSans-2e" x="63.623047"/>
       <use xlink:href="#DejaVuSans-35" x="95.410156"/>
      </g>
     </g>
    </g>
    <g id="xtick_9">
     <g id="line2d_16">
      <g>
       <use xlink:href="#me9e8ee28f6" x="343.1323" y="320.24" style="stroke: #000000; stroke-width: 0.8"/>
      </g>
     </g>
     <g id="text_18">
      <!-- 1.0 -->
      <g transform="translate(335.180738 334.838438) scale(0.1 -0.1)">
       <use xlink:href="#DejaVuSans-31"/>
       <use xlink:href="#DejaVuSans-2e" x="63.623047"/>
       <use xlink:href="#DejaVuSans-30" x="95.410156"/>
      </g>
     </g>
    </g>
    <g id="text_19">
     <!-- reward rate -->
     <g transform="translate(244.036049 348.516563) scale(0.1 -0.1)">
      <use xlink:href="#DejaVuSans-72"/>
      <use xlink:href="#DejaVuSans-65" x="38.863281"/>
      <use xlink:href="#DejaVuSans-77" x="100.386719"/>
      <use xlink:href="#DejaVuSans-61" x="182.173828"/>
      <use xlink:href="#DejaVuSans-72" x="243.453125"/>
      <use xlink:href="#DejaVuSans-64" x="282.816406"/>
      <use xlink:href="#DejaVuSans-20" x="346.292969"/>
      <use xlink:href="#DejaVuSans-72" x="378.080078"/>
      <use xlink:href="#DejaVuSans-61" x="419.193359"/>
      <use xlink:href="#DejaVuSans-74" x="480.472656"/>
      <use xlink:href="#DejaVuSans-65" x="519.681641"/>
     </g>
    </g>
   </g>
   <g id="patch_8">
    <path d="M 199.684915 320.24 
L 346.507495 320.24 
" style="fill: none; stroke: #000000; stroke-width: 0.8; stroke-linejoin: miter; stroke-linecap: square"/>
   </g>
   <g id="text_20">
    <!-- r = 1.00  -->
    <g transform="translate(214.367173 184.095568) scale(0.1 -0.1)">
     <use xlink:href="#DejaVuSans-72"/>
     <use xlink:href="#DejaVuSans-20" x="41.113281"/>
     <use xlink:href="#DejaVuSans-3d" x="72.900391"/>
     <use xlink:href="#DejaVuSans-20" x="156.689453"/>
     <use xlink:href="#DejaVuSans-31" x="188.476562"/>
     <use xlink:href="#DejaVuSans-2e" x="252.099609"/>
     <use xlink:href="#DejaVuSans-30" x="283.886719"/>
     <use xlink:href="#DejaVuSans-30" x="347.509766"/>
     <use xlink:href="#DejaVuSans-20" x="411.132812"/>
    </g>
   </g>
   <g id="text_21">
    <!-- p = 0.000 -->
    <g transform="translate(273.096205 184.095568) scale(0.1 -0.1)">
     <use xlink:href="#DejaVuSans-70"/>
     <use xlink:href="#DejaVuSans-20" x="63.476562"/>
     <use xlink:href="#DejaVuSans-3d" x="95.263672"/>
     <use xlink:href="#DejaVuSans-20" x="179.052734"/>
     <use xlink:href="#DejaVuSans-30" x="210.839844"/>
     <use xlink:href="#DejaVuSans-2e" x="274.462891"/>
     <use xlink:href="#DejaVuSans-30" x="306.25"/>
     <use xlink:href="#DejaVuSans-30" x="369.873047"/>
     <use xlink:href="#DejaVuSans-30" x="433.496094"/>
    </g>
   </g>
  </g>
  <g id="axes_4">
   <g id="patch_9">
    <path d="M 52.283754 159.871591 
L 74.529599 159.871591 
L 74.529599 36.384578 
L 52.283754 36.384578 
z
" clip-path="url(#p9a46fe8340)" style="fill: #1f77b4; fill-opacity: 0.75; stroke: #000000; stroke-linejoin: miter"/>
   </g>
   <g id="patch_10">
    <path d="M 74.529599 159.871591 
L 96.775445 159.871591 
L 96.775445 139.290422 
L 74.529599 139.290422 
z
" clip-path="url(#p9a46fe8340)" style="fill: #1f77b4; fill-opacity: 0.75; stroke: #000000; stroke-linejoin: miter"/>
   </g>
   <g id="patch_11">
    <path d="M 96.775445 159.871591 
L 119.02129 159.871591 
L 119.02129 98.128084 
L 96.775445 98.128084 
z
" clip-path="url(#p9a46fe8340)" style="fill: #1f77b4; fill-opacity: 0.75; stroke: #000000; stroke-linejoin: miter"/>
   </g>
   <g id="patch_12">
    <path d="M 119.02129 159.871591 
L 141.267135 159.871591 
L 141.267135 118.709253 
L 119.02129 118.709253 
z
" clip-path="url(#p9a46fe8340)" style="fill: #1f77b4; fill-opacity: 0.75; stroke: #000000; stroke-linejoin: miter"/>
   </g>
   <g id="patch_13">
    <path d="M 141.267135 159.871591 
L 163.512981 159.871591 
L 163.512981 98.128084 
L 141.267135 98.128084 
z
" clip-path="url(#p9a46fe8340)" style="fill: #1f77b4; fill-opacity: 0.75; stroke: #000000; stroke-linejoin: miter"/>
   </g>
   <g id="patch_14">
    <path d="M 163.512981 159.871591 
L 185.758826 159.871591 
L 185.758826 98.128084 
L 163.512981 98.128084 
z
" clip-path="url(#p9a46fe8340)" style="fill: #1f77b4; fill-opacity: 0.75; stroke: #000000; stroke-linejoin: miter"/>
   </g>
  </g>
  <g id="axes_5">
   <g id="patch_15">
    <path d="M 206.358669 320.24 
L 228.604514 320.24 
L 228.604514 176.171818 
L 206.358669 176.171818 
z
" clip-path="url(#pf97fe997a3)" style="fill: #1f77b4; fill-opacity: 0.75; stroke: #000000; stroke-linejoin: miter"/>
   </g>
   <g id="patch_16">
    <path d="M 228.604514 320.24 
L 250.85036 320.24 
L 250.85036 299.658831 
L 228.604514 299.658831 
z
" clip-path="url(#pf97fe997a3)" style="fill: #1f77b4; fill-opacity: 0.75; stroke: #000000; stroke-linejoin: miter"/>
   </g>
   <g id="patch_17">
    <path d="M 250.85036 320.24 
L 273.096205 320.24 
L 273.096205 279.077662 
L 250.85036 279.077662 
z
" clip-path="url(#pf97fe997a3)" style="fill: #1f77b4; fill-opacity: 0.75; stroke: #000000; stroke-linejoin: miter"/>
   </g>
   <g id="patch_18">
    <path d="M 273.096205 320.24 
L 295.34205 320.24 
L 295.34205 279.077662 
L 273.096205 279.077662 
z
" clip-path="url(#pf97fe997a3)" style="fill: #1f77b4; fill-opacity: 0.75; stroke: #000000; stroke-linejoin: miter"/>
   </g>
   <g id="patch_19">
    <path d="M 295.34205 320.24 
L 317.587896 320.24 
L 317.587896 299.658831 
L 295.34205 299.658831 
z
" clip-path="url(#pf97fe997a3)" style="fill: #1f77b4; fill-opacity: 0.75; stroke: #000000; stroke-linejoin: miter"/>
   </g>
   <g id="patch_20">
    <path d="M 317.587896 320.24 
L 339.833741 320.24 
L 339.833741 217.334156 
L 317.587896 217.334156 
z
" clip-path="url(#pf97fe997a3)" style="fill: #1f77b4; fill-opacity: 0.75; stroke: #000000; stroke-linejoin: miter"/>
   </g>
  </g>
 </g>
 <defs>
  <clipPath id="pcc93827b9f">
   <rect x="45.61" y="168.968409" width="146.82258" height="151.271591"/>
  </clipPath>
  <clipPath id="p9a46fe8340">
   <rect x="45.61" y="8.6" width="146.82258" height="151.271591"/>
  </clipPath>
  <clipPath id="pf97fe997a3">
   <rect x="199.684915" y="168.968409" width="146.82258" height="151.271591"/>
  </clipPath>
 </defs>
</svg>
