<?xml version="1.0" encoding="utf-8" standalone="no"?>
<!DOCTYPE svg PUBLIC "-//W3C//DTD SVG 1.1//EN"
  "http://www.w3.org/Graphics/SVG/1.1/DTD/svg11.dtd">
<svg xmlns:xlink="http://www.w3.org/1999/xlink" width="360pt" height="360pt" viewBox="0 0 360 360" xmlns="http://www.w3.org/2000/svg" version="1.1">
 <metadata>
  <rdf:RDF xmlns:dc="http://purl.org/dc/elements/1.1/" xmlns:cc="http://creativecommons.org/ns#" xmlns:rdf="http://www.w3.org/1999/02/22-rdf-syntax-ns#">
   <cc:Work>
    <dc:type rdf:resource="http://purl.org/dc/dcmitype/StillImage"/>
    <dc:date>2025-05-19T17:34:13.215844</dc:date>
    <dc:format>image/svg+xml</dc:format>
    <dc:creator>
     <cc:Agent>
      <dc:title>Matplotlib v3.8.4, https://matplotlib.org/</dc:title>
     </cc:Agent>
    </dc:creator>
   </cc:Work>
  </rdf:RDF>
 </metadata>
 <defs>
  <style type="text/css">*{stroke-linejoin: round; stroke-linecap: butt}</style>
 </defs>
 <g id="figure_1">
  <g id="patch_1">
   <path d="M 0 360 
L 360 360 
L 360 0 
L 0 0 
z
" style="fill: #ffffff"/>
  </g>
  <g id="axes_1">
   <g id="patch_2">
    <path d="M 45.61 160.17 
L 192.794938 160.17 
L 192.794938 8.6 
L 45.61 8.6 
z
" style="fill: #ffffff"/>
   </g>
   <g id="matplotlib.axis_1">
    <g id="xtick_1">
     <g id="line2d_1">
      <defs>
       <path id="m0ae97e2c4e" d="M 0 0 
L 0 3.5 
" style="stroke: #000000; stroke-width: 0.8"/>
      </defs>
      <g>
       <use xlink:href="#m0ae97e2c4e" x="60.910089" y="160.17" style="stroke: #000000; stroke-width: 0.8"/>
      </g>
     </g>
    </g>
    <g id="xtick_2">
     <g id="line2d_2">
      <g>
       <use xlink:href="#m0ae97e2c4e" x="121.639745" y="160.17" style="stroke: #000000; stroke-width: 0.8"/>
      </g>
     </g>
    </g>
    <g id="xtick_3">
     <g id="line2d_3">
      <g>
       <use xlink:href="#m0ae97e2c4e" x="182.369401" y="160.17" style="stroke: #000000; stroke-width: 0.8"/>
      </g>
     </g>
    </g>
   </g>
   <g id="patch_3">
    <path d="M 45.61 160.17 
L 192.794938 160.17 
" style="fill: none; stroke: #000000; stroke-width: 0.8; stroke-linejoin: miter; stroke-linecap: square"/>
   </g>
   <g id="text_1">
    <!-- r = 1.00  -->
    <g transform="translate(60.328494 23.757) scale(0.1 -0.1)">
     <defs>
      <path id="DejaVuSans-72" d="M 2631 2963 
Q 2534 3019 2420 3045 
Q 2306 3072 2169 3072 
Q 1681 3072 1420 2755 
Q 1159 2438 1159 1844 
L 1159 0 
L 581 0 
L 581 3500 
L 1159 3500 
L 1159 2956 
Q 1341 3275 1631 3429 
Q 1922 3584 2338 3584 
Q 2397 3584 2469 3576 
Q 2541 3569 2628 3553 
L 2631 2963 
z
" transform="scale(0.015625)"/>
      <path id="DejaVuSans-20" transform="scale(0.015625)"/>
      <path id="DejaVuSans-3d" d="M 678 2906 
L 4684 2906 
L 4684 2381 
L 678 2381 
L 678 2906 
z
M 678 1631 
L 4684 1631 
L 4684 1100 
L 678 1100 
L 678 1631 
z
" transform="scale(0.015625)"/>
      <path id="DejaVuSans-31" d="M 794 531 
L 1825 531 
L 1825 4091 
L 703 3866 
L 703 4441 
L 1819 4666 
L 2450 4666 
L 2450 531 
L 3481 531 
L 3481 0 
L 794 0 
L 794 531 
z
" transform="scale(0.015625)"/>
      <path id="DejaVuSans-2e" d="M 684 794 
L 1344 794 
L 1344 0 
L 684 0 
L 684 794 
z
" transform="scale(0.015625)"/>
      <path id="DejaVuSans-30" d="M 2034 4250 
Q 1547 4250 1301 3770 
Q 1056 3291 1056 2328 
Q 1056 1369 1301 889 
Q 1547 409 2034 409 
Q 2525 409 2770 889 
Q 3016 1369 3016 2328 
Q 3016 3291 2770 3770 
Q 2525 4250 2034 4250 
z
M 2034 4750 
Q 2819 4750 3233 4129 
Q 3647 3509 3647 2328 
Q 3647 1150 3233 529 
Q 2819 -91 2034 -91 
Q 1250 -91 836 529 
Q 422 1150 422 2328 
Q 422 3509 836 4129 
Q 1250 4750 2034 4750 
z
" transform="scale(0.015625)"/>
     </defs>
     <use xlink:href="#DejaVuSans-72"/>
     <use xlink:href="#DejaVuSans-20" x="41.113281"/>
     <use xlink:href="#DejaVuSans-3d" x="72.900391"/>
     <use xlink:href="#DejaVuSans-20" x="156.689453"/>
     <use xlink:href="#DejaVuSans-31" x="188.476562"/>
     <use xlink:href="#DejaVuSans-2e" x="252.099609"/>
     <use xlink:href="#DejaVuSans-30" x="283.886719"/>
     <use xlink:href="#DejaVuSans-30" x="347.509766"/>
     <use xlink:href="#DejaVuSans-20" x="411.132812"/>
    </g>
   </g>
   <g id="text_2">
    <!-- p = 0.000 -->
    <g transform="translate(119.202469 23.757) scale(0.1 -0.1)">
     <defs>
      <path id="DejaVuSans-70" d="M 1159 525 
L 1159 -1331 
L 581 -1331 
L 581 3500 
L 1159 3500 
L 1159 2969 
Q 1341 3281 1617 3432 
Q 1894 3584 2278 3584 
Q 2916 3584 3314 3078 
Q 3713 2572 3713 1747 
Q 3713 922 3314 415 
Q 2916 -91 2278 -91 
Q 1894 -91 1617 61 
Q 1341 213 1159 525 
z
M 3116 1747 
Q 3116 2381 2855 2742 
Q 2594 3103 2138 3103 
Q 1681 3103 1420 2742 
Q 1159 2381 1159 1747 
Q 1159 1113 1420 752 
Q 1681 391 2138 391 
Q 2594 391 2855 752 
Q 3116 1113 3116 1747 
z
" transform="scale(0.015625)"/>
     </defs>
     <use xlink:href="#DejaVuSans-70"/>
     <use xlink:href="#DejaVuSans-20" x="63.476562"/>
     <use xlink:href="#DejaVuSans-3d" x="95.263672"/>
     <use xlink:href="#DejaVuSans-20" x="179.052734"/>
     <use xlink:href="#DejaVuSans-30" x="210.839844"/>
     <use xlink:href="#DejaVuSans-2e" x="274.462891"/>
     <use xlink:href="#DejaVuSans-30" x="306.25"/>
     <use xlink:href="#DejaVuSans-30" x="369.873047"/>
     <use xlink:href="#DejaVuSans-30" x="433.496094"/>
    </g>
   </g>
  </g>
  <g id="axes_2">
   <g id="patch_4">
    <path d="M 45.61 320.24 
L 192.794938 320.24 
L 192.794938 168.67 
L 45.61 168.67 
z
" style="fill: #ffffff"/>
   </g>
   <g id="PathCollection_1">
    <defs>
     <path id="mc52bcabe0c" d="M 0 3 
C 0.795609 3 1.55874 2.683901 2.12132 2.12132 
C 2.683901 1.55874 3 0.795609 3 0 
C 3 -0.795609 2.683901 -1.55874 2.12132 -2.12132 
C 1.55874 -2.683901 0.795609 -3 0 -3 
C -0.795609 -3 -1.55874 -2.683901 -2.12132 -2.12132 
C -2.683901 -1.55874 -3 -0.795609 -3 0 
C -3 0.795609 -2.683901 1.55874 -2.12132 2.12132 
C -1.55874 2.683901 -0.795609 3 0 3 
z
" style="stroke: #1f77b4; stroke-opacity: 0.8"/>
    </defs>
    <g clip-path="url(#p57b9f3f7d6)">
     <use xlink:href="#mc52bcabe0c" x="81.385265" y="181.880254" style="fill: #1f77b4; fill-opacity: 0.8; stroke: #1f77b4; stroke-opacity: 0.8"/>
     <use xlink:href="#mc52bcabe0c" x="180.752276" y="178.729604" style="fill: #1f77b4; fill-opacity: 0.8; stroke: #1f77b4; stroke-opacity: 0.8"/>
     <use xlink:href="#mc52bcabe0c" x="91.533158" y="273.052275" style="fill: #1f77b4; fill-opacity: 0.8; stroke: #1f77b4; stroke-opacity: 0.8"/>
     <use xlink:href="#mc52bcabe0c" x="89.634495" y="191.634696" style="fill: #1f77b4; fill-opacity: 0.8; stroke: #1f77b4; stroke-opacity: 0.8"/>
     <use xlink:href="#mc52bcabe0c" x="54.237351" y="305.387232" style="fill: #1f77b4; fill-opacity: 0.8; stroke: #1f77b4; stroke-opacity: 0.8"/>
     <use xlink:href="#mc52bcabe0c" x="162.387056" y="264.927901" style="fill: #1f77b4; fill-opacity: 0.8; stroke: #1f77b4; stroke-opacity: 0.8"/>
     <use xlink:href="#mc52bcabe0c" x="52.300224" y="227.551783" style="fill: #1f77b4; fill-opacity: 0.8; stroke: #1f77b4; stroke-opacity: 0.8"/>
     <use xlink:href="#mc52bcabe0c" x="90.031555" y="304.455313" style="fill: #1f77b4; fill-opacity: 0.8; stroke: #1f77b4; stroke-opacity: 0.8"/>
     <use xlink:href="#mc52bcabe0c" x="123.475605" y="209.563955" style="fill: #1f77b4; fill-opacity: 0.8; stroke: #1f77b4; stroke-opacity: 0.8"/>
     <use xlink:href="#mc52bcabe0c" x="109.263282" y="193.572969" style="fill: #1f77b4; fill-opacity: 0.8; stroke: #1f77b4; stroke-opacity: 0.8"/>
     <use xlink:href="#mc52bcabe0c" x="137.199281" y="231.624223" style="fill: #1f77b4; fill-opacity: 0.8; stroke: #1f77b4; stroke-opacity: 0.8"/>
     <use xlink:href="#mc52bcabe0c" x="78.569048" y="210.304256" style="fill: #1f77b4; fill-opacity: 0.8; stroke: #1f77b4; stroke-opacity: 0.8"/>
     <use xlink:href="#mc52bcabe0c" x="174.071064" y="228.195091" style="fill: #1f77b4; fill-opacity: 0.8; stroke: #1f77b4; stroke-opacity: 0.8"/>
     <use xlink:href="#mc52bcabe0c" x="152.750419" y="290.219031" style="fill: #1f77b4; fill-opacity: 0.8; stroke: #1f77b4; stroke-opacity: 0.8"/>
     <use xlink:href="#mc52bcabe0c" x="154.759015" y="312.870748" style="fill: #1f77b4; fill-opacity: 0.8; stroke: #1f77b4; stroke-opacity: 0.8"/>
     <use xlink:href="#mc52bcabe0c" x="166.809401" y="313.350455" style="fill: #1f77b4; fill-opacity: 0.8; stroke: #1f77b4; stroke-opacity: 0.8"/>
     <use xlink:href="#mc52bcabe0c" x="105.897801" y="181.243216" style="fill: #1f77b4; fill-opacity: 0.8; stroke: #1f77b4; stroke-opacity: 0.8"/>
     <use xlink:href="#mc52bcabe0c" x="186.104713" y="289.518972" style="fill: #1f77b4; fill-opacity: 0.8; stroke: #1f77b4; stroke-opacity: 0.8"/>
    </g>
   </g>
   <g id="PolyCollection_1">
    <path d="M 52.300224 175.559545 
L 52.300224 270.709236 
L 53.651785 269.984784 
L 55.003345 269.256595 
L 56.354906 268.722035 
L 57.706466 268.621882 
L 59.058027 268.517926 
L 60.409587 268.409452 
L 61.761148 267.732704 
L 63.112708 267.124349 
L 64.464269 267.10955 
L 65.815829 267.094751 
L 67.16739 266.842304 
L 68.51895 266.416798 
L 69.870511 265.989193 
L 71.222071 265.574271 
L 72.573632 265.520832 
L 73.925192 265.782151 
L 75.276753 265.814674 
L 76.628313 265.525846 
L 77.979874 265.388847 
L 79.331434 265.37532 
L 80.682995 265.361793 
L 82.034555 265.340778 
L 83.386116 265.232639 
L 84.737676 265.419444 
L 86.089237 265.296126 
L 87.440797 265.058376 
L 88.792358 264.590061 
L 90.143918 264.282903 
L 91.495479 264.42669 
L 92.847039 264.487369 
L 94.1986 264.276032 
L 95.55016 264.454298 
L 96.901721 264.405992 
L 98.253281 264.811754 
L 99.604842 264.43851 
L 100.956402 264.098668 
L 102.307963 264.112527 
L 103.659523 264.292226 
L 105.011084 263.862811 
L 106.362644 263.695976 
L 107.714205 263.974078 
L 109.065765 264.18504 
L 110.417326 264.289487 
L 111.768886 264.279535 
L 113.120447 264.608153 
L 114.472007 264.735414 
L 115.823568 264.801569 
L 117.175128 265.079 
L 118.526689 265.246628 
L 119.878249 265.616511 
L 121.22981 265.823272 
L 122.58137 266.142627 
L 123.932931 266.454986 
L 125.284491 266.902841 
L 126.636052 267.32232 
L 127.987612 267.840521 
L 129.339173 268.356448 
L 130.690733 268.878572 
L 132.042294 269.069521 
L 133.393854 268.924275 
L 134.745415 269.508503 
L 136.096975 269.94605 
L 137.448536 270.61122 
L 138.800096 271.489076 
L 140.151657 271.851143 
L 141.503217 272.742424 
L 142.854778 273.530078 
L 144.206338 274.051636 
L 145.557899 274.600689 
L 146.909459 275.747134 
L 148.261019 276.411258 
L 149.61258 277.191236 
L 150.96414 277.727451 
L 152.315701 278.464492 
L 153.667261 279.375136 
L 155.018822 280.077639 
L 156.370382 280.882111 
L 157.721943 281.492194 
L 159.073503 282.270433 
L 160.425064 283.231148 
L 161.776624 283.93229 
L 163.128185 284.858935 
L 164.479745 285.664341 
L 165.831306 286.57249 
L 167.182866 287.255848 
L 168.534427 288.297047 
L 169.885987 289.011641 
L 171.237548 289.711687 
L 172.589108 290.677957 
L 173.940669 291.649551 
L 175.292229 292.633211 
L 176.64379 293.605058 
L 177.99535 294.324593 
L 179.346911 295.000556 
L 180.698471 296.222058 
L 182.050032 297.325156 
L 183.401592 298.262138 
L 184.753153 299.47787 
L 186.104713 300.69286 
L 186.104713 215.382291 
L 186.104713 215.382291 
L 184.753153 215.730808 
L 183.401592 216.084739 
L 182.050032 216.442991 
L 180.698471 216.801242 
L 179.346911 217.244656 
L 177.99535 217.791424 
L 176.64379 218.338192 
L 175.292229 218.505357 
L 173.940669 218.567629 
L 172.589108 218.910741 
L 171.237548 219.067003 
L 169.885987 219.175925 
L 168.534427 219.415988 
L 167.182866 219.798884 
L 165.831306 220.178324 
L 164.479745 220.557764 
L 163.128185 220.728758 
L 161.776624 220.82927 
L 160.425064 220.929783 
L 159.073503 221.030295 
L 157.721943 221.136109 
L 156.370382 221.244908 
L 155.018822 221.334395 
L 153.667261 221.370207 
L 152.315701 221.559161 
L 150.96414 221.874567 
L 149.61258 221.837661 
L 148.261019 221.853891 
L 146.909459 221.945574 
L 145.557899 222.037838 
L 144.206338 222.127565 
L 142.854778 222.251373 
L 141.503217 222.360253 
L 140.151657 222.575068 
L 138.800096 222.558825 
L 137.448536 222.407167 
L 136.096975 222.625456 
L 134.745415 222.540366 
L 133.393854 222.565612 
L 132.042294 222.449784 
L 130.690733 222.611579 
L 129.339173 222.411605 
L 127.987612 222.477603 
L 126.636052 222.411023 
L 125.284491 222.348051 
L 123.932931 221.832558 
L 122.58137 221.560028 
L 121.22981 221.132217 
L 119.878249 220.637793 
L 118.526689 220.437488 
L 117.175128 220.05383 
L 115.823568 219.549613 
L 114.472007 219.226001 
L 113.120447 218.902855 
L 111.768886 218.105584 
L 110.417326 217.855755 
L 109.065765 217.587619 
L 107.714205 216.951298 
L 106.362644 216.09236 
L 105.011084 215.688621 
L 103.659523 215.137415 
L 102.307963 214.368517 
L 100.956402 213.60104 
L 99.604842 212.794709 
L 98.253281 211.892722 
L 96.901721 210.752536 
L 95.55016 209.732576 
L 94.1986 208.609306 
L 92.847039 207.798354 
L 91.495479 207.32342 
L 90.143918 206.703469 
L 88.792358 205.517317 
L 87.440797 204.369241 
L 86.089237 203.620349 
L 84.737676 202.580554 
L 83.386116 201.54076 
L 82.034555 200.500965 
L 80.682995 199.466342 
L 79.331434 198.432467 
L 77.979874 197.406102 
L 76.628313 196.381797 
L 75.276753 195.357492 
L 73.925192 194.331672 
L 72.573632 193.279532 
L 71.222071 192.121478 
L 69.870511 191.228774 
L 68.51895 190.109947 
L 67.16739 188.888554 
L 65.815829 187.66744 
L 64.464269 186.447421 
L 63.112708 184.97174 
L 61.761148 183.467052 
L 60.409587 181.966471 
L 59.058027 180.838359 
L 57.706466 179.812892 
L 56.354906 178.787426 
L 55.003345 177.76196 
L 53.651785 176.724981 
L 52.300224 175.559545 
z
" clip-path="url(#p57b9f3f7d6)" style="fill: #008000; fill-opacity: 0.15"/>
   </g>
   <g id="matplotlib.axis_2">
    <g id="xtick_4">
     <g id="line2d_4">
      <g>
       <use xlink:href="#m0ae97e2c4e" x="60.910089" y="320.24" style="stroke: #000000; stroke-width: 0.8"/>
      </g>
     </g>
     <g id="text_3">
      <!-- 2 -->
      <g transform="translate(57.728839 334.838438) scale(0.1 -0.1)">
       <defs>
        <path id="DejaVuSans-32" d="M 1228 531 
L 3431 531 
L 3431 0 
L 469 0 
L 469 531 
Q 828 903 1448 1529 
Q 2069 2156 2228 2338 
Q 2531 2678 2651 2914 
Q 2772 3150 2772 3378 
Q 2772 3750 2511 3984 
Q 2250 4219 1831 4219 
Q 1534 4219 1204 4116 
Q 875 4013 500 3803 
L 500 4441 
Q 881 4594 1212 4672 
Q 1544 4750 1819 4750 
Q 2544 4750 2975 4387 
Q 3406 4025 3406 3419 
Q 3406 3131 3298 2873 
Q 3191 2616 2906 2266 
Q 2828 2175 2409 1742 
Q 1991 1309 1228 531 
z
" transform="scale(0.015625)"/>
       </defs>
       <use xlink:href="#DejaVuSans-32"/>
      </g>
     </g>
    </g>
    <g id="xtick_5">
     <g id="line2d_5">
      <g>
       <use xlink:href="#m0ae97e2c4e" x="121.639745" y="320.24" style="stroke: #000000; stroke-width: 0.8"/>
      </g>
     </g>
     <g id="text_4">
      <!-- 4 -->
      <g transform="translate(118.458495 334.838438) scale(0.1 -0.1)">
       <defs>
        <path id="DejaVuSans-34" d="M 2419 4116 
L 825 1625 
L 2419 1625 
L 2419 4116 
z
M 2253 4666 
L 3047 4666 
L 3047 1625 
L 3713 1625 
L 3713 1100 
L 3047 1100 
L 3047 0 
L 2419 0 
L 2419 1100 
L 313 1100 
L 313 1709 
L 2253 4666 
z
" transform="scale(0.015625)"/>
       </defs>
       <use xlink:href="#DejaVuSans-34"/>
      </g>
     </g>
    </g>
    <g id="xtick_6">
     <g id="line2d_6">
      <g>
       <use xlink:href="#m0ae97e2c4e" x="182.369401" y="320.24" style="stroke: #000000; stroke-width: 0.8"/>
      </g>
     </g>
     <g id="text_5">
      <!-- 6 -->
      <g transform="translate(179.188151 334.838438) scale(0.1 -0.1)">
       <defs>
        <path id="DejaVuSans-36" d="M 2113 2584 
Q 1688 2584 1439 2293 
Q 1191 2003 1191 1497 
Q 1191 994 1439 701 
Q 1688 409 2113 409 
Q 2538 409 2786 701 
Q 3034 994 3034 1497 
Q 3034 2003 2786 2293 
Q 2538 2584 2113 2584 
z
M 3366 4563 
L 3366 3988 
Q 3128 4100 2886 4159 
Q 2644 4219 2406 4219 
Q 1781 4219 1451 3797 
Q 1122 3375 1075 2522 
Q 1259 2794 1537 2939 
Q 1816 3084 2150 3084 
Q 2853 3084 3261 2657 
Q 3669 2231 3669 1497 
Q 3669 778 3244 343 
Q 2819 -91 2113 -91 
Q 1303 -91 875 529 
Q 447 1150 447 2328 
Q 447 3434 972 4092 
Q 1497 4750 2381 4750 
Q 2619 4750 2861 4703 
Q 3103 4656 3366 4563 
z
" transform="scale(0.015625)"/>
       </defs>
       <use xlink:href="#DejaVuSans-36"/>
      </g>
     </g>
    </g>
    <g id="text_6">
     <!-- dec temp -->
     <g transform="translate(95.532156 348.516563) scale(0.1 -0.1)">
      <defs>
       <path id="DejaVuSans-64" d="M 2906 2969 
L 2906 4863 
L 3481 4863 
L 3481 0 
L 2906 0 
L 2906 525 
Q 2725 213 2448 61 
Q 2172 -91 1784 -91 
Q 1150 -91 751 415 
Q 353 922 353 1747 
Q 353 2572 751 3078 
Q 1150 3584 1784 3584 
Q 2172 3584 2448 3432 
Q 2725 3281 2906 2969 
z
M 947 1747 
Q 947 1113 1208 752 
Q 1469 391 1925 391 
Q 2381 391 2643 752 
Q 2906 1113 2906 1747 
Q 2906 2381 2643 2742 
Q 2381 3103 1925 3103 
Q 1469 3103 1208 2742 
Q 947 2381 947 1747 
z
" transform="scale(0.015625)"/>
       <path id="DejaVuSans-65" d="M 3597 1894 
L 3597 1613 
L 953 1613 
Q 991 1019 1311 708 
Q 1631 397 2203 397 
Q 2534 397 2845 478 
Q 3156 559 3463 722 
L 3463 178 
Q 3153 47 2828 -22 
Q 2503 -91 2169 -91 
Q 1331 -91 842 396 
Q 353 884 353 1716 
Q 353 2575 817 3079 
Q 1281 3584 2069 3584 
Q 2775 3584 3186 3129 
Q 3597 2675 3597 1894 
z
M 3022 2063 
Q 3016 2534 2758 2815 
Q 2500 3097 2075 3097 
Q 1594 3097 1305 2825 
Q 1016 2553 972 2059 
L 3022 2063 
z
" transform="scale(0.015625)"/>
       <path id="DejaVuSans-63" d="M 3122 3366 
L 3122 2828 
Q 2878 2963 2633 3030 
Q 2388 3097 2138 3097 
Q 1578 3097 1268 2742 
Q 959 2388 959 1747 
Q 959 1106 1268 751 
Q 1578 397 2138 397 
Q 2388 397 2633 464 
Q 2878 531 3122 666 
L 3122 134 
Q 2881 22 2623 -34 
Q 2366 -91 2075 -91 
Q 1284 -91 818 406 
Q 353 903 353 1747 
Q 353 2603 823 3093 
Q 1294 3584 2113 3584 
Q 2378 3584 2631 3529 
Q 2884 3475 3122 3366 
z
" transform="scale(0.015625)"/>
       <path id="DejaVuSans-74" d="M 1172 4494 
L 1172 3500 
L 2356 3500 
L 2356 3053 
L 1172 3053 
L 1172 1153 
Q 1172 725 1289 603 
Q 1406 481 1766 481 
L 2356 481 
L 2356 0 
L 1766 0 
Q 1100 0 847 248 
Q 594 497 594 1153 
L 594 3053 
L 172 3053 
L 172 3500 
L 594 3500 
L 594 4494 
L 1172 4494 
z
" transform="scale(0.015625)"/>
       <path id="DejaVuSans-6d" d="M 3328 2828 
Q 3544 3216 3844 3400 
Q 4144 3584 4550 3584 
Q 5097 3584 5394 3201 
Q 5691 2819 5691 2113 
L 5691 0 
L 5113 0 
L 5113 2094 
Q 5113 2597 4934 2840 
Q 4756 3084 4391 3084 
Q 3944 3084 3684 2787 
Q 3425 2491 3425 1978 
L 3425 0 
L 2847 0 
L 2847 2094 
Q 2847 2600 2669 2842 
Q 2491 3084 2119 3084 
Q 1678 3084 1418 2786 
Q 1159 2488 1159 1978 
L 1159 0 
L 581 0 
L 581 3500 
L 1159 3500 
L 1159 2956 
Q 1356 3278 1631 3431 
Q 1906 3584 2284 3584 
Q 2666 3584 2933 3390 
Q 3200 3197 3328 2828 
z
" transform="scale(0.015625)"/>
      </defs>
      <use xlink:href="#DejaVuSans-64"/>
      <use xlink:href="#DejaVuSans-65" x="63.476562"/>
      <use xlink:href="#DejaVuSans-63" x="125"/>
      <use xlink:href="#DejaVuSans-20" x="179.980469"/>
      <use xlink:href="#DejaVuSans-74" x="211.767578"/>
      <use xlink:href="#DejaVuSans-65" x="250.976562"/>
      <use xlink:href="#DejaVuSans-6d" x="312.5"/>
      <use xlink:href="#DejaVuSans-70" x="409.912109"/>
     </g>
    </g>
   </g>
   <g id="matplotlib.axis_3">
    <g id="ytick_1">
     <g id="line2d_7">
      <defs>
       <path id="m16e90c6a64" d="M 0 0 
L -3.5 0 
" style="stroke: #000000; stroke-width: 0.8"/>
      </defs>
      <g>
       <use xlink:href="#m16e90c6a64" x="45.61" y="302.30386" style="stroke: #000000; stroke-width: 0.8"/>
      </g>
     </g>
     <g id="text_7">
      <!-- 0.2 -->
      <g transform="translate(22.706875 306.103079) scale(0.1 -0.1)">
       <use xlink:href="#DejaVuSans-30"/>
       <use xlink:href="#DejaVuSans-2e" x="63.623047"/>
       <use xlink:href="#DejaVuSans-32" x="95.410156"/>
      </g>
     </g>
    </g>
    <g id="ytick_2">
     <g id="line2d_8">
      <g>
       <use xlink:href="#m16e90c6a64" x="45.61" y="271.04042" style="stroke: #000000; stroke-width: 0.8"/>
      </g>
     </g>
     <g id="text_8">
      <!-- 0.4 -->
      <g transform="translate(22.706875 274.839639) scale(0.1 -0.1)">
       <use xlink:href="#DejaVuSans-30"/>
       <use xlink:href="#DejaVuSans-2e" x="63.623047"/>
       <use xlink:href="#DejaVuSans-34" x="95.410156"/>
      </g>
     </g>
    </g>
    <g id="ytick_3">
     <g id="line2d_9">
      <g>
       <use xlink:href="#m16e90c6a64" x="45.61" y="239.776981" style="stroke: #000000; stroke-width: 0.8"/>
      </g>
     </g>
     <g id="text_9">
      <!-- 0.6 -->
      <g transform="translate(22.706875 243.5762) scale(0.1 -0.1)">
       <use xlink:href="#DejaVuSans-30"/>
       <use xlink:href="#DejaVuSans-2e" x="63.623047"/>
       <use xlink:href="#DejaVuSans-36" x="95.410156"/>
      </g>
     </g>
    </g>
    <g id="ytick_4">
     <g id="line2d_10">
      <g>
       <use xlink:href="#m16e90c6a64" x="45.61" y="208.513542" style="stroke: #000000; stroke-width: 0.8"/>
      </g>
     </g>
     <g id="text_10">
      <!-- 0.8 -->
      <g transform="translate(22.706875 212.31276) scale(0.1 -0.1)">
       <defs>
        <path id="DejaVuSans-38" d="M 2034 2216 
Q 1584 2216 1326 1975 
Q 1069 1734 1069 1313 
Q 1069 891 1326 650 
Q 1584 409 2034 409 
Q 2484 409 2743 651 
Q 3003 894 3003 1313 
Q 3003 1734 2745 1975 
Q 2488 2216 2034 2216 
z
M 1403 2484 
Q 997 2584 770 2862 
Q 544 3141 544 3541 
Q 544 4100 942 4425 
Q 1341 4750 2034 4750 
Q 2731 4750 3128 4425 
Q 3525 4100 3525 3541 
Q 3525 3141 3298 2862 
Q 3072 2584 2669 2484 
Q 3125 2378 3379 2068 
Q 3634 1759 3634 1313 
Q 3634 634 3220 271 
Q 2806 -91 2034 -91 
Q 1263 -91 848 271 
Q 434 634 434 1313 
Q 434 1759 690 2068 
Q 947 2378 1403 2484 
z
M 1172 3481 
Q 1172 3119 1398 2916 
Q 1625 2713 2034 2713 
Q 2441 2713 2670 2916 
Q 2900 3119 2900 3481 
Q 2900 3844 2670 4047 
Q 2441 4250 2034 4250 
Q 1625 4250 1398 4047 
Q 1172 3844 1172 3481 
z
" transform="scale(0.015625)"/>
       </defs>
       <use xlink:href="#DejaVuSans-30"/>
       <use xlink:href="#DejaVuSans-2e" x="63.623047"/>
       <use xlink:href="#DejaVuSans-38" x="95.410156"/>
      </g>
     </g>
    </g>
    <g id="ytick_5">
     <g id="line2d_11">
      <g>
       <use xlink:href="#m16e90c6a64" x="45.61" y="177.250102" style="stroke: #000000; stroke-width: 0.8"/>
      </g>
     </g>
     <g id="text_11">
      <!-- 1.0 -->
      <g transform="translate(22.706875 181.049321) scale(0.1 -0.1)">
       <use xlink:href="#DejaVuSans-31"/>
       <use xlink:href="#DejaVuSans-2e" x="63.623047"/>
       <use xlink:href="#DejaVuSans-30" x="95.410156"/>
      </g>
     </g>
    </g>
    <g id="text_12">
     <!-- reward rate -->
     <g transform="translate(16.627188 273.515156) rotate(-90) scale(0.1 -0.1)">
      <defs>
       <path id="DejaVuSans-77" d="M 269 3500 
L 844 3500 
L 1563 769 
L 2278 3500 
L 2956 3500 
L 3675 769 
L 4391 3500 
L 4966 3500 
L 4050 0 
L 3372 0 
L 2619 2869 
L 1863 0 
L 1184 0 
L 269 3500 
z
" transform="scale(0.015625)"/>
       <path id="DejaVuSans-61" d="M 2194 1759 
Q 1497 1759 1228 1600 
Q 959 1441 959 1056 
Q 959 750 1161 570 
Q 1363 391 1709 391 
Q 2188 391 2477 730 
Q 2766 1069 2766 1631 
L 2766 1759 
L 2194 1759 
z
M 3341 1997 
L 3341 0 
L 2766 0 
L 2766 531 
Q 2569 213 2275 61 
Q 1981 -91 1556 -91 
Q 1019 -91 701 211 
Q 384 513 384 1019 
Q 384 1609 779 1909 
Q 1175 2209 1959 2209 
L 2766 2209 
L 2766 2266 
Q 2766 2663 2505 2880 
Q 2244 3097 1772 3097 
Q 1472 3097 1187 3025 
Q 903 2953 641 2809 
L 641 3341 
Q 956 3463 1253 3523 
Q 1550 3584 1831 3584 
Q 2591 3584 2966 3190 
Q 3341 2797 3341 1997 
z
" transform="scale(0.015625)"/>
      </defs>
      <use xlink:href="#DejaVuSans-72"/>
      <use xlink:href="#DejaVuSans-65" x="38.863281"/>
      <use xlink:href="#DejaVuSans-77" x="100.386719"/>
      <use xlink:href="#DejaVuSans-61" x="182.173828"/>
      <use xlink:href="#DejaVuSans-72" x="243.453125"/>
      <use xlink:href="#DejaVuSans-64" x="282.816406"/>
      <use xlink:href="#DejaVuSans-20" x="346.292969"/>
      <use xlink:href="#DejaVuSans-72" x="378.080078"/>
      <use xlink:href="#DejaVuSans-61" x="419.193359"/>
      <use xlink:href="#DejaVuSans-74" x="480.472656"/>
      <use xlink:href="#DejaVuSans-65" x="519.681641"/>
     </g>
    </g>
   </g>
   <g id="line2d_12">
    <path d="M 52.300224 228.531915 
L 53.651785 228.828784 
L 55.003345 229.125652 
L 56.354906 229.422521 
L 57.706466 229.719389 
L 59.058027 230.016258 
L 60.409587 230.313126 
L 61.761148 230.609995 
L 63.112708 230.906863 
L 64.464269 231.203732 
L 65.815829 231.5006 
L 67.16739 231.797469 
L 68.51895 232.094337 
L 69.870511 232.391206 
L 71.222071 232.688074 
L 72.573632 232.984943 
L 73.925192 233.281811 
L 75.276753 233.57868 
L 76.628313 233.875548 
L 77.979874 234.172417 
L 79.331434 234.469285 
L 80.682995 234.766154 
L 82.034555 235.063022 
L 83.386116 235.359891 
L 84.737676 235.656759 
L 86.089237 235.953628 
L 87.440797 236.250496 
L 88.792358 236.547365 
L 90.143918 236.844233 
L 91.495479 237.141102 
L 92.847039 237.43797 
L 94.1986 237.734839 
L 95.55016 238.031707 
L 96.901721 238.328576 
L 98.253281 238.625445 
L 99.604842 238.922313 
L 100.956402 239.219182 
L 102.307963 239.51605 
L 103.659523 239.812919 
L 105.011084 240.109787 
L 106.362644 240.406656 
L 107.714205 240.703524 
L 109.065765 241.000393 
L 110.417326 241.297261 
L 111.768886 241.59413 
L 113.120447 241.890998 
L 114.472007 242.187867 
L 115.823568 242.484735 
L 117.175128 242.781604 
L 118.526689 243.078472 
L 119.878249 243.375341 
L 121.22981 243.672209 
L 122.58137 243.969078 
L 123.932931 244.265946 
L 125.284491 244.562815 
L 126.636052 244.859683 
L 127.987612 245.156552 
L 129.339173 245.45342 
L 130.690733 245.750289 
L 132.042294 246.047157 
L 133.393854 246.344026 
L 134.745415 246.640894 
L 136.096975 246.937763 
L 137.448536 247.234631 
L 138.800096 247.5315 
L 140.151657 247.828368 
L 141.503217 248.125237 
L 142.854778 248.422105 
L 144.206338 248.718974 
L 145.557899 249.015842 
L 146.909459 249.312711 
L 148.261019 249.609579 
L 149.61258 249.906448 
L 150.96414 250.203316 
L 152.315701 250.500185 
L 153.667261 250.797053 
L 155.018822 251.093922 
L 156.370382 251.39079 
L 157.721943 251.687659 
L 159.073503 251.984527 
L 160.425064 252.281396 
L 161.776624 252.578264 
L 163.128185 252.875133 
L 164.479745 253.172001 
L 165.831306 253.46887 
L 167.182866 253.765739 
L 168.534427 254.062607 
L 169.885987 254.359476 
L 171.237548 254.656344 
L 172.589108 254.953213 
L 173.940669 255.250081 
L 175.292229 255.54695 
L 176.64379 255.843818 
L 177.99535 256.140687 
L 179.346911 256.437555 
L 180.698471 256.734424 
L 182.050032 257.031292 
L 183.401592 257.328161 
L 184.753153 257.625029 
L 186.104713 257.921898 
" clip-path="url(#p57b9f3f7d6)" style="fill: none; stroke: #008000; stroke-opacity: 0.6; stroke-width: 2.25; stroke-linecap: square"/>
   </g>
   <g id="patch_5">
    <path d="M 45.61 320.24 
L 45.61 168.67 
" style="fill: none; stroke: #000000; stroke-width: 0.8; stroke-linejoin: miter; stroke-linecap: square"/>
   </g>
   <g id="patch_6">
    <path d="M 45.61 320.24 
L 192.794938 320.24 
" style="fill: none; stroke: #000000; stroke-width: 0.8; stroke-linejoin: miter; stroke-linecap: square"/>
   </g>
   <g id="text_13">
    <!-- r = -0.19  -->
    <g transform="translate(60.328494 183.827) scale(0.1 -0.1)">
     <defs>
      <path id="DejaVuSans-2d" d="M 313 2009 
L 1997 2009 
L 1997 1497 
L 313 1497 
L 313 2009 
z
" transform="scale(0.015625)"/>
      <path id="DejaVuSans-39" d="M 703 97 
L 703 672 
Q 941 559 1184 500 
Q 1428 441 1663 441 
Q 2288 441 2617 861 
Q 2947 1281 2994 2138 
Q 2813 1869 2534 1725 
Q 2256 1581 1919 1581 
Q 1219 1581 811 2004 
Q 403 2428 403 3163 
Q 403 3881 828 4315 
Q 1253 4750 1959 4750 
Q 2769 4750 3195 4129 
Q 3622 3509 3622 2328 
Q 3622 1225 3098 567 
Q 2575 -91 1691 -91 
Q 1453 -91 1209 -44 
Q 966 3 703 97 
z
M 1959 2075 
Q 2384 2075 2632 2365 
Q 2881 2656 2881 3163 
Q 2881 3666 2632 3958 
Q 2384 4250 1959 4250 
Q 1534 4250 1286 3958 
Q 1038 3666 1038 3163 
Q 1038 2656 1286 2365 
Q 1534 2075 1959 2075 
z
" transform="scale(0.015625)"/>
     </defs>
     <use xlink:href="#DejaVuSans-72"/>
     <use xlink:href="#DejaVuSans-20" x="41.113281"/>
     <use xlink:href="#DejaVuSans-3d" x="72.900391"/>
     <use xlink:href="#DejaVuSans-20" x="156.689453"/>
     <use xlink:href="#DejaVuSans-2d" x="188.476562"/>
     <use xlink:href="#DejaVuSans-30" x="224.560547"/>
     <use xlink:href="#DejaVuSans-2e" x="288.183594"/>
     <use xlink:href="#DejaVuSans-31" x="319.970703"/>
     <use xlink:href="#DejaVuSans-39" x="383.59375"/>
     <use xlink:href="#DejaVuSans-20" x="447.216797"/>
    </g>
   </g>
   <g id="text_14">
    <!-- p = 0.446 -->
    <g transform="translate(119.202469 183.827) scale(0.1 -0.1)">
     <use xlink:href="#DejaVuSans-70"/>
     <use xlink:href="#DejaVuSans-20" x="63.476562"/>
     <use xlink:href="#DejaVuSans-3d" x="95.263672"/>
     <use xlink:href="#DejaVuSans-20" x="179.052734"/>
     <use xlink:href="#DejaVuSans-30" x="210.839844"/>
     <use xlink:href="#DejaVuSans-2e" x="274.462891"/>
     <use xlink:href="#DejaVuSans-34" x="306.25"/>
     <use xlink:href="#DejaVuSans-34" x="369.873047"/>
     <use xlink:href="#DejaVuSans-36" x="433.496094"/>
    </g>
   </g>
  </g>
  <g id="axes_3">
   <g id="patch_7">
    <path d="M 197.794938 320.24 
L 344.979876 320.24 
L 344.979876 168.67 
L 197.794938 168.67 
z
" style="fill: #ffffff"/>
   </g>
   <g id="matplotlib.axis_4">
    <g id="xtick_7">
     <g id="line2d_13">
      <g>
       <use xlink:href="#m0ae97e2c4e" x="223.233232" y="320.24" style="stroke: #000000; stroke-width: 0.8"/>
      </g>
     </g>
     <g id="text_15">
      <!-- 0.25 -->
      <g transform="translate(212.100419 334.838438) scale(0.1 -0.1)">
       <defs>
        <path id="DejaVuSans-35" d="M 691 4666 
L 3169 4666 
L 3169 4134 
L 1269 4134 
L 1269 2991 
Q 1406 3038 1543 3061 
Q 1681 3084 1819 3084 
Q 2600 3084 3056 2656 
Q 3513 2228 3513 1497 
Q 3513 744 3044 326 
Q 2575 -91 1722 -91 
Q 1428 -91 1123 -41 
Q 819 9 494 109 
L 494 744 
Q 775 591 1075 516 
Q 1375 441 1709 441 
Q 2250 441 2565 725 
Q 2881 1009 2881 1497 
Q 2881 1984 2565 2268 
Q 2250 2553 1709 2553 
Q 1456 2553 1204 2497 
Q 953 2441 691 2322 
L 691 4666 
z
" transform="scale(0.015625)"/>
       </defs>
       <use xlink:href="#DejaVuSans-30"/>
       <use xlink:href="#DejaVuSans-2e" x="63.623047"/>
       <use xlink:href="#DejaVuSans-32" x="95.410156"/>
       <use xlink:href="#DejaVuSans-35" x="159.033203"/>
      </g>
     </g>
    </g>
    <g id="xtick_8">
     <g id="line2d_14">
      <g>
       <use xlink:href="#m0ae97e2c4e" x="262.075548" y="320.24" style="stroke: #000000; stroke-width: 0.8"/>
      </g>
     </g>
     <g id="text_16">
      <!-- 0.50 -->
      <g transform="translate(250.942736 334.838438) scale(0.1 -0.1)">
       <use xlink:href="#DejaVuSans-30"/>
       <use xlink:href="#DejaVuSans-2e" x="63.623047"/>
       <use xlink:href="#DejaVuSans-35" x="95.410156"/>
       <use xlink:href="#DejaVuSans-30" x="159.033203"/>
      </g>
     </g>
    </g>
    <g id="xtick_9">
     <g id="line2d_15">
      <g>
       <use xlink:href="#m0ae97e2c4e" x="300.917865" y="320.24" style="stroke: #000000; stroke-width: 0.8"/>
      </g>
     </g>
     <g id="text_17">
      <!-- 0.75 -->
      <g transform="translate(289.785052 334.838438) scale(0.1 -0.1)">
       <defs>
        <path id="DejaVuSans-37" d="M 525 4666 
L 3525 4666 
L 3525 4397 
L 1831 0 
L 1172 0 
L 2766 4134 
L 525 4134 
L 525 4666 
z
" transform="scale(0.015625)"/>
       </defs>
       <use xlink:href="#DejaVuSans-30"/>
       <use xlink:href="#DejaVuSans-2e" x="63.623047"/>
       <use xlink:href="#DejaVuSans-37" x="95.410156"/>
       <use xlink:href="#DejaVuSans-35" x="159.033203"/>
      </g>
     </g>
    </g>
    <g id="xtick_10">
     <g id="line2d_16">
      <g>
       <use xlink:href="#m0ae97e2c4e" x="339.760181" y="320.24" style="stroke: #000000; stroke-width: 0.8"/>
      </g>
     </g>
     <g id="text_18">
      <!-- 1.00 -->
      <g transform="translate(328.627368 334.838438) scale(0.1 -0.1)">
       <use xlink:href="#DejaVuSans-31"/>
       <use xlink:href="#DejaVuSans-2e" x="63.623047"/>
       <use xlink:href="#DejaVuSans-30" x="95.410156"/>
       <use xlink:href="#DejaVuSans-30" x="159.033203"/>
      </g>
     </g>
    </g>
    <g id="text_19">
     <!-- reward rate -->
     <g transform="translate(242.32725 348.516563) scale(0.1 -0.1)">
      <use xlink:href="#DejaVuSans-72"/>
      <use xlink:href="#DejaVuSans-65" x="38.863281"/>
      <use xlink:href="#DejaVuSans-77" x="100.386719"/>
      <use xlink:href="#DejaVuSans-61" x="182.173828"/>
      <use xlink:href="#DejaVuSans-72" x="243.453125"/>
      <use xlink:href="#DejaVuSans-64" x="282.816406"/>
      <use xlink:href="#DejaVuSans-20" x="346.292969"/>
      <use xlink:href="#DejaVuSans-72" x="378.080078"/>
      <use xlink:href="#DejaVuSans-61" x="419.193359"/>
      <use xlink:href="#DejaVuSans-74" x="480.472656"/>
      <use xlink:href="#DejaVuSans-65" x="519.681641"/>
     </g>
    </g>
   </g>
   <g id="patch_8">
    <path d="M 197.794938 320.24 
L 344.979876 320.24 
" style="fill: none; stroke: #000000; stroke-width: 0.8; stroke-linejoin: miter; stroke-linecap: square"/>
   </g>
   <g id="text_20">
    <!-- r = 1.00  -->
    <g transform="translate(212.513432 183.827) scale(0.1 -0.1)">
     <use xlink:href="#DejaVuSans-72"/>
     <use xlink:href="#DejaVuSans-20" x="41.113281"/>
     <use xlink:href="#DejaVuSans-3d" x="72.900391"/>
     <use xlink:href="#DejaVuSans-20" x="156.689453"/>
     <use xlink:href="#DejaVuSans-31" x="188.476562"/>
     <use xlink:href="#DejaVuSans-2e" x="252.099609"/>
     <use xlink:href="#DejaVuSans-30" x="283.886719"/>
     <use xlink:href="#DejaVuSans-30" x="347.509766"/>
     <use xlink:href="#DejaVuSans-20" x="411.132812"/>
    </g>
   </g>
   <g id="text_21">
    <!-- p = 0.000 -->
    <g transform="translate(271.387407 183.827) scale(0.1 -0.1)">
     <use xlink:href="#DejaVuSans-70"/>
     <use xlink:href="#DejaVuSans-20" x="63.476562"/>
     <use xlink:href="#DejaVuSans-3d" x="95.263672"/>
     <use xlink:href="#DejaVuSans-20" x="179.052734"/>
     <use xlink:href="#DejaVuSans-30" x="210.839844"/>
     <use xlink:href="#DejaVuSans-2e" x="274.462891"/>
     <use xlink:href="#DejaVuSans-30" x="306.25"/>
     <use xlink:href="#DejaVuSans-30" x="369.873047"/>
     <use xlink:href="#DejaVuSans-30" x="433.496094"/>
    </g>
   </g>
  </g>
  <g id="axes_4">
   <g id="patch_9">
    <path d="M 52.300224 160.17 
L 74.600973 160.17 
L 74.600973 102.429048 
L 52.300224 102.429048 
z
" clip-path="url(#pa281a5239a)" style="fill: #1f77b4; fill-opacity: 0.75; stroke: #000000; stroke-linejoin: miter"/>
   </g>
   <g id="patch_10">
    <path d="M 74.600973 160.17 
L 96.901721 160.17 
L 96.901721 15.817619 
L 74.600973 15.817619 
z
" clip-path="url(#pa281a5239a)" style="fill: #1f77b4; fill-opacity: 0.75; stroke: #000000; stroke-linejoin: miter"/>
   </g>
   <g id="patch_11">
    <path d="M 96.901721 160.17 
L 119.202469 160.17 
L 119.202469 102.429048 
L 96.901721 102.429048 
z
" clip-path="url(#pa281a5239a)" style="fill: #1f77b4; fill-opacity: 0.75; stroke: #000000; stroke-linejoin: miter"/>
   </g>
   <g id="patch_12">
    <path d="M 119.202469 160.17 
L 141.503217 160.17 
L 141.503217 102.429048 
L 119.202469 102.429048 
z
" clip-path="url(#pa281a5239a)" style="fill: #1f77b4; fill-opacity: 0.75; stroke: #000000; stroke-linejoin: miter"/>
   </g>
   <g id="patch_13">
    <path d="M 141.503217 160.17 
L 163.803965 160.17 
L 163.803965 73.558571 
L 141.503217 73.558571 
z
" clip-path="url(#pa281a5239a)" style="fill: #1f77b4; fill-opacity: 0.75; stroke: #000000; stroke-linejoin: miter"/>
   </g>
   <g id="patch_14">
    <path d="M 163.803965 160.17 
L 186.104713 160.17 
L 186.104713 44.688095 
L 163.803965 44.688095 
z
" clip-path="url(#pa281a5239a)" style="fill: #1f77b4; fill-opacity: 0.75; stroke: #000000; stroke-linejoin: miter"/>
   </g>
  </g>
  <g id="axes_5">
   <g id="patch_15">
    <path d="M 204.485162 320.24 
L 226.78591 320.24 
L 226.78591 204.758095 
L 204.485162 204.758095 
z
" clip-path="url(#p73391c3eb0)" style="fill: #1f77b4; fill-opacity: 0.75; stroke: #000000; stroke-linejoin: miter"/>
   </g>
   <g id="patch_16">
    <path d="M 226.78591 320.24 
L 249.086659 320.24 
L 249.086659 233.628571 
L 226.78591 233.628571 
z
" clip-path="url(#p73391c3eb0)" style="fill: #1f77b4; fill-opacity: 0.75; stroke: #000000; stroke-linejoin: miter"/>
   </g>
   <g id="patch_17">
    <path d="M 249.086659 320.24 
L 271.387407 320.24 
L 271.387407 291.369524 
L 249.086659 291.369524 
z
" clip-path="url(#p73391c3eb0)" style="fill: #1f77b4; fill-opacity: 0.75; stroke: #000000; stroke-linejoin: miter"/>
   </g>
   <g id="patch_18">
    <path d="M 271.387407 320.24 
L 293.688155 320.24 
L 293.688155 233.628571 
L 271.387407 233.628571 
z
" clip-path="url(#p73391c3eb0)" style="fill: #1f77b4; fill-opacity: 0.75; stroke: #000000; stroke-linejoin: miter"/>
   </g>
   <g id="patch_19">
    <path d="M 293.688155 320.24 
L 315.988903 320.24 
L 315.988903 262.499048 
L 293.688155 262.499048 
z
" clip-path="url(#p73391c3eb0)" style="fill: #1f77b4; fill-opacity: 0.75; stroke: #000000; stroke-linejoin: miter"/>
   </g>
   <g id="patch_20">
    <path d="M 315.988903 320.24 
L 338.289651 320.24 
L 338.289651 175.887619 
L 315.988903 175.887619 
z
" clip-path="url(#p73391c3eb0)" style="fill: #1f77b4; fill-opacity: 0.75; stroke: #000000; stroke-linejoin: miter"/>
   </g>
  </g>
 </g>
 <defs>
  <clipPath id="p57b9f3f7d6">
   <rect x="45.61" y="168.67" width="147.184938" height="151.57"/>
  </clipPath>
  <clipPath id="pa281a5239a">
   <rect x="45.61" y="8.6" width="147.184938" height="151.57"/>
  </clipPath>
  <clipPath id="p73391c3eb0">
   <rect x="197.794938" y="168.67" width="147.184938" height="151.57"/>
  </clipPath>
 </defs>
</svg>
