<?xml version="1.0" encoding="utf-8" standalone="no"?>
<!DOCTYPE svg PUBLIC "-//W3C//DTD SVG 1.1//EN"
  "http://www.w3.org/Graphics/SVG/1.1/DTD/svg11.dtd">
<svg xmlns:xlink="http://www.w3.org/1999/xlink" width="540pt" height="540pt" viewBox="0 0 540 540" xmlns="http://www.w3.org/2000/svg" version="1.1">
 <metadata>
  <rdf:RDF xmlns:dc="http://purl.org/dc/elements/1.1/" xmlns:cc="http://creativecommons.org/ns#" xmlns:rdf="http://www.w3.org/1999/02/22-rdf-syntax-ns#">
   <cc:Work>
    <dc:type rdf:resource="http://purl.org/dc/dcmitype/StillImage"/>
    <dc:date>2025-05-19T15:55:24.880299</dc:date>
    <dc:format>image/svg+xml</dc:format>
    <dc:creator>
     <cc:Agent>
      <dc:title>Matplotlib v3.8.4, https://matplotlib.org/</dc:title>
     </cc:Agent>
    </dc:creator>
   </cc:Work>
  </rdf:RDF>
 </metadata>
 <defs>
  <style type="text/css">*{stroke-linejoin: round; stroke-linecap: butt}</style>
 </defs>
 <g id="figure_1">
  <g id="patch_1">
   <path d="M 0 540 
L 540 540 
L 540 0 
L 0 0 
z
" style="fill: #ffffff"/>
  </g>
  <g id="axes_1">
   <g id="patch_2">
    <path d="M 47.41 166.081475 
L 202.473333 166.081475 
L 202.473333 10.4 
L 47.41 10.4 
z
" style="fill: #ffffff"/>
   </g>
   <g id="matplotlib.axis_1">
    <g id="xtick_1">
     <g id="line2d_1">
      <defs>
       <path id="m5244ea5b30" d="M 0 0 
L 0 3.5 
" style="stroke: #000000; stroke-width: 0.8"/>
      </defs>
      <g>
       <use xlink:href="#m5244ea5b30" x="68.203366" y="166.081475" style="stroke: #000000; stroke-width: 0.8"/>
      </g>
     </g>
    </g>
    <g id="xtick_2">
     <g id="line2d_2">
      <g>
       <use xlink:href="#m5244ea5b30" x="104.914845" y="166.081475" style="stroke: #000000; stroke-width: 0.8"/>
      </g>
     </g>
    </g>
    <g id="xtick_3">
     <g id="line2d_3">
      <g>
       <use xlink:href="#m5244ea5b30" x="141.626325" y="166.081475" style="stroke: #000000; stroke-width: 0.8"/>
      </g>
     </g>
    </g>
    <g id="xtick_4">
     <g id="line2d_4">
      <g>
       <use xlink:href="#m5244ea5b30" x="178.337804" y="166.081475" style="stroke: #000000; stroke-width: 0.8"/>
      </g>
     </g>
    </g>
   </g>
   <g id="patch_3">
    <path d="M 47.41 166.081475 
L 202.473333 166.081475 
" style="fill: none; stroke: #000000; stroke-width: 0.8; stroke-linejoin: miter; stroke-linecap: square"/>
   </g>
   <g id="text_1">
    <!-- r = 1.00  -->
    <g transform="translate(62.916333 25.968147) scale(0.1 -0.1)">
     <defs>
      <path id="DejaVuSans-72" d="M 2631 2963 
Q 2534 3019 2420 3045 
Q 2306 3072 2169 3072 
Q 1681 3072 1420 2755 
Q 1159 2438 1159 1844 
L 1159 0 
L 581 0 
L 581 3500 
L 1159 3500 
L 1159 2956 
Q 1341 3275 1631 3429 
Q 1922 3584 2338 3584 
Q 2397 3584 2469 3576 
Q 2541 3569 2628 3553 
L 2631 2963 
z
" transform="scale(0.015625)"/>
      <path id="DejaVuSans-20" transform="scale(0.015625)"/>
      <path id="DejaVuSans-3d" d="M 678 2906 
L 4684 2906 
L 4684 2381 
L 678 2381 
L 678 2906 
z
M 678 1631 
L 4684 1631 
L 4684 1100 
L 678 1100 
L 678 1631 
z
" transform="scale(0.015625)"/>
      <path id="DejaVuSans-31" d="M 794 531 
L 1825 531 
L 1825 4091 
L 703 3866 
L 703 4441 
L 1819 4666 
L 2450 4666 
L 2450 531 
L 3481 531 
L 3481 0 
L 794 0 
L 794 531 
z
" transform="scale(0.015625)"/>
      <path id="DejaVuSans-2e" d="M 684 794 
L 1344 794 
L 1344 0 
L 684 0 
L 684 794 
z
" transform="scale(0.015625)"/>
      <path id="DejaVuSans-30" d="M 2034 4250 
Q 1547 4250 1301 3770 
Q 1056 3291 1056 2328 
Q 1056 1369 1301 889 
Q 1547 409 2034 409 
Q 2525 409 2770 889 
Q 3016 1369 3016 2328 
Q 3016 3291 2770 3770 
Q 2525 4250 2034 4250 
z
M 2034 4750 
Q 2819 4750 3233 4129 
Q 3647 3509 3647 2328 
Q 3647 1150 3233 529 
Q 2819 -91 2034 -91 
Q 1250 -91 836 529 
Q 422 1150 422 2328 
Q 422 3509 836 4129 
Q 1250 4750 2034 4750 
z
" transform="scale(0.015625)"/>
     </defs>
     <use xlink:href="#DejaVuSans-72"/>
     <use xlink:href="#DejaVuSans-20" x="41.113281"/>
     <use xlink:href="#DejaVuSans-3d" x="72.900391"/>
     <use xlink:href="#DejaVuSans-20" x="156.689453"/>
     <use xlink:href="#DejaVuSans-31" x="188.476562"/>
     <use xlink:href="#DejaVuSans-2e" x="252.099609"/>
     <use xlink:href="#DejaVuSans-30" x="283.886719"/>
     <use xlink:href="#DejaVuSans-30" x="347.509766"/>
     <use xlink:href="#DejaVuSans-20" x="411.132812"/>
    </g>
   </g>
   <g id="text_2">
    <!-- p = 0.000 -->
    <g transform="translate(124.941667 25.968147) scale(0.1 -0.1)">
     <defs>
      <path id="DejaVuSans-70" d="M 1159 525 
L 1159 -1331 
L 581 -1331 
L 581 3500 
L 1159 3500 
L 1159 2969 
Q 1341 3281 1617 3432 
Q 1894 3584 2278 3584 
Q 2916 3584 3314 3078 
Q 3713 2572 3713 1747 
Q 3713 922 3314 415 
Q 2916 -91 2278 -91 
Q 1894 -91 1617 61 
Q 1341 213 1159 525 
z
M 3116 1747 
Q 3116 2381 2855 2742 
Q 2594 3103 2138 3103 
Q 1681 3103 1420 2742 
Q 1159 2381 1159 1747 
Q 1159 1113 1420 752 
Q 1681 391 2138 391 
Q 2594 391 2855 752 
Q 3116 1113 3116 1747 
z
" transform="scale(0.015625)"/>
     </defs>
     <use xlink:href="#DejaVuSans-70"/>
     <use xlink:href="#DejaVuSans-20" x="63.476562"/>
     <use xlink:href="#DejaVuSans-3d" x="95.263672"/>
     <use xlink:href="#DejaVuSans-20" x="179.052734"/>
     <use xlink:href="#DejaVuSans-30" x="210.839844"/>
     <use xlink:href="#DejaVuSans-2e" x="274.462891"/>
     <use xlink:href="#DejaVuSans-30" x="306.25"/>
     <use xlink:href="#DejaVuSans-30" x="369.873047"/>
     <use xlink:href="#DejaVuSans-30" x="433.496094"/>
    </g>
   </g>
  </g>
  <g id="axes_2">
   <g id="patch_4">
    <path d="M 47.41 332.260737 
L 202.473333 332.260737 
L 202.473333 176.579263 
L 47.41 176.579263 
z
" style="fill: #ffffff"/>
   </g>
   <g id="PathCollection_1">
    <defs>
     <path id="mf54804b641" d="M 0 3 
C 0.795609 3 1.55874 2.683901 2.12132 2.12132 
C 2.683901 1.55874 3 0.795609 3 0 
C 3 -0.795609 2.683901 -1.55874 2.12132 -2.12132 
C 1.55874 -2.683901 0.795609 -3 0 -3 
C -0.795609 -3 -1.55874 -2.683901 -2.12132 -2.12132 
C -2.683901 -1.55874 -3 -0.795609 -3 0 
C -3 0.795609 -2.683901 1.55874 -2.12132 2.12132 
C -1.55874 2.683901 -0.795609 3 0 3 
z
" style="stroke: #1f77b4; stroke-opacity: 0.8"/>
    </defs>
    <g clip-path="url(#p341fb0662b)">
     <use xlink:href="#mf54804b641" x="57.616034" y="183.655693" style="fill: #1f77b4; fill-opacity: 0.8; stroke: #1f77b4; stroke-opacity: 0.8"/>
     <use xlink:href="#mf54804b641" x="108.941804" y="225.472355" style="fill: #1f77b4; fill-opacity: 0.8; stroke: #1f77b4; stroke-opacity: 0.8"/>
     <use xlink:href="#mf54804b641" x="67.33793" y="221.525979" style="fill: #1f77b4; fill-opacity: 0.8; stroke: #1f77b4; stroke-opacity: 0.8"/>
     <use xlink:href="#mf54804b641" x="170.426067" y="260.610977" style="fill: #1f77b4; fill-opacity: 0.8; stroke: #1f77b4; stroke-opacity: 0.8"/>
     <use xlink:href="#mf54804b641" x="75.143499" y="263.825137" style="fill: #1f77b4; fill-opacity: 0.8; stroke: #1f77b4; stroke-opacity: 0.8"/>
     <use xlink:href="#mf54804b641" x="57.663046" y="299.254171" style="fill: #1f77b4; fill-opacity: 0.8; stroke: #1f77b4; stroke-opacity: 0.8"/>
     <use xlink:href="#mf54804b641" x="195.425" y="299.442294" style="fill: #1f77b4; fill-opacity: 0.8; stroke: #1f77b4; stroke-opacity: 0.8"/>
     <use xlink:href="#mf54804b641" x="165.091953" y="293.756689" style="fill: #1f77b4; fill-opacity: 0.8; stroke: #1f77b4; stroke-opacity: 0.8"/>
     <use xlink:href="#mf54804b641" x="162.35865" y="230.623766" style="fill: #1f77b4; fill-opacity: 0.8; stroke: #1f77b4; stroke-opacity: 0.8"/>
     <use xlink:href="#mf54804b641" x="57.677773" y="306.045515" style="fill: #1f77b4; fill-opacity: 0.8; stroke: #1f77b4; stroke-opacity: 0.8"/>
     <use xlink:href="#mf54804b641" x="114.643849" y="311.005377" style="fill: #1f77b4; fill-opacity: 0.8; stroke: #1f77b4; stroke-opacity: 0.8"/>
     <use xlink:href="#mf54804b641" x="138.868397" y="325.184307" style="fill: #1f77b4; fill-opacity: 0.8; stroke: #1f77b4; stroke-opacity: 0.8"/>
     <use xlink:href="#mf54804b641" x="161.769998" y="248.302872" style="fill: #1f77b4; fill-opacity: 0.8; stroke: #1f77b4; stroke-opacity: 0.8"/>
     <use xlink:href="#mf54804b641" x="54.458333" y="293.51925" style="fill: #1f77b4; fill-opacity: 0.8; stroke: #1f77b4; stroke-opacity: 0.8"/>
     <use xlink:href="#mf54804b641" x="164.256716" y="257.276616" style="fill: #1f77b4; fill-opacity: 0.8; stroke: #1f77b4; stroke-opacity: 0.8"/>
     <use xlink:href="#mf54804b641" x="170.988603" y="309.064487" style="fill: #1f77b4; fill-opacity: 0.8; stroke: #1f77b4; stroke-opacity: 0.8"/>
     <use xlink:href="#mf54804b641" x="186.698953" y="299.515091" style="fill: #1f77b4; fill-opacity: 0.8; stroke: #1f77b4; stroke-opacity: 0.8"/>
     <use xlink:href="#mf54804b641" x="69.583008" y="283.243593" style="fill: #1f77b4; fill-opacity: 0.8; stroke: #1f77b4; stroke-opacity: 0.8"/>
    </g>
   </g>
   <g id="PolyCollection_1">
    <path d="M 54.458333 226.471003 
L 54.458333 292.962074 
L 55.882239 292.693969 
L 57.306145 292.425863 
L 58.730051 292.173398 
L 60.153956 292.056481 
L 61.577862 291.939565 
L 63.001768 291.822547 
L 64.425673 291.712799 
L 65.849579 291.582649 
L 67.273485 291.388796 
L 68.697391 291.047833 
L 70.121296 290.991271 
L 71.545202 290.877486 
L 72.969108 290.847343 
L 74.393013 290.8172 
L 75.816919 290.765853 
L 77.240825 290.65106 
L 78.664731 290.508486 
L 80.088636 290.327065 
L 81.512542 290.149641 
L 82.936448 290.008168 
L 84.360354 289.810224 
L 85.784259 289.876272 
L 87.208165 289.835074 
L 88.632071 289.718158 
L 90.055976 289.596154 
L 91.479882 289.487783 
L 92.903788 289.447149 
L 94.327694 289.309754 
L 95.751599 289.385854 
L 97.175505 289.455293 
L 98.599411 289.524685 
L 100.023316 289.359774 
L 101.447222 289.199316 
L 102.871128 289.184311 
L 104.295034 289.114912 
L 105.718939 289.153238 
L 107.142845 289.243527 
L 108.566751 289.340326 
L 109.990657 289.293016 
L 111.414562 289.483994 
L 112.838468 289.448685 
L 114.262374 289.611919 
L 115.686279 289.778936 
L 117.110185 289.831345 
L 118.534091 289.915372 
L 119.957997 289.953735 
L 121.381902 289.965052 
L 122.805808 290.015545 
L 124.229714 290.256011 
L 125.65362 290.356697 
L 127.077525 290.427411 
L 128.501431 290.514349 
L 129.925337 290.579718 
L 131.349242 290.476618 
L 132.773148 290.675905 
L 134.197054 290.741749 
L 135.62096 290.973997 
L 137.044865 291.142758 
L 138.468771 291.406749 
L 139.892677 291.669523 
L 141.316582 291.751805 
L 142.740488 291.848719 
L 144.164394 292.136298 
L 145.5883 292.512038 
L 147.012205 292.717647 
L 148.436111 293.04733 
L 149.860017 293.211462 
L 151.283923 293.408897 
L 152.707828 293.769602 
L 154.131734 294.135967 
L 155.55564 294.561551 
L 156.979545 295.03266 
L 158.403451 295.556636 
L 159.827357 295.768488 
L 161.251263 296.141879 
L 162.675168 296.924079 
L 164.099074 297.130088 
L 165.52298 297.625815 
L 166.946886 297.951883 
L 168.370791 298.28679 
L 169.794697 298.627118 
L 171.218603 299.323492 
L 172.642508 300.102531 
L 174.066414 300.72533 
L 175.49032 301.247595 
L 176.914226 301.763232 
L 178.338131 302.277211 
L 179.762037 302.880882 
L 181.185943 303.45608 
L 182.609848 303.896194 
L 184.033754 304.61295 
L 185.45766 305.310748 
L 186.881566 306.022781 
L 188.305471 306.549271 
L 189.729377 307.075761 
L 191.153283 307.594935 
L 192.577189 308.113679 
L 194.001094 308.632424 
L 195.425 309.235588 
L 195.425 256.963054 
L 195.425 256.963054 
L 194.001094 257.208021 
L 192.577189 257.288473 
L 191.153283 257.368925 
L 189.729377 257.59382 
L 188.305471 257.830097 
L 186.881566 258.07044 
L 185.45766 258.310782 
L 184.033754 258.559583 
L 182.609848 258.787911 
L 181.185943 259.024739 
L 179.762037 259.261567 
L 178.338131 259.498395 
L 176.914226 259.56384 
L 175.49032 259.633601 
L 174.066414 259.741706 
L 172.642508 259.982038 
L 171.218603 259.936697 
L 169.794697 259.95085 
L 168.370791 259.869376 
L 166.946886 259.918402 
L 165.52298 259.859626 
L 164.099074 259.591251 
L 162.675168 259.918791 
L 161.251263 260.237868 
L 159.827357 260.236768 
L 158.403451 260.220821 
L 156.979545 260.279537 
L 155.55564 260.323566 
L 154.131734 260.370205 
L 152.707828 260.423734 
L 151.283923 260.406506 
L 149.860017 260.523856 
L 148.436111 260.188425 
L 147.012205 259.821127 
L 145.5883 259.805142 
L 144.164394 259.399212 
L 142.740488 259.238057 
L 141.316582 259.189549 
L 139.892677 259.022679 
L 138.468771 258.96863 
L 137.044865 258.690905 
L 135.62096 258.401302 
L 134.197054 257.93632 
L 132.773148 257.713586 
L 131.349242 257.571267 
L 129.925337 257.275472 
L 128.501431 256.895434 
L 127.077525 256.402948 
L 125.65362 255.986358 
L 124.229714 255.398848 
L 122.805808 255.183284 
L 121.381902 254.467426 
L 119.957997 254.142295 
L 118.534091 253.946621 
L 117.110185 253.26603 
L 115.686279 252.585438 
L 114.262374 251.904846 
L 112.838468 251.224255 
L 111.414562 250.543663 
L 109.990657 249.963293 
L 108.566751 249.462875 
L 107.142845 248.959301 
L 105.718939 248.322214 
L 104.295034 247.777922 
L 102.871128 247.23363 
L 101.447222 246.674977 
L 100.023316 245.992475 
L 98.599411 245.354401 
L 97.175505 244.842835 
L 95.751599 244.216027 
L 94.327694 243.573383 
L 92.903788 242.708246 
L 91.479882 242.188741 
L 90.055976 241.677272 
L 88.632071 240.950538 
L 87.208165 240.082795 
L 85.784259 239.397509 
L 84.360354 238.805708 
L 82.936448 238.218619 
L 81.512542 237.63153 
L 80.088636 237.044441 
L 78.664731 236.457352 
L 77.240825 235.870263 
L 75.816919 235.283174 
L 74.393013 234.646756 
L 72.969108 233.946033 
L 71.545202 233.245309 
L 70.121296 232.544585 
L 68.697391 231.916016 
L 67.273485 231.322346 
L 65.849579 230.733466 
L 64.425673 230.228123 
L 63.001768 229.613524 
L 61.577862 229.089187 
L 60.153956 228.567426 
L 58.730051 228.002757 
L 57.306145 227.485556 
L 55.882239 226.991325 
L 54.458333 226.471003 
z
" clip-path="url(#p341fb0662b)" style="fill: #008000; fill-opacity: 0.15"/>
   </g>
   <g id="matplotlib.axis_2">
    <g id="xtick_5">
     <g id="line2d_5">
      <g>
       <use xlink:href="#m5244ea5b30" x="68.203366" y="332.260737" style="stroke: #000000; stroke-width: 0.8"/>
      </g>
     </g>
    </g>
    <g id="xtick_6">
     <g id="line2d_6">
      <g>
       <use xlink:href="#m5244ea5b30" x="104.914845" y="332.260737" style="stroke: #000000; stroke-width: 0.8"/>
      </g>
     </g>
    </g>
    <g id="xtick_7">
     <g id="line2d_7">
      <g>
       <use xlink:href="#m5244ea5b30" x="141.626325" y="332.260737" style="stroke: #000000; stroke-width: 0.8"/>
      </g>
     </g>
    </g>
    <g id="xtick_8">
     <g id="line2d_8">
      <g>
       <use xlink:href="#m5244ea5b30" x="178.337804" y="332.260737" style="stroke: #000000; stroke-width: 0.8"/>
      </g>
     </g>
    </g>
   </g>
   <g id="matplotlib.axis_3">
    <g id="ytick_1">
     <g id="line2d_9">
      <defs>
       <path id="mb03ec54bfe" d="M 0 0 
L -3.5 0 
" style="stroke: #000000; stroke-width: 0.8"/>
      </defs>
      <g>
       <use xlink:href="#mb03ec54bfe" x="47.41" y="306.436265" style="stroke: #000000; stroke-width: 0.8"/>
      </g>
     </g>
     <g id="text_3">
      <!-- 0.2 -->
      <g transform="translate(24.506875 310.235484) scale(0.1 -0.1)">
       <defs>
        <path id="DejaVuSans-32" d="M 1228 531 
L 3431 531 
L 3431 0 
L 469 0 
L 469 531 
Q 828 903 1448 1529 
Q 2069 2156 2228 2338 
Q 2531 2678 2651 2914 
Q 2772 3150 2772 3378 
Q 2772 3750 2511 3984 
Q 2250 4219 1831 4219 
Q 1534 4219 1204 4116 
Q 875 4013 500 3803 
L 500 4441 
Q 881 4594 1212 4672 
Q 1544 4750 1819 4750 
Q 2544 4750 2975 4387 
Q 3406 4025 3406 3419 
Q 3406 3131 3298 2873 
Q 3191 2616 2906 2266 
Q 2828 2175 2409 1742 
Q 1991 1309 1228 531 
z
" transform="scale(0.015625)"/>
       </defs>
       <use xlink:href="#DejaVuSans-30"/>
       <use xlink:href="#DejaVuSans-2e" x="63.623047"/>
       <use xlink:href="#DejaVuSans-32" x="95.410156"/>
      </g>
     </g>
    </g>
    <g id="ytick_2">
     <g id="line2d_10">
      <g>
       <use xlink:href="#mb03ec54bfe" x="47.41" y="275.45381" style="stroke: #000000; stroke-width: 0.8"/>
      </g>
     </g>
     <g id="text_4">
      <!-- 0.4 -->
      <g transform="translate(24.506875 279.253029) scale(0.1 -0.1)">
       <defs>
        <path id="DejaVuSans-34" d="M 2419 4116 
L 825 1625 
L 2419 1625 
L 2419 4116 
z
M 2253 4666 
L 3047 4666 
L 3047 1625 
L 3713 1625 
L 3713 1100 
L 3047 1100 
L 3047 0 
L 2419 0 
L 2419 1100 
L 313 1100 
L 313 1709 
L 2253 4666 
z
" transform="scale(0.015625)"/>
       </defs>
       <use xlink:href="#DejaVuSans-30"/>
       <use xlink:href="#DejaVuSans-2e" x="63.623047"/>
       <use xlink:href="#DejaVuSans-34" x="95.410156"/>
      </g>
     </g>
    </g>
    <g id="ytick_3">
     <g id="line2d_11">
      <g>
       <use xlink:href="#mb03ec54bfe" x="47.41" y="244.471356" style="stroke: #000000; stroke-width: 0.8"/>
      </g>
     </g>
     <g id="text_5">
      <!-- 0.6 -->
      <g transform="translate(24.506875 248.270575) scale(0.1 -0.1)">
       <defs>
        <path id="DejaVuSans-36" d="M 2113 2584 
Q 1688 2584 1439 2293 
Q 1191 2003 1191 1497 
Q 1191 994 1439 701 
Q 1688 409 2113 409 
Q 2538 409 2786 701 
Q 3034 994 3034 1497 
Q 3034 2003 2786 2293 
Q 2538 2584 2113 2584 
z
M 3366 4563 
L 3366 3988 
Q 3128 4100 2886 4159 
Q 2644 4219 2406 4219 
Q 1781 4219 1451 3797 
Q 1122 3375 1075 2522 
Q 1259 2794 1537 2939 
Q 1816 3084 2150 3084 
Q 2853 3084 3261 2657 
Q 3669 2231 3669 1497 
Q 3669 778 3244 343 
Q 2819 -91 2113 -91 
Q 1303 -91 875 529 
Q 447 1150 447 2328 
Q 447 3434 972 4092 
Q 1497 4750 2381 4750 
Q 2619 4750 2861 4703 
Q 3103 4656 3366 4563 
z
" transform="scale(0.015625)"/>
       </defs>
       <use xlink:href="#DejaVuSans-30"/>
       <use xlink:href="#DejaVuSans-2e" x="63.623047"/>
       <use xlink:href="#DejaVuSans-36" x="95.410156"/>
      </g>
     </g>
    </g>
    <g id="ytick_4">
     <g id="line2d_12">
      <g>
       <use xlink:href="#mb03ec54bfe" x="47.41" y="213.488901" style="stroke: #000000; stroke-width: 0.8"/>
      </g>
     </g>
     <g id="text_6">
      <!-- 0.8 -->
      <g transform="translate(24.506875 217.28812) scale(0.1 -0.1)">
       <defs>
        <path id="DejaVuSans-38" d="M 2034 2216 
Q 1584 2216 1326 1975 
Q 1069 1734 1069 1313 
Q 1069 891 1326 650 
Q 1584 409 2034 409 
Q 2484 409 2743 651 
Q 3003 894 3003 1313 
Q 3003 1734 2745 1975 
Q 2488 2216 2034 2216 
z
M 1403 2484 
Q 997 2584 770 2862 
Q 544 3141 544 3541 
Q 544 4100 942 4425 
Q 1341 4750 2034 4750 
Q 2731 4750 3128 4425 
Q 3525 4100 3525 3541 
Q 3525 3141 3298 2862 
Q 3072 2584 2669 2484 
Q 3125 2378 3379 2068 
Q 3634 1759 3634 1313 
Q 3634 634 3220 271 
Q 2806 -91 2034 -91 
Q 1263 -91 848 271 
Q 434 634 434 1313 
Q 434 1759 690 2068 
Q 947 2378 1403 2484 
z
M 1172 3481 
Q 1172 3119 1398 2916 
Q 1625 2713 2034 2713 
Q 2441 2713 2670 2916 
Q 2900 3119 2900 3481 
Q 2900 3844 2670 4047 
Q 2441 4250 2034 4250 
Q 1625 4250 1398 4047 
Q 1172 3844 1172 3481 
z
" transform="scale(0.015625)"/>
       </defs>
       <use xlink:href="#DejaVuSans-30"/>
       <use xlink:href="#DejaVuSans-2e" x="63.623047"/>
       <use xlink:href="#DejaVuSans-38" x="95.410156"/>
      </g>
     </g>
    </g>
    <g id="ytick_5">
     <g id="line2d_13">
      <g>
       <use xlink:href="#mb03ec54bfe" x="47.41" y="182.506447" style="stroke: #000000; stroke-width: 0.8"/>
      </g>
     </g>
     <g id="text_7">
      <!-- 1.0 -->
      <g transform="translate(24.506875 186.305665) scale(0.1 -0.1)">
       <use xlink:href="#DejaVuSans-31"/>
       <use xlink:href="#DejaVuSans-2e" x="63.623047"/>
       <use xlink:href="#DejaVuSans-30" x="95.410156"/>
      </g>
     </g>
    </g>
    <g id="text_8">
     <!-- reward rate -->
     <g transform="translate(18.427187 283.480156) rotate(-90) scale(0.1 -0.1)">
      <defs>
       <path id="DejaVuSans-65" d="M 3597 1894 
L 3597 1613 
L 953 1613 
Q 991 1019 1311 708 
Q 1631 397 2203 397 
Q 2534 397 2845 478 
Q 3156 559 3463 722 
L 3463 178 
Q 3153 47 2828 -22 
Q 2503 -91 2169 -91 
Q 1331 -91 842 396 
Q 353 884 353 1716 
Q 353 2575 817 3079 
Q 1281 3584 2069 3584 
Q 2775 3584 3186 3129 
Q 3597 2675 3597 1894 
z
M 3022 2063 
Q 3016 2534 2758 2815 
Q 2500 3097 2075 3097 
Q 1594 3097 1305 2825 
Q 1016 2553 972 2059 
L 3022 2063 
z
" transform="scale(0.015625)"/>
       <path id="DejaVuSans-77" d="M 269 3500 
L 844 3500 
L 1563 769 
L 2278 3500 
L 2956 3500 
L 3675 769 
L 4391 3500 
L 4966 3500 
L 4050 0 
L 3372 0 
L 2619 2869 
L 1863 0 
L 1184 0 
L 269 3500 
z
" transform="scale(0.015625)"/>
       <path id="DejaVuSans-61" d="M 2194 1759 
Q 1497 1759 1228 1600 
Q 959 1441 959 1056 
Q 959 750 1161 570 
Q 1363 391 1709 391 
Q 2188 391 2477 730 
Q 2766 1069 2766 1631 
L 2766 1759 
L 2194 1759 
z
M 3341 1997 
L 3341 0 
L 2766 0 
L 2766 531 
Q 2569 213 2275 61 
Q 1981 -91 1556 -91 
Q 1019 -91 701 211 
Q 384 513 384 1019 
Q 384 1609 779 1909 
Q 1175 2209 1959 2209 
L 2766 2209 
L 2766 2266 
Q 2766 2663 2505 2880 
Q 2244 3097 1772 3097 
Q 1472 3097 1187 3025 
Q 903 2953 641 2809 
L 641 3341 
Q 956 3463 1253 3523 
Q 1550 3584 1831 3584 
Q 2591 3584 2966 3190 
Q 3341 2797 3341 1997 
z
" transform="scale(0.015625)"/>
       <path id="DejaVuSans-64" d="M 2906 2969 
L 2906 4863 
L 3481 4863 
L 3481 0 
L 2906 0 
L 2906 525 
Q 2725 213 2448 61 
Q 2172 -91 1784 -91 
Q 1150 -91 751 415 
Q 353 922 353 1747 
Q 353 2572 751 3078 
Q 1150 3584 1784 3584 
Q 2172 3584 2448 3432 
Q 2725 3281 2906 2969 
z
M 947 1747 
Q 947 1113 1208 752 
Q 1469 391 1925 391 
Q 2381 391 2643 752 
Q 2906 1113 2906 1747 
Q 2906 2381 2643 2742 
Q 2381 3103 1925 3103 
Q 1469 3103 1208 2742 
Q 947 2381 947 1747 
z
" transform="scale(0.015625)"/>
       <path id="DejaVuSans-74" d="M 1172 4494 
L 1172 3500 
L 2356 3500 
L 2356 3053 
L 1172 3053 
L 1172 1153 
Q 1172 725 1289 603 
Q 1406 481 1766 481 
L 2356 481 
L 2356 0 
L 1766 0 
Q 1100 0 847 248 
Q 594 497 594 1153 
L 594 3053 
L 172 3053 
L 172 3500 
L 594 3500 
L 594 4494 
L 1172 4494 
z
" transform="scale(0.015625)"/>
      </defs>
      <use xlink:href="#DejaVuSans-72"/>
      <use xlink:href="#DejaVuSans-65" x="38.863281"/>
      <use xlink:href="#DejaVuSans-77" x="100.386719"/>
      <use xlink:href="#DejaVuSans-61" x="182.173828"/>
      <use xlink:href="#DejaVuSans-72" x="243.453125"/>
      <use xlink:href="#DejaVuSans-64" x="282.816406"/>
      <use xlink:href="#DejaVuSans-20" x="346.292969"/>
      <use xlink:href="#DejaVuSans-72" x="378.080078"/>
      <use xlink:href="#DejaVuSans-61" x="419.193359"/>
      <use xlink:href="#DejaVuSans-74" x="480.472656"/>
      <use xlink:href="#DejaVuSans-65" x="519.681641"/>
     </g>
    </g>
   </g>
   <g id="line2d_14">
    <path d="M 54.458333 263.074993 
L 55.882239 263.284029 
L 57.306145 263.493064 
L 58.730051 263.7021 
L 60.153956 263.911136 
L 61.577862 264.120171 
L 63.001768 264.329207 
L 64.425673 264.538242 
L 65.849579 264.747278 
L 67.273485 264.956313 
L 68.697391 265.165349 
L 70.121296 265.374384 
L 71.545202 265.58342 
L 72.969108 265.792455 
L 74.393013 266.001491 
L 75.816919 266.210526 
L 77.240825 266.419562 
L 78.664731 266.628597 
L 80.088636 266.837633 
L 81.512542 267.046668 
L 82.936448 267.255704 
L 84.360354 267.464739 
L 85.784259 267.673775 
L 87.208165 267.88281 
L 88.632071 268.091846 
L 90.055976 268.300881 
L 91.479882 268.509917 
L 92.903788 268.718952 
L 94.327694 268.927988 
L 95.751599 269.137023 
L 97.175505 269.346059 
L 98.599411 269.555095 
L 100.023316 269.76413 
L 101.447222 269.973166 
L 102.871128 270.182201 
L 104.295034 270.391237 
L 105.718939 270.600272 
L 107.142845 270.809308 
L 108.566751 271.018343 
L 109.990657 271.227379 
L 111.414562 271.436414 
L 112.838468 271.64545 
L 114.262374 271.854485 
L 115.686279 272.063521 
L 117.110185 272.272556 
L 118.534091 272.481592 
L 119.957997 272.690627 
L 121.381902 272.899663 
L 122.805808 273.108698 
L 124.229714 273.317734 
L 125.65362 273.526769 
L 127.077525 273.735805 
L 128.501431 273.94484 
L 129.925337 274.153876 
L 131.349242 274.362911 
L 132.773148 274.571947 
L 134.197054 274.780982 
L 135.62096 274.990018 
L 137.044865 275.199053 
L 138.468771 275.408089 
L 139.892677 275.617125 
L 141.316582 275.82616 
L 142.740488 276.035196 
L 144.164394 276.244231 
L 145.5883 276.453267 
L 147.012205 276.662302 
L 148.436111 276.871338 
L 149.860017 277.080373 
L 151.283923 277.289409 
L 152.707828 277.498444 
L 154.131734 277.70748 
L 155.55564 277.916515 
L 156.979545 278.125551 
L 158.403451 278.334586 
L 159.827357 278.543622 
L 161.251263 278.752657 
L 162.675168 278.961693 
L 164.099074 279.170728 
L 165.52298 279.379764 
L 166.946886 279.588799 
L 168.370791 279.797835 
L 169.794697 280.00687 
L 171.218603 280.215906 
L 172.642508 280.424941 
L 174.066414 280.633977 
L 175.49032 280.843012 
L 176.914226 281.052048 
L 178.338131 281.261084 
L 179.762037 281.470119 
L 181.185943 281.679155 
L 182.609848 281.88819 
L 184.033754 282.097226 
L 185.45766 282.306261 
L 186.881566 282.515297 
L 188.305471 282.724332 
L 189.729377 282.933368 
L 191.153283 283.142403 
L 192.577189 283.351439 
L 194.001094 283.560474 
L 195.425 283.76951 
" clip-path="url(#p341fb0662b)" style="fill: none; stroke: #008000; stroke-opacity: 0.6; stroke-width: 2.25; stroke-linecap: square"/>
   </g>
   <g id="patch_5">
    <path d="M 47.41 332.260737 
L 47.41 176.579263 
" style="fill: none; stroke: #000000; stroke-width: 0.8; stroke-linejoin: miter; stroke-linecap: square"/>
   </g>
   <g id="patch_6">
    <path d="M 47.41 332.260737 
L 202.473333 332.260737 
" style="fill: none; stroke: #000000; stroke-width: 0.8; stroke-linejoin: miter; stroke-linecap: square"/>
   </g>
   <g id="text_9">
    <!-- r = -0.20  -->
    <g transform="translate(62.916333 192.14741) scale(0.1 -0.1)">
     <defs>
      <path id="DejaVuSans-2d" d="M 313 2009 
L 1997 2009 
L 1997 1497 
L 313 1497 
L 313 2009 
z
" transform="scale(0.015625)"/>
     </defs>
     <use xlink:href="#DejaVuSans-72"/>
     <use xlink:href="#DejaVuSans-20" x="41.113281"/>
     <use xlink:href="#DejaVuSans-3d" x="72.900391"/>
     <use xlink:href="#DejaVuSans-20" x="156.689453"/>
     <use xlink:href="#DejaVuSans-2d" x="188.476562"/>
     <use xlink:href="#DejaVuSans-30" x="224.560547"/>
     <use xlink:href="#DejaVuSans-2e" x="288.183594"/>
     <use xlink:href="#DejaVuSans-32" x="319.970703"/>
     <use xlink:href="#DejaVuSans-30" x="383.59375"/>
     <use xlink:href="#DejaVuSans-20" x="447.216797"/>
    </g>
   </g>
   <g id="text_10">
    <!-- p = 0.429 -->
    <g transform="translate(124.941667 192.14741) scale(0.1 -0.1)">
     <defs>
      <path id="DejaVuSans-39" d="M 703 97 
L 703 672 
Q 941 559 1184 500 
Q 1428 441 1663 441 
Q 2288 441 2617 861 
Q 2947 1281 2994 2138 
Q 2813 1869 2534 1725 
Q 2256 1581 1919 1581 
Q 1219 1581 811 2004 
Q 403 2428 403 3163 
Q 403 3881 828 4315 
Q 1253 4750 1959 4750 
Q 2769 4750 3195 4129 
Q 3622 3509 3622 2328 
Q 3622 1225 3098 567 
Q 2575 -91 1691 -91 
Q 1453 -91 1209 -44 
Q 966 3 703 97 
z
M 1959 2075 
Q 2384 2075 2632 2365 
Q 2881 2656 2881 3163 
Q 2881 3666 2632 3958 
Q 2384 4250 1959 4250 
Q 1534 4250 1286 3958 
Q 1038 3666 1038 3163 
Q 1038 2656 1286 2365 
Q 1534 2075 1959 2075 
z
" transform="scale(0.015625)"/>
     </defs>
     <use xlink:href="#DejaVuSans-70"/>
     <use xlink:href="#DejaVuSans-20" x="63.476562"/>
     <use xlink:href="#DejaVuSans-3d" x="95.263672"/>
     <use xlink:href="#DejaVuSans-20" x="179.052734"/>
     <use xlink:href="#DejaVuSans-30" x="210.839844"/>
     <use xlink:href="#DejaVuSans-2e" x="274.462891"/>
     <use xlink:href="#DejaVuSans-34" x="306.25"/>
     <use xlink:href="#DejaVuSans-32" x="369.873047"/>
     <use xlink:href="#DejaVuSans-39" x="433.496094"/>
    </g>
   </g>
  </g>
  <g id="axes_3">
   <g id="patch_7">
    <path d="M 210.973333 332.260737 
L 366.036667 332.260737 
L 366.036667 176.579263 
L 210.973333 176.579263 
z
" style="fill: #ffffff"/>
   </g>
   <g id="matplotlib.axis_4">
    <g id="xtick_9">
     <g id="line2d_15">
      <g>
       <use xlink:href="#m5244ea5b30" x="244.410128" y="332.260737" style="stroke: #000000; stroke-width: 0.8"/>
      </g>
     </g>
    </g>
    <g id="xtick_10">
     <g id="line2d_16">
      <g>
       <use xlink:href="#m5244ea5b30" x="282.984424" y="332.260737" style="stroke: #000000; stroke-width: 0.8"/>
      </g>
     </g>
    </g>
    <g id="xtick_11">
     <g id="line2d_17">
      <g>
       <use xlink:href="#m5244ea5b30" x="321.55872" y="332.260737" style="stroke: #000000; stroke-width: 0.8"/>
      </g>
     </g>
    </g>
    <g id="xtick_12">
     <g id="line2d_18">
      <g>
       <use xlink:href="#m5244ea5b30" x="360.133017" y="332.260737" style="stroke: #000000; stroke-width: 0.8"/>
      </g>
     </g>
    </g>
   </g>
   <g id="patch_8">
    <path d="M 210.973333 332.260737 
L 366.036667 332.260737 
" style="fill: none; stroke: #000000; stroke-width: 0.8; stroke-linejoin: miter; stroke-linecap: square"/>
   </g>
   <g id="text_11">
    <!-- r = 1.00  -->
    <g transform="translate(226.479667 192.14741) scale(0.1 -0.1)">
     <use xlink:href="#DejaVuSans-72"/>
     <use xlink:href="#DejaVuSans-20" x="41.113281"/>
     <use xlink:href="#DejaVuSans-3d" x="72.900391"/>
     <use xlink:href="#DejaVuSans-20" x="156.689453"/>
     <use xlink:href="#DejaVuSans-31" x="188.476562"/>
     <use xlink:href="#DejaVuSans-2e" x="252.099609"/>
     <use xlink:href="#DejaVuSans-30" x="283.886719"/>
     <use xlink:href="#DejaVuSans-30" x="347.509766"/>
     <use xlink:href="#DejaVuSans-20" x="411.132812"/>
    </g>
   </g>
   <g id="text_12">
    <!-- p = 0.000 -->
    <g transform="translate(288.505 192.14741) scale(0.1 -0.1)">
     <use xlink:href="#DejaVuSans-70"/>
     <use xlink:href="#DejaVuSans-20" x="63.476562"/>
     <use xlink:href="#DejaVuSans-3d" x="95.263672"/>
     <use xlink:href="#DejaVuSans-20" x="179.052734"/>
     <use xlink:href="#DejaVuSans-30" x="210.839844"/>
     <use xlink:href="#DejaVuSans-2e" x="274.462891"/>
     <use xlink:href="#DejaVuSans-30" x="306.25"/>
     <use xlink:href="#DejaVuSans-30" x="369.873047"/>
     <use xlink:href="#DejaVuSans-30" x="433.496094"/>
    </g>
   </g>
  </g>
  <g id="axes_4">
   <g id="patch_9">
    <path d="M 47.41 498.44 
L 202.473333 498.44 
L 202.473333 342.758525 
L 47.41 342.758525 
z
" style="fill: #ffffff"/>
   </g>
   <g id="PathCollection_2">
    <g clip-path="url(#p60074e55df)">
     <use xlink:href="#mf54804b641" x="57.616034" y="445.979912" style="fill: #1f77b4; fill-opacity: 0.8; stroke: #1f77b4; stroke-opacity: 0.8"/>
     <use xlink:href="#mf54804b641" x="108.941804" y="390.491096" style="fill: #1f77b4; fill-opacity: 0.8; stroke: #1f77b4; stroke-opacity: 0.8"/>
     <use xlink:href="#mf54804b641" x="67.33793" y="437.946922" style="fill: #1f77b4; fill-opacity: 0.8; stroke: #1f77b4; stroke-opacity: 0.8"/>
     <use xlink:href="#mf54804b641" x="170.426067" y="350.835302" style="fill: #1f77b4; fill-opacity: 0.8; stroke: #1f77b4; stroke-opacity: 0.8"/>
     <use xlink:href="#mf54804b641" x="75.143499" y="491.363569" style="fill: #1f77b4; fill-opacity: 0.8; stroke: #1f77b4; stroke-opacity: 0.8"/>
     <use xlink:href="#mf54804b641" x="57.663046" y="394.833469" style="fill: #1f77b4; fill-opacity: 0.8; stroke: #1f77b4; stroke-opacity: 0.8"/>
     <use xlink:href="#mf54804b641" x="195.425" y="393.650238" style="fill: #1f77b4; fill-opacity: 0.8; stroke: #1f77b4; stroke-opacity: 0.8"/>
     <use xlink:href="#mf54804b641" x="165.091953" y="429.633305" style="fill: #1f77b4; fill-opacity: 0.8; stroke: #1f77b4; stroke-opacity: 0.8"/>
     <use xlink:href="#mf54804b641" x="162.35865" y="367.461376" style="fill: #1f77b4; fill-opacity: 0.8; stroke: #1f77b4; stroke-opacity: 0.8"/>
     <use xlink:href="#mf54804b641" x="57.677773" y="385.408631" style="fill: #1f77b4; fill-opacity: 0.8; stroke: #1f77b4; stroke-opacity: 0.8"/>
     <use xlink:href="#mf54804b641" x="114.643849" y="365.701859" style="fill: #1f77b4; fill-opacity: 0.8; stroke: #1f77b4; stroke-opacity: 0.8"/>
     <use xlink:href="#mf54804b641" x="138.868397" y="363.44062" style="fill: #1f77b4; fill-opacity: 0.8; stroke: #1f77b4; stroke-opacity: 0.8"/>
     <use xlink:href="#mf54804b641" x="161.769998" y="419.051779" style="fill: #1f77b4; fill-opacity: 0.8; stroke: #1f77b4; stroke-opacity: 0.8"/>
     <use xlink:href="#mf54804b641" x="54.458333" y="487.048253" style="fill: #1f77b4; fill-opacity: 0.8; stroke: #1f77b4; stroke-opacity: 0.8"/>
     <use xlink:href="#mf54804b641" x="164.256716" y="448.39685" style="fill: #1f77b4; fill-opacity: 0.8; stroke: #1f77b4; stroke-opacity: 0.8"/>
     <use xlink:href="#mf54804b641" x="170.988603" y="358.162376" style="fill: #1f77b4; fill-opacity: 0.8; stroke: #1f77b4; stroke-opacity: 0.8"/>
     <use xlink:href="#mf54804b641" x="186.698953" y="470.455138" style="fill: #1f77b4; fill-opacity: 0.8; stroke: #1f77b4; stroke-opacity: 0.8"/>
     <use xlink:href="#mf54804b641" x="69.583008" y="484.616108" style="fill: #1f77b4; fill-opacity: 0.8; stroke: #1f77b4; stroke-opacity: 0.8"/>
    </g>
   </g>
   <g id="PolyCollection_2">
    <path d="M 54.458333 404.705035 
L 54.458333 471.176436 
L 55.882239 470.541501 
L 57.306145 469.613961 
L 58.730051 468.776393 
L 60.153956 467.867896 
L 61.577862 466.884083 
L 63.001768 466.11011 
L 64.425673 465.328131 
L 65.849579 464.404449 
L 67.273485 463.477114 
L 68.697391 462.477433 
L 70.121296 461.561006 
L 71.545202 460.64552 
L 72.969108 459.763249 
L 74.393013 458.837824 
L 75.816919 457.912398 
L 77.240825 456.986973 
L 78.664731 456.447542 
L 80.088636 455.731611 
L 81.512542 454.78146 
L 82.936448 453.941156 
L 84.360354 453.098232 
L 85.784259 452.255309 
L 87.208165 451.411699 
L 88.632071 450.567519 
L 90.055976 449.446811 
L 91.479882 448.59985 
L 92.903788 447.677507 
L 94.327694 446.978708 
L 95.751599 446.372144 
L 97.175505 445.541811 
L 98.599411 445.078743 
L 100.023316 444.25674 
L 101.447222 443.752447 
L 102.871128 443.242749 
L 104.295034 442.539969 
L 105.718939 441.950026 
L 107.142845 440.947475 
L 108.566751 440.611711 
L 109.990657 440.0996 
L 111.414562 439.329763 
L 112.838468 438.572906 
L 114.262374 438.039591 
L 115.686279 437.516287 
L 117.110185 436.963457 
L 118.534091 436.45215 
L 119.957997 435.940349 
L 121.381902 435.429537 
L 122.805808 434.918231 
L 124.229714 434.41767 
L 125.65362 433.970248 
L 127.077525 433.583807 
L 128.501431 433.265337 
L 129.925337 432.992857 
L 131.349242 432.750241 
L 132.773148 432.141489 
L 134.197054 431.968429 
L 135.62096 431.63918 
L 137.044865 431.137713 
L 138.468771 430.628254 
L 139.892677 430.473717 
L 141.316582 430.186072 
L 142.740488 429.674647 
L 144.164394 429.311301 
L 145.5883 429.118042 
L 147.012205 428.740452 
L 148.436111 428.377246 
L 149.860017 427.988965 
L 151.283923 427.618043 
L 152.707828 427.628306 
L 154.131734 427.508728 
L 155.55564 427.472721 
L 156.979545 427.412872 
L 158.403451 427.132996 
L 159.827357 426.92986 
L 161.251263 426.876627 
L 162.675168 426.686733 
L 164.099074 426.414857 
L 165.52298 426.14298 
L 166.946886 425.946414 
L 168.370791 425.832325 
L 169.794697 425.327351 
L 171.218603 425.086528 
L 172.642508 425.043342 
L 174.066414 425.012757 
L 175.49032 424.809962 
L 176.914226 424.798745 
L 178.338131 424.524973 
L 179.762037 424.406054 
L 181.185943 424.585505 
L 182.609848 424.764957 
L 184.033754 424.7578 
L 185.45766 424.733685 
L 186.881566 424.433537 
L 188.305471 424.152412 
L 189.729377 424.24537 
L 191.153283 424.246395 
L 192.577189 424.126729 
L 194.001094 424.006372 
L 195.425 423.876085 
L 195.425 349.834956 
L 195.425 349.834956 
L 194.001094 351.143479 
L 192.577189 352.315965 
L 191.153283 353.377233 
L 189.729377 354.438501 
L 188.305471 355.49977 
L 186.881566 356.561038 
L 185.45766 357.588088 
L 184.033754 358.614908 
L 182.609848 359.739807 
L 181.185943 360.760542 
L 179.762037 361.701605 
L 178.338131 362.642667 
L 176.914226 363.635762 
L 175.49032 364.641523 
L 174.066414 365.651475 
L 172.642508 366.829222 
L 171.218603 368.029134 
L 169.794697 368.9854 
L 168.370791 369.680916 
L 166.946886 370.661249 
L 165.52298 371.626662 
L 164.099074 372.673057 
L 162.675168 373.540613 
L 161.251263 374.405367 
L 159.827357 375.512006 
L 158.403451 376.719423 
L 156.979545 377.7295 
L 155.55564 378.740405 
L 154.131734 379.71661 
L 152.707828 380.679643 
L 151.283923 381.341736 
L 149.860017 382.123714 
L 148.436111 383.157526 
L 147.012205 383.894628 
L 145.5883 384.554206 
L 144.164394 385.227423 
L 142.740488 386.001972 
L 141.316582 386.57223 
L 139.892677 387.404156 
L 138.468771 388.192054 
L 137.044865 388.943267 
L 135.62096 389.797766 
L 134.197054 390.239473 
L 132.773148 390.621364 
L 131.349242 391.270544 
L 129.925337 391.926484 
L 128.501431 392.106866 
L 127.077525 393.027293 
L 125.65362 393.321219 
L 124.229714 393.940393 
L 122.805808 394.8143 
L 121.381902 395.679474 
L 119.957997 396.432192 
L 118.534091 396.534342 
L 117.110185 396.662736 
L 115.686279 396.742884 
L 114.262374 396.958076 
L 112.838468 396.953823 
L 111.414562 397.423894 
L 109.990657 397.895591 
L 108.566751 398.368887 
L 107.142845 398.843817 
L 105.718939 399.39171 
L 104.295034 399.986095 
L 102.871128 400.261059 
L 101.447222 400.725005 
L 100.023316 401.181291 
L 98.599411 401.425231 
L 97.175505 401.745729 
L 95.751599 402.027536 
L 94.327694 402.011492 
L 92.903788 402.035184 
L 91.479882 402.285689 
L 90.055976 402.655526 
L 88.632071 402.808279 
L 87.208165 402.958269 
L 85.784259 403.074757 
L 84.360354 403.187581 
L 82.936448 403.17998 
L 81.512542 403.161141 
L 80.088636 403.033197 
L 78.664731 402.996915 
L 77.240825 403.114365 
L 75.816919 403.238739 
L 74.393013 403.499531 
L 72.969108 403.772656 
L 71.545202 403.968047 
L 70.121296 404.12552 
L 68.697391 404.189979 
L 67.273485 404.256673 
L 65.849579 404.306077 
L 64.425673 404.393235 
L 63.001768 404.461516 
L 61.577862 404.529797 
L 60.153956 404.564476 
L 58.730051 404.658078 
L 57.306145 404.540061 
L 55.882239 404.691396 
L 54.458333 404.705035 
z
" clip-path="url(#p60074e55df)" style="fill: #008000; fill-opacity: 0.15"/>
   </g>
   <g id="matplotlib.axis_5">
    <g id="xtick_13">
     <g id="line2d_19">
      <g>
       <use xlink:href="#m5244ea5b30" x="68.203366" y="498.44" style="stroke: #000000; stroke-width: 0.8"/>
      </g>
     </g>
     <g id="text_13">
      <!-- 0.2 -->
      <g transform="translate(60.251803 513.038437) scale(0.1 -0.1)">
       <use xlink:href="#DejaVuSans-30"/>
       <use xlink:href="#DejaVuSans-2e" x="63.623047"/>
       <use xlink:href="#DejaVuSans-32" x="95.410156"/>
      </g>
     </g>
    </g>
    <g id="xtick_14">
     <g id="line2d_20">
      <g>
       <use xlink:href="#m5244ea5b30" x="104.914845" y="498.44" style="stroke: #000000; stroke-width: 0.8"/>
      </g>
     </g>
     <g id="text_14">
      <!-- 0.4 -->
      <g transform="translate(96.963283 513.038437) scale(0.1 -0.1)">
       <use xlink:href="#DejaVuSans-30"/>
       <use xlink:href="#DejaVuSans-2e" x="63.623047"/>
       <use xlink:href="#DejaVuSans-34" x="95.410156"/>
      </g>
     </g>
    </g>
    <g id="xtick_15">
     <g id="line2d_21">
      <g>
       <use xlink:href="#m5244ea5b30" x="141.626325" y="498.44" style="stroke: #000000; stroke-width: 0.8"/>
      </g>
     </g>
     <g id="text_15">
      <!-- 0.6 -->
      <g transform="translate(133.674762 513.038437) scale(0.1 -0.1)">
       <use xlink:href="#DejaVuSans-30"/>
       <use xlink:href="#DejaVuSans-2e" x="63.623047"/>
       <use xlink:href="#DejaVuSans-36" x="95.410156"/>
      </g>
     </g>
    </g>
    <g id="xtick_16">
     <g id="line2d_22">
      <g>
       <use xlink:href="#m5244ea5b30" x="178.337804" y="498.44" style="stroke: #000000; stroke-width: 0.8"/>
      </g>
     </g>
     <g id="text_16">
      <!-- 0.8 -->
      <g transform="translate(170.386242 513.038437) scale(0.1 -0.1)">
       <use xlink:href="#DejaVuSans-30"/>
       <use xlink:href="#DejaVuSans-2e" x="63.623047"/>
       <use xlink:href="#DejaVuSans-38" x="95.410156"/>
      </g>
     </g>
    </g>
    <g id="text_17">
     <!-- policy rate -->
     <g transform="translate(98.476042 526.716562) scale(0.1 -0.1)">
      <defs>
       <path id="DejaVuSans-6f" d="M 1959 3097 
Q 1497 3097 1228 2736 
Q 959 2375 959 1747 
Q 959 1119 1226 758 
Q 1494 397 1959 397 
Q 2419 397 2687 759 
Q 2956 1122 2956 1747 
Q 2956 2369 2687 2733 
Q 2419 3097 1959 3097 
z
M 1959 3584 
Q 2709 3584 3137 3096 
Q 3566 2609 3566 1747 
Q 3566 888 3137 398 
Q 2709 -91 1959 -91 
Q 1206 -91 779 398 
Q 353 888 353 1747 
Q 353 2609 779 3096 
Q 1206 3584 1959 3584 
z
" transform="scale(0.015625)"/>
       <path id="DejaVuSans-6c" d="M 603 4863 
L 1178 4863 
L 1178 0 
L 603 0 
L 603 4863 
z
" transform="scale(0.015625)"/>
       <path id="DejaVuSans-69" d="M 603 3500 
L 1178 3500 
L 1178 0 
L 603 0 
L 603 3500 
z
M 603 4863 
L 1178 4863 
L 1178 4134 
L 603 4134 
L 603 4863 
z
" transform="scale(0.015625)"/>
       <path id="DejaVuSans-63" d="M 3122 3366 
L 3122 2828 
Q 2878 2963 2633 3030 
Q 2388 3097 2138 3097 
Q 1578 3097 1268 2742 
Q 959 2388 959 1747 
Q 959 1106 1268 751 
Q 1578 397 2138 397 
Q 2388 397 2633 464 
Q 2878 531 3122 666 
L 3122 134 
Q 2881 22 2623 -34 
Q 2366 -91 2075 -91 
Q 1284 -91 818 406 
Q 353 903 353 1747 
Q 353 2603 823 3093 
Q 1294 3584 2113 3584 
Q 2378 3584 2631 3529 
Q 2884 3475 3122 3366 
z
" transform="scale(0.015625)"/>
       <path id="DejaVuSans-79" d="M 2059 -325 
Q 1816 -950 1584 -1140 
Q 1353 -1331 966 -1331 
L 506 -1331 
L 506 -850 
L 844 -850 
Q 1081 -850 1212 -737 
Q 1344 -625 1503 -206 
L 1606 56 
L 191 3500 
L 800 3500 
L 1894 763 
L 2988 3500 
L 3597 3500 
L 2059 -325 
z
" transform="scale(0.015625)"/>
      </defs>
      <use xlink:href="#DejaVuSans-70"/>
      <use xlink:href="#DejaVuSans-6f" x="63.476562"/>
      <use xlink:href="#DejaVuSans-6c" x="124.658203"/>
      <use xlink:href="#DejaVuSans-69" x="152.441406"/>
      <use xlink:href="#DejaVuSans-63" x="180.224609"/>
      <use xlink:href="#DejaVuSans-79" x="235.205078"/>
      <use xlink:href="#DejaVuSans-20" x="294.384766"/>
      <use xlink:href="#DejaVuSans-72" x="326.171875"/>
      <use xlink:href="#DejaVuSans-61" x="367.285156"/>
      <use xlink:href="#DejaVuSans-74" x="428.564453"/>
      <use xlink:href="#DejaVuSans-65" x="467.773438"/>
     </g>
    </g>
   </g>
   <g id="matplotlib.axis_6">
    <g id="ytick_6">
     <g id="line2d_23">
      <g>
       <use xlink:href="#mb03ec54bfe" x="47.41" y="493.608776" style="stroke: #000000; stroke-width: 0.8"/>
      </g>
     </g>
     <g id="text_18">
      <!-- 1 -->
      <g transform="translate(34.0475 497.407994) scale(0.1 -0.1)">
       <use xlink:href="#DejaVuSans-31"/>
      </g>
     </g>
    </g>
    <g id="ytick_7">
     <g id="line2d_24">
      <g>
       <use xlink:href="#mb03ec54bfe" x="47.41" y="468.803558" style="stroke: #000000; stroke-width: 0.8"/>
      </g>
     </g>
     <g id="text_19">
      <!-- 2 -->
      <g transform="translate(34.0475 472.602777) scale(0.1 -0.1)">
       <use xlink:href="#DejaVuSans-32"/>
      </g>
     </g>
    </g>
    <g id="ytick_8">
     <g id="line2d_25">
      <g>
       <use xlink:href="#mb03ec54bfe" x="47.41" y="443.998341" style="stroke: #000000; stroke-width: 0.8"/>
      </g>
     </g>
     <g id="text_20">
      <!-- 3 -->
      <g transform="translate(34.0475 447.79756) scale(0.1 -0.1)">
       <defs>
        <path id="DejaVuSans-33" d="M 2597 2516 
Q 3050 2419 3304 2112 
Q 3559 1806 3559 1356 
Q 3559 666 3084 287 
Q 2609 -91 1734 -91 
Q 1441 -91 1130 -33 
Q 819 25 488 141 
L 488 750 
Q 750 597 1062 519 
Q 1375 441 1716 441 
Q 2309 441 2620 675 
Q 2931 909 2931 1356 
Q 2931 1769 2642 2001 
Q 2353 2234 1838 2234 
L 1294 2234 
L 1294 2753 
L 1863 2753 
Q 2328 2753 2575 2939 
Q 2822 3125 2822 3475 
Q 2822 3834 2567 4026 
Q 2313 4219 1838 4219 
Q 1578 4219 1281 4162 
Q 984 4106 628 3988 
L 628 4550 
Q 988 4650 1302 4700 
Q 1616 4750 1894 4750 
Q 2613 4750 3031 4423 
Q 3450 4097 3450 3541 
Q 3450 3153 3228 2886 
Q 3006 2619 2597 2516 
z
" transform="scale(0.015625)"/>
       </defs>
       <use xlink:href="#DejaVuSans-33"/>
      </g>
     </g>
    </g>
    <g id="ytick_9">
     <g id="line2d_26">
      <g>
       <use xlink:href="#mb03ec54bfe" x="47.41" y="419.193124" style="stroke: #000000; stroke-width: 0.8"/>
      </g>
     </g>
     <g id="text_21">
      <!-- 4 -->
      <g transform="translate(34.0475 422.992343) scale(0.1 -0.1)">
       <use xlink:href="#DejaVuSans-34"/>
      </g>
     </g>
    </g>
    <g id="ytick_10">
     <g id="line2d_27">
      <g>
       <use xlink:href="#mb03ec54bfe" x="47.41" y="394.387906" style="stroke: #000000; stroke-width: 0.8"/>
      </g>
     </g>
     <g id="text_22">
      <!-- 5 -->
      <g transform="translate(34.0475 398.187125) scale(0.1 -0.1)">
       <defs>
        <path id="DejaVuSans-35" d="M 691 4666 
L 3169 4666 
L 3169 4134 
L 1269 4134 
L 1269 2991 
Q 1406 3038 1543 3061 
Q 1681 3084 1819 3084 
Q 2600 3084 3056 2656 
Q 3513 2228 3513 1497 
Q 3513 744 3044 326 
Q 2575 -91 1722 -91 
Q 1428 -91 1123 -41 
Q 819 9 494 109 
L 494 744 
Q 775 591 1075 516 
Q 1375 441 1709 441 
Q 2250 441 2565 725 
Q 2881 1009 2881 1497 
Q 2881 1984 2565 2268 
Q 2250 2553 1709 2553 
Q 1456 2553 1204 2497 
Q 953 2441 691 2322 
L 691 4666 
z
" transform="scale(0.015625)"/>
       </defs>
       <use xlink:href="#DejaVuSans-35"/>
      </g>
     </g>
    </g>
    <g id="ytick_11">
     <g id="line2d_28">
      <g>
       <use xlink:href="#mb03ec54bfe" x="47.41" y="369.582689" style="stroke: #000000; stroke-width: 0.8"/>
      </g>
     </g>
     <g id="text_23">
      <!-- 6 -->
      <g transform="translate(34.0475 373.381908) scale(0.1 -0.1)">
       <use xlink:href="#DejaVuSans-36"/>
      </g>
     </g>
    </g>
    <g id="ytick_12">
     <g id="line2d_29">
      <g>
       <use xlink:href="#mb03ec54bfe" x="47.41" y="344.777472" style="stroke: #000000; stroke-width: 0.8"/>
      </g>
     </g>
     <g id="text_24">
      <!-- 7 -->
      <g transform="translate(34.0475 348.576691) scale(0.1 -0.1)">
       <defs>
        <path id="DejaVuSans-37" d="M 525 4666 
L 3525 4666 
L 3525 4397 
L 1831 0 
L 1172 0 
L 2766 4134 
L 525 4134 
L 525 4666 
z
" transform="scale(0.015625)"/>
       </defs>
       <use xlink:href="#DejaVuSans-37"/>
      </g>
     </g>
    </g>
    <g id="text_25">
     <!-- dec temp -->
     <g transform="translate(27.967812 444.269575) rotate(-90) scale(0.1 -0.1)">
      <defs>
       <path id="DejaVuSans-6d" d="M 3328 2828 
Q 3544 3216 3844 3400 
Q 4144 3584 4550 3584 
Q 5097 3584 5394 3201 
Q 5691 2819 5691 2113 
L 5691 0 
L 5113 0 
L 5113 2094 
Q 5113 2597 4934 2840 
Q 4756 3084 4391 3084 
Q 3944 3084 3684 2787 
Q 3425 2491 3425 1978 
L 3425 0 
L 2847 0 
L 2847 2094 
Q 2847 2600 2669 2842 
Q 2491 3084 2119 3084 
Q 1678 3084 1418 2786 
Q 1159 2488 1159 1978 
L 1159 0 
L 581 0 
L 581 3500 
L 1159 3500 
L 1159 2956 
Q 1356 3278 1631 3431 
Q 1906 3584 2284 3584 
Q 2666 3584 2933 3390 
Q 3200 3197 3328 2828 
z
" transform="scale(0.015625)"/>
      </defs>
      <use xlink:href="#DejaVuSans-64"/>
      <use xlink:href="#DejaVuSans-65" x="63.476562"/>
      <use xlink:href="#DejaVuSans-63" x="125"/>
      <use xlink:href="#DejaVuSans-20" x="179.980469"/>
      <use xlink:href="#DejaVuSans-74" x="211.767578"/>
      <use xlink:href="#DejaVuSans-65" x="250.976562"/>
      <use xlink:href="#DejaVuSans-6d" x="312.5"/>
      <use xlink:href="#DejaVuSans-70" x="409.912109"/>
     </g>
    </g>
   </g>
   <g id="line2d_30">
    <path d="M 54.458333 438.537382 
L 55.882239 438.051308 
L 57.306145 437.565234 
L 58.730051 437.07916 
L 60.153956 436.593086 
L 61.577862 436.107012 
L 63.001768 435.620938 
L 64.425673 435.134864 
L 65.849579 434.64879 
L 67.273485 434.162717 
L 68.697391 433.676643 
L 70.121296 433.190569 
L 71.545202 432.704495 
L 72.969108 432.218421 
L 74.393013 431.732347 
L 75.816919 431.246273 
L 77.240825 430.760199 
L 78.664731 430.274125 
L 80.088636 429.788051 
L 81.512542 429.301977 
L 82.936448 428.815903 
L 84.360354 428.329829 
L 85.784259 427.843755 
L 87.208165 427.357682 
L 88.632071 426.871608 
L 90.055976 426.385534 
L 91.479882 425.89946 
L 92.903788 425.413386 
L 94.327694 424.927312 
L 95.751599 424.441238 
L 97.175505 423.955164 
L 98.599411 423.46909 
L 100.023316 422.983016 
L 101.447222 422.496942 
L 102.871128 422.010868 
L 104.295034 421.524794 
L 105.718939 421.038721 
L 107.142845 420.552647 
L 108.566751 420.066573 
L 109.990657 419.580499 
L 111.414562 419.094425 
L 112.838468 418.608351 
L 114.262374 418.122277 
L 115.686279 417.636203 
L 117.110185 417.150129 
L 118.534091 416.664055 
L 119.957997 416.177981 
L 121.381902 415.691907 
L 122.805808 415.205833 
L 124.229714 414.71976 
L 125.65362 414.233686 
L 127.077525 413.747612 
L 128.501431 413.261538 
L 129.925337 412.775464 
L 131.349242 412.28939 
L 132.773148 411.803316 
L 134.197054 411.317242 
L 135.62096 410.831168 
L 137.044865 410.345094 
L 138.468771 409.85902 
L 139.892677 409.372946 
L 141.316582 408.886872 
L 142.740488 408.400799 
L 144.164394 407.914725 
L 145.5883 407.428651 
L 147.012205 406.942577 
L 148.436111 406.456503 
L 149.860017 405.970429 
L 151.283923 405.484355 
L 152.707828 404.998281 
L 154.131734 404.512207 
L 155.55564 404.026133 
L 156.979545 403.540059 
L 158.403451 403.053985 
L 159.827357 402.567911 
L 161.251263 402.081838 
L 162.675168 401.595764 
L 164.099074 401.10969 
L 165.52298 400.623616 
L 166.946886 400.137542 
L 168.370791 399.651468 
L 169.794697 399.165394 
L 171.218603 398.67932 
L 172.642508 398.193246 
L 174.066414 397.707172 
L 175.49032 397.221098 
L 176.914226 396.735024 
L 178.338131 396.24895 
L 179.762037 395.762876 
L 181.185943 395.276803 
L 182.609848 394.790729 
L 184.033754 394.304655 
L 185.45766 393.818581 
L 186.881566 393.332507 
L 188.305471 392.846433 
L 189.729377 392.360359 
L 191.153283 391.874285 
L 192.577189 391.388211 
L 194.001094 390.902137 
L 195.425 390.416063 
" clip-path="url(#p60074e55df)" style="fill: none; stroke: #008000; stroke-opacity: 0.6; stroke-width: 2.25; stroke-linecap: square"/>
   </g>
   <g id="patch_10">
    <path d="M 47.41 498.44 
L 47.41 342.758525 
" style="fill: none; stroke: #000000; stroke-width: 0.8; stroke-linejoin: miter; stroke-linecap: square"/>
   </g>
   <g id="patch_11">
    <path d="M 47.41 498.44 
L 202.473333 498.44 
" style="fill: none; stroke: #000000; stroke-width: 0.8; stroke-linejoin: miter; stroke-linecap: square"/>
   </g>
   <g id="text_26">
    <!-- r = 0.37  -->
    <g transform="translate(62.916333 358.326673) scale(0.1 -0.1)">
     <use xlink:href="#DejaVuSans-72"/>
     <use xlink:href="#DejaVuSans-20" x="41.113281"/>
     <use xlink:href="#DejaVuSans-3d" x="72.900391"/>
     <use xlink:href="#DejaVuSans-20" x="156.689453"/>
     <use xlink:href="#DejaVuSans-30" x="188.476562"/>
     <use xlink:href="#DejaVuSans-2e" x="252.099609"/>
     <use xlink:href="#DejaVuSans-33" x="283.886719"/>
     <use xlink:href="#DejaVuSans-37" x="347.509766"/>
     <use xlink:href="#DejaVuSans-20" x="411.132812"/>
    </g>
   </g>
   <g id="text_27">
    <!-- p = 0.126 -->
    <g transform="translate(124.941667 358.326673) scale(0.1 -0.1)">
     <use xlink:href="#DejaVuSans-70"/>
     <use xlink:href="#DejaVuSans-20" x="63.476562"/>
     <use xlink:href="#DejaVuSans-3d" x="95.263672"/>
     <use xlink:href="#DejaVuSans-20" x="179.052734"/>
     <use xlink:href="#DejaVuSans-30" x="210.839844"/>
     <use xlink:href="#DejaVuSans-2e" x="274.462891"/>
     <use xlink:href="#DejaVuSans-31" x="306.25"/>
     <use xlink:href="#DejaVuSans-32" x="369.873047"/>
     <use xlink:href="#DejaVuSans-36" x="433.496094"/>
    </g>
   </g>
  </g>
  <g id="axes_5">
   <g id="patch_12">
    <path d="M 210.973333 498.44 
L 366.036667 498.44 
L 366.036667 342.758525 
L 210.973333 342.758525 
z
" style="fill: #ffffff"/>
   </g>
   <g id="PathCollection_3">
    <g clip-path="url(#pe852abaf69)">
     <use xlink:href="#mf54804b641" x="358.988333" y="445.979912" style="fill: #1f77b4; fill-opacity: 0.8; stroke: #1f77b4; stroke-opacity: 0.8"/>
     <use xlink:href="#mf54804b641" x="317.337707" y="390.491096" style="fill: #1f77b4; fill-opacity: 0.8; stroke: #1f77b4; stroke-opacity: 0.8"/>
     <use xlink:href="#mf54804b641" x="321.268413" y="437.946922" style="fill: #1f77b4; fill-opacity: 0.8; stroke: #1f77b4; stroke-opacity: 0.8"/>
     <use xlink:href="#mf54804b641" x="282.338604" y="350.835302" style="fill: #1f77b4; fill-opacity: 0.8; stroke: #1f77b4; stroke-opacity: 0.8"/>
     <use xlink:href="#mf54804b641" x="279.137207" y="491.363569" style="fill: #1f77b4; fill-opacity: 0.8; stroke: #1f77b4; stroke-opacity: 0.8"/>
     <use xlink:href="#mf54804b641" x="243.848845" y="394.833469" style="fill: #1f77b4; fill-opacity: 0.8; stroke: #1f77b4; stroke-opacity: 0.8"/>
     <use xlink:href="#mf54804b641" x="243.661469" y="393.650238" style="fill: #1f77b4; fill-opacity: 0.8; stroke: #1f77b4; stroke-opacity: 0.8"/>
     <use xlink:href="#mf54804b641" x="249.324499" y="429.633305" style="fill: #1f77b4; fill-opacity: 0.8; stroke: #1f77b4; stroke-opacity: 0.8"/>
     <use xlink:href="#mf54804b641" x="312.20675" y="367.461376" style="fill: #1f77b4; fill-opacity: 0.8; stroke: #1f77b4; stroke-opacity: 0.8"/>
     <use xlink:href="#mf54804b641" x="237.084467" y="385.408631" style="fill: #1f77b4; fill-opacity: 0.8; stroke: #1f77b4; stroke-opacity: 0.8"/>
     <use xlink:href="#mf54804b641" x="232.144299" y="365.701859" style="fill: #1f77b4; fill-opacity: 0.8; stroke: #1f77b4; stroke-opacity: 0.8"/>
     <use xlink:href="#mf54804b641" x="218.021667" y="363.44062" style="fill: #1f77b4; fill-opacity: 0.8; stroke: #1f77b4; stroke-opacity: 0.8"/>
     <use xlink:href="#mf54804b641" x="294.597839" y="419.051779" style="fill: #1f77b4; fill-opacity: 0.8; stroke: #1f77b4; stroke-opacity: 0.8"/>
     <use xlink:href="#mf54804b641" x="249.560996" y="487.048253" style="fill: #1f77b4; fill-opacity: 0.8; stroke: #1f77b4; stroke-opacity: 0.8"/>
     <use xlink:href="#mf54804b641" x="285.659726" y="448.39685" style="fill: #1f77b4; fill-opacity: 0.8; stroke: #1f77b4; stroke-opacity: 0.8"/>
     <use xlink:href="#mf54804b641" x="234.077481" y="358.162376" style="fill: #1f77b4; fill-opacity: 0.8; stroke: #1f77b4; stroke-opacity: 0.8"/>
     <use xlink:href="#mf54804b641" x="243.588961" y="470.455138" style="fill: #1f77b4; fill-opacity: 0.8; stroke: #1f77b4; stroke-opacity: 0.8"/>
     <use xlink:href="#mf54804b641" x="259.795852" y="484.616108" style="fill: #1f77b4; fill-opacity: 0.8; stroke: #1f77b4; stroke-opacity: 0.8"/>
    </g>
   </g>
   <g id="PolyCollection_3">
    <path d="M 218.021667 375.774662 
L 218.021667 448.921562 
L 219.445572 448.627822 
L 220.869478 448.334083 
L 222.293384 448.040344 
L 223.71729 447.480808 
L 225.141195 446.648253 
L 226.565101 445.973125 
L 227.989007 446.027695 
L 229.412912 446.015891 
L 230.836818 445.438155 
L 232.260724 445.253747 
L 233.68463 445.269105 
L 235.108535 444.678546 
L 236.532441 444.317705 
L 237.956347 444.213621 
L 239.380253 444.1084 
L 240.804158 443.899093 
L 242.228064 443.475501 
L 243.65197 443.465606 
L 245.075875 443.073466 
L 246.499781 442.379948 
L 247.923687 442.247465 
L 249.347593 441.764872 
L 250.771498 441.060541 
L 252.195404 440.402935 
L 253.61931 440.355571 
L 255.043215 440.308206 
L 256.467121 440.260028 
L 257.891027 440.213478 
L 259.314933 440.48535 
L 260.738838 440.136542 
L 262.162744 440.207511 
L 263.58665 439.95778 
L 265.010556 439.705877 
L 266.434461 439.920171 
L 267.858367 440.338431 
L 269.282273 440.232072 
L 270.706178 440.285639 
L 272.130084 440.242012 
L 273.55399 440.234626 
L 274.977896 440.525714 
L 276.401801 441.153123 
L 277.825707 441.501736 
L 279.249613 442.345483 
L 280.673519 443.209997 
L 282.097424 443.495268 
L 283.52133 444.513722 
L 284.945236 445.030669 
L 286.369141 445.667811 
L 287.793047 446.290903 
L 289.216953 446.994948 
L 290.640859 447.601184 
L 292.064764 447.785566 
L 293.48867 448.549728 
L 294.912576 449.286771 
L 296.336481 449.963228 
L 297.760387 450.610344 
L 299.184293 451.418484 
L 300.608199 452.105108 
L 302.032104 452.751445 
L 303.45601 453.397781 
L 304.879916 454.041699 
L 306.303822 454.682797 
L 307.727727 455.328339 
L 309.151633 455.97735 
L 310.575539 456.62636 
L 311.999444 457.275371 
L 313.42335 458.330605 
L 314.847256 459.436658 
L 316.271162 460.169366 
L 317.695067 461.021297 
L 319.118973 462.047273 
L 320.542879 463.057882 
L 321.966785 464.010154 
L 323.39069 464.806991 
L 324.814596 465.920889 
L 326.238502 467.034787 
L 327.662407 468.148686 
L 329.086313 469.09427 
L 330.510219 469.886575 
L 331.934125 470.678881 
L 333.35803 471.471187 
L 334.781936 472.263492 
L 336.205842 473.055798 
L 337.629747 473.848104 
L 339.053653 474.640409 
L 340.477559 475.432715 
L 341.901465 476.225021 
L 343.32537 477.012618 
L 344.749276 477.798633 
L 346.173182 478.584648 
L 347.597088 479.370663 
L 349.020993 480.156679 
L 350.444899 480.942694 
L 351.868805 481.728709 
L 353.29271 482.514724 
L 354.716616 483.30074 
L 356.140522 484.086755 
L 357.564428 484.87277 
L 358.988333 485.658786 
L 358.988333 381.821523 
L 358.988333 381.821523 
L 357.564428 382.704826 
L 356.140522 383.588128 
L 354.716616 384.47143 
L 353.29271 385.018594 
L 351.868805 385.453105 
L 350.444899 385.887615 
L 349.020993 386.332606 
L 347.597088 386.594871 
L 346.173182 386.573619 
L 344.749276 386.552367 
L 343.32537 386.531115 
L 341.901465 386.509863 
L 340.477559 386.722409 
L 339.053653 387.60383 
L 337.629747 388.547441 
L 336.205842 389.491052 
L 334.781936 390.434663 
L 333.35803 391.266952 
L 331.934125 391.715529 
L 330.510219 392.078668 
L 329.086313 392.593947 
L 327.662407 392.990873 
L 326.238502 392.855515 
L 324.814596 392.720156 
L 323.39069 393.178219 
L 321.966785 393.849735 
L 320.542879 394.455186 
L 319.118973 394.372931 
L 317.695067 394.159368 
L 316.271162 394.115746 
L 314.847256 394.45137 
L 313.42335 394.59491 
L 311.999444 394.971251 
L 310.575539 395.663122 
L 309.151633 396.076282 
L 307.727727 396.229733 
L 306.303822 395.965067 
L 304.879916 396.50213 
L 303.45601 396.730535 
L 302.032104 396.81327 
L 300.608199 396.847277 
L 299.184293 396.83027 
L 297.760387 396.779475 
L 296.336481 396.588322 
L 294.912576 396.791286 
L 293.48867 396.983989 
L 292.064764 396.763521 
L 290.640859 396.563342 
L 289.216953 396.7236 
L 287.793047 396.710047 
L 286.369141 396.807698 
L 284.945236 396.671531 
L 283.52133 396.162673 
L 282.097424 396.363904 
L 280.673519 395.93935 
L 279.249613 395.401537 
L 277.825707 394.863724 
L 276.401801 394.477888 
L 274.977896 393.957084 
L 273.55399 393.579325 
L 272.130084 393.292213 
L 270.706178 392.862148 
L 269.282273 393.01251 
L 267.858367 392.783567 
L 266.434461 392.581395 
L 265.010556 391.905141 
L 263.58665 391.51872 
L 262.162744 391.12269 
L 260.738838 390.398376 
L 259.314933 389.674063 
L 257.891027 389.0332 
L 256.467121 388.478925 
L 255.043215 388.073193 
L 253.61931 387.674363 
L 252.195404 387.40673 
L 250.771498 386.887331 
L 249.347593 386.371277 
L 247.923687 385.987265 
L 246.499781 385.329339 
L 245.075875 384.723307 
L 243.65197 384.183268 
L 242.228064 383.963125 
L 240.804158 383.754729 
L 239.380253 383.546333 
L 237.956347 383.33233 
L 236.532441 383.11911 
L 235.108535 382.783085 
L 233.68463 382.178824 
L 232.260724 381.655425 
L 230.836818 381.243911 
L 229.412912 380.819811 
L 227.989007 380.189168 
L 226.565101 379.558524 
L 225.141195 378.92788 
L 223.71729 378.301466 
L 222.293384 377.694076 
L 220.869478 377.036473 
L 219.445572 376.405306 
L 218.021667 375.774662 
z
" clip-path="url(#pe852abaf69)" style="fill: #008000; fill-opacity: 0.15"/>
   </g>
   <g id="matplotlib.axis_7">
    <g id="xtick_17">
     <g id="line2d_31">
      <g>
       <use xlink:href="#m5244ea5b30" x="244.410128" y="498.44" style="stroke: #000000; stroke-width: 0.8"/>
      </g>
     </g>
     <g id="text_28">
      <!-- 0.25 -->
      <g transform="translate(233.277315 513.038437) scale(0.1 -0.1)">
       <use xlink:href="#DejaVuSans-30"/>
       <use xlink:href="#DejaVuSans-2e" x="63.623047"/>
       <use xlink:href="#DejaVuSans-32" x="95.410156"/>
       <use xlink:href="#DejaVuSans-35" x="159.033203"/>
      </g>
     </g>
    </g>
    <g id="xtick_18">
     <g id="line2d_32">
      <g>
       <use xlink:href="#m5244ea5b30" x="282.984424" y="498.44" style="stroke: #000000; stroke-width: 0.8"/>
      </g>
     </g>
     <g id="text_29">
      <!-- 0.50 -->
      <g transform="translate(271.851612 513.038437) scale(0.1 -0.1)">
       <use xlink:href="#DejaVuSans-30"/>
       <use xlink:href="#DejaVuSans-2e" x="63.623047"/>
       <use xlink:href="#DejaVuSans-35" x="95.410156"/>
       <use xlink:href="#DejaVuSans-30" x="159.033203"/>
      </g>
     </g>
    </g>
    <g id="xtick_19">
     <g id="line2d_33">
      <g>
       <use xlink:href="#m5244ea5b30" x="321.55872" y="498.44" style="stroke: #000000; stroke-width: 0.8"/>
      </g>
     </g>
     <g id="text_30">
      <!-- 0.75 -->
      <g transform="translate(310.425908 513.038437) scale(0.1 -0.1)">
       <use xlink:href="#DejaVuSans-30"/>
       <use xlink:href="#DejaVuSans-2e" x="63.623047"/>
       <use xlink:href="#DejaVuSans-37" x="95.410156"/>
       <use xlink:href="#DejaVuSans-35" x="159.033203"/>
      </g>
     </g>
    </g>
    <g id="xtick_20">
     <g id="line2d_34">
      <g>
       <use xlink:href="#m5244ea5b30" x="360.133017" y="498.44" style="stroke: #000000; stroke-width: 0.8"/>
      </g>
     </g>
     <g id="text_31">
      <!-- 1.00 -->
      <g transform="translate(349.000204 513.038437) scale(0.1 -0.1)">
       <use xlink:href="#DejaVuSans-31"/>
       <use xlink:href="#DejaVuSans-2e" x="63.623047"/>
       <use xlink:href="#DejaVuSans-30" x="95.410156"/>
       <use xlink:href="#DejaVuSans-30" x="159.033203"/>
      </g>
     </g>
    </g>
    <g id="text_32">
     <!-- reward rate -->
     <g transform="translate(259.444844 526.716562) scale(0.1 -0.1)">
      <use xlink:href="#DejaVuSans-72"/>
      <use xlink:href="#DejaVuSans-65" x="38.863281"/>
      <use xlink:href="#DejaVuSans-77" x="100.386719"/>
      <use xlink:href="#DejaVuSans-61" x="182.173828"/>
      <use xlink:href="#DejaVuSans-72" x="243.453125"/>
      <use xlink:href="#DejaVuSans-64" x="282.816406"/>
      <use xlink:href="#DejaVuSans-20" x="346.292969"/>
      <use xlink:href="#DejaVuSans-72" x="378.080078"/>
      <use xlink:href="#DejaVuSans-61" x="419.193359"/>
      <use xlink:href="#DejaVuSans-74" x="480.472656"/>
      <use xlink:href="#DejaVuSans-65" x="519.681641"/>
     </g>
    </g>
   </g>
   <g id="matplotlib.axis_8">
    <g id="ytick_13">
     <g id="line2d_35">
      <g>
       <use xlink:href="#mb03ec54bfe" x="210.973333" y="493.608776" style="stroke: #000000; stroke-width: 0.8"/>
      </g>
     </g>
    </g>
    <g id="ytick_14">
     <g id="line2d_36">
      <g>
       <use xlink:href="#mb03ec54bfe" x="210.973333" y="468.803558" style="stroke: #000000; stroke-width: 0.8"/>
      </g>
     </g>
    </g>
    <g id="ytick_15">
     <g id="line2d_37">
      <g>
       <use xlink:href="#mb03ec54bfe" x="210.973333" y="443.998341" style="stroke: #000000; stroke-width: 0.8"/>
      </g>
     </g>
    </g>
    <g id="ytick_16">
     <g id="line2d_38">
      <g>
       <use xlink:href="#mb03ec54bfe" x="210.973333" y="419.193124" style="stroke: #000000; stroke-width: 0.8"/>
      </g>
     </g>
    </g>
    <g id="ytick_17">
     <g id="line2d_39">
      <g>
       <use xlink:href="#mb03ec54bfe" x="210.973333" y="394.387906" style="stroke: #000000; stroke-width: 0.8"/>
      </g>
     </g>
    </g>
    <g id="ytick_18">
     <g id="line2d_40">
      <g>
       <use xlink:href="#mb03ec54bfe" x="210.973333" y="369.582689" style="stroke: #000000; stroke-width: 0.8"/>
      </g>
     </g>
    </g>
    <g id="ytick_19">
     <g id="line2d_41">
      <g>
       <use xlink:href="#mb03ec54bfe" x="210.973333" y="344.777472" style="stroke: #000000; stroke-width: 0.8"/>
      </g>
     </g>
    </g>
   </g>
   <g id="line2d_42">
    <path d="M 218.021667 403.398704 
L 219.445572 403.737588 
L 220.869478 404.076471 
L 222.293384 404.415354 
L 223.71729 404.754237 
L 225.141195 405.093121 
L 226.565101 405.432004 
L 227.989007 405.770887 
L 229.412912 406.109771 
L 230.836818 406.448654 
L 232.260724 406.787537 
L 233.68463 407.126421 
L 235.108535 407.465304 
L 236.532441 407.804187 
L 237.956347 408.143071 
L 239.380253 408.481954 
L 240.804158 408.820837 
L 242.228064 409.159721 
L 243.65197 409.498604 
L 245.075875 409.837487 
L 246.499781 410.176371 
L 247.923687 410.515254 
L 249.347593 410.854137 
L 250.771498 411.193021 
L 252.195404 411.531904 
L 253.61931 411.870787 
L 255.043215 412.20967 
L 256.467121 412.548554 
L 257.891027 412.887437 
L 259.314933 413.22632 
L 260.738838 413.565204 
L 262.162744 413.904087 
L 263.58665 414.24297 
L 265.010556 414.581854 
L 266.434461 414.920737 
L 267.858367 415.25962 
L 269.282273 415.598504 
L 270.706178 415.937387 
L 272.130084 416.27627 
L 273.55399 416.615154 
L 274.977896 416.954037 
L 276.401801 417.29292 
L 277.825707 417.631804 
L 279.249613 417.970687 
L 280.673519 418.30957 
L 282.097424 418.648454 
L 283.52133 418.987337 
L 284.945236 419.32622 
L 286.369141 419.665104 
L 287.793047 420.003987 
L 289.216953 420.34287 
L 290.640859 420.681753 
L 292.064764 421.020637 
L 293.48867 421.35952 
L 294.912576 421.698403 
L 296.336481 422.037287 
L 297.760387 422.37617 
L 299.184293 422.715053 
L 300.608199 423.053937 
L 302.032104 423.39282 
L 303.45601 423.731703 
L 304.879916 424.070587 
L 306.303822 424.40947 
L 307.727727 424.748353 
L 309.151633 425.087237 
L 310.575539 425.42612 
L 311.999444 425.765003 
L 313.42335 426.103887 
L 314.847256 426.44277 
L 316.271162 426.781653 
L 317.695067 427.120537 
L 319.118973 427.45942 
L 320.542879 427.798303 
L 321.966785 428.137186 
L 323.39069 428.47607 
L 324.814596 428.814953 
L 326.238502 429.153836 
L 327.662407 429.49272 
L 329.086313 429.831603 
L 330.510219 430.170486 
L 331.934125 430.50937 
L 333.35803 430.848253 
L 334.781936 431.187136 
L 336.205842 431.52602 
L 337.629747 431.864903 
L 339.053653 432.203786 
L 340.477559 432.54267 
L 341.901465 432.881553 
L 343.32537 433.220436 
L 344.749276 433.55932 
L 346.173182 433.898203 
L 347.597088 434.237086 
L 349.020993 434.57597 
L 350.444899 434.914853 
L 351.868805 435.253736 
L 353.29271 435.59262 
L 354.716616 435.931503 
L 356.140522 436.270386 
L 357.564428 436.609269 
L 358.988333 436.948153 
" clip-path="url(#pe852abaf69)" style="fill: none; stroke: #008000; stroke-opacity: 0.6; stroke-width: 2.25; stroke-linecap: square"/>
   </g>
   <g id="patch_13">
    <path d="M 210.973333 498.44 
L 210.973333 342.758525 
" style="fill: none; stroke: #000000; stroke-width: 0.8; stroke-linejoin: miter; stroke-linecap: square"/>
   </g>
   <g id="patch_14">
    <path d="M 210.973333 498.44 
L 366.036667 498.44 
" style="fill: none; stroke: #000000; stroke-width: 0.8; stroke-linejoin: miter; stroke-linecap: square"/>
   </g>
   <g id="text_33">
    <!-- r = -0.19  -->
    <g transform="translate(226.479667 358.326673) scale(0.1 -0.1)">
     <use xlink:href="#DejaVuSans-72"/>
     <use xlink:href="#DejaVuSans-20" x="41.113281"/>
     <use xlink:href="#DejaVuSans-3d" x="72.900391"/>
     <use xlink:href="#DejaVuSans-20" x="156.689453"/>
     <use xlink:href="#DejaVuSans-2d" x="188.476562"/>
     <use xlink:href="#DejaVuSans-30" x="224.560547"/>
     <use xlink:href="#DejaVuSans-2e" x="288.183594"/>
     <use xlink:href="#DejaVuSans-31" x="319.970703"/>
     <use xlink:href="#DejaVuSans-39" x="383.59375"/>
     <use xlink:href="#DejaVuSans-20" x="447.216797"/>
    </g>
   </g>
   <g id="text_34">
    <!-- p = 0.446 -->
    <g transform="translate(288.505 358.326673) scale(0.1 -0.1)">
     <use xlink:href="#DejaVuSans-70"/>
     <use xlink:href="#DejaVuSans-20" x="63.476562"/>
     <use xlink:href="#DejaVuSans-3d" x="95.263672"/>
     <use xlink:href="#DejaVuSans-20" x="179.052734"/>
     <use xlink:href="#DejaVuSans-30" x="210.839844"/>
     <use xlink:href="#DejaVuSans-2e" x="274.462891"/>
     <use xlink:href="#DejaVuSans-34" x="306.25"/>
     <use xlink:href="#DejaVuSans-34" x="369.873047"/>
     <use xlink:href="#DejaVuSans-36" x="433.496094"/>
    </g>
   </g>
  </g>
  <g id="axes_6">
   <g id="patch_15">
    <path d="M 374.536667 498.44 
L 529.6 498.44 
L 529.6 342.758525 
L 374.536667 342.758525 
z
" style="fill: #ffffff"/>
   </g>
   <g id="matplotlib.axis_9">
    <g id="xtick_21">
     <g id="line2d_43">
      <g>
       <use xlink:href="#m5244ea5b30" x="404.21539" y="498.44" style="stroke: #000000; stroke-width: 0.8"/>
      </g>
     </g>
     <g id="text_35">
      <!-- 2 -->
      <g transform="translate(401.03414 513.038437) scale(0.1 -0.1)">
       <use xlink:href="#DejaVuSans-32"/>
      </g>
     </g>
    </g>
    <g id="xtick_22">
     <g id="line2d_44">
      <g>
       <use xlink:href="#m5244ea5b30" x="453.980592" y="498.44" style="stroke: #000000; stroke-width: 0.8"/>
      </g>
     </g>
     <g id="text_36">
      <!-- 4 -->
      <g transform="translate(450.799342 513.038437) scale(0.1 -0.1)">
       <use xlink:href="#DejaVuSans-34"/>
      </g>
     </g>
    </g>
    <g id="xtick_23">
     <g id="line2d_45">
      <g>
       <use xlink:href="#m5244ea5b30" x="503.745794" y="498.44" style="stroke: #000000; stroke-width: 0.8"/>
      </g>
     </g>
     <g id="text_37">
      <!-- 6 -->
      <g transform="translate(500.564544 513.038437) scale(0.1 -0.1)">
       <use xlink:href="#DejaVuSans-36"/>
      </g>
     </g>
    </g>
    <g id="text_38">
     <!-- dec temp -->
     <g transform="translate(428.398021 526.716562) scale(0.1 -0.1)">
      <use xlink:href="#DejaVuSans-64"/>
      <use xlink:href="#DejaVuSans-65" x="63.476562"/>
      <use xlink:href="#DejaVuSans-63" x="125"/>
      <use xlink:href="#DejaVuSans-20" x="179.980469"/>
      <use xlink:href="#DejaVuSans-74" x="211.767578"/>
      <use xlink:href="#DejaVuSans-65" x="250.976562"/>
      <use xlink:href="#DejaVuSans-6d" x="312.5"/>
      <use xlink:href="#DejaVuSans-70" x="409.912109"/>
     </g>
    </g>
   </g>
   <g id="patch_16">
    <path d="M 374.536667 498.44 
L 529.6 498.44 
" style="fill: none; stroke: #000000; stroke-width: 0.8; stroke-linejoin: miter; stroke-linecap: square"/>
   </g>
   <g id="text_39">
    <!-- r = 1.00  -->
    <g transform="translate(390.043 358.326673) scale(0.1 -0.1)">
     <use xlink:href="#DejaVuSans-72"/>
     <use xlink:href="#DejaVuSans-20" x="41.113281"/>
     <use xlink:href="#DejaVuSans-3d" x="72.900391"/>
     <use xlink:href="#DejaVuSans-20" x="156.689453"/>
     <use xlink:href="#DejaVuSans-31" x="188.476562"/>
     <use xlink:href="#DejaVuSans-2e" x="252.099609"/>
     <use xlink:href="#DejaVuSans-30" x="283.886719"/>
     <use xlink:href="#DejaVuSans-30" x="347.509766"/>
     <use xlink:href="#DejaVuSans-20" x="411.132812"/>
    </g>
   </g>
   <g id="text_40">
    <!-- p = 0.000 -->
    <g transform="translate(452.068333 358.326673) scale(0.1 -0.1)">
     <use xlink:href="#DejaVuSans-70"/>
     <use xlink:href="#DejaVuSans-20" x="63.476562"/>
     <use xlink:href="#DejaVuSans-3d" x="95.263672"/>
     <use xlink:href="#DejaVuSans-20" x="179.052734"/>
     <use xlink:href="#DejaVuSans-30" x="210.839844"/>
     <use xlink:href="#DejaVuSans-2e" x="274.462891"/>
     <use xlink:href="#DejaVuSans-30" x="306.25"/>
     <use xlink:href="#DejaVuSans-30" x="369.873047"/>
     <use xlink:href="#DejaVuSans-30" x="433.496094"/>
    </g>
   </g>
  </g>
  <g id="axes_7">
   <g id="patch_17">
    <path d="M 54.458333 166.081475 
L 77.952778 166.081475 
L 77.952778 17.813404 
L 54.458333 17.813404 
z
" clip-path="url(#peaa4b31355)" style="fill: #1f77b4; fill-opacity: 0.75; stroke: #000000; stroke-linejoin: miter"/>
   </g>
   <g id="patch_18">
    <path d="M 77.952778 166.081475 
L 101.447222 166.081475 
L 101.447222 166.081475 
L 77.952778 166.081475 
z
" clip-path="url(#peaa4b31355)" style="fill: #1f77b4; fill-opacity: 0.75; stroke: #000000; stroke-linejoin: miter"/>
   </g>
   <g id="patch_19">
    <path d="M 101.447222 166.081475 
L 124.941667 166.081475 
L 124.941667 123.719169 
L 101.447222 123.719169 
z
" clip-path="url(#peaa4b31355)" style="fill: #1f77b4; fill-opacity: 0.75; stroke: #000000; stroke-linejoin: miter"/>
   </g>
   <g id="patch_20">
    <path d="M 124.941667 166.081475 
L 148.436111 166.081475 
L 148.436111 144.900322 
L 124.941667 144.900322 
z
" clip-path="url(#peaa4b31355)" style="fill: #1f77b4; fill-opacity: 0.75; stroke: #000000; stroke-linejoin: miter"/>
   </g>
   <g id="patch_21">
    <path d="M 148.436111 166.081475 
L 171.930556 166.081475 
L 171.930556 38.994557 
L 148.436111 38.994557 
z
" clip-path="url(#peaa4b31355)" style="fill: #1f77b4; fill-opacity: 0.75; stroke: #000000; stroke-linejoin: miter"/>
   </g>
   <g id="patch_22">
    <path d="M 171.930556 166.081475 
L 195.425 166.081475 
L 195.425 123.719169 
L 171.930556 123.719169 
z
" clip-path="url(#peaa4b31355)" style="fill: #1f77b4; fill-opacity: 0.75; stroke: #000000; stroke-linejoin: miter"/>
   </g>
  </g>
  <g id="axes_8">
   <g id="patch_23">
    <path d="M 218.021667 332.260737 
L 241.516111 332.260737 
L 241.516111 247.536125 
L 218.021667 247.536125 
z
" clip-path="url(#pd2b7f83351)" style="fill: #1f77b4; fill-opacity: 0.75; stroke: #000000; stroke-linejoin: miter"/>
   </g>
   <g id="patch_24">
    <path d="M 241.516111 332.260737 
L 265.010556 332.260737 
L 265.010556 205.173819 
L 241.516111 205.173819 
z
" clip-path="url(#pd2b7f83351)" style="fill: #1f77b4; fill-opacity: 0.75; stroke: #000000; stroke-linejoin: miter"/>
   </g>
   <g id="patch_25">
    <path d="M 265.010556 332.260737 
L 288.505 332.260737 
L 288.505 268.717278 
L 265.010556 268.717278 
z
" clip-path="url(#pd2b7f83351)" style="fill: #1f77b4; fill-opacity: 0.75; stroke: #000000; stroke-linejoin: miter"/>
   </g>
   <g id="patch_26">
    <path d="M 288.505 332.260737 
L 311.999444 332.260737 
L 311.999444 311.079584 
L 288.505 311.079584 
z
" clip-path="url(#pd2b7f83351)" style="fill: #1f77b4; fill-opacity: 0.75; stroke: #000000; stroke-linejoin: miter"/>
   </g>
   <g id="patch_27">
    <path d="M 311.999444 332.260737 
L 335.493889 332.260737 
L 335.493889 268.717278 
L 311.999444 268.717278 
z
" clip-path="url(#pd2b7f83351)" style="fill: #1f77b4; fill-opacity: 0.75; stroke: #000000; stroke-linejoin: miter"/>
   </g>
   <g id="patch_28">
    <path d="M 335.493889 332.260737 
L 358.988333 332.260737 
L 358.988333 311.079584 
L 335.493889 311.079584 
z
" clip-path="url(#pd2b7f83351)" style="fill: #1f77b4; fill-opacity: 0.75; stroke: #000000; stroke-linejoin: miter"/>
   </g>
  </g>
  <g id="axes_9">
   <g id="patch_29">
    <path d="M 381.585 498.44 
L 405.079444 498.44 
L 405.079444 413.715388 
L 381.585 413.715388 
z
" clip-path="url(#pb057444f07)" style="fill: #1f77b4; fill-opacity: 0.75; stroke: #000000; stroke-linejoin: miter"/>
   </g>
   <g id="patch_30">
    <path d="M 405.079444 498.44 
L 428.573889 498.44 
L 428.573889 456.077694 
L 405.079444 456.077694 
z
" clip-path="url(#pb057444f07)" style="fill: #1f77b4; fill-opacity: 0.75; stroke: #000000; stroke-linejoin: miter"/>
   </g>
   <g id="patch_31">
    <path d="M 428.573889 498.44 
L 452.068333 498.44 
L 452.068333 456.077694 
L 428.573889 456.077694 
z
" clip-path="url(#pb057444f07)" style="fill: #1f77b4; fill-opacity: 0.75; stroke: #000000; stroke-linejoin: miter"/>
   </g>
   <g id="patch_32">
    <path d="M 452.068333 498.44 
L 475.562778 498.44 
L 475.562778 477.258847 
L 452.068333 477.258847 
z
" clip-path="url(#pb057444f07)" style="fill: #1f77b4; fill-opacity: 0.75; stroke: #000000; stroke-linejoin: miter"/>
   </g>
   <g id="patch_33">
    <path d="M 475.562778 498.44 
L 499.057222 498.44 
L 499.057222 413.715388 
L 475.562778 413.715388 
z
" clip-path="url(#pb057444f07)" style="fill: #1f77b4; fill-opacity: 0.75; stroke: #000000; stroke-linejoin: miter"/>
   </g>
   <g id="patch_34">
    <path d="M 499.057222 498.44 
L 522.551667 498.44 
L 522.551667 392.534235 
L 499.057222 392.534235 
z
" clip-path="url(#pb057444f07)" style="fill: #1f77b4; fill-opacity: 0.75; stroke: #000000; stroke-linejoin: miter"/>
   </g>
  </g>
 </g>
 <defs>
  <clipPath id="p341fb0662b">
   <rect x="47.41" y="176.579263" width="155.063333" height="155.681475"/>
  </clipPath>
  <clipPath id="p60074e55df">
   <rect x="47.41" y="342.758525" width="155.063333" height="155.681475"/>
  </clipPath>
  <clipPath id="pe852abaf69">
   <rect x="210.973333" y="342.758525" width="155.063333" height="155.681475"/>
  </clipPath>
  <clipPath id="peaa4b31355">
   <rect x="47.41" y="10.4" width="155.063333" height="155.681475"/>
  </clipPath>
  <clipPath id="pd2b7f83351">
   <rect x="210.973333" y="176.579263" width="155.063333" height="155.681475"/>
  </clipPath>
  <clipPath id="pb057444f07">
   <rect x="374.536667" y="342.758525" width="155.063333" height="155.681475"/>
  </clipPath>
 </defs>
</svg>
