<?xml version="1.0" encoding="utf-8" standalone="no"?>
<!DOCTYPE svg PUBLIC "-//W3C//DTD SVG 1.1//EN"
  "http://www.w3.org/Graphics/SVG/1.1/DTD/svg11.dtd">
<svg xmlns:xlink="http://www.w3.org/1999/xlink" width="720pt" height="360pt" viewBox="0 0 720 360" xmlns="http://www.w3.org/2000/svg" version="1.1">
 <metadata>
  <rdf:RDF xmlns:dc="http://purl.org/dc/elements/1.1/" xmlns:cc="http://creativecommons.org/ns#" xmlns:rdf="http://www.w3.org/1999/02/22-rdf-syntax-ns#">
   <cc:Work>
    <dc:type rdf:resource="http://purl.org/dc/dcmitype/StillImage"/>
    <dc:date>2025-04-15T17:19:03.803036</dc:date>
    <dc:format>image/svg+xml</dc:format>
    <dc:creator>
     <cc:Agent>
      <dc:title>Matplotlib v3.7.1, https://matplotlib.org/</dc:title>
     </cc:Agent>
    </dc:creator>
   </cc:Work>
  </rdf:RDF>
 </metadata>
 <defs>
  <style type="text/css">*{stroke-linejoin: round; stroke-linecap: butt}</style>
 </defs>
 <g id="figure_1">
  <g id="patch_1">
   <path d="M 0 360 
L 720 360 
L 720 0 
L 0 0 
z
" style="fill: #ffffff"/>
  </g>
  <g id="axes_1">
   <g id="patch_2">
    <path d="M 90 320.4 
L 648 320.4 
L 648 43.2 
L 90 43.2 
z
" style="fill: #ffffff"/>
   </g>
   <g id="matplotlib.axis_1">
    <g id="xtick_1">
     <g id="line2d_1">
      <defs>
       <path id="m0a36fed94b" d="M 0 0 
L 0 3.5 
" style="stroke: #000000; stroke-width: 0.8"/>
      </defs>
      <g>
       <use xlink:href="#m0a36fed94b" x="90.277336" y="320.4" style="stroke: #000000; stroke-width: 0.8"/>
      </g>
     </g>
     <g id="text_1">
      <!-- 0 -->
      <g transform="translate(84.551086 341.077187) scale(0.18 -0.18)">
       <defs>
        <path id="DejaVuSans-30" d="M 2034 4250 
Q 1547 4250 1301 3770 
Q 1056 3291 1056 2328 
Q 1056 1369 1301 889 
Q 1547 409 2034 409 
Q 2525 409 2770 889 
Q 3016 1369 3016 2328 
Q 3016 3291 2770 3770 
Q 2525 4250 2034 4250 
z
M 2034 4750 
Q 2819 4750 3233 4129 
Q 3647 3509 3647 2328 
Q 3647 1150 3233 529 
Q 2819 -91 2034 -91 
Q 1250 -91 836 529 
Q 422 1150 422 2328 
Q 422 3509 836 4129 
Q 1250 4750 2034 4750 
z
" transform="scale(0.015625)"/>
       </defs>
       <use xlink:href="#DejaVuSans-30"/>
      </g>
     </g>
    </g>
    <g id="xtick_2">
     <g id="line2d_2">
      <g>
       <use xlink:href="#m0a36fed94b" x="228.945328" y="320.4" style="stroke: #000000; stroke-width: 0.8"/>
      </g>
     </g>
     <g id="text_2">
      <!-- 50 -->
      <g transform="translate(217.492828 341.077187) scale(0.18 -0.18)">
       <defs>
        <path id="DejaVuSans-35" d="M 691 4666 
L 3169 4666 
L 3169 4134 
L 1269 4134 
L 1269 2991 
Q 1406 3038 1543 3061 
Q 1681 3084 1819 3084 
Q 2600 3084 3056 2656 
Q 3513 2228 3513 1497 
Q 3513 744 3044 326 
Q 2575 -91 1722 -91 
Q 1428 -91 1123 -41 
Q 819 9 494 109 
L 494 744 
Q 775 591 1075 516 
Q 1375 441 1709 441 
Q 2250 441 2565 725 
Q 2881 1009 2881 1497 
Q 2881 1984 2565 2268 
Q 2250 2553 1709 2553 
Q 1456 2553 1204 2497 
Q 953 2441 691 2322 
L 691 4666 
z
" transform="scale(0.015625)"/>
       </defs>
       <use xlink:href="#DejaVuSans-35"/>
       <use xlink:href="#DejaVuSans-30" x="63.623047"/>
      </g>
     </g>
    </g>
    <g id="xtick_3">
     <g id="line2d_3">
      <g>
       <use xlink:href="#m0a36fed94b" x="367.61332" y="320.4" style="stroke: #000000; stroke-width: 0.8"/>
      </g>
     </g>
     <g id="text_3">
      <!-- 100 -->
      <g transform="translate(350.43457 341.077187) scale(0.18 -0.18)">
       <defs>
        <path id="DejaVuSans-31" d="M 794 531 
L 1825 531 
L 1825 4091 
L 703 3866 
L 703 4441 
L 1819 4666 
L 2450 4666 
L 2450 531 
L 3481 531 
L 3481 0 
L 794 0 
L 794 531 
z
" transform="scale(0.015625)"/>
       </defs>
       <use xlink:href="#DejaVuSans-31"/>
       <use xlink:href="#DejaVuSans-30" x="63.623047"/>
       <use xlink:href="#DejaVuSans-30" x="127.246094"/>
      </g>
     </g>
    </g>
    <g id="xtick_4">
     <g id="line2d_4">
      <g>
       <use xlink:href="#m0a36fed94b" x="506.281312" y="320.4" style="stroke: #000000; stroke-width: 0.8"/>
      </g>
     </g>
     <g id="text_4">
      <!-- 150 -->
      <g transform="translate(489.102562 341.077187) scale(0.18 -0.18)">
       <use xlink:href="#DejaVuSans-31"/>
       <use xlink:href="#DejaVuSans-35" x="63.623047"/>
       <use xlink:href="#DejaVuSans-30" x="127.246094"/>
      </g>
     </g>
    </g>
    <g id="xtick_5">
     <g id="line2d_5">
      <g>
       <use xlink:href="#m0a36fed94b" x="644.949304" y="320.4" style="stroke: #000000; stroke-width: 0.8"/>
      </g>
     </g>
     <g id="text_5">
      <!-- 200 -->
      <g transform="translate(627.770554 341.077187) scale(0.18 -0.18)">
       <defs>
        <path id="DejaVuSans-32" d="M 1228 531 
L 3431 531 
L 3431 0 
L 469 0 
L 469 531 
Q 828 903 1448 1529 
Q 2069 2156 2228 2338 
Q 2531 2678 2651 2914 
Q 2772 3150 2772 3378 
Q 2772 3750 2511 3984 
Q 2250 4219 1831 4219 
Q 1534 4219 1204 4116 
Q 875 4013 500 3803 
L 500 4441 
Q 881 4594 1212 4672 
Q 1544 4750 1819 4750 
Q 2544 4750 2975 4387 
Q 3406 4025 3406 3419 
Q 3406 3131 3298 2873 
Q 3191 2616 2906 2266 
Q 2828 2175 2409 1742 
Q 1991 1309 1228 531 
z
" transform="scale(0.015625)"/>
       </defs>
       <use xlink:href="#DejaVuSans-32"/>
       <use xlink:href="#DejaVuSans-30" x="63.623047"/>
       <use xlink:href="#DejaVuSans-30" x="127.246094"/>
      </g>
     </g>
    </g>
    <g id="text_6">
     <!-- trials -->
     <g transform="translate(344.075 364.0175) scale(0.2 -0.2)">
      <defs>
       <path id="DejaVuSans-74" d="M 1172 4494 
L 1172 3500 
L 2356 3500 
L 2356 3053 
L 1172 3053 
L 1172 1153 
Q 1172 725 1289 603 
Q 1406 481 1766 481 
L 2356 481 
L 2356 0 
L 1766 0 
Q 1100 0 847 248 
Q 594 497 594 1153 
L 594 3053 
L 172 3053 
L 172 3500 
L 594 3500 
L 594 4494 
L 1172 4494 
z
" transform="scale(0.015625)"/>
       <path id="DejaVuSans-72" d="M 2631 2963 
Q 2534 3019 2420 3045 
Q 2306 3072 2169 3072 
Q 1681 3072 1420 2755 
Q 1159 2438 1159 1844 
L 1159 0 
L 581 0 
L 581 3500 
L 1159 3500 
L 1159 2956 
Q 1341 3275 1631 3429 
Q 1922 3584 2338 3584 
Q 2397 3584 2469 3576 
Q 2541 3569 2628 3553 
L 2631 2963 
z
" transform="scale(0.015625)"/>
       <path id="DejaVuSans-69" d="M 603 3500 
L 1178 3500 
L 1178 0 
L 603 0 
L 603 3500 
z
M 603 4863 
L 1178 4863 
L 1178 4134 
L 603 4134 
L 603 4863 
z
" transform="scale(0.015625)"/>
       <path id="DejaVuSans-61" d="M 2194 1759 
Q 1497 1759 1228 1600 
Q 959 1441 959 1056 
Q 959 750 1161 570 
Q 1363 391 1709 391 
Q 2188 391 2477 730 
Q 2766 1069 2766 1631 
L 2766 1759 
L 2194 1759 
z
M 3341 1997 
L 3341 0 
L 2766 0 
L 2766 531 
Q 2569 213 2275 61 
Q 1981 -91 1556 -91 
Q 1019 -91 701 211 
Q 384 513 384 1019 
Q 384 1609 779 1909 
Q 1175 2209 1959 2209 
L 2766 2209 
L 2766 2266 
Q 2766 2663 2505 2880 
Q 2244 3097 1772 3097 
Q 1472 3097 1187 3025 
Q 903 2953 641 2809 
L 641 3341 
Q 956 3463 1253 3523 
Q 1550 3584 1831 3584 
Q 2591 3584 2966 3190 
Q 3341 2797 3341 1997 
z
" transform="scale(0.015625)"/>
       <path id="DejaVuSans-6c" d="M 603 4863 
L 1178 4863 
L 1178 0 
L 603 0 
L 603 4863 
z
" transform="scale(0.015625)"/>
       <path id="DejaVuSans-73" d="M 2834 3397 
L 2834 2853 
Q 2591 2978 2328 3040 
Q 2066 3103 1784 3103 
Q 1356 3103 1142 2972 
Q 928 2841 928 2578 
Q 928 2378 1081 2264 
Q 1234 2150 1697 2047 
L 1894 2003 
Q 2506 1872 2764 1633 
Q 3022 1394 3022 966 
Q 3022 478 2636 193 
Q 2250 -91 1575 -91 
Q 1294 -91 989 -36 
Q 684 19 347 128 
L 347 722 
Q 666 556 975 473 
Q 1284 391 1588 391 
Q 1994 391 2212 530 
Q 2431 669 2431 922 
Q 2431 1156 2273 1281 
Q 2116 1406 1581 1522 
L 1381 1569 
Q 847 1681 609 1914 
Q 372 2147 372 2553 
Q 372 3047 722 3315 
Q 1072 3584 1716 3584 
Q 2034 3584 2315 3537 
Q 2597 3491 2834 3397 
z
" transform="scale(0.015625)"/>
      </defs>
      <use xlink:href="#DejaVuSans-74"/>
      <use xlink:href="#DejaVuSans-72" x="39.208984"/>
      <use xlink:href="#DejaVuSans-69" x="80.322266"/>
      <use xlink:href="#DejaVuSans-61" x="108.105469"/>
      <use xlink:href="#DejaVuSans-6c" x="169.384766"/>
      <use xlink:href="#DejaVuSans-73" x="197.167969"/>
     </g>
    </g>
   </g>
   <g id="matplotlib.axis_2">
    <g id="ytick_1">
     <g id="line2d_6">
      <defs>
       <path id="mb9262387ea" d="M 0 0 
L -3.5 0 
" style="stroke: #000000; stroke-width: 0.8"/>
      </defs>
      <g>
       <use xlink:href="#mb9262387ea" x="90" y="320.4" style="stroke: #000000; stroke-width: 0.8"/>
      </g>
     </g>
     <g id="text_7">
      <!-- 0.0 -->
      <g transform="translate(54.374375 327.238594) scale(0.18 -0.18)">
       <defs>
        <path id="DejaVuSans-2e" d="M 684 794 
L 1344 794 
L 1344 0 
L 684 0 
L 684 794 
z
" transform="scale(0.015625)"/>
       </defs>
       <use xlink:href="#DejaVuSans-30"/>
       <use xlink:href="#DejaVuSans-2e" x="63.623047"/>
       <use xlink:href="#DejaVuSans-30" x="95.410156"/>
      </g>
     </g>
    </g>
    <g id="ytick_2">
     <g id="line2d_7">
      <g>
       <use xlink:href="#mb9262387ea" x="90" y="264.96" style="stroke: #000000; stroke-width: 0.8"/>
      </g>
     </g>
     <g id="text_8">
      <!-- 0.2 -->
      <g transform="translate(54.374375 271.798594) scale(0.18 -0.18)">
       <use xlink:href="#DejaVuSans-30"/>
       <use xlink:href="#DejaVuSans-2e" x="63.623047"/>
       <use xlink:href="#DejaVuSans-32" x="95.410156"/>
      </g>
     </g>
    </g>
    <g id="ytick_3">
     <g id="line2d_8">
      <g>
       <use xlink:href="#mb9262387ea" x="90" y="209.52" style="stroke: #000000; stroke-width: 0.8"/>
      </g>
     </g>
     <g id="text_9">
      <!-- 0.4 -->
      <g transform="translate(54.374375 216.358594) scale(0.18 -0.18)">
       <defs>
        <path id="DejaVuSans-34" d="M 2419 4116 
L 825 1625 
L 2419 1625 
L 2419 4116 
z
M 2253 4666 
L 3047 4666 
L 3047 1625 
L 3713 1625 
L 3713 1100 
L 3047 1100 
L 3047 0 
L 2419 0 
L 2419 1100 
L 313 1100 
L 313 1709 
L 2253 4666 
z
" transform="scale(0.015625)"/>
       </defs>
       <use xlink:href="#DejaVuSans-30"/>
       <use xlink:href="#DejaVuSans-2e" x="63.623047"/>
       <use xlink:href="#DejaVuSans-34" x="95.410156"/>
      </g>
     </g>
    </g>
    <g id="ytick_4">
     <g id="line2d_9">
      <g>
       <use xlink:href="#mb9262387ea" x="90" y="154.08" style="stroke: #000000; stroke-width: 0.8"/>
      </g>
     </g>
     <g id="text_10">
      <!-- 0.6 -->
      <g transform="translate(54.374375 160.918594) scale(0.18 -0.18)">
       <defs>
        <path id="DejaVuSans-36" d="M 2113 2584 
Q 1688 2584 1439 2293 
Q 1191 2003 1191 1497 
Q 1191 994 1439 701 
Q 1688 409 2113 409 
Q 2538 409 2786 701 
Q 3034 994 3034 1497 
Q 3034 2003 2786 2293 
Q 2538 2584 2113 2584 
z
M 3366 4563 
L 3366 3988 
Q 3128 4100 2886 4159 
Q 2644 4219 2406 4219 
Q 1781 4219 1451 3797 
Q 1122 3375 1075 2522 
Q 1259 2794 1537 2939 
Q 1816 3084 2150 3084 
Q 2853 3084 3261 2657 
Q 3669 2231 3669 1497 
Q 3669 778 3244 343 
Q 2819 -91 2113 -91 
Q 1303 -91 875 529 
Q 447 1150 447 2328 
Q 447 3434 972 4092 
Q 1497 4750 2381 4750 
Q 2619 4750 2861 4703 
Q 3103 4656 3366 4563 
z
" transform="scale(0.015625)"/>
       </defs>
       <use xlink:href="#DejaVuSans-30"/>
       <use xlink:href="#DejaVuSans-2e" x="63.623047"/>
       <use xlink:href="#DejaVuSans-36" x="95.410156"/>
      </g>
     </g>
    </g>
    <g id="ytick_5">
     <g id="line2d_10">
      <g>
       <use xlink:href="#mb9262387ea" x="90" y="98.64" style="stroke: #000000; stroke-width: 0.8"/>
      </g>
     </g>
     <g id="text_11">
      <!-- 0.8 -->
      <g transform="translate(54.374375 105.478594) scale(0.18 -0.18)">
       <defs>
        <path id="DejaVuSans-38" d="M 2034 2216 
Q 1584 2216 1326 1975 
Q 1069 1734 1069 1313 
Q 1069 891 1326 650 
Q 1584 409 2034 409 
Q 2484 409 2743 651 
Q 3003 894 3003 1313 
Q 3003 1734 2745 1975 
Q 2488 2216 2034 2216 
z
M 1403 2484 
Q 997 2584 770 2862 
Q 544 3141 544 3541 
Q 544 4100 942 4425 
Q 1341 4750 2034 4750 
Q 2731 4750 3128 4425 
Q 3525 4100 3525 3541 
Q 3525 3141 3298 2862 
Q 3072 2584 2669 2484 
Q 3125 2378 3379 2068 
Q 3634 1759 3634 1313 
Q 3634 634 3220 271 
Q 2806 -91 2034 -91 
Q 1263 -91 848 271 
Q 434 634 434 1313 
Q 434 1759 690 2068 
Q 947 2378 1403 2484 
z
M 1172 3481 
Q 1172 3119 1398 2916 
Q 1625 2713 2034 2713 
Q 2441 2713 2670 2916 
Q 2900 3119 2900 3481 
Q 2900 3844 2670 4047 
Q 2441 4250 2034 4250 
Q 1625 4250 1398 4047 
Q 1172 3844 1172 3481 
z
" transform="scale(0.015625)"/>
       </defs>
       <use xlink:href="#DejaVuSans-30"/>
       <use xlink:href="#DejaVuSans-2e" x="63.623047"/>
       <use xlink:href="#DejaVuSans-38" x="95.410156"/>
      </g>
     </g>
    </g>
    <g id="ytick_6">
     <g id="line2d_11">
      <g>
       <use xlink:href="#mb9262387ea" x="90" y="43.2" style="stroke: #000000; stroke-width: 0.8"/>
      </g>
     </g>
     <g id="text_12">
      <!-- 1.0 -->
      <g transform="translate(54.374375 50.038594) scale(0.18 -0.18)">
       <use xlink:href="#DejaVuSans-31"/>
       <use xlink:href="#DejaVuSans-2e" x="63.623047"/>
       <use xlink:href="#DejaVuSans-30" x="95.410156"/>
      </g>
     </g>
    </g>
    <g id="text_13">
     <!-- reward probability -->
     <g transform="translate(46.215 272.959375) rotate(-90) scale(0.2 -0.2)">
      <defs>
       <path id="DejaVuSans-65" d="M 3597 1894 
L 3597 1613 
L 953 1613 
Q 991 1019 1311 708 
Q 1631 397 2203 397 
Q 2534 397 2845 478 
Q 3156 559 3463 722 
L 3463 178 
Q 3153 47 2828 -22 
Q 2503 -91 2169 -91 
Q 1331 -91 842 396 
Q 353 884 353 1716 
Q 353 2575 817 3079 
Q 1281 3584 2069 3584 
Q 2775 3584 3186 3129 
Q 3597 2675 3597 1894 
z
M 3022 2063 
Q 3016 2534 2758 2815 
Q 2500 3097 2075 3097 
Q 1594 3097 1305 2825 
Q 1016 2553 972 2059 
L 3022 2063 
z
" transform="scale(0.015625)"/>
       <path id="DejaVuSans-77" d="M 269 3500 
L 844 3500 
L 1563 769 
L 2278 3500 
L 2956 3500 
L 3675 769 
L 4391 3500 
L 4966 3500 
L 4050 0 
L 3372 0 
L 2619 2869 
L 1863 0 
L 1184 0 
L 269 3500 
z
" transform="scale(0.015625)"/>
       <path id="DejaVuSans-64" d="M 2906 2969 
L 2906 4863 
L 3481 4863 
L 3481 0 
L 2906 0 
L 2906 525 
Q 2725 213 2448 61 
Q 2172 -91 1784 -91 
Q 1150 -91 751 415 
Q 353 922 353 1747 
Q 353 2572 751 3078 
Q 1150 3584 1784 3584 
Q 2172 3584 2448 3432 
Q 2725 3281 2906 2969 
z
M 947 1747 
Q 947 1113 1208 752 
Q 1469 391 1925 391 
Q 2381 391 2643 752 
Q 2906 1113 2906 1747 
Q 2906 2381 2643 2742 
Q 2381 3103 1925 3103 
Q 1469 3103 1208 2742 
Q 947 2381 947 1747 
z
" transform="scale(0.015625)"/>
       <path id="DejaVuSans-20" transform="scale(0.015625)"/>
       <path id="DejaVuSans-70" d="M 1159 525 
L 1159 -1331 
L 581 -1331 
L 581 3500 
L 1159 3500 
L 1159 2969 
Q 1341 3281 1617 3432 
Q 1894 3584 2278 3584 
Q 2916 3584 3314 3078 
Q 3713 2572 3713 1747 
Q 3713 922 3314 415 
Q 2916 -91 2278 -91 
Q 1894 -91 1617 61 
Q 1341 213 1159 525 
z
M 3116 1747 
Q 3116 2381 2855 2742 
Q 2594 3103 2138 3103 
Q 1681 3103 1420 2742 
Q 1159 2381 1159 1747 
Q 1159 1113 1420 752 
Q 1681 391 2138 391 
Q 2594 391 2855 752 
Q 3116 1113 3116 1747 
z
" transform="scale(0.015625)"/>
       <path id="DejaVuSans-6f" d="M 1959 3097 
Q 1497 3097 1228 2736 
Q 959 2375 959 1747 
Q 959 1119 1226 758 
Q 1494 397 1959 397 
Q 2419 397 2687 759 
Q 2956 1122 2956 1747 
Q 2956 2369 2687 2733 
Q 2419 3097 1959 3097 
z
M 1959 3584 
Q 2709 3584 3137 3096 
Q 3566 2609 3566 1747 
Q 3566 888 3137 398 
Q 2709 -91 1959 -91 
Q 1206 -91 779 398 
Q 353 888 353 1747 
Q 353 2609 779 3096 
Q 1206 3584 1959 3584 
z
" transform="scale(0.015625)"/>
       <path id="DejaVuSans-62" d="M 3116 1747 
Q 3116 2381 2855 2742 
Q 2594 3103 2138 3103 
Q 1681 3103 1420 2742 
Q 1159 2381 1159 1747 
Q 1159 1113 1420 752 
Q 1681 391 2138 391 
Q 2594 391 2855 752 
Q 3116 1113 3116 1747 
z
M 1159 2969 
Q 1341 3281 1617 3432 
Q 1894 3584 2278 3584 
Q 2916 3584 3314 3078 
Q 3713 2572 3713 1747 
Q 3713 922 3314 415 
Q 2916 -91 2278 -91 
Q 1894 -91 1617 61 
Q 1341 213 1159 525 
L 1159 0 
L 581 0 
L 581 4863 
L 1159 4863 
L 1159 2969 
z
" transform="scale(0.015625)"/>
       <path id="DejaVuSans-79" d="M 2059 -325 
Q 1816 -950 1584 -1140 
Q 1353 -1331 966 -1331 
L 506 -1331 
L 506 -850 
L 844 -850 
Q 1081 -850 1212 -737 
Q 1344 -625 1503 -206 
L 1606 56 
L 191 3500 
L 800 3500 
L 1894 763 
L 2988 3500 
L 3597 3500 
L 2059 -325 
z
" transform="scale(0.015625)"/>
      </defs>
      <use xlink:href="#DejaVuSans-72"/>
      <use xlink:href="#DejaVuSans-65" x="38.863281"/>
      <use xlink:href="#DejaVuSans-77" x="100.386719"/>
      <use xlink:href="#DejaVuSans-61" x="182.173828"/>
      <use xlink:href="#DejaVuSans-72" x="243.453125"/>
      <use xlink:href="#DejaVuSans-64" x="282.816406"/>
      <use xlink:href="#DejaVuSans-20" x="346.292969"/>
      <use xlink:href="#DejaVuSans-70" x="378.080078"/>
      <use xlink:href="#DejaVuSans-72" x="441.556641"/>
      <use xlink:href="#DejaVuSans-6f" x="480.419922"/>
      <use xlink:href="#DejaVuSans-62" x="541.601562"/>
      <use xlink:href="#DejaVuSans-61" x="605.078125"/>
      <use xlink:href="#DejaVuSans-62" x="666.357422"/>
      <use xlink:href="#DejaVuSans-69" x="729.833984"/>
      <use xlink:href="#DejaVuSans-6c" x="757.617188"/>
      <use xlink:href="#DejaVuSans-69" x="785.400391"/>
      <use xlink:href="#DejaVuSans-74" x="813.183594"/>
      <use xlink:href="#DejaVuSans-79" x="852.392578"/>
     </g>
    </g>
   </g>
   <g id="line2d_12">
    <path d="M 90.277336 235.952178 
L 93.050696 229.902858 
L 95.824056 236.580433 
L 98.597416 219.964459 
L 101.370775 218.440151 
L 104.144135 208.340744 
L 106.917495 212.996577 
L 109.690855 198.936058 
L 112.464215 193.283046 
L 115.237575 195.660169 
L 118.010934 202.515344 
L 120.784294 210.294677 
L 123.557654 207.616511 
L 126.331014 218.151541 
L 129.104374 225.543214 
L 131.877734 233.684883 
L 134.651093 233.680595 
L 137.424453 227.714824 
L 140.197813 233.874588 
L 142.971173 236.114459 
L 145.744533 234.635739 
L 148.517893 236.970348 
L 151.291252 231.130198 
L 154.064612 237.829583 
L 156.837972 239.196408 
L 159.611332 241.283511 
L 162.384692 236.543707 
L 165.158052 236.912884 
L 167.931412 224.808612 
L 170.704771 228.851487 
L 173.478131 229.057649 
L 176.251491 228.449295 
L 179.024851 235.569025 
L 181.798211 227.577022 
L 184.571571 225.514774 
L 187.34493 230.738096 
L 190.11829 230.891 
L 192.89165 220.351973 
L 195.66501 213.379949 
L 201.21173 214.480222 
L 203.985089 210.191172 
L 206.758449 217.749461 
L 209.531809 204.845957 
L 212.305169 198.635549 
L 215.078529 193.038842 
L 217.851889 188.709644 
L 220.625249 199.01618 
L 223.398608 190.10958 
L 226.171968 206.823348 
L 228.945328 206.076987 
L 231.718688 202.900733 
L 234.492048 195.993379 
L 237.265408 206.930547 
L 240.038767 207.368446 
L 242.812127 204.811916 
L 245.585487 192.415195 
L 248.358847 188.938669 
L 251.132207 192.337496 
L 253.905567 200.625811 
L 256.678926 201.270019 
L 259.452286 202.451375 
L 262.225646 200.94384 
L 264.999006 211.628797 
L 267.772366 217.680202 
L 270.545726 222.299881 
L 273.319085 210.131504 
L 276.092445 202.599008 
L 278.865805 188.995644 
L 281.639165 179.156357 
L 284.412525 179.998266 
L 287.185885 170.48571 
L 289.959245 184.611104 
L 292.732604 178.365964 
L 295.505964 171.43037 
L 298.279324 170.940849 
L 301.052684 165.106461 
L 303.826044 169.944456 
L 306.599404 171.945945 
L 309.372763 172.483806 
L 312.146123 167.196008 
L 314.919483 164.294196 
L 317.692843 164.244632 
L 320.466203 156.450206 
L 323.239563 162.329575 
L 326.012922 173.242442 
L 328.786282 173.884203 
L 331.559642 172.904315 
L 334.333002 166.997406 
L 337.106362 170.102553 
L 339.879722 170.763861 
L 342.653082 164.036385 
L 345.426441 170.026212 
L 348.199801 171.057578 
L 350.973161 158.885475 
L 353.746521 155.189685 
L 356.519881 153.984456 
L 359.293241 161.480345 
L 362.0666 163.358635 
L 364.83996 172.044057 
L 367.61332 176.21425 
L 370.38668 176.882308 
L 373.16004 184.032748 
L 375.9334 183.561736 
L 378.706759 182.780693 
L 381.480119 175.615889 
L 384.253479 186.993243 
L 387.026839 180.617994 
L 389.800199 174.711569 
L 392.573559 167.731887 
L 395.346918 177.180083 
L 398.120278 180.158054 
L 400.893638 191.059206 
L 403.666998 183.527017 
L 406.440358 183.633694 
L 409.213718 184.111208 
L 411.987078 178.403066 
L 414.760437 167.553023 
L 417.533797 171.585644 
L 420.307157 184.659187 
L 423.080517 168.767353 
L 425.853877 160.142188 
L 428.627237 143.270633 
L 431.400596 143.962949 
L 436.947316 128.063381 
L 439.720676 135.765945 
L 442.494036 137.479672 
L 445.267396 132.795162 
L 448.040755 139.046337 
L 450.814115 136.907699 
L 453.587475 137.056793 
L 456.360835 135.984431 
L 459.134195 127.584851 
L 461.907555 131.852962 
L 464.680915 133.678754 
L 467.454274 126.688977 
L 470.227634 117.018874 
L 473.000994 128.623466 
L 475.774354 120.399835 
L 478.547714 113.054512 
L 481.321074 117.99622 
L 484.094433 120.254678 
L 486.867793 114.950799 
L 489.641153 114.939178 
L 492.414513 115.074282 
L 495.187873 117.337742 
L 497.961233 115.527201 
L 500.734592 116.488194 
L 503.507952 118.973171 
L 506.281312 116.656817 
L 509.054672 130.456382 
L 511.828032 136.004907 
L 514.601392 144.052319 
L 517.374751 139.607899 
L 520.148111 147.315343 
L 522.921471 139.541292 
L 525.694831 139.466526 
L 528.468191 145.165905 
L 531.241551 144.699418 
L 534.014911 154.716029 
L 536.78827 167.564047 
L 539.56163 179.035551 
L 542.33499 184.302689 
L 545.10835 196.980274 
L 547.88171 191.750298 
L 550.65507 189.859288 
L 553.428429 187.126776 
L 556.201789 185.288599 
L 558.975149 189.587493 
L 561.748509 205.483277 
L 564.521869 211.078901 
L 567.295229 214.534361 
L 570.068588 228.784122 
L 572.841948 221.547381 
L 575.615308 208.807209 
L 578.388668 215.34061 
L 581.162028 215.817197 
L 583.935388 221.370275 
L 586.708748 219.787407 
L 589.482107 215.914398 
L 592.255467 224.583951 
L 595.028827 223.195301 
L 597.802187 229.223155 
L 600.575547 230.732491 
L 603.348907 226.386481 
L 606.122266 230.56962 
L 608.895626 225.397411 
L 611.668986 226.422586 
L 614.442346 228.143929 
L 617.215706 223.917994 
L 619.989066 215.055918 
L 622.762425 199.89331 
L 625.535785 191.495236 
L 628.309145 196.06392 
L 631.082505 192.589943 
L 633.855865 202.328575 
L 636.629225 196.163047 
L 639.402584 191.498795 
L 642.175944 193.952994 
L 644.949304 191.962302 
L 644.949304 191.962302 
" clip-path="url(#p2a9e2fb571)" style="fill: none; stroke: #1f77b4; stroke-width: 4; stroke-linecap: square"/>
   </g>
   <g id="line2d_13">
    <path d="M 90.277336 199.082844 
L 93.050696 210.625344 
L 95.824056 202.3723 
L 98.597416 201.162051 
L 101.370775 186.032573 
L 104.144135 185.621752 
L 106.917495 194.881493 
L 109.690855 188.935576 
L 112.464215 184.977523 
L 115.237575 180.043998 
L 118.010934 188.377026 
L 120.784294 186.593908 
L 123.557654 182.929718 
L 126.331014 183.33989 
L 129.104374 171.611351 
L 131.877734 178.604522 
L 134.651093 180.807288 
L 137.424453 174.600513 
L 140.197813 169.908285 
L 142.971173 171.958783 
L 145.744533 169.777156 
L 148.517893 164.239749 
L 151.291252 162.591226 
L 154.064612 163.502519 
L 156.837972 167.380362 
L 159.611332 163.437465 
L 162.384692 178.699548 
L 165.158052 177.077532 
L 167.931412 179.672327 
L 170.704771 179.286022 
L 173.478131 188.636515 
L 176.251491 184.087196 
L 179.024851 192.494339 
L 181.798211 196.9652 
L 184.571571 187.681871 
L 187.34493 192.422951 
L 192.89165 204.137325 
L 195.66501 212.462437 
L 198.43837 216.589189 
L 201.21173 205.950583 
L 203.985089 212.212302 
L 206.758449 208.38082 
L 209.531809 197.34174 
L 212.305169 202.065622 
L 215.078529 205.040692 
L 217.851889 202.469935 
L 220.625249 209.556624 
L 223.398608 207.369913 
L 226.171968 203.873435 
L 228.945328 205.336521 
L 231.718688 209.504307 
L 234.492048 223.39593 
L 237.265408 214.8266 
L 240.038767 207.510956 
L 242.812127 222.205513 
L 245.585487 223.467341 
L 248.358847 228.29204 
L 251.132207 230.032907 
L 256.678926 217.542875 
L 259.452286 217.57756 
L 262.225646 221.198896 
L 264.999006 237.585504 
L 267.772366 229.176333 
L 270.545726 240.705126 
L 273.319085 249.946494 
L 276.092445 249.952156 
L 278.865805 240.716249 
L 281.639165 243.122228 
L 284.412525 245.905779 
L 287.185885 247.606306 
L 289.959245 245.412712 
L 292.732604 243.60531 
L 295.505964 245.390597 
L 298.279324 249.054459 
L 301.052684 248.117693 
L 303.826044 248.224621 
L 306.599404 246.046087 
L 309.372763 230.713087 
L 312.146123 234.687678 
L 314.919483 239.693014 
L 317.692843 237.760307 
L 320.466203 232.927688 
L 323.239563 230.660902 
L 326.012922 227.381033 
L 328.786282 234.87002 
L 331.559642 238.334314 
L 334.333002 229.376958 
L 337.106362 237.129664 
L 339.879722 237.747329 
L 342.653082 242.518555 
L 345.426441 246.026266 
L 348.199801 248.380826 
L 350.973161 245.115509 
L 353.746521 249.081724 
L 356.519881 232.639274 
L 359.293241 236.018276 
L 362.0666 240.66058 
L 364.83996 249.707598 
L 367.61332 245.544345 
L 370.38668 243.6095 
L 373.16004 232.284559 
L 375.9334 235.805539 
L 378.706759 243.063591 
L 381.480119 239.80691 
L 384.253479 230.660399 
L 387.026839 227.95217 
L 389.800199 226.418055 
L 392.573559 221.179578 
L 395.346918 220.952716 
L 398.120278 226.270095 
L 400.893638 242.757759 
L 403.666998 243.919333 
L 406.440358 248.805513 
L 409.213718 246.745173 
L 411.987078 245.781474 
L 414.760437 242.020517 
L 417.533797 244.634052 
L 420.307157 248.296417 
L 423.080517 244.243364 
L 425.853877 245.794516 
L 428.627237 245.91986 
L 431.400596 249.98158 
L 434.173956 249.070862 
L 436.947316 251.004632 
L 439.720676 246.761114 
L 442.494036 245.041885 
L 445.267396 240.700684 
L 448.040755 250.444051 
L 453.587475 239.914497 
L 456.360835 235.206348 
L 459.134195 234.900381 
L 461.907555 226.474113 
L 464.680915 228.802279 
L 467.454274 239.187614 
L 470.227634 228.255376 
L 473.000994 237.008808 
L 475.774354 241.201611 
L 478.547714 250.166847 
L 481.321074 235.300038 
L 484.094433 231.152125 
L 486.867793 230.957715 
L 489.641153 238.98437 
L 492.414513 232.802127 
L 495.187873 240.498777 
L 497.961233 244.374099 
L 500.734592 245.412452 
L 503.507952 243.404857 
L 506.281312 242.375245 
L 509.054672 231.620327 
L 511.828032 225.306418 
L 514.601392 234.233556 
L 517.374751 230.598862 
L 520.148111 225.387507 
L 522.921471 224.83205 
L 525.694831 220.718165 
L 528.468191 214.682777 
L 531.241551 219.433183 
L 534.014911 218.723194 
L 536.78827 216.995942 
L 539.56163 228.106879 
L 542.33499 223.957537 
L 545.10835 226.19211 
L 547.88171 217.631865 
L 550.65507 217.35814 
L 553.428429 222.650634 
L 556.201789 222.442763 
L 558.975149 216.77428 
L 561.748509 215.887652 
L 564.521869 222.978873 
L 567.295229 231.083514 
L 570.068588 225.448041 
L 572.841948 231.404611 
L 575.615308 235.618224 
L 578.388668 241.384195 
L 581.162028 227.415632 
L 583.935388 226.214826 
L 586.708748 216.29133 
L 589.482107 211.138777 
L 592.255467 203.981137 
L 595.028827 212.488652 
L 597.802187 226.031346 
L 600.575547 217.278221 
L 603.348907 206.969054 
L 606.122266 205.766171 
L 608.895626 202.245491 
L 611.668986 208.788017 
L 614.442346 203.160088 
L 617.215706 212.216641 
L 619.989066 210.588632 
L 622.762425 202.334283 
L 625.535785 196.609461 
L 628.309145 187.55926 
L 631.082505 194.422704 
L 633.855865 189.663223 
L 636.629225 186.340216 
L 639.402584 187.312939 
L 642.175944 193.524633 
L 644.949304 207.558468 
L 644.949304 207.558468 
" clip-path="url(#p2a9e2fb571)" style="fill: none; stroke: #ff7f0e; stroke-width: 4; stroke-linecap: square"/>
   </g>
   <g id="line2d_14">
    <path d="M 90.277336 154.698392 
L 93.050696 154.611574 
L 95.824056 160.611559 
L 98.597416 159.135004 
L 101.370775 149.855424 
L 104.144135 149.530537 
L 106.917495 165.610711 
L 109.690855 170.861519 
L 112.464215 173.381475 
L 115.237575 172.439411 
L 118.010934 188.142864 
L 120.784294 183.951749 
L 123.557654 188.326639 
L 126.331014 183.679884 
L 129.104374 191.591506 
L 131.877734 190.94764 
L 134.651093 185.799313 
L 137.424453 181.646924 
L 140.197813 189.321146 
L 142.971173 186.837599 
L 145.744533 188.201697 
L 148.517893 195.723974 
L 151.291252 203.969451 
L 154.064612 201.089338 
L 156.837972 211.214016 
L 159.611332 211.393615 
L 162.384692 203.494387 
L 165.158052 204.660713 
L 167.931412 217.124712 
L 170.704771 202.622334 
L 173.478131 201.851247 
L 176.251491 197.959611 
L 179.024851 212.71572 
L 181.798211 204.659253 
L 184.571571 198.580674 
L 187.34493 179.073353 
L 190.11829 183.831252 
L 192.89165 186.827705 
L 195.66501 198.178548 
L 198.43837 200.907303 
L 201.21173 197.851245 
L 203.985089 202.779148 
L 206.758449 206.097827 
L 209.531809 208.668939 
L 212.305169 217.78434 
L 215.078529 218.091774 
L 217.851889 213.990607 
L 220.625249 206.149942 
L 223.398608 203.570876 
L 226.171968 203.99738 
L 228.945328 192.496929 
L 231.718688 186.742035 
L 234.492048 196.188508 
L 237.265408 199.40485 
L 240.038767 201.726607 
L 242.812127 214.914523 
L 245.585487 210.571504 
L 248.358847 214.609229 
L 251.132207 216.189317 
L 253.905567 217.255083 
L 256.678926 212.655421 
L 259.452286 214.532715 
L 262.225646 210.683887 
L 264.999006 205.241072 
L 267.772366 208.080311 
L 270.545726 205.990902 
L 273.319085 202.291729 
L 276.092445 198.24196 
L 278.865805 211.653534 
L 281.639165 215.668576 
L 284.412525 214.914377 
L 287.185885 212.163592 
L 289.959245 217.124916 
L 292.732604 206.809294 
L 295.505964 203.915637 
L 298.279324 194.200227 
L 301.052684 193.226281 
L 303.826044 199.437409 
L 306.599404 191.499501 
L 309.372763 191.898276 
L 312.146123 197.088464 
L 314.919483 208.338555 
L 317.692843 197.97178 
L 320.466203 194.608624 
L 323.239563 199.536984 
L 326.012922 207.217453 
L 328.786282 200.713244 
L 331.559642 200.966157 
L 334.333002 194.069872 
L 337.106362 183.669506 
L 339.879722 178.380966 
L 342.653082 182.109265 
L 345.426441 198.409463 
L 348.199801 203.566622 
L 350.973161 207.500668 
L 353.746521 217.87134 
L 356.519881 214.044252 
L 359.293241 213.097019 
L 362.0666 208.018755 
L 364.83996 208.847695 
L 367.61332 223.824213 
L 370.38668 216.802436 
L 373.16004 224.654813 
L 375.9334 225.12113 
L 378.706759 220.51674 
L 381.480119 221.19653 
L 384.253479 221.57599 
L 387.026839 229.767064 
L 389.800199 234.993538 
L 392.573559 238.650435 
L 395.346918 230.874834 
L 398.120278 231.115056 
L 403.666998 216.947742 
L 406.440358 201.735505 
L 409.213718 196.375144 
L 411.987078 193.711348 
L 414.760437 180.129984 
L 417.533797 192.251983 
L 420.307157 192.79987 
L 423.080517 193.615128 
L 425.853877 213.462033 
L 428.627237 214.038985 
L 431.400596 205.190206 
L 434.173956 198.315705 
L 436.947316 194.948887 
L 439.720676 195.934508 
L 442.494036 192.584926 
L 445.267396 195.053984 
L 448.040755 205.299406 
L 450.814115 210.005145 
L 453.587475 208.986905 
L 456.360835 213.579319 
L 459.134195 228.320666 
L 461.907555 224.377789 
L 464.680915 225.566067 
L 467.454274 229.292321 
L 470.227634 213.103671 
L 473.000994 206.790995 
L 475.774354 207.336974 
L 478.547714 201.731272 
L 481.321074 195.010193 
L 484.094433 202.210585 
L 486.867793 199.447976 
L 489.641153 194.448903 
L 495.187873 173.431747 
L 497.961233 183.658868 
L 500.734592 182.952213 
L 503.507952 189.85554 
L 506.281312 191.92283 
L 509.054672 186.36288 
L 511.828032 168.174205 
L 514.601392 154.438811 
L 517.374751 146.891813 
L 520.148111 146.529728 
L 522.921471 128.276978 
L 525.694831 142.833438 
L 528.468191 140.868802 
L 531.241551 147.237248 
L 534.014911 132.986914 
L 536.78827 148.831435 
L 539.56163 147.964517 
L 542.33499 158.386383 
L 545.10835 144.345996 
L 547.88171 131.534234 
L 550.65507 129.526981 
L 553.428429 137.114573 
L 556.201789 121.071412 
L 558.975149 126.191169 
L 561.748509 123.647951 
L 564.521869 120.55391 
L 567.295229 134.727067 
L 572.841948 141.436155 
L 575.615308 135.343184 
L 578.388668 146.09784 
L 581.162028 144.025009 
L 583.935388 145.99768 
L 586.708748 139.261727 
L 589.482107 133.119041 
L 595.028827 138.435093 
L 597.802187 130.264287 
L 600.575547 125.882571 
L 603.348907 114.591648 
L 606.122266 119.127013 
L 608.895626 128.346996 
L 611.668986 130.218752 
L 614.442346 137.998125 
L 617.215706 145.049252 
L 619.989066 146.646908 
L 622.762425 155.070447 
L 625.535785 153.434537 
L 628.309145 158.949721 
L 631.082505 153.627585 
L 633.855865 165.188098 
L 636.629225 165.156647 
L 639.402584 164.634243 
L 642.175944 167.088616 
L 644.949304 151.583528 
L 644.949304 151.583528 
" clip-path="url(#p2a9e2fb571)" style="fill: none; stroke: #2ca02c; stroke-width: 4; stroke-linecap: square"/>
   </g>
   <g id="line2d_15">
    <path d="M 90.277336 122.798133 
L 93.050696 125.872033 
L 95.824056 116.476815 
L 98.597416 125.922071 
L 101.370775 123.442658 
L 104.144135 114.21162 
L 106.917495 119.530514 
L 109.690855 116.14999 
L 112.464215 122.506877 
L 115.237575 124.349137 
L 118.010934 123.582991 
L 120.784294 131.634349 
L 123.557654 127.132769 
L 126.331014 113.328382 
L 129.104374 116.685181 
L 131.877734 114.329472 
L 134.651093 118.10852 
L 137.424453 124.28968 
L 140.197813 127.78989 
L 142.971173 135.355162 
L 145.744533 131.302787 
L 148.517893 125.749671 
L 151.291252 114.825651 
L 154.064612 115.365399 
L 156.837972 134.895503 
L 159.611332 147.056943 
L 162.384692 130.425712 
L 165.158052 117.350406 
L 167.931412 117.276478 
L 170.704771 116.008851 
L 173.478131 124.689222 
L 176.251491 126.123593 
L 179.024851 119.593096 
L 181.798211 120.569158 
L 184.571571 122.630901 
L 187.34493 123.442937 
L 190.11829 133.618887 
L 192.89165 140.756373 
L 195.66501 148.801987 
L 198.43837 152.708595 
L 201.21173 149.396048 
L 203.985089 142.725351 
L 206.758449 145.639819 
L 209.531809 150.417071 
L 212.305169 150.752038 
L 215.078529 148.25339 
L 217.851889 154.077635 
L 220.625249 152.306771 
L 223.398608 154.611412 
L 226.171968 154.070178 
L 228.945328 164.089604 
L 231.718688 163.016871 
L 234.492048 159.205119 
L 237.265408 161.615043 
L 240.038767 151.537062 
L 242.812127 154.532098 
L 245.585487 167.864108 
L 248.358847 167.836209 
L 251.132207 165.550324 
L 253.905567 165.195103 
L 256.678926 157.728167 
L 259.452286 158.17116 
L 262.225646 156.944306 
L 264.999006 159.44189 
L 267.772366 157.12039 
L 270.545726 156.480324 
L 273.319085 153.14029 
L 276.092445 159.05793 
L 278.865805 173.302726 
L 281.639165 185.41848 
L 284.412525 188.077402 
L 287.185885 191.120755 
L 289.959245 191.108575 
L 292.732604 193.603263 
L 295.505964 187.76758 
L 298.279324 196.168998 
L 301.052684 203.10031 
L 303.826044 198.20989 
L 306.599404 188.851464 
L 309.372763 186.896331 
L 312.146123 191.519809 
L 314.919483 199.193458 
L 317.692843 188.942115 
L 320.466203 196.002949 
L 323.239563 203.793571 
L 326.012922 215.480695 
L 328.786282 208.701123 
L 331.559642 207.851391 
L 334.333002 206.449199 
L 337.106362 207.157265 
L 339.879722 199.199834 
L 342.653082 195.551003 
L 345.426441 204.059941 
L 348.199801 198.96709 
L 350.973161 195.808017 
L 353.746521 179.610163 
L 356.519881 174.68982 
L 359.293241 180.690148 
L 362.0666 173.136503 
L 364.83996 174.588971 
L 367.61332 179.901186 
L 370.38668 180.970722 
L 373.16004 186.455488 
L 375.9334 185.933951 
L 378.706759 180.953808 
L 381.480119 171.623589 
L 384.253479 181.989656 
L 387.026839 186.940928 
L 389.800199 185.904876 
L 392.573559 197.294119 
L 395.346918 204.723449 
L 398.120278 206.229892 
L 400.893638 205.802303 
L 403.666998 201.287261 
L 406.440358 206.291519 
L 409.213718 191.28717 
L 411.987078 189.883882 
L 414.760437 186.348486 
L 417.533797 189.362773 
L 420.307157 188.242697 
L 423.080517 200.887579 
L 425.853877 206.487411 
L 428.627237 201.368807 
L 431.400596 195.999898 
L 434.173956 200.3051 
L 436.947316 205.7573 
L 439.720676 209.852632 
L 442.494036 212.427449 
L 445.267396 212.783238 
L 448.040755 200.064949 
L 450.814115 206.495024 
L 453.587475 199.756777 
L 456.360835 210.782966 
L 459.134195 202.528114 
L 461.907555 202.708168 
L 464.680915 208.826376 
L 467.454274 208.592461 
L 470.227634 205.799535 
L 473.000994 205.811808 
L 475.774354 207.750491 
L 478.547714 208.704457 
L 481.321074 207.482997 
L 484.094433 212.968088 
L 486.867793 210.096847 
L 489.641153 206.72269 
L 492.414513 214.319058 
L 495.187873 221.034025 
L 497.961233 215.092254 
L 500.734592 209.828643 
L 503.507952 206.8869 
L 506.281312 207.923296 
L 509.054672 209.1655 
L 511.828032 211.694154 
L 514.601392 210.230409 
L 517.374751 216.81607 
L 520.148111 208.726183 
L 522.921471 208.005036 
L 525.694831 204.322182 
L 531.241551 189.34641 
L 534.014911 191.270223 
L 536.78827 190.854583 
L 539.56163 194.7818 
L 542.33499 191.745668 
L 545.10835 189.120505 
L 550.65507 185.246447 
L 553.428429 185.658578 
L 556.201789 186.35464 
L 558.975149 182.745544 
L 561.748509 176.917685 
L 564.521869 170.293357 
L 567.295229 164.757549 
L 570.068588 171.90091 
L 572.841948 171.423319 
L 575.615308 188.098296 
L 578.388668 193.02848 
L 581.162028 199.193815 
L 583.935388 211.756725 
L 586.708748 231.064277 
L 589.482107 241.730026 
L 592.255467 242.371309 
L 595.028827 240.633255 
L 597.802187 250.760106 
L 600.575547 242.219 
L 603.348907 230.743922 
L 606.122266 236.187257 
L 608.895626 229.123746 
L 611.668986 232.466011 
L 614.442346 233.051233 
L 617.215706 231.424553 
L 619.989066 241.646587 
L 622.762425 245.645389 
L 625.535785 242.550614 
L 628.309145 227.245934 
L 631.082505 228.71661 
L 633.855865 234.072534 
L 636.629225 234.601266 
L 639.402584 226.978567 
L 642.175944 224.203204 
L 644.949304 229.397433 
L 644.949304 229.397433 
" clip-path="url(#p2a9e2fb571)" style="fill: none; stroke: #d62728; stroke-width: 4; stroke-linecap: square"/>
   </g>
   <g id="patch_3">
    <path d="M 90 320.4 
L 90 43.2 
" style="fill: none; stroke: #000000; stroke-width: 0.8; stroke-linejoin: miter; stroke-linecap: square"/>
   </g>
   <g id="patch_4">
    <path d="M 648 320.4 
L 648 43.2 
" style="fill: none; stroke: #000000; stroke-width: 0.8; stroke-linejoin: miter; stroke-linecap: square"/>
   </g>
   <g id="patch_5">
    <path d="M 90 320.4 
L 648 320.4 
" style="fill: none; stroke: #000000; stroke-width: 0.8; stroke-linejoin: miter; stroke-linecap: square"/>
   </g>
   <g id="patch_6">
    <path d="M 90 43.2 
L 648 43.2 
" style="fill: none; stroke: #000000; stroke-width: 0.8; stroke-linejoin: miter; stroke-linecap: square"/>
   </g>
   <g id="legend_1">
    <g id="patch_7">
     <path d="M 682.92 163.42875 
L 760.5 163.42875 
Q 764.1 163.42875 764.1 159.82875 
L 764.1 55.8 
Q 764.1 52.2 760.5 52.2 
L 682.92 52.2 
Q 679.32 52.2 679.32 55.8 
L 679.32 159.82875 
Q 679.32 163.42875 682.92 163.42875 
z
" style="fill: #ffffff; opacity: 0.8; stroke: #cccccc; stroke-linejoin: miter"/>
    </g>
    <g id="line2d_16">
     <path d="M 686.52 66.777187 
L 704.52 66.777187 
L 721 66.777187 
" style="fill: none; stroke: #1f77b4; stroke-width: 4; stroke-linecap: square"/>
    </g>
    <g id="text_14">
     <!-- $p_1$ -->
     <g transform="translate(736.92 73.077187) scale(0.18 -0.18)">
      <defs>
       <path id="DejaVuSans-Oblique-70" d="M 3175 2156 
Q 3175 2616 2975 2859 
Q 2775 3103 2400 3103 
Q 2144 3103 1911 2972 
Q 1678 2841 1497 2591 
Q 1319 2344 1212 1994 
Q 1106 1644 1106 1300 
Q 1106 863 1306 627 
Q 1506 391 1875 391 
Q 2147 391 2380 519 
Q 2613 647 2778 891 
Q 2956 1147 3065 1494 
Q 3175 1841 3175 2156 
z
M 1394 2969 
Q 1625 3272 1939 3428 
Q 2253 3584 2638 3584 
Q 3175 3584 3472 3232 
Q 3769 2881 3769 2247 
Q 3769 1728 3584 1258 
Q 3400 788 3053 416 
Q 2822 169 2531 39 
Q 2241 -91 1919 -91 
Q 1547 -91 1294 64 
Q 1041 219 916 525 
L 556 -1331 
L -19 -1331 
L 922 3500 
L 1497 3500 
L 1394 2969 
z
" transform="scale(0.015625)"/>
      </defs>
      <use xlink:href="#DejaVuSans-Oblique-70"/>
      <use xlink:href="#DejaVuSans-31" transform="translate(63.476562 -16.40625) scale(0.7)"/>
     </g>
    </g>
    <g id="line2d_17">
     <path d="M 686.52 93.234375 
L 704.52 93.234375 
L 721 93.234375 
" style="fill: none; stroke: #ff7f0e; stroke-width: 4; stroke-linecap: square"/>
    </g>
    <g id="text_15">
     <!-- $p_2$ -->
     <g transform="translate(736.92 99.534375) scale(0.18 -0.18)">
      <use xlink:href="#DejaVuSans-Oblique-70"/>
      <use xlink:href="#DejaVuSans-32" transform="translate(63.476562 -16.40625) scale(0.7)"/>
     </g>
    </g>
    <g id="line2d_18">
     <path d="M 686.52 119.691562 
L 704.52 119.691562 
L 721 119.691562 
" style="fill: none; stroke: #2ca02c; stroke-width: 4; stroke-linecap: square"/>
    </g>
    <g id="text_16">
     <!-- $p_3$ -->
     <g transform="translate(736.92 125.991562) scale(0.18 -0.18)">
      <defs>
       <path id="DejaVuSans-33" d="M 2597 2516 
Q 3050 2419 3304 2112 
Q 3559 1806 3559 1356 
Q 3559 666 3084 287 
Q 2609 -91 1734 -91 
Q 1441 -91 1130 -33 
Q 819 25 488 141 
L 488 750 
Q 750 597 1062 519 
Q 1375 441 1716 441 
Q 2309 441 2620 675 
Q 2931 909 2931 1356 
Q 2931 1769 2642 2001 
Q 2353 2234 1838 2234 
L 1294 2234 
L 1294 2753 
L 1863 2753 
Q 2328 2753 2575 2939 
Q 2822 3125 2822 3475 
Q 2822 3834 2567 4026 
Q 2313 4219 1838 4219 
Q 1578 4219 1281 4162 
Q 984 4106 628 3988 
L 628 4550 
Q 988 4650 1302 4700 
Q 1616 4750 1894 4750 
Q 2613 4750 3031 4423 
Q 3450 4097 3450 3541 
Q 3450 3153 3228 2886 
Q 3006 2619 2597 2516 
z
" transform="scale(0.015625)"/>
      </defs>
      <use xlink:href="#DejaVuSans-Oblique-70"/>
      <use xlink:href="#DejaVuSans-33" transform="translate(63.476562 -16.40625) scale(0.7)"/>
     </g>
    </g>
    <g id="line2d_19">
     <path d="M 686.52 146.14875 
L 704.52 146.14875 
L 721 146.14875 
" style="fill: none; stroke: #d62728; stroke-width: 4; stroke-linecap: square"/>
    </g>
    <g id="text_17">
     <!-- $p_4$ -->
     <g transform="translate(736.92 152.44875) scale(0.18 -0.18)">
      <use xlink:href="#DejaVuSans-Oblique-70"/>
      <use xlink:href="#DejaVuSans-34" transform="translate(63.476562 -16.40625) scale(0.7)"/>
     </g>
    </g>
   </g>
  </g>
 </g>
 <defs>
  <clipPath id="p2a9e2fb571">
   <rect x="90" y="43.2" width="558" height="277.2"/>
  </clipPath>
 </defs>
</svg>
