<?xml version="1.0" encoding="utf-8" standalone="no"?>
<!DOCTYPE svg PUBLIC "-//W3C//DTD SVG 1.1//EN"
  "http://www.w3.org/Graphics/SVG/1.1/DTD/svg11.dtd">
<svg xmlns:xlink="http://www.w3.org/1999/xlink" width="720pt" height="360pt" viewBox="0 0 720 360" xmlns="http://www.w3.org/2000/svg" version="1.1">
 <metadata>
  <rdf:RDF xmlns:dc="http://purl.org/dc/elements/1.1/" xmlns:cc="http://creativecommons.org/ns#" xmlns:rdf="http://www.w3.org/1999/02/22-rdf-syntax-ns#">
   <cc:Work>
    <dc:type rdf:resource="http://purl.org/dc/dcmitype/StillImage"/>
    <dc:date>2025-06-21T03:12:59.870852</dc:date>
    <dc:format>image/svg+xml</dc:format>
    <dc:creator>
     <cc:Agent>
      <dc:title>Matplotlib v3.10.3, https://matplotlib.org/</dc:title>
     </cc:Agent>
    </dc:creator>
   </cc:Work>
  </rdf:RDF>
 </metadata>
 <defs>
  <style type="text/css">*{stroke-linejoin: round; stroke-linecap: butt}</style>
 </defs>
 <g id="figure_1">
  <g id="patch_1">
   <path d="M 0 360 
L 720 360 
L 720 0 
L 0 0 
z
" style="fill: #ffffff"/>
  </g>
  <g id="axes_1">
   <g id="patch_2">
    <path d="M 90 320.4 
L 648 320.4 
L 648 43.2 
L 90 43.2 
z
" style="fill: #ffffff"/>
   </g>
   <g id="matplotlib.axis_1">
    <g id="xtick_1">
     <g id="line2d_1">
      <defs>
       <path id="mbc4cefcc18" d="M 0 0 
L 0 3.5 
" style="stroke: #000000; stroke-width: 0.8"/>
      </defs>
      <g>
       <use xlink:href="#mbc4cefcc18" x="90.277336" y="320.4" style="stroke: #000000; stroke-width: 0.8"/>
      </g>
     </g>
     <g id="text_1">
      <!-- 0 -->
      <g transform="translate(84.551086 341.077187) scale(0.18 -0.18)">
       <defs>
        <path id="DejaVuSans-30" d="M 2034 4250 
Q 1547 4250 1301 3770 
Q 1056 3291 1056 2328 
Q 1056 1369 1301 889 
Q 1547 409 2034 409 
Q 2525 409 2770 889 
Q 3016 1369 3016 2328 
Q 3016 3291 2770 3770 
Q 2525 4250 2034 4250 
z
M 2034 4750 
Q 2819 4750 3233 4129 
Q 3647 3509 3647 2328 
Q 3647 1150 3233 529 
Q 2819 -91 2034 -91 
Q 1250 -91 836 529 
Q 422 1150 422 2328 
Q 422 3509 836 4129 
Q 1250 4750 2034 4750 
z
" transform="scale(0.015625)"/>
       </defs>
       <use xlink:href="#DejaVuSans-30"/>
      </g>
     </g>
    </g>
    <g id="xtick_2">
     <g id="line2d_2">
      <g>
       <use xlink:href="#mbc4cefcc18" x="228.945328" y="320.4" style="stroke: #000000; stroke-width: 0.8"/>
      </g>
     </g>
     <g id="text_2">
      <!-- 50 -->
      <g transform="translate(217.492828 341.077187) scale(0.18 -0.18)">
       <defs>
        <path id="DejaVuSans-35" d="M 691 4666 
L 3169 4666 
L 3169 4134 
L 1269 4134 
L 1269 2991 
Q 1406 3038 1543 3061 
Q 1681 3084 1819 3084 
Q 2600 3084 3056 2656 
Q 3513 2228 3513 1497 
Q 3513 744 3044 326 
Q 2575 -91 1722 -91 
Q 1428 -91 1123 -41 
Q 819 9 494 109 
L 494 744 
Q 775 591 1075 516 
Q 1375 441 1709 441 
Q 2250 441 2565 725 
Q 2881 1009 2881 1497 
Q 2881 1984 2565 2268 
Q 2250 2553 1709 2553 
Q 1456 2553 1204 2497 
Q 953 2441 691 2322 
L 691 4666 
z
" transform="scale(0.015625)"/>
       </defs>
       <use xlink:href="#DejaVuSans-35"/>
       <use xlink:href="#DejaVuSans-30" transform="translate(63.623047 0)"/>
      </g>
     </g>
    </g>
    <g id="xtick_3">
     <g id="line2d_3">
      <g>
       <use xlink:href="#mbc4cefcc18" x="367.61332" y="320.4" style="stroke: #000000; stroke-width: 0.8"/>
      </g>
     </g>
     <g id="text_3">
      <!-- 100 -->
      <g transform="translate(350.43457 341.077187) scale(0.18 -0.18)">
       <defs>
        <path id="DejaVuSans-31" d="M 794 531 
L 1825 531 
L 1825 4091 
L 703 3866 
L 703 4441 
L 1819 4666 
L 2450 4666 
L 2450 531 
L 3481 531 
L 3481 0 
L 794 0 
L 794 531 
z
" transform="scale(0.015625)"/>
       </defs>
       <use xlink:href="#DejaVuSans-31"/>
       <use xlink:href="#DejaVuSans-30" transform="translate(63.623047 0)"/>
       <use xlink:href="#DejaVuSans-30" transform="translate(127.246094 0)"/>
      </g>
     </g>
    </g>
    <g id="xtick_4">
     <g id="line2d_4">
      <g>
       <use xlink:href="#mbc4cefcc18" x="506.281312" y="320.4" style="stroke: #000000; stroke-width: 0.8"/>
      </g>
     </g>
     <g id="text_4">
      <!-- 150 -->
      <g transform="translate(489.102562 341.077187) scale(0.18 -0.18)">
       <use xlink:href="#DejaVuSans-31"/>
       <use xlink:href="#DejaVuSans-35" transform="translate(63.623047 0)"/>
       <use xlink:href="#DejaVuSans-30" transform="translate(127.246094 0)"/>
      </g>
     </g>
    </g>
    <g id="xtick_5">
     <g id="line2d_5">
      <g>
       <use xlink:href="#mbc4cefcc18" x="644.949304" y="320.4" style="stroke: #000000; stroke-width: 0.8"/>
      </g>
     </g>
     <g id="text_5">
      <!-- 200 -->
      <g transform="translate(627.770554 341.077187) scale(0.18 -0.18)">
       <defs>
        <path id="DejaVuSans-32" d="M 1228 531 
L 3431 531 
L 3431 0 
L 469 0 
L 469 531 
Q 828 903 1448 1529 
Q 2069 2156 2228 2338 
Q 2531 2678 2651 2914 
Q 2772 3150 2772 3378 
Q 2772 3750 2511 3984 
Q 2250 4219 1831 4219 
Q 1534 4219 1204 4116 
Q 875 4013 500 3803 
L 500 4441 
Q 881 4594 1212 4672 
Q 1544 4750 1819 4750 
Q 2544 4750 2975 4387 
Q 3406 4025 3406 3419 
Q 3406 3131 3298 2873 
Q 3191 2616 2906 2266 
Q 2828 2175 2409 1742 
Q 1991 1309 1228 531 
z
" transform="scale(0.015625)"/>
       </defs>
       <use xlink:href="#DejaVuSans-32"/>
       <use xlink:href="#DejaVuSans-30" transform="translate(63.623047 0)"/>
       <use xlink:href="#DejaVuSans-30" transform="translate(127.246094 0)"/>
      </g>
     </g>
    </g>
    <g id="text_6">
     <!-- trials -->
     <g transform="translate(344.075 364.0175) scale(0.2 -0.2)">
      <defs>
       <path id="DejaVuSans-74" d="M 1172 4494 
L 1172 3500 
L 2356 3500 
L 2356 3053 
L 1172 3053 
L 1172 1153 
Q 1172 725 1289 603 
Q 1406 481 1766 481 
L 2356 481 
L 2356 0 
L 1766 0 
Q 1100 0 847 248 
Q 594 497 594 1153 
L 594 3053 
L 172 3053 
L 172 3500 
L 594 3500 
L 594 4494 
L 1172 4494 
z
" transform="scale(0.015625)"/>
       <path id="DejaVuSans-72" d="M 2631 2963 
Q 2534 3019 2420 3045 
Q 2306 3072 2169 3072 
Q 1681 3072 1420 2755 
Q 1159 2438 1159 1844 
L 1159 0 
L 581 0 
L 581 3500 
L 1159 3500 
L 1159 2956 
Q 1341 3275 1631 3429 
Q 1922 3584 2338 3584 
Q 2397 3584 2469 3576 
Q 2541 3569 2628 3553 
L 2631 2963 
z
" transform="scale(0.015625)"/>
       <path id="DejaVuSans-69" d="M 603 3500 
L 1178 3500 
L 1178 0 
L 603 0 
L 603 3500 
z
M 603 4863 
L 1178 4863 
L 1178 4134 
L 603 4134 
L 603 4863 
z
" transform="scale(0.015625)"/>
       <path id="DejaVuSans-61" d="M 2194 1759 
Q 1497 1759 1228 1600 
Q 959 1441 959 1056 
Q 959 750 1161 570 
Q 1363 391 1709 391 
Q 2188 391 2477 730 
Q 2766 1069 2766 1631 
L 2766 1759 
L 2194 1759 
z
M 3341 1997 
L 3341 0 
L 2766 0 
L 2766 531 
Q 2569 213 2275 61 
Q 1981 -91 1556 -91 
Q 1019 -91 701 211 
Q 384 513 384 1019 
Q 384 1609 779 1909 
Q 1175 2209 1959 2209 
L 2766 2209 
L 2766 2266 
Q 2766 2663 2505 2880 
Q 2244 3097 1772 3097 
Q 1472 3097 1187 3025 
Q 903 2953 641 2809 
L 641 3341 
Q 956 3463 1253 3523 
Q 1550 3584 1831 3584 
Q 2591 3584 2966 3190 
Q 3341 2797 3341 1997 
z
" transform="scale(0.015625)"/>
       <path id="DejaVuSans-6c" d="M 603 4863 
L 1178 4863 
L 1178 0 
L 603 0 
L 603 4863 
z
" transform="scale(0.015625)"/>
       <path id="DejaVuSans-73" d="M 2834 3397 
L 2834 2853 
Q 2591 2978 2328 3040 
Q 2066 3103 1784 3103 
Q 1356 3103 1142 2972 
Q 928 2841 928 2578 
Q 928 2378 1081 2264 
Q 1234 2150 1697 2047 
L 1894 2003 
Q 2506 1872 2764 1633 
Q 3022 1394 3022 966 
Q 3022 478 2636 193 
Q 2250 -91 1575 -91 
Q 1294 -91 989 -36 
Q 684 19 347 128 
L 347 722 
Q 666 556 975 473 
Q 1284 391 1588 391 
Q 1994 391 2212 530 
Q 2431 669 2431 922 
Q 2431 1156 2273 1281 
Q 2116 1406 1581 1522 
L 1381 1569 
Q 847 1681 609 1914 
Q 372 2147 372 2553 
Q 372 3047 722 3315 
Q 1072 3584 1716 3584 
Q 2034 3584 2315 3537 
Q 2597 3491 2834 3397 
z
" transform="scale(0.015625)"/>
      </defs>
      <use xlink:href="#DejaVuSans-74"/>
      <use xlink:href="#DejaVuSans-72" transform="translate(39.208984 0)"/>
      <use xlink:href="#DejaVuSans-69" transform="translate(80.322266 0)"/>
      <use xlink:href="#DejaVuSans-61" transform="translate(108.105469 0)"/>
      <use xlink:href="#DejaVuSans-6c" transform="translate(169.384766 0)"/>
      <use xlink:href="#DejaVuSans-73" transform="translate(197.167969 0)"/>
     </g>
    </g>
   </g>
   <g id="matplotlib.axis_2">
    <g id="ytick_1">
     <g id="line2d_6">
      <defs>
       <path id="me9b851de55" d="M 0 0 
L -3.5 0 
" style="stroke: #000000; stroke-width: 0.8"/>
      </defs>
      <g>
       <use xlink:href="#me9b851de55" x="90" y="320.4" style="stroke: #000000; stroke-width: 0.8"/>
      </g>
     </g>
     <g id="text_7">
      <!-- 0.0 -->
      <g transform="translate(54.374375 327.238594) scale(0.18 -0.18)">
       <defs>
        <path id="DejaVuSans-2e" d="M 684 794 
L 1344 794 
L 1344 0 
L 684 0 
L 684 794 
z
" transform="scale(0.015625)"/>
       </defs>
       <use xlink:href="#DejaVuSans-30"/>
       <use xlink:href="#DejaVuSans-2e" transform="translate(63.623047 0)"/>
       <use xlink:href="#DejaVuSans-30" transform="translate(95.410156 0)"/>
      </g>
     </g>
    </g>
    <g id="ytick_2">
     <g id="line2d_7">
      <g>
       <use xlink:href="#me9b851de55" x="90" y="264.959999" style="stroke: #000000; stroke-width: 0.8"/>
      </g>
     </g>
     <g id="text_8">
      <!-- 0.2 -->
      <g transform="translate(54.374375 271.798593) scale(0.18 -0.18)">
       <use xlink:href="#DejaVuSans-30"/>
       <use xlink:href="#DejaVuSans-2e" transform="translate(63.623047 0)"/>
       <use xlink:href="#DejaVuSans-32" transform="translate(95.410156 0)"/>
      </g>
     </g>
    </g>
    <g id="ytick_3">
     <g id="line2d_8">
      <g>
       <use xlink:href="#me9b851de55" x="90" y="209.519998" style="stroke: #000000; stroke-width: 0.8"/>
      </g>
     </g>
     <g id="text_9">
      <!-- 0.4 -->
      <g transform="translate(54.374375 216.358592) scale(0.18 -0.18)">
       <defs>
        <path id="DejaVuSans-34" d="M 2419 4116 
L 825 1625 
L 2419 1625 
L 2419 4116 
z
M 2253 4666 
L 3047 4666 
L 3047 1625 
L 3713 1625 
L 3713 1100 
L 3047 1100 
L 3047 0 
L 2419 0 
L 2419 1100 
L 313 1100 
L 313 1709 
L 2253 4666 
z
" transform="scale(0.015625)"/>
       </defs>
       <use xlink:href="#DejaVuSans-30"/>
       <use xlink:href="#DejaVuSans-2e" transform="translate(63.623047 0)"/>
       <use xlink:href="#DejaVuSans-34" transform="translate(95.410156 0)"/>
      </g>
     </g>
    </g>
    <g id="ytick_4">
     <g id="line2d_9">
      <g>
       <use xlink:href="#me9b851de55" x="90" y="154.079993" style="stroke: #000000; stroke-width: 0.8"/>
      </g>
     </g>
     <g id="text_10">
      <!-- 0.6 -->
      <g transform="translate(54.374375 160.918587) scale(0.18 -0.18)">
       <defs>
        <path id="DejaVuSans-36" d="M 2113 2584 
Q 1688 2584 1439 2293 
Q 1191 2003 1191 1497 
Q 1191 994 1439 701 
Q 1688 409 2113 409 
Q 2538 409 2786 701 
Q 3034 994 3034 1497 
Q 3034 2003 2786 2293 
Q 2538 2584 2113 2584 
z
M 3366 4563 
L 3366 3988 
Q 3128 4100 2886 4159 
Q 2644 4219 2406 4219 
Q 1781 4219 1451 3797 
Q 1122 3375 1075 2522 
Q 1259 2794 1537 2939 
Q 1816 3084 2150 3084 
Q 2853 3084 3261 2657 
Q 3669 2231 3669 1497 
Q 3669 778 3244 343 
Q 2819 -91 2113 -91 
Q 1303 -91 875 529 
Q 447 1150 447 2328 
Q 447 3434 972 4092 
Q 1497 4750 2381 4750 
Q 2619 4750 2861 4703 
Q 3103 4656 3366 4563 
z
" transform="scale(0.015625)"/>
       </defs>
       <use xlink:href="#DejaVuSans-30"/>
       <use xlink:href="#DejaVuSans-2e" transform="translate(63.623047 0)"/>
       <use xlink:href="#DejaVuSans-36" transform="translate(95.410156 0)"/>
      </g>
     </g>
    </g>
    <g id="ytick_5">
     <g id="line2d_10">
      <g>
       <use xlink:href="#me9b851de55" x="90" y="98.639997" style="stroke: #000000; stroke-width: 0.8"/>
      </g>
     </g>
     <g id="text_11">
      <!-- 0.8 -->
      <g transform="translate(54.374375 105.47859) scale(0.18 -0.18)">
       <defs>
        <path id="DejaVuSans-38" d="M 2034 2216 
Q 1584 2216 1326 1975 
Q 1069 1734 1069 1313 
Q 1069 891 1326 650 
Q 1584 409 2034 409 
Q 2484 409 2743 651 
Q 3003 894 3003 1313 
Q 3003 1734 2745 1975 
Q 2488 2216 2034 2216 
z
M 1403 2484 
Q 997 2584 770 2862 
Q 544 3141 544 3541 
Q 544 4100 942 4425 
Q 1341 4750 2034 4750 
Q 2731 4750 3128 4425 
Q 3525 4100 3525 3541 
Q 3525 3141 3298 2862 
Q 3072 2584 2669 2484 
Q 3125 2378 3379 2068 
Q 3634 1759 3634 1313 
Q 3634 634 3220 271 
Q 2806 -91 2034 -91 
Q 1263 -91 848 271 
Q 434 634 434 1313 
Q 434 1759 690 2068 
Q 947 2378 1403 2484 
z
M 1172 3481 
Q 1172 3119 1398 2916 
Q 1625 2713 2034 2713 
Q 2441 2713 2670 2916 
Q 2900 3119 2900 3481 
Q 2900 3844 2670 4047 
Q 2441 4250 2034 4250 
Q 1625 4250 1398 4047 
Q 1172 3844 1172 3481 
z
" transform="scale(0.015625)"/>
       </defs>
       <use xlink:href="#DejaVuSans-30"/>
       <use xlink:href="#DejaVuSans-2e" transform="translate(63.623047 0)"/>
       <use xlink:href="#DejaVuSans-38" transform="translate(95.410156 0)"/>
      </g>
     </g>
    </g>
    <g id="ytick_6">
     <g id="line2d_11">
      <g>
       <use xlink:href="#me9b851de55" x="90" y="43.2" style="stroke: #000000; stroke-width: 0.8"/>
      </g>
     </g>
     <g id="text_12">
      <!-- 1.0 -->
      <g transform="translate(54.374375 50.038594) scale(0.18 -0.18)">
       <use xlink:href="#DejaVuSans-31"/>
       <use xlink:href="#DejaVuSans-2e" transform="translate(63.623047 0)"/>
       <use xlink:href="#DejaVuSans-30" transform="translate(95.410156 0)"/>
      </g>
     </g>
    </g>
    <g id="text_13">
     <!-- reward probability -->
     <g transform="translate(46.215 272.959375) rotate(-90) scale(0.2 -0.2)">
      <defs>
       <path id="DejaVuSans-65" d="M 3597 1894 
L 3597 1613 
L 953 1613 
Q 991 1019 1311 708 
Q 1631 397 2203 397 
Q 2534 397 2845 478 
Q 3156 559 3463 722 
L 3463 178 
Q 3153 47 2828 -22 
Q 2503 -91 2169 -91 
Q 1331 -91 842 396 
Q 353 884 353 1716 
Q 353 2575 817 3079 
Q 1281 3584 2069 3584 
Q 2775 3584 3186 3129 
Q 3597 2675 3597 1894 
z
M 3022 2063 
Q 3016 2534 2758 2815 
Q 2500 3097 2075 3097 
Q 1594 3097 1305 2825 
Q 1016 2553 972 2059 
L 3022 2063 
z
" transform="scale(0.015625)"/>
       <path id="DejaVuSans-77" d="M 269 3500 
L 844 3500 
L 1563 769 
L 2278 3500 
L 2956 3500 
L 3675 769 
L 4391 3500 
L 4966 3500 
L 4050 0 
L 3372 0 
L 2619 2869 
L 1863 0 
L 1184 0 
L 269 3500 
z
" transform="scale(0.015625)"/>
       <path id="DejaVuSans-64" d="M 2906 2969 
L 2906 4863 
L 3481 4863 
L 3481 0 
L 2906 0 
L 2906 525 
Q 2725 213 2448 61 
Q 2172 -91 1784 -91 
Q 1150 -91 751 415 
Q 353 922 353 1747 
Q 353 2572 751 3078 
Q 1150 3584 1784 3584 
Q 2172 3584 2448 3432 
Q 2725 3281 2906 2969 
z
M 947 1747 
Q 947 1113 1208 752 
Q 1469 391 1925 391 
Q 2381 391 2643 752 
Q 2906 1113 2906 1747 
Q 2906 2381 2643 2742 
Q 2381 3103 1925 3103 
Q 1469 3103 1208 2742 
Q 947 2381 947 1747 
z
" transform="scale(0.015625)"/>
       <path id="DejaVuSans-20" transform="scale(0.015625)"/>
       <path id="DejaVuSans-70" d="M 1159 525 
L 1159 -1331 
L 581 -1331 
L 581 3500 
L 1159 3500 
L 1159 2969 
Q 1341 3281 1617 3432 
Q 1894 3584 2278 3584 
Q 2916 3584 3314 3078 
Q 3713 2572 3713 1747 
Q 3713 922 3314 415 
Q 2916 -91 2278 -91 
Q 1894 -91 1617 61 
Q 1341 213 1159 525 
z
M 3116 1747 
Q 3116 2381 2855 2742 
Q 2594 3103 2138 3103 
Q 1681 3103 1420 2742 
Q 1159 2381 1159 1747 
Q 1159 1113 1420 752 
Q 1681 391 2138 391 
Q 2594 391 2855 752 
Q 3116 1113 3116 1747 
z
" transform="scale(0.015625)"/>
       <path id="DejaVuSans-6f" d="M 1959 3097 
Q 1497 3097 1228 2736 
Q 959 2375 959 1747 
Q 959 1119 1226 758 
Q 1494 397 1959 397 
Q 2419 397 2687 759 
Q 2956 1122 2956 1747 
Q 2956 2369 2687 2733 
Q 2419 3097 1959 3097 
z
M 1959 3584 
Q 2709 3584 3137 3096 
Q 3566 2609 3566 1747 
Q 3566 888 3137 398 
Q 2709 -91 1959 -91 
Q 1206 -91 779 398 
Q 353 888 353 1747 
Q 353 2609 779 3096 
Q 1206 3584 1959 3584 
z
" transform="scale(0.015625)"/>
       <path id="DejaVuSans-62" d="M 3116 1747 
Q 3116 2381 2855 2742 
Q 2594 3103 2138 3103 
Q 1681 3103 1420 2742 
Q 1159 2381 1159 1747 
Q 1159 1113 1420 752 
Q 1681 391 2138 391 
Q 2594 391 2855 752 
Q 3116 1113 3116 1747 
z
M 1159 2969 
Q 1341 3281 1617 3432 
Q 1894 3584 2278 3584 
Q 2916 3584 3314 3078 
Q 3713 2572 3713 1747 
Q 3713 922 3314 415 
Q 2916 -91 2278 -91 
Q 1894 -91 1617 61 
Q 1341 213 1159 525 
L 1159 0 
L 581 0 
L 581 4863 
L 1159 4863 
L 1159 2969 
z
" transform="scale(0.015625)"/>
       <path id="DejaVuSans-79" d="M 2059 -325 
Q 1816 -950 1584 -1140 
Q 1353 -1331 966 -1331 
L 506 -1331 
L 506 -850 
L 844 -850 
Q 1081 -850 1212 -737 
Q 1344 -625 1503 -206 
L 1606 56 
L 191 3500 
L 800 3500 
L 1894 763 
L 2988 3500 
L 3597 3500 
L 2059 -325 
z
" transform="scale(0.015625)"/>
      </defs>
      <use xlink:href="#DejaVuSans-72"/>
      <use xlink:href="#DejaVuSans-65" transform="translate(38.863281 0)"/>
      <use xlink:href="#DejaVuSans-77" transform="translate(100.386719 0)"/>
      <use xlink:href="#DejaVuSans-61" transform="translate(182.173828 0)"/>
      <use xlink:href="#DejaVuSans-72" transform="translate(243.453125 0)"/>
      <use xlink:href="#DejaVuSans-64" transform="translate(282.816406 0)"/>
      <use xlink:href="#DejaVuSans-20" transform="translate(346.292969 0)"/>
      <use xlink:href="#DejaVuSans-70" transform="translate(378.080078 0)"/>
      <use xlink:href="#DejaVuSans-72" transform="translate(441.556641 0)"/>
      <use xlink:href="#DejaVuSans-6f" transform="translate(480.419922 0)"/>
      <use xlink:href="#DejaVuSans-62" transform="translate(541.601562 0)"/>
      <use xlink:href="#DejaVuSans-61" transform="translate(605.078125 0)"/>
      <use xlink:href="#DejaVuSans-62" transform="translate(666.357422 0)"/>
      <use xlink:href="#DejaVuSans-69" transform="translate(729.833984 0)"/>
      <use xlink:href="#DejaVuSans-6c" transform="translate(757.617188 0)"/>
      <use xlink:href="#DejaVuSans-69" transform="translate(785.400391 0)"/>
      <use xlink:href="#DejaVuSans-74" transform="translate(813.183594 0)"/>
      <use xlink:href="#DejaVuSans-79" transform="translate(852.392578 0)"/>
     </g>
    </g>
   </g>
   <g id="line2d_12">
    <path d="M 90.277336 235.952174 
L 93.050696 229.902858 
L 95.824056 236.58043 
L 98.597416 219.964457 
L 101.370775 218.440149 
L 104.144135 208.340745 
L 106.917495 212.996577 
L 109.690855 198.936058 
L 112.464215 193.283048 
L 115.237575 195.660169 
L 118.010934 202.51534 
L 120.784294 210.294676 
L 123.557654 207.61651 
L 126.331014 218.151544 
L 129.104374 225.543214 
L 131.877734 233.684887 
L 134.651093 233.680591 
L 137.424453 227.71482 
L 140.197813 233.874589 
L 142.971173 236.114457 
L 145.744533 234.635735 
L 148.517893 236.970351 
L 151.291252 231.1302 
L 154.064612 237.829582 
L 156.837972 239.196407 
L 159.611332 241.283509 
L 162.384692 236.543709 
L 165.158052 236.912886 
L 167.931412 224.808612 
L 170.704771 228.851488 
L 173.478131 229.057646 
L 176.251491 228.449291 
L 179.024851 235.569028 
L 181.798211 227.577024 
L 184.571571 225.514771 
L 187.34493 230.738099 
L 190.11829 230.890997 
L 192.89165 220.351973 
L 195.66501 213.379947 
L 201.21173 214.480223 
L 203.985089 210.191172 
L 206.758449 217.749463 
L 209.531809 204.845958 
L 212.305169 198.635548 
L 215.078529 193.038839 
L 217.851889 188.709646 
L 220.625249 199.016183 
L 223.398608 190.109581 
L 226.171968 206.823351 
L 228.945328 206.076985 
L 231.718688 202.900734 
L 234.492048 195.993376 
L 237.265408 206.930549 
L 240.038767 207.368442 
L 242.812127 204.811914 
L 245.585487 192.415192 
L 248.358847 188.938671 
L 251.132207 192.337496 
L 253.905567 200.625813 
L 256.678926 201.270022 
L 259.452286 202.451374 
L 262.225646 200.943836 
L 264.999006 211.628795 
L 267.772366 217.680201 
L 270.545726 222.299882 
L 273.319085 210.131501 
L 276.092445 202.59901 
L 278.865805 188.995641 
L 281.639165 179.156349 
L 284.412525 179.998265 
L 287.185885 170.485703 
L 289.959245 184.611106 
L 292.732604 178.365966 
L 295.505964 171.430372 
L 298.279324 170.940846 
L 301.052684 165.106453 
L 303.826044 169.944462 
L 306.599404 171.945954 
L 309.372763 172.483807 
L 312.146123 167.196009 
L 314.919483 164.294195 
L 317.692843 164.244628 
L 320.466203 156.450199 
L 323.239563 162.329582 
L 326.012922 173.24245 
L 328.786282 173.884197 
L 331.559642 172.904319 
L 334.333002 166.99741 
L 337.106362 170.102549 
L 339.879722 170.763858 
L 342.653082 164.03638 
L 345.426441 170.026215 
L 348.199801 171.057577 
L 350.973161 158.88547 
L 353.746521 155.189688 
L 356.519881 153.984461 
L 359.293241 161.480347 
L 362.0666 163.35863 
L 364.83996 172.044064 
L 367.61332 176.214253 
L 370.38668 176.882304 
L 373.16004 184.032747 
L 375.9334 183.561735 
L 378.706759 182.780696 
L 381.480119 175.615894 
L 384.253479 186.993241 
L 387.026839 180.617987 
L 389.800199 174.711573 
L 392.573559 167.73188 
L 395.346918 177.180087 
L 398.120278 180.158053 
L 400.893638 191.059207 
L 403.666998 183.527021 
L 406.440358 183.633698 
L 409.213718 184.111212 
L 411.987078 178.403059 
L 414.760437 167.553025 
L 417.533797 171.585649 
L 420.307157 184.659186 
L 423.080517 168.767356 
L 425.853877 160.14218 
L 428.627237 143.270638 
L 431.400596 143.962943 
L 436.947316 128.063381 
L 439.720676 135.765946 
L 442.494036 137.479666 
L 445.267396 132.795167 
L 448.040755 139.046337 
L 450.814115 136.907693 
L 453.587475 137.056792 
L 456.360835 135.984438 
L 459.134195 127.584859 
L 461.907555 131.85296 
L 464.680915 133.678752 
L 467.454274 126.688981 
L 470.227634 117.018878 
L 473.000994 128.623457 
L 475.774354 120.399842 
L 478.547714 113.054509 
L 481.321074 117.996212 
L 484.094433 120.254676 
L 486.867793 114.950802 
L 489.641153 114.93917 
L 492.414513 115.074274 
L 495.187873 117.337744 
L 497.961233 115.527202 
L 500.734592 116.488195 
L 503.507952 118.973165 
L 506.281312 116.656823 
L 509.054672 130.456387 
L 511.828032 136.004909 
L 514.601392 144.052313 
L 517.374751 139.607901 
L 520.148111 147.31534 
L 522.921471 139.541299 
L 525.694831 139.466519 
L 528.468191 145.165907 
L 531.241551 144.699413 
L 534.014911 154.716023 
L 536.78827 167.564046 
L 539.56163 179.035553 
L 542.33499 184.30269 
L 545.10835 196.980276 
L 547.88171 191.750298 
L 550.65507 189.859283 
L 553.428429 187.126775 
L 556.201789 185.288599 
L 558.975149 189.58749 
L 561.748509 205.483277 
L 564.521869 211.078904 
L 567.295229 214.534359 
L 570.068588 228.784118 
L 572.841948 221.547378 
L 575.615308 208.807213 
L 578.388668 215.340611 
L 581.162028 215.8172 
L 583.935388 221.370274 
L 586.708748 219.787411 
L 589.482107 215.914401 
L 592.255467 224.583948 
L 595.028827 223.195298 
L 597.802187 229.223159 
L 600.575547 230.73249 
L 603.348907 226.386485 
L 606.122266 230.56962 
L 608.895626 225.397412 
L 611.668986 226.422586 
L 614.442346 228.143932 
L 617.215706 223.917996 
L 619.989066 215.055914 
L 622.762425 199.893308 
L 625.535785 191.495233 
L 628.309145 196.063918 
L 631.082505 192.589942 
L 633.855865 202.328571 
L 636.629225 196.163045 
L 639.402584 191.498794 
L 642.175944 193.952991 
L 644.949304 191.962305 
L 644.949304 191.962305 
" clip-path="url(#pfa1ce6b5ec)" style="fill: none; stroke: #1f77b4; stroke-width: 4; stroke-linecap: square"/>
   </g>
   <g id="line2d_13">
    <path d="M 90.277336 199.082843 
L 93.050696 210.625347 
L 95.824056 202.372297 
L 98.597416 201.162048 
L 101.370775 186.03257 
L 104.144135 185.621749 
L 106.917495 194.881492 
L 109.690855 188.935573 
L 112.464215 184.977523 
L 115.237575 180.043999 
L 118.010934 188.377025 
L 120.784294 186.59391 
L 123.557654 182.92972 
L 126.331014 183.339888 
L 129.104374 171.611358 
L 131.877734 178.604517 
L 134.651093 180.807284 
L 137.424453 174.60051 
L 140.197813 169.908278 
L 142.971173 171.958775 
L 145.744533 169.777156 
L 148.517893 164.239754 
L 151.291252 162.591231 
L 154.064612 163.502524 
L 156.837972 167.380366 
L 159.611332 163.437459 
L 162.384692 178.699554 
L 165.158052 177.077532 
L 167.931412 179.672327 
L 170.704771 179.286017 
L 173.478131 188.636518 
L 176.251491 184.087197 
L 179.024851 192.494343 
L 181.798211 196.965199 
L 184.571571 187.68187 
L 187.34493 192.42295 
L 192.89165 204.137328 
L 195.66501 212.462433 
L 198.43837 216.589185 
L 201.21173 205.95058 
L 203.985089 212.2123 
L 206.758449 208.38082 
L 209.531809 197.341737 
L 212.305169 202.065625 
L 215.078529 205.040691 
L 217.851889 202.469937 
L 220.625249 209.55662 
L 223.398608 207.369913 
L 226.171968 203.873433 
L 228.945328 205.336516 
L 231.718688 209.50431 
L 234.492048 223.395929 
L 237.265408 214.826599 
L 240.038767 207.510956 
L 242.812127 222.205515 
L 245.585487 223.467339 
L 248.358847 228.292039 
L 251.132207 230.032906 
L 256.678926 217.542875 
L 259.452286 217.577563 
L 262.225646 221.198895 
L 264.999006 237.585505 
L 267.772366 229.176335 
L 270.545726 240.705126 
L 273.319085 249.946496 
L 276.092445 249.952155 
L 278.865805 240.716245 
L 281.639165 243.12223 
L 284.412525 245.905776 
L 287.185885 247.606304 
L 289.959245 245.412715 
L 292.732604 243.605312 
L 295.505964 245.390599 
L 298.279324 249.05446 
L 301.052684 248.117697 
L 303.826044 248.224622 
L 306.599404 246.046085 
L 309.372763 230.713084 
L 312.146123 234.687681 
L 314.919483 239.693012 
L 317.692843 237.760304 
L 320.466203 232.92769 
L 323.239563 230.660906 
L 326.012922 227.381035 
L 328.786282 234.870023 
L 331.559642 238.334317 
L 334.333002 229.376958 
L 337.106362 237.12966 
L 339.879722 237.747325 
L 342.653082 242.518559 
L 345.426441 246.026266 
L 348.199801 248.380825 
L 350.973161 245.11551 
L 353.746521 249.081722 
L 356.519881 232.639274 
L 359.293241 236.01828 
L 362.0666 240.660581 
L 364.83996 249.707599 
L 367.61332 245.544349 
L 370.38668 243.6095 
L 373.16004 232.284563 
L 375.9334 235.805538 
L 378.706759 243.063592 
L 381.480119 239.80691 
L 384.253479 230.660402 
L 387.026839 227.952173 
L 389.800199 226.418051 
L 392.573559 221.17958 
L 395.346918 220.95272 
L 398.120278 226.270093 
L 400.893638 242.757762 
L 403.666998 243.919337 
L 406.440358 248.805517 
L 409.213718 246.745173 
L 411.987078 245.78147 
L 414.760437 242.020516 
L 417.533797 244.634055 
L 420.307157 248.29642 
L 423.080517 244.243366 
L 425.853877 245.794515 
L 428.627237 245.919862 
L 431.400596 249.981582 
L 434.173956 249.070858 
L 436.947316 251.004633 
L 439.720676 246.761117 
L 442.494036 245.041886 
L 445.267396 240.700681 
L 448.040755 250.444052 
L 453.587475 239.914495 
L 456.360835 235.206344 
L 459.134195 234.900382 
L 461.907555 226.474112 
L 464.680915 228.802276 
L 467.454274 239.187617 
L 470.227634 228.255376 
L 473.000994 237.008807 
L 475.774354 241.201607 
L 478.547714 250.166847 
L 481.321074 235.300035 
L 484.094433 231.152126 
L 486.867793 230.957715 
L 489.641153 238.984366 
L 492.414513 232.802128 
L 495.187873 240.498777 
L 497.961233 244.3741 
L 500.734592 245.41245 
L 503.507952 243.404854 
L 506.281312 242.375244 
L 509.054672 231.620329 
L 511.828032 225.306415 
L 514.601392 234.233555 
L 517.374751 230.598865 
L 520.148111 225.387507 
L 522.921471 224.832049 
L 525.694831 220.718167 
L 528.468191 214.68278 
L 531.241551 219.433187 
L 534.014911 218.723194 
L 536.78827 216.995942 
L 539.56163 228.106881 
L 542.33499 223.957534 
L 545.10835 226.192107 
L 547.88171 217.631864 
L 550.65507 217.358138 
L 553.428429 222.650636 
L 556.201789 222.44276 
L 558.975149 216.774277 
L 561.748509 215.887652 
L 564.521869 222.978871 
L 567.295229 231.083516 
L 570.068588 225.448037 
L 572.841948 231.404613 
L 575.615308 235.618223 
L 578.388668 241.384197 
L 581.162028 227.415633 
L 583.935388 226.214825 
L 586.708748 216.291327 
L 589.482107 211.138773 
L 592.255467 203.981134 
L 595.028827 212.488654 
L 597.802187 226.031344 
L 600.575547 217.278219 
L 603.348907 206.969054 
L 606.122266 205.766173 
L 608.895626 202.245488 
L 611.668986 208.788014 
L 614.442346 203.160086 
L 617.215706 212.216645 
L 619.989066 210.588635 
L 622.762425 202.334279 
L 625.535785 196.609463 
L 628.309145 187.559257 
L 631.082505 194.422706 
L 633.855865 189.66322 
L 636.629225 186.340217 
L 639.402584 187.312941 
L 642.175944 193.524631 
L 644.949304 207.558466 
L 644.949304 207.558466 
" clip-path="url(#pfa1ce6b5ec)" style="fill: none; stroke: #ff7f0e; stroke-width: 4; stroke-linecap: square"/>
   </g>
   <g id="line2d_14">
    <path d="M 90.277336 154.698394 
L 93.050696 154.611569 
L 95.824056 160.611565 
L 98.597416 159.135007 
L 101.370775 149.855429 
L 104.144135 149.530532 
L 106.917495 165.610717 
L 109.690855 170.861522 
L 112.464215 173.38147 
L 115.237575 172.439412 
L 118.010934 188.142861 
L 120.784294 183.951746 
L 123.557654 188.32664 
L 126.331014 183.679886 
L 129.104374 191.591509 
L 131.877734 190.947639 
L 134.651093 185.799315 
L 137.424453 181.64692 
L 140.197813 189.321149 
L 142.971173 186.837599 
L 145.744533 188.201698 
L 148.517893 195.72397 
L 151.291252 203.969453 
L 154.064612 201.089341 
L 156.837972 211.214016 
L 159.611332 211.393615 
L 162.384692 203.494384 
L 165.158052 204.660709 
L 167.931412 217.124709 
L 170.704771 202.622331 
L 173.478131 201.851247 
L 176.251491 197.959609 
L 179.024851 212.715721 
L 181.798211 204.659255 
L 184.571571 198.580678 
L 187.34493 179.073357 
L 190.11829 183.831248 
L 192.89165 186.827703 
L 195.66501 198.178547 
L 198.43837 200.907305 
L 201.21173 197.851246 
L 203.985089 202.779145 
L 206.758449 206.097828 
L 209.531809 208.668937 
L 212.305169 217.784341 
L 215.078529 218.091774 
L 217.851889 213.990607 
L 220.625249 206.149939 
L 223.398608 203.570874 
L 226.171968 203.997384 
L 228.945328 192.496929 
L 231.718688 186.742034 
L 234.492048 196.188506 
L 237.265408 199.404848 
L 240.038767 201.72661 
L 242.812127 214.914523 
L 245.585487 210.571501 
L 248.358847 214.60923 
L 251.132207 216.189318 
L 253.905567 217.255079 
L 256.678926 212.655423 
L 259.452286 214.532715 
L 262.225646 210.683886 
L 264.999006 205.241075 
L 267.772366 208.08031 
L 270.545726 205.990903 
L 273.319085 202.291726 
L 276.092445 198.24196 
L 278.865805 211.653537 
L 281.639165 215.668573 
L 284.412525 214.914374 
L 287.185885 212.163592 
L 289.959245 217.124916 
L 292.732604 206.809291 
L 295.505964 203.915639 
L 298.279324 194.200224 
L 301.052684 193.226277 
L 303.826044 199.437406 
L 306.599404 191.499504 
L 309.372763 191.898272 
L 312.146123 197.088465 
L 314.919483 208.338555 
L 317.692843 197.971777 
L 320.466203 194.608625 
L 323.239563 199.536986 
L 326.012922 207.217452 
L 328.786282 200.713241 
L 331.559642 200.966158 
L 334.333002 194.06987 
L 337.106362 183.66951 
L 339.879722 178.380969 
L 342.653082 182.109266 
L 345.426441 198.409464 
L 348.199801 203.56662 
L 350.973161 207.500671 
L 353.746521 217.87134 
L 356.519881 214.044255 
L 359.293241 213.097017 
L 362.0666 208.018756 
L 364.83996 208.847693 
L 367.61332 223.824215 
L 370.38668 216.802439 
L 373.16004 224.654813 
L 375.9334 225.121133 
L 378.706759 220.516743 
L 381.480119 221.196532 
L 384.253479 221.575986 
L 387.026839 229.76706 
L 389.800199 234.993536 
L 392.573559 238.650432 
L 395.346918 230.874838 
L 398.120278 231.115058 
L 403.666998 216.947738 
L 406.440358 201.735507 
L 409.213718 196.375143 
L 411.987078 193.711351 
L 414.760437 180.129981 
L 417.533797 192.251984 
L 420.307157 192.799867 
L 423.080517 193.615124 
L 425.853877 213.46203 
L 428.627237 214.038984 
L 431.400596 205.190202 
L 434.173956 198.315708 
L 436.947316 194.948887 
L 439.720676 195.934507 
L 442.494036 192.584927 
L 445.267396 195.053986 
L 448.040755 205.299407 
L 450.814115 210.005146 
L 453.587475 208.986903 
L 456.360835 213.579323 
L 459.134195 228.320664 
L 461.907555 224.37779 
L 464.680915 225.566065 
L 467.454274 229.292322 
L 470.227634 213.103667 
L 473.000994 206.790992 
L 475.774354 207.336975 
L 478.547714 201.731269 
L 481.321074 195.010194 
L 484.094433 202.210584 
L 486.867793 199.44798 
L 489.641153 194.448903 
L 495.187873 173.431748 
L 497.961233 183.65887 
L 500.734592 182.952215 
L 503.507952 189.855541 
L 506.281312 191.922833 
L 509.054672 186.362878 
L 511.828032 168.174202 
L 514.601392 154.438811 
L 517.374751 146.891821 
L 520.148111 146.529732 
L 522.921471 128.276983 
L 525.694831 142.833438 
L 528.468191 140.868809 
L 531.241551 147.237255 
L 534.014911 132.98691 
L 536.78827 148.831436 
L 539.56163 147.964522 
L 542.33499 158.386377 
L 545.10835 144.345999 
L 547.88171 131.534227 
L 550.65507 129.526985 
L 553.428429 137.114571 
L 556.201789 121.071412 
L 558.975149 126.191161 
L 561.748509 123.647949 
L 564.521869 120.553914 
L 567.295229 134.727066 
L 572.841948 141.436155 
L 575.615308 135.343187 
L 578.388668 146.097837 
L 581.162028 144.025001 
L 583.935388 145.997678 
L 586.708748 139.261723 
L 589.482107 133.119039 
L 595.028827 138.435091 
L 597.802187 130.264281 
L 600.575547 125.882572 
L 603.348907 114.591654 
L 606.122266 119.127005 
L 608.895626 128.346988 
L 611.668986 130.218745 
L 614.442346 137.998123 
L 617.215706 145.049258 
L 619.989066 146.646909 
L 622.762425 155.070446 
L 625.535785 153.434529 
L 628.309145 158.949725 
L 631.082505 153.627593 
L 633.855865 165.188091 
L 636.629225 165.156648 
L 639.402584 164.634243 
L 642.175944 167.088614 
L 644.949304 151.583524 
L 644.949304 151.583524 
" clip-path="url(#pfa1ce6b5ec)" style="fill: none; stroke: #2ca02c; stroke-width: 4; stroke-linecap: square"/>
   </g>
   <g id="line2d_15">
    <path d="M 90.277336 122.798136 
L 93.050696 125.872031 
L 95.824056 116.476811 
L 98.597416 125.922077 
L 101.370775 123.442658 
L 104.144135 114.211622 
L 106.917495 119.530516 
L 109.690855 116.149982 
L 112.464215 122.506879 
L 115.237575 124.349144 
L 118.010934 123.582983 
L 120.784294 131.634352 
L 123.557654 127.132773 
L 126.331014 113.328384 
L 129.104374 116.685175 
L 131.877734 114.329477 
L 134.651093 118.108515 
L 137.424453 124.28968 
L 140.197813 127.789885 
L 142.971173 135.355165 
L 145.744533 131.302781 
L 148.517893 125.749666 
L 151.291252 114.825645 
L 154.064612 115.365399 
L 156.837972 134.895496 
L 159.611332 147.056946 
L 162.384692 130.425705 
L 165.158052 117.350401 
L 167.931412 117.276479 
L 170.704771 116.008847 
L 173.478131 124.689224 
L 176.251491 126.123601 
L 179.024851 119.593103 
L 181.798211 120.569164 
L 184.571571 122.630896 
L 187.34493 123.442939 
L 190.11829 133.618892 
L 192.89165 140.756374 
L 195.66501 148.801993 
L 198.43837 152.708601 
L 201.21173 149.396056 
L 203.985089 142.725349 
L 206.758449 145.639819 
L 209.531809 150.417075 
L 212.305169 150.752034 
L 215.078529 148.253383 
L 217.851889 154.077631 
L 220.625249 152.306776 
L 223.398608 154.611404 
L 226.171968 154.070179 
L 228.945328 164.089598 
L 231.718688 163.016864 
L 234.492048 159.205112 
L 237.265408 161.615037 
L 240.038767 151.537063 
L 242.812127 154.532096 
L 245.585487 167.864109 
L 248.358847 167.836203 
L 251.132207 165.550328 
L 253.905567 165.195096 
L 256.678926 157.728174 
L 259.452286 158.171156 
L 262.225646 156.944301 
L 264.999006 159.441895 
L 267.772366 157.120397 
L 270.545726 156.480319 
L 273.319085 153.140298 
L 276.092445 159.05793 
L 278.865805 173.302724 
L 281.639165 185.418482 
L 284.412525 188.0774 
L 287.185885 191.120753 
L 289.959245 191.108576 
L 292.732604 193.603261 
L 295.505964 187.76758 
L 298.279324 196.169001 
L 301.052684 203.100308 
L 303.826044 198.20989 
L 306.599404 188.851466 
L 309.372763 186.896328 
L 312.146123 191.51981 
L 314.919483 199.193461 
L 317.692843 188.942116 
L 320.466203 196.002951 
L 323.239563 203.793571 
L 326.012922 215.480696 
L 328.786282 208.701123 
L 331.559642 207.851392 
L 334.333002 206.449202 
L 337.106362 207.157269 
L 339.879722 199.19983 
L 342.653082 195.551005 
L 345.426441 204.059937 
L 348.199801 198.967087 
L 350.973161 195.808019 
L 353.746521 179.61017 
L 356.519881 174.689813 
L 359.293241 180.69014 
L 362.0666 173.136509 
L 364.83996 174.588977 
L 367.61332 179.901179 
L 370.38668 180.970724 
L 373.16004 186.455486 
L 375.9334 185.933948 
L 378.706759 180.953805 
L 381.480119 171.623585 
L 384.253479 181.989652 
L 387.026839 186.940931 
L 389.800199 185.904876 
L 392.573559 197.294119 
L 395.346918 204.723453 
L 398.120278 206.229891 
L 400.893638 205.8023 
L 403.666998 201.287263 
L 406.440358 206.29152 
L 409.213718 191.287166 
L 411.987078 189.883885 
L 414.760437 186.348487 
L 417.533797 189.362777 
L 420.307157 188.242698 
L 423.080517 200.887577 
L 425.853877 206.48741 
L 428.627237 201.368809 
L 431.400596 195.999902 
L 434.173956 200.305096 
L 436.947316 205.757301 
L 439.720676 209.852627 
L 442.494036 212.427446 
L 445.267396 212.78324 
L 448.040755 200.064952 
L 450.814115 206.495026 
L 453.587475 199.756776 
L 456.360835 210.782963 
L 459.134195 202.528112 
L 461.907555 202.708165 
L 464.680915 208.826379 
L 467.454274 208.592463 
L 470.227634 205.799532 
L 473.000994 205.811808 
L 475.774354 207.75049 
L 478.547714 208.704461 
L 481.321074 207.483 
L 484.094433 212.968084 
L 486.867793 210.096845 
L 489.641153 206.722689 
L 492.414513 214.319056 
L 495.187873 221.034026 
L 497.961233 215.092255 
L 500.734592 209.828645 
L 503.507952 206.886897 
L 506.281312 207.923298 
L 509.054672 209.165502 
L 511.828032 211.694157 
L 514.601392 210.230412 
L 517.374751 216.81607 
L 520.148111 208.726179 
L 522.921471 208.005034 
L 525.694831 204.322181 
L 531.241551 189.346411 
L 534.014911 191.270223 
L 536.78827 190.854585 
L 539.56163 194.781804 
L 542.33499 191.745671 
L 545.10835 189.120509 
L 550.65507 185.24645 
L 553.428429 185.658577 
L 556.201789 186.354641 
L 558.975149 182.745544 
L 561.748509 176.917678 
L 564.521869 170.293349 
L 567.295229 164.75755 
L 570.068588 171.900913 
L 572.841948 171.423317 
L 575.615308 188.0983 
L 578.388668 193.028479 
L 581.162028 199.193816 
L 583.935388 211.756728 
L 586.708748 231.064276 
L 589.482107 241.730027 
L 592.255467 242.371311 
L 595.028827 240.633253 
L 597.802187 250.760109 
L 600.575547 242.218999 
L 603.348907 230.743923 
L 606.122266 236.187255 
L 608.895626 229.123744 
L 611.668986 232.466012 
L 614.442346 233.051236 
L 617.215706 231.424555 
L 619.989066 241.646589 
L 622.762425 245.645392 
L 625.535785 242.550612 
L 628.309145 227.245931 
L 631.082505 228.716607 
L 633.855865 234.072536 
L 636.629225 234.601269 
L 639.402584 226.978565 
L 642.175944 224.203206 
L 644.949304 229.397429 
L 644.949304 229.397429 
" clip-path="url(#pfa1ce6b5ec)" style="fill: none; stroke: #d62728; stroke-width: 4; stroke-linecap: square"/>
   </g>
   <g id="patch_3">
    <path d="M 90 320.4 
L 90 43.2 
" style="fill: none; stroke: #000000; stroke-width: 0.8; stroke-linejoin: miter; stroke-linecap: square"/>
   </g>
   <g id="patch_4">
    <path d="M 648 320.4 
L 648 43.2 
" style="fill: none; stroke: #000000; stroke-width: 0.8; stroke-linejoin: miter; stroke-linecap: square"/>
   </g>
   <g id="patch_5">
    <path d="M 90 320.4 
L 648 320.4 
" style="fill: none; stroke: #000000; stroke-width: 0.8; stroke-linejoin: miter; stroke-linecap: square"/>
   </g>
   <g id="patch_6">
    <path d="M 90 43.2 
L 648 43.2 
" style="fill: none; stroke: #000000; stroke-width: 0.8; stroke-linejoin: miter; stroke-linecap: square"/>
   </g>
   <g id="legend_1">
    <g id="patch_7">
     <path d="M 682.92 163.42875 
L 760.5 163.42875 
Q 764.1 163.42875 764.1 159.82875 
L 764.1 55.8 
Q 764.1 52.2 760.5 52.2 
L 682.92 52.2 
Q 679.32 52.2 679.32 55.8 
L 679.32 159.82875 
Q 679.32 163.42875 682.92 163.42875 
z
" style="fill: #ffffff; opacity: 0.8; stroke: #cccccc; stroke-linejoin: miter"/>
    </g>
    <g id="line2d_16">
     <path d="M 686.52 66.777187 
L 704.52 66.777187 
L 721 66.777187 
" style="fill: none; stroke: #1f77b4; stroke-width: 4; stroke-linecap: square"/>
    </g>
    <g id="text_14">
     <!-- $p_1$ -->
     <g transform="translate(736.92 73.077187) scale(0.18 -0.18)">
      <defs>
       <path id="DejaVuSans-Oblique-70" d="M 3175 2156 
Q 3175 2616 2975 2859 
Q 2775 3103 2400 3103 
Q 2144 3103 1911 2972 
Q 1678 2841 1497 2591 
Q 1319 2344 1212 1994 
Q 1106 1644 1106 1300 
Q 1106 863 1306 627 
Q 1506 391 1875 391 
Q 2147 391 2380 519 
Q 2613 647 2778 891 
Q 2956 1147 3065 1494 
Q 3175 1841 3175 2156 
z
M 1394 2969 
Q 1625 3272 1939 3428 
Q 2253 3584 2638 3584 
Q 3175 3584 3472 3232 
Q 3769 2881 3769 2247 
Q 3769 1728 3584 1258 
Q 3400 788 3053 416 
Q 2822 169 2531 39 
Q 2241 -91 1919 -91 
Q 1547 -91 1294 64 
Q 1041 219 916 525 
L 556 -1331 
L -19 -1331 
L 922 3500 
L 1497 3500 
L 1394 2969 
z
" transform="scale(0.015625)"/>
      </defs>
      <use xlink:href="#DejaVuSans-Oblique-70"/>
      <use xlink:href="#DejaVuSans-31" transform="translate(63.476562 -16.40625) scale(0.7)"/>
     </g>
    </g>
    <g id="line2d_17">
     <path d="M 686.52 93.234375 
L 704.52 93.234375 
L 721 93.234375 
" style="fill: none; stroke: #ff7f0e; stroke-width: 4; stroke-linecap: square"/>
    </g>
    <g id="text_15">
     <!-- $p_2$ -->
     <g transform="translate(736.92 99.534375) scale(0.18 -0.18)">
      <use xlink:href="#DejaVuSans-Oblique-70"/>
      <use xlink:href="#DejaVuSans-32" transform="translate(63.476562 -16.40625) scale(0.7)"/>
     </g>
    </g>
    <g id="line2d_18">
     <path d="M 686.52 119.691562 
L 704.52 119.691562 
L 721 119.691562 
" style="fill: none; stroke: #2ca02c; stroke-width: 4; stroke-linecap: square"/>
    </g>
    <g id="text_16">
     <!-- $p_3$ -->
     <g transform="translate(736.92 125.991562) scale(0.18 -0.18)">
      <defs>
       <path id="DejaVuSans-33" d="M 2597 2516 
Q 3050 2419 3304 2112 
Q 3559 1806 3559 1356 
Q 3559 666 3084 287 
Q 2609 -91 1734 -91 
Q 1441 -91 1130 -33 
Q 819 25 488 141 
L 488 750 
Q 750 597 1062 519 
Q 1375 441 1716 441 
Q 2309 441 2620 675 
Q 2931 909 2931 1356 
Q 2931 1769 2642 2001 
Q 2353 2234 1838 2234 
L 1294 2234 
L 1294 2753 
L 1863 2753 
Q 2328 2753 2575 2939 
Q 2822 3125 2822 3475 
Q 2822 3834 2567 4026 
Q 2313 4219 1838 4219 
Q 1578 4219 1281 4162 
Q 984 4106 628 3988 
L 628 4550 
Q 988 4650 1302 4700 
Q 1616 4750 1894 4750 
Q 2613 4750 3031 4423 
Q 3450 4097 3450 3541 
Q 3450 3153 3228 2886 
Q 3006 2619 2597 2516 
z
" transform="scale(0.015625)"/>
      </defs>
      <use xlink:href="#DejaVuSans-Oblique-70"/>
      <use xlink:href="#DejaVuSans-33" transform="translate(63.476562 -16.40625) scale(0.7)"/>
     </g>
    </g>
    <g id="line2d_19">
     <path d="M 686.52 146.14875 
L 704.52 146.14875 
L 721 146.14875 
" style="fill: none; stroke: #d62728; stroke-width: 4; stroke-linecap: square"/>
    </g>
    <g id="text_17">
     <!-- $p_4$ -->
     <g transform="translate(736.92 152.44875) scale(0.18 -0.18)">
      <use xlink:href="#DejaVuSans-Oblique-70"/>
      <use xlink:href="#DejaVuSans-34" transform="translate(63.476562 -16.40625) scale(0.7)"/>
     </g>
    </g>
   </g>
  </g>
 </g>
 <defs>
  <clipPath id="pfa1ce6b5ec">
   <rect x="90" y="43.2" width="558" height="277.2"/>
  </clipPath>
 </defs>
</svg>
