<?xml version="1.0" encoding="utf-8" standalone="no"?>
<!DOCTYPE svg PUBLIC "-//W3C//DTD SVG 1.1//EN"
  "http://www.w3.org/Graphics/SVG/1.1/DTD/svg11.dtd">
<svg xmlns:xlink="http://www.w3.org/1999/xlink" width="360pt" height="360pt" viewBox="0 0 360 360" xmlns="http://www.w3.org/2000/svg" version="1.1">
 <metadata>
  <rdf:RDF xmlns:dc="http://purl.org/dc/elements/1.1/" xmlns:cc="http://creativecommons.org/ns#" xmlns:rdf="http://www.w3.org/1999/02/22-rdf-syntax-ns#">
   <cc:Work>
    <dc:type rdf:resource="http://purl.org/dc/dcmitype/StillImage"/>
    <dc:date>2025-05-23T17:01:33.398657</dc:date>
    <dc:format>image/svg+xml</dc:format>
    <dc:creator>
     <cc:Agent>
      <dc:title>Matplotlib v3.10.3, https://matplotlib.org/</dc:title>
     </cc:Agent>
    </dc:creator>
   </cc:Work>
  </rdf:RDF>
 </metadata>
 <defs>
  <style type="text/css">*{stroke-linejoin: round; stroke-linecap: butt}</style>
 </defs>
 <g id="figure_1">
  <g id="patch_1">
   <path d="M 0 360 
L 360 360 
L 360 0 
L 0 0 
z
" style="fill: #ffffff"/>
  </g>
  <g id="axes_1">
   <g id="patch_2">
    <path d="M 45.52 160.17 
L 193.030854 160.17 
L 193.030854 8.6 
L 45.52 8.6 
z
" style="fill: #ffffff"/>
   </g>
   <g id="matplotlib.axis_1">
    <g id="xtick_1">
     <g id="line2d_1">
      <defs>
       <path id="mfe7b1782ab" d="M 0 0 
L 0 3.5 
" style="stroke: #000000; stroke-width: 0.8"/>
      </defs>
      <g>
       <use xlink:href="#mfe7b1782ab" x="67.383598" y="160.17" style="stroke: #000000; stroke-width: 0.8"/>
      </g>
     </g>
    </g>
    <g id="xtick_2">
     <g id="line2d_2">
      <g>
       <use xlink:href="#mfe7b1782ab" x="127.942912" y="160.17" style="stroke: #000000; stroke-width: 0.8"/>
      </g>
     </g>
    </g>
    <g id="xtick_3">
     <g id="line2d_3">
      <g>
       <use xlink:href="#mfe7b1782ab" x="188.502226" y="160.17" style="stroke: #000000; stroke-width: 0.8"/>
      </g>
     </g>
    </g>
   </g>
   <g id="patch_3">
    <path d="M 45.52 160.17 
L 193.030854 160.17 
" style="fill: none; stroke: #000000; stroke-width: 0.8; stroke-linejoin: miter; stroke-linecap: square"/>
   </g>
   <g id="text_1">
    <!-- r = 1.00  -->
    <g transform="translate(60.271085 23.757) scale(0.1 -0.1)">
     <defs>
      <path id="DejaVuSans-72" d="M 2631 2963 
Q 2534 3019 2420 3045 
Q 2306 3072 2169 3072 
Q 1681 3072 1420 2755 
Q 1159 2438 1159 1844 
L 1159 0 
L 581 0 
L 581 3500 
L 1159 3500 
L 1159 2956 
Q 1341 3275 1631 3429 
Q 1922 3584 2338 3584 
Q 2397 3584 2469 3576 
Q 2541 3569 2628 3553 
L 2631 2963 
z
" transform="scale(0.015625)"/>
      <path id="DejaVuSans-20" transform="scale(0.015625)"/>
      <path id="DejaVuSans-3d" d="M 678 2906 
L 4684 2906 
L 4684 2381 
L 678 2381 
L 678 2906 
z
M 678 1631 
L 4684 1631 
L 4684 1100 
L 678 1100 
L 678 1631 
z
" transform="scale(0.015625)"/>
      <path id="DejaVuSans-31" d="M 794 531 
L 1825 531 
L 1825 4091 
L 703 3866 
L 703 4441 
L 1819 4666 
L 2450 4666 
L 2450 531 
L 3481 531 
L 3481 0 
L 794 0 
L 794 531 
z
" transform="scale(0.015625)"/>
      <path id="DejaVuSans-2e" d="M 684 794 
L 1344 794 
L 1344 0 
L 684 0 
L 684 794 
z
" transform="scale(0.015625)"/>
      <path id="DejaVuSans-30" d="M 2034 4250 
Q 1547 4250 1301 3770 
Q 1056 3291 1056 2328 
Q 1056 1369 1301 889 
Q 1547 409 2034 409 
Q 2525 409 2770 889 
Q 3016 1369 3016 2328 
Q 3016 3291 2770 3770 
Q 2525 4250 2034 4250 
z
M 2034 4750 
Q 2819 4750 3233 4129 
Q 3647 3509 3647 2328 
Q 3647 1150 3233 529 
Q 2819 -91 2034 -91 
Q 1250 -91 836 529 
Q 422 1150 422 2328 
Q 422 3509 836 4129 
Q 1250 4750 2034 4750 
z
" transform="scale(0.015625)"/>
     </defs>
     <use xlink:href="#DejaVuSans-72"/>
     <use xlink:href="#DejaVuSans-20" transform="translate(41.113281 0)"/>
     <use xlink:href="#DejaVuSans-3d" transform="translate(72.900391 0)"/>
     <use xlink:href="#DejaVuSans-20" transform="translate(156.689453 0)"/>
     <use xlink:href="#DejaVuSans-31" transform="translate(188.476562 0)"/>
     <use xlink:href="#DejaVuSans-2e" transform="translate(252.099609 0)"/>
     <use xlink:href="#DejaVuSans-30" transform="translate(283.886719 0)"/>
     <use xlink:href="#DejaVuSans-30" transform="translate(347.509766 0)"/>
     <use xlink:href="#DejaVuSans-20" transform="translate(411.132812 0)"/>
    </g>
   </g>
   <g id="text_2">
    <!-- p = 0.000 -->
    <g transform="translate(119.275427 23.757) scale(0.1 -0.1)">
     <defs>
      <path id="DejaVuSans-70" d="M 1159 525 
L 1159 -1331 
L 581 -1331 
L 581 3500 
L 1159 3500 
L 1159 2969 
Q 1341 3281 1617 3432 
Q 1894 3584 2278 3584 
Q 2916 3584 3314 3078 
Q 3713 2572 3713 1747 
Q 3713 922 3314 415 
Q 2916 -91 2278 -91 
Q 1894 -91 1617 61 
Q 1341 213 1159 525 
z
M 3116 1747 
Q 3116 2381 2855 2742 
Q 2594 3103 2138 3103 
Q 1681 3103 1420 2742 
Q 1159 2381 1159 1747 
Q 1159 1113 1420 752 
Q 1681 391 2138 391 
Q 2594 391 2855 752 
Q 3116 1113 3116 1747 
z
" transform="scale(0.015625)"/>
     </defs>
     <use xlink:href="#DejaVuSans-70"/>
     <use xlink:href="#DejaVuSans-20" transform="translate(63.476562 0)"/>
     <use xlink:href="#DejaVuSans-3d" transform="translate(95.263672 0)"/>
     <use xlink:href="#DejaVuSans-20" transform="translate(179.052734 0)"/>
     <use xlink:href="#DejaVuSans-30" transform="translate(210.839844 0)"/>
     <use xlink:href="#DejaVuSans-2e" transform="translate(274.462891 0)"/>
     <use xlink:href="#DejaVuSans-30" transform="translate(306.25 0)"/>
     <use xlink:href="#DejaVuSans-30" transform="translate(369.873047 0)"/>
     <use xlink:href="#DejaVuSans-30" transform="translate(433.496094 0)"/>
    </g>
   </g>
  </g>
  <g id="axes_2">
   <g id="patch_4">
    <path d="M 45.52 320.24 
L 193.030854 320.24 
L 193.030854 168.67 
L 45.52 168.67 
z
" style="fill: #ffffff"/>
   </g>
   <g id="PathCollection_1">
    <defs>
     <path id="mb22a60af1b" d="M 0 3 
C 0.795609 3 1.55874 2.683901 2.12132 2.12132 
C 2.683901 1.55874 3 0.795609 3 0 
C 3 -0.795609 2.683901 -1.55874 2.12132 -2.12132 
C 1.55874 -2.683901 0.795609 -3 0 -3 
C -0.795609 -3 -1.55874 -2.683901 -2.12132 -2.12132 
C -2.683901 -1.55874 -3 -0.795609 -3 0 
C -3 0.795609 -2.683901 1.55874 -2.12132 2.12132 
C -1.55874 2.683901 -0.795609 3 0 3 
z
" style="stroke: #1f77b4; stroke-opacity: 0.8"/>
    </defs>
    <g clip-path="url(#pd374cfe006)">
     <use xlink:href="#mb22a60af1b" x="75.864038" y="199.324325" style="fill: #1f77b4; fill-opacity: 0.8; stroke: #1f77b4; stroke-opacity: 0.8"/>
     <use xlink:href="#mb22a60af1b" x="151.353094" y="204.927927" style="fill: #1f77b4; fill-opacity: 0.8; stroke: #1f77b4; stroke-opacity: 0.8"/>
     <use xlink:href="#mb22a60af1b" x="73.472674" y="280.853548" style="fill: #1f77b4; fill-opacity: 0.8; stroke: #1f77b4; stroke-opacity: 0.8"/>
     <use xlink:href="#mb22a60af1b" x="104.204414" y="241.1564" style="fill: #1f77b4; fill-opacity: 0.8; stroke: #1f77b4; stroke-opacity: 0.8"/>
     <use xlink:href="#mb22a60af1b" x="122.648442" y="194.540634" style="fill: #1f77b4; fill-opacity: 0.8; stroke: #1f77b4; stroke-opacity: 0.8"/>
     <use xlink:href="#mb22a60af1b" x="145.792393" y="179.751714" style="fill: #1f77b4; fill-opacity: 0.8; stroke: #1f77b4; stroke-opacity: 0.8"/>
     <use xlink:href="#mb22a60af1b" x="113.431922" y="212.654745" style="fill: #1f77b4; fill-opacity: 0.8; stroke: #1f77b4; stroke-opacity: 0.8"/>
     <use xlink:href="#mb22a60af1b" x="174.403252" y="313.350455" style="fill: #1f77b4; fill-opacity: 0.8; stroke: #1f77b4; stroke-opacity: 0.8"/>
     <use xlink:href="#mb22a60af1b" x="103.40697" y="265.596323" style="fill: #1f77b4; fill-opacity: 0.8; stroke: #1f77b4; stroke-opacity: 0.8"/>
     <use xlink:href="#mb22a60af1b" x="186.325815" y="267.037875" style="fill: #1f77b4; fill-opacity: 0.8; stroke: #1f77b4; stroke-opacity: 0.8"/>
     <use xlink:href="#mb22a60af1b" x="170.605142" y="261.096056" style="fill: #1f77b4; fill-opacity: 0.8; stroke: #1f77b4; stroke-opacity: 0.8"/>
     <use xlink:href="#mb22a60af1b" x="181.347851" y="291.856456" style="fill: #1f77b4; fill-opacity: 0.8; stroke: #1f77b4; stroke-opacity: 0.8"/>
     <use xlink:href="#mb22a60af1b" x="140.503135" y="217.89495" style="fill: #1f77b4; fill-opacity: 0.8; stroke: #1f77b4; stroke-opacity: 0.8"/>
     <use xlink:href="#mb22a60af1b" x="52.225039" y="238.268544" style="fill: #1f77b4; fill-opacity: 0.8; stroke: #1f77b4; stroke-opacity: 0.8"/>
     <use xlink:href="#mb22a60af1b" x="100.49375" y="244.298129" style="fill: #1f77b4; fill-opacity: 0.8; stroke: #1f77b4; stroke-opacity: 0.8"/>
    </g>
   </g>
   <g id="FillBetweenPolyCollection_1">
    <path d="M 52.225039 175.559545 
L 52.225039 257.392679 
L 53.579591 257.054339 
L 54.934146 256.469067 
L 56.288698 255.874604 
L 57.64325 255.330002 
L 58.997805 255.122217 
L 60.352357 254.910865 
L 61.706913 254.304115 
L 63.061465 253.79662 
L 64.416017 253.814755 
L 65.770572 253.652625 
L 67.125124 253.580808 
L 68.479679 253.584017 
L 69.834231 253.43693 
L 71.188783 253.230655 
L 72.543335 253.021757 
L 73.897887 252.969712 
L 75.252446 252.614146 
L 76.606998 252.390437 
L 77.96155 252.312039 
L 79.316102 251.970673 
L 80.670653 251.761644 
L 82.025213 251.598769 
L 83.379764 251.69865 
L 84.734316 251.75358 
L 86.088868 251.717273 
L 87.44342 251.828506 
L 88.797979 251.967735 
L 90.152524 251.911603 
L 91.507083 251.96694 
L 92.861635 252.092099 
L 94.216187 252.062046 
L 95.570746 252.142834 
L 96.92529 252.26436 
L 98.279849 252.587331 
L 99.634401 252.780564 
L 100.988953 252.960769 
L 102.343512 253.165956 
L 103.698057 253.375127 
L 105.052616 253.581587 
L 106.407168 253.787804 
L 107.76172 253.98534 
L 109.116279 254.502781 
L 110.470824 254.811627 
L 111.825383 255.285775 
L 113.179927 255.534466 
L 114.534486 255.734599 
L 115.889045 255.931087 
L 117.24359 256.03401 
L 118.598149 256.345998 
L 119.952694 256.702796 
L 121.307253 257.204543 
L 122.661812 257.662727 
L 124.016357 258.158924 
L 125.370916 258.374984 
L 126.72546 258.926708 
L 128.08002 259.199567 
L 129.434579 259.51725 
L 130.789123 260.04997 
L 132.143682 260.59912 
L 133.498227 261.148265 
L 134.852786 261.731966 
L 136.207345 262.248463 
L 137.56189 262.797658 
L 138.916449 263.278837 
L 140.270994 263.811809 
L 141.625553 264.38889 
L 142.980112 264.965972 
L 144.334656 265.543047 
L 145.689216 266.097288 
L 147.04376 266.647996 
L 148.398319 267.19871 
L 149.752878 267.749424 
L 151.107423 268.35832 
L 152.461982 269.012018 
L 153.816527 269.580462 
L 155.171086 270.195175 
L 156.525631 270.804802 
L 157.88019 271.323089 
L 159.234749 271.988917 
L 160.589293 272.506558 
L 161.943853 273.442806 
L 163.298397 274.216241 
L 164.652956 275.081059 
L 166.007515 275.935797 
L 167.36206 276.398319 
L 168.716619 276.760457 
L 170.071164 277.654908 
L 171.425723 278.368896 
L 172.780282 279.077318 
L 174.134827 279.815248 
L 175.489386 280.796533 
L 176.843945 281.673777 
L 178.198489 282.545277 
L 179.553049 283.405794 
L 180.907593 284.401883 
L 182.262152 285.535696 
L 183.616711 286.421693 
L 184.971256 287.011824 
L 186.325815 287.836752 
L 186.325815 201.337463 
L 186.325815 201.337463 
L 184.971256 201.805012 
L 183.616711 202.272557 
L 182.262152 202.740107 
L 180.907593 203.207656 
L 179.553049 203.675201 
L 178.198489 204.142751 
L 176.843945 204.610295 
L 175.489386 205.077845 
L 174.134827 205.548393 
L 172.780282 206.019027 
L 171.425723 206.489665 
L 170.071164 206.960304 
L 168.716619 207.430937 
L 167.36206 207.901576 
L 166.007515 208.372209 
L 164.652956 208.842848 
L 163.298397 209.262494 
L 161.943853 209.778931 
L 160.589293 210.249349 
L 159.234749 210.838372 
L 157.88019 211.427709 
L 156.525631 212.017045 
L 155.171086 212.117915 
L 153.816527 212.571851 
L 152.461982 212.757043 
L 151.107423 212.942383 
L 149.752878 213.128257 
L 148.398319 213.434011 
L 147.04376 213.959467 
L 145.689216 214.367411 
L 144.334656 214.841379 
L 142.980112 215.366079 
L 141.625553 215.653066 
L 140.270994 216.264785 
L 138.916449 216.620665 
L 137.56189 217.110481 
L 136.207345 217.102349 
L 134.852786 217.024259 
L 133.498227 216.840175 
L 132.143682 216.932808 
L 130.789123 217.187314 
L 129.434579 217.120978 
L 128.08002 216.920494 
L 126.72546 216.711519 
L 125.370916 216.383882 
L 124.016357 216.564938 
L 122.661812 216.596236 
L 121.307253 216.976291 
L 119.952694 216.639132 
L 118.598149 216.496437 
L 117.24359 215.551533 
L 115.889045 215.44443 
L 114.534486 215.265431 
L 113.179927 215.140254 
L 111.825383 214.741433 
L 110.470824 214.071335 
L 109.116279 213.720893 
L 107.76172 213.025113 
L 106.407168 212.28267 
L 105.052616 211.390754 
L 103.698057 210.480253 
L 102.343512 209.747117 
L 100.988953 209.011768 
L 99.634401 208.674136 
L 98.279849 207.490172 
L 96.92529 206.293669 
L 95.570746 205.398761 
L 94.216187 204.677748 
L 92.861635 203.983666 
L 91.507083 203.271911 
L 90.152524 202.453175 
L 88.797979 201.576673 
L 87.44342 200.957196 
L 86.088868 200.111752 
L 84.734316 199.001505 
L 83.379764 197.90702 
L 82.025213 197.054201 
L 80.670653 195.763051 
L 79.316102 194.517677 
L 77.96155 193.389406 
L 76.606998 192.261134 
L 75.252446 191.14027 
L 73.897887 190.021045 
L 72.543335 189.0124 
L 71.188783 188.430316 
L 69.834231 187.909117 
L 68.479679 187.387917 
L 67.125124 186.866717 
L 65.770572 186.345517 
L 64.416017 185.352972 
L 63.061465 184.289686 
L 61.706913 183.226705 
L 60.352357 182.163549 
L 58.997805 181.022762 
L 57.64325 179.881973 
L 56.288698 178.741186 
L 54.934146 177.6004 
L 53.579591 176.45961 
L 52.225039 175.559545 
z
" clip-path="url(#pd374cfe006)" style="fill: #008000; fill-opacity: 0.15"/>
   </g>
   <g id="matplotlib.axis_2">
    <g id="xtick_4">
     <g id="line2d_4">
      <g>
       <use xlink:href="#mfe7b1782ab" x="67.383598" y="320.24" style="stroke: #000000; stroke-width: 0.8"/>
      </g>
     </g>
     <g id="text_3">
      <!-- 2 -->
      <g transform="translate(64.202348 334.838438) scale(0.1 -0.1)">
       <defs>
        <path id="DejaVuSans-32" d="M 1228 531 
L 3431 531 
L 3431 0 
L 469 0 
L 469 531 
Q 828 903 1448 1529 
Q 2069 2156 2228 2338 
Q 2531 2678 2651 2914 
Q 2772 3150 2772 3378 
Q 2772 3750 2511 3984 
Q 2250 4219 1831 4219 
Q 1534 4219 1204 4116 
Q 875 4013 500 3803 
L 500 4441 
Q 881 4594 1212 4672 
Q 1544 4750 1819 4750 
Q 2544 4750 2975 4387 
Q 3406 4025 3406 3419 
Q 3406 3131 3298 2873 
Q 3191 2616 2906 2266 
Q 2828 2175 2409 1742 
Q 1991 1309 1228 531 
z
" transform="scale(0.015625)"/>
       </defs>
       <use xlink:href="#DejaVuSans-32"/>
      </g>
     </g>
    </g>
    <g id="xtick_5">
     <g id="line2d_5">
      <g>
       <use xlink:href="#mfe7b1782ab" x="127.942912" y="320.24" style="stroke: #000000; stroke-width: 0.8"/>
      </g>
     </g>
     <g id="text_4">
      <!-- 4 -->
      <g transform="translate(124.761662 334.838438) scale(0.1 -0.1)">
       <defs>
        <path id="DejaVuSans-34" d="M 2419 4116 
L 825 1625 
L 2419 1625 
L 2419 4116 
z
M 2253 4666 
L 3047 4666 
L 3047 1625 
L 3713 1625 
L 3713 1100 
L 3047 1100 
L 3047 0 
L 2419 0 
L 2419 1100 
L 313 1100 
L 313 1709 
L 2253 4666 
z
" transform="scale(0.015625)"/>
       </defs>
       <use xlink:href="#DejaVuSans-34"/>
      </g>
     </g>
    </g>
    <g id="xtick_6">
     <g id="line2d_6">
      <g>
       <use xlink:href="#mfe7b1782ab" x="188.502226" y="320.24" style="stroke: #000000; stroke-width: 0.8"/>
      </g>
     </g>
     <g id="text_5">
      <!-- 6 -->
      <g transform="translate(185.320976 334.838438) scale(0.1 -0.1)">
       <defs>
        <path id="DejaVuSans-36" d="M 2113 2584 
Q 1688 2584 1439 2293 
Q 1191 2003 1191 1497 
Q 1191 994 1439 701 
Q 1688 409 2113 409 
Q 2538 409 2786 701 
Q 3034 994 3034 1497 
Q 3034 2003 2786 2293 
Q 2538 2584 2113 2584 
z
M 3366 4563 
L 3366 3988 
Q 3128 4100 2886 4159 
Q 2644 4219 2406 4219 
Q 1781 4219 1451 3797 
Q 1122 3375 1075 2522 
Q 1259 2794 1537 2939 
Q 1816 3084 2150 3084 
Q 2853 3084 3261 2657 
Q 3669 2231 3669 1497 
Q 3669 778 3244 343 
Q 2819 -91 2113 -91 
Q 1303 -91 875 529 
Q 447 1150 447 2328 
Q 447 3434 972 4092 
Q 1497 4750 2381 4750 
Q 2619 4750 2861 4703 
Q 3103 4656 3366 4563 
z
" transform="scale(0.015625)"/>
       </defs>
       <use xlink:href="#DejaVuSans-36"/>
      </g>
     </g>
    </g>
    <g id="text_6">
     <!-- dec temp -->
     <g transform="translate(95.605114 348.516563) scale(0.1 -0.1)">
      <defs>
       <path id="DejaVuSans-64" d="M 2906 2969 
L 2906 4863 
L 3481 4863 
L 3481 0 
L 2906 0 
L 2906 525 
Q 2725 213 2448 61 
Q 2172 -91 1784 -91 
Q 1150 -91 751 415 
Q 353 922 353 1747 
Q 353 2572 751 3078 
Q 1150 3584 1784 3584 
Q 2172 3584 2448 3432 
Q 2725 3281 2906 2969 
z
M 947 1747 
Q 947 1113 1208 752 
Q 1469 391 1925 391 
Q 2381 391 2643 752 
Q 2906 1113 2906 1747 
Q 2906 2381 2643 2742 
Q 2381 3103 1925 3103 
Q 1469 3103 1208 2742 
Q 947 2381 947 1747 
z
" transform="scale(0.015625)"/>
       <path id="DejaVuSans-65" d="M 3597 1894 
L 3597 1613 
L 953 1613 
Q 991 1019 1311 708 
Q 1631 397 2203 397 
Q 2534 397 2845 478 
Q 3156 559 3463 722 
L 3463 178 
Q 3153 47 2828 -22 
Q 2503 -91 2169 -91 
Q 1331 -91 842 396 
Q 353 884 353 1716 
Q 353 2575 817 3079 
Q 1281 3584 2069 3584 
Q 2775 3584 3186 3129 
Q 3597 2675 3597 1894 
z
M 3022 2063 
Q 3016 2534 2758 2815 
Q 2500 3097 2075 3097 
Q 1594 3097 1305 2825 
Q 1016 2553 972 2059 
L 3022 2063 
z
" transform="scale(0.015625)"/>
       <path id="DejaVuSans-63" d="M 3122 3366 
L 3122 2828 
Q 2878 2963 2633 3030 
Q 2388 3097 2138 3097 
Q 1578 3097 1268 2742 
Q 959 2388 959 1747 
Q 959 1106 1268 751 
Q 1578 397 2138 397 
Q 2388 397 2633 464 
Q 2878 531 3122 666 
L 3122 134 
Q 2881 22 2623 -34 
Q 2366 -91 2075 -91 
Q 1284 -91 818 406 
Q 353 903 353 1747 
Q 353 2603 823 3093 
Q 1294 3584 2113 3584 
Q 2378 3584 2631 3529 
Q 2884 3475 3122 3366 
z
" transform="scale(0.015625)"/>
       <path id="DejaVuSans-74" d="M 1172 4494 
L 1172 3500 
L 2356 3500 
L 2356 3053 
L 1172 3053 
L 1172 1153 
Q 1172 725 1289 603 
Q 1406 481 1766 481 
L 2356 481 
L 2356 0 
L 1766 0 
Q 1100 0 847 248 
Q 594 497 594 1153 
L 594 3053 
L 172 3053 
L 172 3500 
L 594 3500 
L 594 4494 
L 1172 4494 
z
" transform="scale(0.015625)"/>
       <path id="DejaVuSans-6d" d="M 3328 2828 
Q 3544 3216 3844 3400 
Q 4144 3584 4550 3584 
Q 5097 3584 5394 3201 
Q 5691 2819 5691 2113 
L 5691 0 
L 5113 0 
L 5113 2094 
Q 5113 2597 4934 2840 
Q 4756 3084 4391 3084 
Q 3944 3084 3684 2787 
Q 3425 2491 3425 1978 
L 3425 0 
L 2847 0 
L 2847 2094 
Q 2847 2600 2669 2842 
Q 2491 3084 2119 3084 
Q 1678 3084 1418 2786 
Q 1159 2488 1159 1978 
L 1159 0 
L 581 0 
L 581 3500 
L 1159 3500 
L 1159 2956 
Q 1356 3278 1631 3431 
Q 1906 3584 2284 3584 
Q 2666 3584 2933 3390 
Q 3200 3197 3328 2828 
z
" transform="scale(0.015625)"/>
      </defs>
      <use xlink:href="#DejaVuSans-64"/>
      <use xlink:href="#DejaVuSans-65" transform="translate(63.476562 0)"/>
      <use xlink:href="#DejaVuSans-63" transform="translate(125 0)"/>
      <use xlink:href="#DejaVuSans-20" transform="translate(179.980469 0)"/>
      <use xlink:href="#DejaVuSans-74" transform="translate(211.767578 0)"/>
      <use xlink:href="#DejaVuSans-65" transform="translate(250.976562 0)"/>
      <use xlink:href="#DejaVuSans-6d" transform="translate(312.5 0)"/>
      <use xlink:href="#DejaVuSans-70" transform="translate(409.912109 0)"/>
     </g>
    </g>
   </g>
   <g id="matplotlib.axis_3">
    <g id="ytick_1">
     <g id="line2d_7">
      <defs>
       <path id="m0864a3f192" d="M 0 0 
L -3.5 0 
" style="stroke: #000000; stroke-width: 0.8"/>
      </defs>
      <g>
       <use xlink:href="#m0864a3f192" x="45.52" y="314.913376" style="stroke: #000000; stroke-width: 0.8"/>
      </g>
     </g>
     <g id="text_7">
      <!-- 0.0 -->
      <g transform="translate(22.616875 318.712595) scale(0.1 -0.1)">
       <use xlink:href="#DejaVuSans-30"/>
       <use xlink:href="#DejaVuSans-2e" transform="translate(63.623047 0)"/>
       <use xlink:href="#DejaVuSans-30" transform="translate(95.410156 0)"/>
      </g>
     </g>
    </g>
    <g id="ytick_2">
     <g id="line2d_8">
      <g>
       <use xlink:href="#m0864a3f192" x="45.52" y="287.703503" style="stroke: #000000; stroke-width: 0.8"/>
      </g>
     </g>
     <g id="text_8">
      <!-- 0.2 -->
      <g transform="translate(22.616875 291.502722) scale(0.1 -0.1)">
       <use xlink:href="#DejaVuSans-30"/>
       <use xlink:href="#DejaVuSans-2e" transform="translate(63.623047 0)"/>
       <use xlink:href="#DejaVuSans-32" transform="translate(95.410156 0)"/>
      </g>
     </g>
    </g>
    <g id="ytick_3">
     <g id="line2d_9">
      <g>
       <use xlink:href="#m0864a3f192" x="45.52" y="260.49363" style="stroke: #000000; stroke-width: 0.8"/>
      </g>
     </g>
     <g id="text_9">
      <!-- 0.4 -->
      <g transform="translate(22.616875 264.292849) scale(0.1 -0.1)">
       <use xlink:href="#DejaVuSans-30"/>
       <use xlink:href="#DejaVuSans-2e" transform="translate(63.623047 0)"/>
       <use xlink:href="#DejaVuSans-34" transform="translate(95.410156 0)"/>
      </g>
     </g>
    </g>
    <g id="ytick_4">
     <g id="line2d_10">
      <g>
       <use xlink:href="#m0864a3f192" x="45.52" y="233.283757" style="stroke: #000000; stroke-width: 0.8"/>
      </g>
     </g>
     <g id="text_10">
      <!-- 0.6 -->
      <g transform="translate(22.616875 237.082976) scale(0.1 -0.1)">
       <use xlink:href="#DejaVuSans-30"/>
       <use xlink:href="#DejaVuSans-2e" transform="translate(63.623047 0)"/>
       <use xlink:href="#DejaVuSans-36" transform="translate(95.410156 0)"/>
      </g>
     </g>
    </g>
    <g id="ytick_5">
     <g id="line2d_11">
      <g>
       <use xlink:href="#m0864a3f192" x="45.52" y="206.073884" style="stroke: #000000; stroke-width: 0.8"/>
      </g>
     </g>
     <g id="text_11">
      <!-- 0.8 -->
      <g transform="translate(22.616875 209.873103) scale(0.1 -0.1)">
       <defs>
        <path id="DejaVuSans-38" d="M 2034 2216 
Q 1584 2216 1326 1975 
Q 1069 1734 1069 1313 
Q 1069 891 1326 650 
Q 1584 409 2034 409 
Q 2484 409 2743 651 
Q 3003 894 3003 1313 
Q 3003 1734 2745 1975 
Q 2488 2216 2034 2216 
z
M 1403 2484 
Q 997 2584 770 2862 
Q 544 3141 544 3541 
Q 544 4100 942 4425 
Q 1341 4750 2034 4750 
Q 2731 4750 3128 4425 
Q 3525 4100 3525 3541 
Q 3525 3141 3298 2862 
Q 3072 2584 2669 2484 
Q 3125 2378 3379 2068 
Q 3634 1759 3634 1313 
Q 3634 634 3220 271 
Q 2806 -91 2034 -91 
Q 1263 -91 848 271 
Q 434 634 434 1313 
Q 434 1759 690 2068 
Q 947 2378 1403 2484 
z
M 1172 3481 
Q 1172 3119 1398 2916 
Q 1625 2713 2034 2713 
Q 2441 2713 2670 2916 
Q 2900 3119 2900 3481 
Q 2900 3844 2670 4047 
Q 2441 4250 2034 4250 
Q 1625 4250 1398 4047 
Q 1172 3844 1172 3481 
z
" transform="scale(0.015625)"/>
       </defs>
       <use xlink:href="#DejaVuSans-30"/>
       <use xlink:href="#DejaVuSans-2e" transform="translate(63.623047 0)"/>
       <use xlink:href="#DejaVuSans-38" transform="translate(95.410156 0)"/>
      </g>
     </g>
    </g>
    <g id="ytick_6">
     <g id="line2d_12">
      <g>
       <use xlink:href="#m0864a3f192" x="45.52" y="178.864011" style="stroke: #000000; stroke-width: 0.8"/>
      </g>
     </g>
     <g id="text_12">
      <!-- 1.0 -->
      <g transform="translate(22.616875 182.66323) scale(0.1 -0.1)">
       <use xlink:href="#DejaVuSans-31"/>
       <use xlink:href="#DejaVuSans-2e" transform="translate(63.623047 0)"/>
       <use xlink:href="#DejaVuSans-30" transform="translate(95.410156 0)"/>
      </g>
     </g>
    </g>
    <g id="text_13">
     <!-- reward rate -->
     <g transform="translate(16.537188 273.515156) rotate(-90) scale(0.1 -0.1)">
      <defs>
       <path id="DejaVuSans-77" d="M 269 3500 
L 844 3500 
L 1563 769 
L 2278 3500 
L 2956 3500 
L 3675 769 
L 4391 3500 
L 4966 3500 
L 4050 0 
L 3372 0 
L 2619 2869 
L 1863 0 
L 1184 0 
L 269 3500 
z
" transform="scale(0.015625)"/>
       <path id="DejaVuSans-61" d="M 2194 1759 
Q 1497 1759 1228 1600 
Q 959 1441 959 1056 
Q 959 750 1161 570 
Q 1363 391 1709 391 
Q 2188 391 2477 730 
Q 2766 1069 2766 1631 
L 2766 1759 
L 2194 1759 
z
M 3341 1997 
L 3341 0 
L 2766 0 
L 2766 531 
Q 2569 213 2275 61 
Q 1981 -91 1556 -91 
Q 1019 -91 701 211 
Q 384 513 384 1019 
Q 384 1609 779 1909 
Q 1175 2209 1959 2209 
L 2766 2209 
L 2766 2266 
Q 2766 2663 2505 2880 
Q 2244 3097 1772 3097 
Q 1472 3097 1187 3025 
Q 903 2953 641 2809 
L 641 3341 
Q 956 3463 1253 3523 
Q 1550 3584 1831 3584 
Q 2591 3584 2966 3190 
Q 3341 2797 3341 1997 
z
" transform="scale(0.015625)"/>
      </defs>
      <use xlink:href="#DejaVuSans-72"/>
      <use xlink:href="#DejaVuSans-65" transform="translate(38.863281 0)"/>
      <use xlink:href="#DejaVuSans-77" transform="translate(100.386719 0)"/>
      <use xlink:href="#DejaVuSans-61" transform="translate(182.173828 0)"/>
      <use xlink:href="#DejaVuSans-72" transform="translate(243.453125 0)"/>
      <use xlink:href="#DejaVuSans-64" transform="translate(282.816406 0)"/>
      <use xlink:href="#DejaVuSans-20" transform="translate(346.292969 0)"/>
      <use xlink:href="#DejaVuSans-72" transform="translate(378.080078 0)"/>
      <use xlink:href="#DejaVuSans-61" transform="translate(419.193359 0)"/>
      <use xlink:href="#DejaVuSans-74" transform="translate(480.472656 0)"/>
      <use xlink:href="#DejaVuSans-65" transform="translate(519.681641 0)"/>
     </g>
    </g>
   </g>
   <g id="line2d_13">
    <path d="M 52.225039 221.727887 
L 53.579591 222.07689 
L 54.934146 222.425894 
L 56.288698 222.774896 
L 57.64325 223.123899 
L 58.997805 223.472903 
L 60.352357 223.821906 
L 61.706913 224.170909 
L 63.061465 224.519912 
L 64.416017 224.868915 
L 65.770572 225.217918 
L 67.125124 225.566921 
L 68.479679 225.915925 
L 69.834231 226.264928 
L 71.188783 226.61393 
L 72.543335 226.962933 
L 73.897887 227.311936 
L 75.252446 227.66094 
L 76.606998 228.009943 
L 77.96155 228.358946 
L 79.316102 228.707949 
L 80.670653 229.056951 
L 82.025213 229.405956 
L 83.379764 229.754959 
L 84.734316 230.103961 
L 86.088868 230.452964 
L 87.44342 230.801967 
L 88.797979 231.150971 
L 90.152524 231.499972 
L 91.507083 231.848977 
L 92.861635 232.19798 
L 94.216187 232.546982 
L 95.570746 232.895987 
L 96.92529 233.244988 
L 98.279849 233.593992 
L 99.634401 233.942995 
L 100.988953 234.291998 
L 102.343512 234.641003 
L 103.698057 234.990003 
L 105.052616 235.339008 
L 106.407168 235.688011 
L 107.76172 236.037014 
L 109.116279 236.386018 
L 110.470824 236.735019 
L 111.825383 237.084024 
L 113.179927 237.433024 
L 114.534486 237.782029 
L 115.889045 238.131034 
L 117.24359 238.480035 
L 118.598149 238.829039 
L 119.952694 239.17804 
L 121.307253 239.527045 
L 122.661812 239.876049 
L 124.016357 240.22505 
L 125.370916 240.574055 
L 126.72546 240.923056 
L 128.08002 241.27206 
L 129.434579 241.621065 
L 130.789123 241.970066 
L 132.143682 242.31907 
L 133.498227 242.668071 
L 134.852786 243.017076 
L 136.207345 243.36608 
L 137.56189 243.715081 
L 138.916449 244.064086 
L 140.270994 244.413087 
L 141.625553 244.762091 
L 142.980112 245.111096 
L 144.334656 245.460097 
L 145.689216 245.809101 
L 147.04376 246.158102 
L 148.398319 246.507107 
L 149.752878 246.856111 
L 151.107423 247.205112 
L 152.461982 247.554117 
L 153.816527 247.903118 
L 155.171086 248.252122 
L 156.525631 248.601123 
L 157.88019 248.950128 
L 159.234749 249.299132 
L 160.589293 249.648133 
L 161.943853 249.997138 
L 163.298397 250.346139 
L 164.652956 250.695143 
L 166.007515 251.044148 
L 167.36206 251.393149 
L 168.716619 251.742153 
L 170.071164 252.091154 
L 171.425723 252.440159 
L 172.780282 252.789163 
L 174.134827 253.138164 
L 175.489386 253.487169 
L 176.843945 253.836174 
L 178.198489 254.185174 
L 179.553049 254.534179 
L 180.907593 254.88318 
L 182.262152 255.232184 
L 183.616711 255.581189 
L 184.971256 255.93019 
L 186.325815 256.279195 
" clip-path="url(#pd374cfe006)" style="fill: none; stroke: #008000; stroke-opacity: 0.6; stroke-width: 2.25; stroke-linecap: square"/>
   </g>
   <g id="patch_5">
    <path d="M 45.52 320.24 
L 45.52 168.67 
" style="fill: none; stroke: #000000; stroke-width: 0.8; stroke-linejoin: miter; stroke-linecap: square"/>
   </g>
   <g id="patch_6">
    <path d="M 45.52 320.24 
L 193.030854 320.24 
" style="fill: none; stroke: #000000; stroke-width: 0.8; stroke-linejoin: miter; stroke-linecap: square"/>
   </g>
   <g id="text_14">
    <!-- r = -0.28  -->
    <g transform="translate(60.271085 183.827) scale(0.1 -0.1)">
     <defs>
      <path id="DejaVuSans-2d" d="M 313 2009 
L 1997 2009 
L 1997 1497 
L 313 1497 
L 313 2009 
z
" transform="scale(0.015625)"/>
     </defs>
     <use xlink:href="#DejaVuSans-72"/>
     <use xlink:href="#DejaVuSans-20" transform="translate(41.113281 0)"/>
     <use xlink:href="#DejaVuSans-3d" transform="translate(72.900391 0)"/>
     <use xlink:href="#DejaVuSans-20" transform="translate(156.689453 0)"/>
     <use xlink:href="#DejaVuSans-2d" transform="translate(188.476562 0)"/>
     <use xlink:href="#DejaVuSans-30" transform="translate(224.560547 0)"/>
     <use xlink:href="#DejaVuSans-2e" transform="translate(288.183594 0)"/>
     <use xlink:href="#DejaVuSans-32" transform="translate(319.970703 0)"/>
     <use xlink:href="#DejaVuSans-38" transform="translate(383.59375 0)"/>
     <use xlink:href="#DejaVuSans-20" transform="translate(447.216797 0)"/>
    </g>
   </g>
   <g id="text_15">
    <!-- p = 0.317 -->
    <g transform="translate(119.275427 183.827) scale(0.1 -0.1)">
     <defs>
      <path id="DejaVuSans-33" d="M 2597 2516 
Q 3050 2419 3304 2112 
Q 3559 1806 3559 1356 
Q 3559 666 3084 287 
Q 2609 -91 1734 -91 
Q 1441 -91 1130 -33 
Q 819 25 488 141 
L 488 750 
Q 750 597 1062 519 
Q 1375 441 1716 441 
Q 2309 441 2620 675 
Q 2931 909 2931 1356 
Q 2931 1769 2642 2001 
Q 2353 2234 1838 2234 
L 1294 2234 
L 1294 2753 
L 1863 2753 
Q 2328 2753 2575 2939 
Q 2822 3125 2822 3475 
Q 2822 3834 2567 4026 
Q 2313 4219 1838 4219 
Q 1578 4219 1281 4162 
Q 984 4106 628 3988 
L 628 4550 
Q 988 4650 1302 4700 
Q 1616 4750 1894 4750 
Q 2613 4750 3031 4423 
Q 3450 4097 3450 3541 
Q 3450 3153 3228 2886 
Q 3006 2619 2597 2516 
z
" transform="scale(0.015625)"/>
      <path id="DejaVuSans-37" d="M 525 4666 
L 3525 4666 
L 3525 4397 
L 1831 0 
L 1172 0 
L 2766 4134 
L 525 4134 
L 525 4666 
z
" transform="scale(0.015625)"/>
     </defs>
     <use xlink:href="#DejaVuSans-70"/>
     <use xlink:href="#DejaVuSans-20" transform="translate(63.476562 0)"/>
     <use xlink:href="#DejaVuSans-3d" transform="translate(95.263672 0)"/>
     <use xlink:href="#DejaVuSans-20" transform="translate(179.052734 0)"/>
     <use xlink:href="#DejaVuSans-30" transform="translate(210.839844 0)"/>
     <use xlink:href="#DejaVuSans-2e" transform="translate(274.462891 0)"/>
     <use xlink:href="#DejaVuSans-33" transform="translate(306.25 0)"/>
     <use xlink:href="#DejaVuSans-31" transform="translate(369.873047 0)"/>
     <use xlink:href="#DejaVuSans-37" transform="translate(433.496094 0)"/>
    </g>
   </g>
  </g>
  <g id="axes_3">
   <g id="patch_7">
    <path d="M 201.245012 320.24 
L 348.755866 320.24 
L 348.755866 168.67 
L 201.245012 168.67 
z
" style="fill: #ffffff"/>
   </g>
   <g id="matplotlib.axis_4">
    <g id="xtick_7">
     <g id="line2d_14">
      <g>
       <use xlink:href="#mfe7b1782ab" x="206.381256" y="320.24" style="stroke: #000000; stroke-width: 0.8"/>
      </g>
     </g>
     <g id="text_16">
      <!-- 0.0 -->
      <g transform="translate(198.429693 334.838438) scale(0.1 -0.1)">
       <use xlink:href="#DejaVuSans-30"/>
       <use xlink:href="#DejaVuSans-2e" transform="translate(63.623047 0)"/>
       <use xlink:href="#DejaVuSans-30" transform="translate(95.410156 0)"/>
      </g>
     </g>
    </g>
    <g id="xtick_8">
     <g id="line2d_15">
      <g>
       <use xlink:href="#mfe7b1782ab" x="274.661561" y="320.24" style="stroke: #000000; stroke-width: 0.8"/>
      </g>
     </g>
     <g id="text_17">
      <!-- 0.5 -->
      <g transform="translate(266.709999 334.838438) scale(0.1 -0.1)">
       <defs>
        <path id="DejaVuSans-35" d="M 691 4666 
L 3169 4666 
L 3169 4134 
L 1269 4134 
L 1269 2991 
Q 1406 3038 1543 3061 
Q 1681 3084 1819 3084 
Q 2600 3084 3056 2656 
Q 3513 2228 3513 1497 
Q 3513 744 3044 326 
Q 2575 -91 1722 -91 
Q 1428 -91 1123 -41 
Q 819 9 494 109 
L 494 744 
Q 775 591 1075 516 
Q 1375 441 1709 441 
Q 2250 441 2565 725 
Q 2881 1009 2881 1497 
Q 2881 1984 2565 2268 
Q 2250 2553 1709 2553 
Q 1456 2553 1204 2497 
Q 953 2441 691 2322 
L 691 4666 
z
" transform="scale(0.015625)"/>
       </defs>
       <use xlink:href="#DejaVuSans-30"/>
       <use xlink:href="#DejaVuSans-2e" transform="translate(63.623047 0)"/>
       <use xlink:href="#DejaVuSans-35" transform="translate(95.410156 0)"/>
      </g>
     </g>
    </g>
    <g id="xtick_9">
     <g id="line2d_16">
      <g>
       <use xlink:href="#mfe7b1782ab" x="342.941866" y="320.24" style="stroke: #000000; stroke-width: 0.8"/>
      </g>
     </g>
     <g id="text_18">
      <!-- 1.0 -->
      <g transform="translate(334.990304 334.838438) scale(0.1 -0.1)">
       <use xlink:href="#DejaVuSans-31"/>
       <use xlink:href="#DejaVuSans-2e" transform="translate(63.623047 0)"/>
       <use xlink:href="#DejaVuSans-30" transform="translate(95.410156 0)"/>
      </g>
     </g>
    </g>
    <g id="text_19">
     <!-- reward rate -->
     <g transform="translate(245.940283 348.516563) scale(0.1 -0.1)">
      <use xlink:href="#DejaVuSans-72"/>
      <use xlink:href="#DejaVuSans-65" transform="translate(38.863281 0)"/>
      <use xlink:href="#DejaVuSans-77" transform="translate(100.386719 0)"/>
      <use xlink:href="#DejaVuSans-61" transform="translate(182.173828 0)"/>
      <use xlink:href="#DejaVuSans-72" transform="translate(243.453125 0)"/>
      <use xlink:href="#DejaVuSans-64" transform="translate(282.816406 0)"/>
      <use xlink:href="#DejaVuSans-20" transform="translate(346.292969 0)"/>
      <use xlink:href="#DejaVuSans-72" transform="translate(378.080078 0)"/>
      <use xlink:href="#DejaVuSans-61" transform="translate(419.193359 0)"/>
      <use xlink:href="#DejaVuSans-74" transform="translate(480.472656 0)"/>
      <use xlink:href="#DejaVuSans-65" transform="translate(519.681641 0)"/>
     </g>
    </g>
   </g>
   <g id="patch_8">
    <path d="M 201.245012 320.24 
L 348.755866 320.24 
" style="fill: none; stroke: #000000; stroke-width: 0.8; stroke-linejoin: miter; stroke-linecap: square"/>
   </g>
   <g id="text_20">
    <!-- r = 1.00  -->
    <g transform="translate(215.996097 183.827) scale(0.1 -0.1)">
     <use xlink:href="#DejaVuSans-72"/>
     <use xlink:href="#DejaVuSans-20" transform="translate(41.113281 0)"/>
     <use xlink:href="#DejaVuSans-3d" transform="translate(72.900391 0)"/>
     <use xlink:href="#DejaVuSans-20" transform="translate(156.689453 0)"/>
     <use xlink:href="#DejaVuSans-31" transform="translate(188.476562 0)"/>
     <use xlink:href="#DejaVuSans-2e" transform="translate(252.099609 0)"/>
     <use xlink:href="#DejaVuSans-30" transform="translate(283.886719 0)"/>
     <use xlink:href="#DejaVuSans-30" transform="translate(347.509766 0)"/>
     <use xlink:href="#DejaVuSans-20" transform="translate(411.132812 0)"/>
    </g>
   </g>
   <g id="text_21">
    <!-- p = 0.000 -->
    <g transform="translate(275.000439 183.827) scale(0.1 -0.1)">
     <use xlink:href="#DejaVuSans-70"/>
     <use xlink:href="#DejaVuSans-20" transform="translate(63.476562 0)"/>
     <use xlink:href="#DejaVuSans-3d" transform="translate(95.263672 0)"/>
     <use xlink:href="#DejaVuSans-20" transform="translate(179.052734 0)"/>
     <use xlink:href="#DejaVuSans-30" transform="translate(210.839844 0)"/>
     <use xlink:href="#DejaVuSans-2e" transform="translate(274.462891 0)"/>
     <use xlink:href="#DejaVuSans-30" transform="translate(306.25 0)"/>
     <use xlink:href="#DejaVuSans-30" transform="translate(369.873047 0)"/>
     <use xlink:href="#DejaVuSans-30" transform="translate(433.496094 0)"/>
    </g>
   </g>
  </g>
  <g id="axes_4">
   <g id="patch_9">
    <path d="M 52.225039 160.17 
L 79.045194 160.17 
L 79.045194 51.905714 
L 52.225039 51.905714 
z
" clip-path="url(#pa8fcff877f)" style="fill: #1f77b4; fill-opacity: 0.75; stroke: #000000; stroke-linejoin: miter"/>
   </g>
   <g id="patch_10">
    <path d="M 79.045194 160.17 
L 105.865349 160.17 
L 105.865349 51.905714 
L 79.045194 51.905714 
z
" clip-path="url(#pa8fcff877f)" style="fill: #1f77b4; fill-opacity: 0.75; stroke: #000000; stroke-linejoin: miter"/>
   </g>
   <g id="patch_11">
    <path d="M 105.865349 160.17 
L 132.685505 160.17 
L 132.685505 87.99381 
L 105.865349 87.99381 
z
" clip-path="url(#pa8fcff877f)" style="fill: #1f77b4; fill-opacity: 0.75; stroke: #000000; stroke-linejoin: miter"/>
   </g>
   <g id="patch_12">
    <path d="M 132.685505 160.17 
L 159.50566 160.17 
L 159.50566 51.905714 
L 132.685505 51.905714 
z
" clip-path="url(#pa8fcff877f)" style="fill: #1f77b4; fill-opacity: 0.75; stroke: #000000; stroke-linejoin: miter"/>
   </g>
   <g id="patch_13">
    <path d="M 159.50566 160.17 
L 186.325815 160.17 
L 186.325815 15.817619 
L 159.50566 15.817619 
z
" clip-path="url(#pa8fcff877f)" style="fill: #1f77b4; fill-opacity: 0.75; stroke: #000000; stroke-linejoin: miter"/>
   </g>
  </g>
  <g id="axes_5">
   <g id="patch_14">
    <path d="M 207.950051 320.24 
L 234.770206 320.24 
L 234.770206 248.06381 
L 207.950051 248.06381 
z
" clip-path="url(#p8f72997db0)" style="fill: #1f77b4; fill-opacity: 0.75; stroke: #000000; stroke-linejoin: miter"/>
   </g>
   <g id="patch_15">
    <path d="M 234.770206 320.24 
L 261.590361 320.24 
L 261.590361 175.887619 
L 234.770206 175.887619 
z
" clip-path="url(#p8f72997db0)" style="fill: #1f77b4; fill-opacity: 0.75; stroke: #000000; stroke-linejoin: miter"/>
   </g>
   <g id="patch_16">
    <path d="M 261.590361 320.24 
L 288.410517 320.24 
L 288.410517 211.975714 
L 261.590361 211.975714 
z
" clip-path="url(#p8f72997db0)" style="fill: #1f77b4; fill-opacity: 0.75; stroke: #000000; stroke-linejoin: miter"/>
   </g>
   <g id="patch_17">
    <path d="M 288.410517 320.24 
L 315.230672 320.24 
L 315.230672 248.06381 
L 288.410517 248.06381 
z
" clip-path="url(#p8f72997db0)" style="fill: #1f77b4; fill-opacity: 0.75; stroke: #000000; stroke-linejoin: miter"/>
   </g>
   <g id="patch_18">
    <path d="M 315.230672 320.24 
L 342.050827 320.24 
L 342.050827 175.887619 
L 315.230672 175.887619 
z
" clip-path="url(#p8f72997db0)" style="fill: #1f77b4; fill-opacity: 0.75; stroke: #000000; stroke-linejoin: miter"/>
   </g>
  </g>
 </g>
 <defs>
  <clipPath id="pd374cfe006">
   <rect x="45.52" y="168.67" width="147.510854" height="151.57"/>
  </clipPath>
  <clipPath id="pa8fcff877f">
   <rect x="45.52" y="8.6" width="147.510854" height="151.57"/>
  </clipPath>
  <clipPath id="p8f72997db0">
   <rect x="201.245012" y="168.67" width="147.510854" height="151.57"/>
  </clipPath>
 </defs>
</svg>
