<?xml version="1.0" encoding="utf-8" standalone="no"?>
<!DOCTYPE svg PUBLIC "-//W3C//DTD SVG 1.1//EN"
  "http://www.w3.org/Graphics/SVG/1.1/DTD/svg11.dtd">
<svg xmlns:xlink="http://www.w3.org/1999/xlink" width="360pt" height="360pt" viewBox="0 0 360 360" xmlns="http://www.w3.org/2000/svg" version="1.1">
 <metadata>
  <rdf:RDF xmlns:dc="http://purl.org/dc/elements/1.1/" xmlns:cc="http://creativecommons.org/ns#" xmlns:rdf="http://www.w3.org/1999/02/22-rdf-syntax-ns#">
   <cc:Work>
    <dc:type rdf:resource="http://purl.org/dc/dcmitype/StillImage"/>
    <dc:date>2025-06-12T12:50:04.270476</dc:date>
    <dc:format>image/svg+xml</dc:format>
    <dc:creator>
     <cc:Agent>
      <dc:title>Matplotlib v3.10.3, https://matplotlib.org/</dc:title>
     </cc:Agent>
    </dc:creator>
   </cc:Work>
  </rdf:RDF>
 </metadata>
 <defs>
  <style type="text/css">*{stroke-linejoin: round; stroke-linecap: butt}</style>
 </defs>
 <g id="figure_1">
  <g id="patch_1">
   <path d="M 0 360 
L 360 360 
L 360 0 
L 0 0 
z
" style="fill: #ffffff"/>
  </g>
  <g id="axes_1">
   <g id="patch_2">
    <path d="M 45.52 160.17 
L 193.912855 160.17 
L 193.912855 8.6 
L 45.52 8.6 
z
" style="fill: #ffffff"/>
   </g>
   <g id="matplotlib.axis_1">
    <g id="xtick_1">
     <g id="line2d_1">
      <defs>
       <path id="md87481b7e8" d="M 0 0 
L 0 3.5 
" style="stroke: #000000; stroke-width: 0.8"/>
      </defs>
      <g>
       <use xlink:href="#md87481b7e8" x="75.95835" y="160.17" style="stroke: #000000; stroke-width: 0.8"/>
      </g>
     </g>
    </g>
    <g id="xtick_2">
     <g id="line2d_2">
      <g>
       <use xlink:href="#md87481b7e8" x="132.714692" y="160.17" style="stroke: #000000; stroke-width: 0.8"/>
      </g>
     </g>
    </g>
    <g id="xtick_3">
     <g id="line2d_3">
      <g>
       <use xlink:href="#md87481b7e8" x="189.471035" y="160.17" style="stroke: #000000; stroke-width: 0.8"/>
      </g>
     </g>
    </g>
   </g>
   <g id="patch_3">
    <path d="M 45.52 160.17 
L 193.912855 160.17 
" style="fill: none; stroke: #000000; stroke-width: 0.8; stroke-linejoin: miter; stroke-linecap: square"/>
   </g>
   <g id="text_1">
    <!-- r = 1.00  -->
    <g transform="translate(60.359285 23.757) scale(0.1 -0.1)">
     <defs>
      <path id="DejaVuSans-72" d="M 2631 2963 
Q 2534 3019 2420 3045 
Q 2306 3072 2169 3072 
Q 1681 3072 1420 2755 
Q 1159 2438 1159 1844 
L 1159 0 
L 581 0 
L 581 3500 
L 1159 3500 
L 1159 2956 
Q 1341 3275 1631 3429 
Q 1922 3584 2338 3584 
Q 2397 3584 2469 3576 
Q 2541 3569 2628 3553 
L 2631 2963 
z
" transform="scale(0.015625)"/>
      <path id="DejaVuSans-20" transform="scale(0.015625)"/>
      <path id="DejaVuSans-3d" d="M 678 2906 
L 4684 2906 
L 4684 2381 
L 678 2381 
L 678 2906 
z
M 678 1631 
L 4684 1631 
L 4684 1100 
L 678 1100 
L 678 1631 
z
" transform="scale(0.015625)"/>
      <path id="DejaVuSans-31" d="M 794 531 
L 1825 531 
L 1825 4091 
L 703 3866 
L 703 4441 
L 1819 4666 
L 2450 4666 
L 2450 531 
L 3481 531 
L 3481 0 
L 794 0 
L 794 531 
z
" transform="scale(0.015625)"/>
      <path id="DejaVuSans-2e" d="M 684 794 
L 1344 794 
L 1344 0 
L 684 0 
L 684 794 
z
" transform="scale(0.015625)"/>
      <path id="DejaVuSans-30" d="M 2034 4250 
Q 1547 4250 1301 3770 
Q 1056 3291 1056 2328 
Q 1056 1369 1301 889 
Q 1547 409 2034 409 
Q 2525 409 2770 889 
Q 3016 1369 3016 2328 
Q 3016 3291 2770 3770 
Q 2525 4250 2034 4250 
z
M 2034 4750 
Q 2819 4750 3233 4129 
Q 3647 3509 3647 2328 
Q 3647 1150 3233 529 
Q 2819 -91 2034 -91 
Q 1250 -91 836 529 
Q 422 1150 422 2328 
Q 422 3509 836 4129 
Q 1250 4750 2034 4750 
z
" transform="scale(0.015625)"/>
     </defs>
     <use xlink:href="#DejaVuSans-72"/>
     <use xlink:href="#DejaVuSans-20" transform="translate(41.113281 0)"/>
     <use xlink:href="#DejaVuSans-3d" transform="translate(72.900391 0)"/>
     <use xlink:href="#DejaVuSans-20" transform="translate(156.689453 0)"/>
     <use xlink:href="#DejaVuSans-31" transform="translate(188.476562 0)"/>
     <use xlink:href="#DejaVuSans-2e" transform="translate(252.099609 0)"/>
     <use xlink:href="#DejaVuSans-30" transform="translate(283.886719 0)"/>
     <use xlink:href="#DejaVuSans-30" transform="translate(347.509766 0)"/>
     <use xlink:href="#DejaVuSans-20" transform="translate(411.132812 0)"/>
    </g>
   </g>
   <g id="text_2">
    <!-- p = 0.000 -->
    <g transform="translate(119.716427 23.757) scale(0.1 -0.1)">
     <defs>
      <path id="DejaVuSans-70" d="M 1159 525 
L 1159 -1331 
L 581 -1331 
L 581 3500 
L 1159 3500 
L 1159 2969 
Q 1341 3281 1617 3432 
Q 1894 3584 2278 3584 
Q 2916 3584 3314 3078 
Q 3713 2572 3713 1747 
Q 3713 922 3314 415 
Q 2916 -91 2278 -91 
Q 1894 -91 1617 61 
Q 1341 213 1159 525 
z
M 3116 1747 
Q 3116 2381 2855 2742 
Q 2594 3103 2138 3103 
Q 1681 3103 1420 2742 
Q 1159 2381 1159 1747 
Q 1159 1113 1420 752 
Q 1681 391 2138 391 
Q 2594 391 2855 752 
Q 3116 1113 3116 1747 
z
" transform="scale(0.015625)"/>
     </defs>
     <use xlink:href="#DejaVuSans-70"/>
     <use xlink:href="#DejaVuSans-20" transform="translate(63.476562 0)"/>
     <use xlink:href="#DejaVuSans-3d" transform="translate(95.263672 0)"/>
     <use xlink:href="#DejaVuSans-20" transform="translate(179.052734 0)"/>
     <use xlink:href="#DejaVuSans-30" transform="translate(210.839844 0)"/>
     <use xlink:href="#DejaVuSans-2e" transform="translate(274.462891 0)"/>
     <use xlink:href="#DejaVuSans-30" transform="translate(306.25 0)"/>
     <use xlink:href="#DejaVuSans-30" transform="translate(369.873047 0)"/>
     <use xlink:href="#DejaVuSans-30" transform="translate(433.496094 0)"/>
    </g>
   </g>
  </g>
  <g id="axes_2">
   <g id="patch_4">
    <path d="M 45.52 320.24 
L 193.912855 320.24 
L 193.912855 168.67 
L 45.52 168.67 
z
" style="fill: #ffffff"/>
   </g>
   <g id="PathCollection_1">
    <defs>
     <path id="md4f5c21219" d="M 0 3 
C 0.795609 3 1.55874 2.683901 2.12132 2.12132 
C 2.683901 1.55874 3 0.795609 3 0 
C 3 -0.795609 2.683901 -1.55874 2.12132 -2.12132 
C 1.55874 -2.683901 0.795609 -3 0 -3 
C -0.795609 -3 -1.55874 -2.683901 -2.12132 -2.12132 
C -2.683901 -1.55874 -3 -0.795609 -3 0 
C -3 0.795609 -2.683901 1.55874 -2.12132 2.12132 
C -1.55874 2.683901 -0.795609 3 0 3 
z
" style="stroke: #1f77b4; stroke-opacity: 0.8"/>
    </defs>
    <g clip-path="url(#p38a0441b16)">
     <use xlink:href="#md4f5c21219" x="108.946239" y="272.88445" style="fill: #1f77b4; fill-opacity: 0.8; stroke: #1f77b4; stroke-opacity: 0.8"/>
     <use xlink:href="#md4f5c21219" x="131.998943" y="273.982767" style="fill: #1f77b4; fill-opacity: 0.8; stroke: #1f77b4; stroke-opacity: 0.8"/>
     <use xlink:href="#md4f5c21219" x="160.589319" y="288.535563" style="fill: #1f77b4; fill-opacity: 0.8; stroke: #1f77b4; stroke-opacity: 0.8"/>
     <use xlink:href="#md4f5c21219" x="87.202578" y="207.515146" style="fill: #1f77b4; fill-opacity: 0.8; stroke: #1f77b4; stroke-opacity: 0.8"/>
     <use xlink:href="#md4f5c21219" x="122.384393" y="247.53272" style="fill: #1f77b4; fill-opacity: 0.8; stroke: #1f77b4; stroke-opacity: 0.8"/>
     <use xlink:href="#md4f5c21219" x="176.372961" y="252.79435" style="fill: #1f77b4; fill-opacity: 0.8; stroke: #1f77b4; stroke-opacity: 0.8"/>
     <use xlink:href="#md4f5c21219" x="179.728041" y="313.350455" style="fill: #1f77b4; fill-opacity: 0.8; stroke: #1f77b4; stroke-opacity: 0.8"/>
     <use xlink:href="#md4f5c21219" x="86.047872" y="205.421115" style="fill: #1f77b4; fill-opacity: 0.8; stroke: #1f77b4; stroke-opacity: 0.8"/>
     <use xlink:href="#md4f5c21219" x="88.917756" y="243.219835" style="fill: #1f77b4; fill-opacity: 0.8; stroke: #1f77b4; stroke-opacity: 0.8"/>
     <use xlink:href="#md4f5c21219" x="164.135346" y="179.078569" style="fill: #1f77b4; fill-opacity: 0.8; stroke: #1f77b4; stroke-opacity: 0.8"/>
     <use xlink:href="#md4f5c21219" x="164.34636" y="226.915925" style="fill: #1f77b4; fill-opacity: 0.8; stroke: #1f77b4; stroke-opacity: 0.8"/>
     <use xlink:href="#md4f5c21219" x="161.396435" y="209.886632" style="fill: #1f77b4; fill-opacity: 0.8; stroke: #1f77b4; stroke-opacity: 0.8"/>
     <use xlink:href="#md4f5c21219" x="115.285087" y="238.966764" style="fill: #1f77b4; fill-opacity: 0.8; stroke: #1f77b4; stroke-opacity: 0.8"/>
     <use xlink:href="#md4f5c21219" x="118.13033" y="273.621844" style="fill: #1f77b4; fill-opacity: 0.8; stroke: #1f77b4; stroke-opacity: 0.8"/>
     <use xlink:href="#md4f5c21219" x="144.153311" y="191.272377" style="fill: #1f77b4; fill-opacity: 0.8; stroke: #1f77b4; stroke-opacity: 0.8"/>
     <use xlink:href="#md4f5c21219" x="130.53691" y="182.706141" style="fill: #1f77b4; fill-opacity: 0.8; stroke: #1f77b4; stroke-opacity: 0.8"/>
     <use xlink:href="#md4f5c21219" x="123.427909" y="175.821871" style="fill: #1f77b4; fill-opacity: 0.8; stroke: #1f77b4; stroke-opacity: 0.8"/>
     <use xlink:href="#md4f5c21219" x="149.038171" y="302.611335" style="fill: #1f77b4; fill-opacity: 0.8; stroke: #1f77b4; stroke-opacity: 0.8"/>
     <use xlink:href="#md4f5c21219" x="69.721017" y="201.674623" style="fill: #1f77b4; fill-opacity: 0.8; stroke: #1f77b4; stroke-opacity: 0.8"/>
     <use xlink:href="#md4f5c21219" x="163.483385" y="206.026176" style="fill: #1f77b4; fill-opacity: 0.8; stroke: #1f77b4; stroke-opacity: 0.8"/>
     <use xlink:href="#md4f5c21219" x="135.038827" y="306.270492" style="fill: #1f77b4; fill-opacity: 0.8; stroke: #1f77b4; stroke-opacity: 0.8"/>
     <use xlink:href="#md4f5c21219" x="153.369378" y="233.490684" style="fill: #1f77b4; fill-opacity: 0.8; stroke: #1f77b4; stroke-opacity: 0.8"/>
     <use xlink:href="#md4f5c21219" x="123.353125" y="223.537694" style="fill: #1f77b4; fill-opacity: 0.8; stroke: #1f77b4; stroke-opacity: 0.8"/>
     <use xlink:href="#md4f5c21219" x="106.193228" y="187.587547" style="fill: #1f77b4; fill-opacity: 0.8; stroke: #1f77b4; stroke-opacity: 0.8"/>
     <use xlink:href="#md4f5c21219" x="59.431283" y="299.076911" style="fill: #1f77b4; fill-opacity: 0.8; stroke: #1f77b4; stroke-opacity: 0.8"/>
     <use xlink:href="#md4f5c21219" x="181.357009" y="306.996946" style="fill: #1f77b4; fill-opacity: 0.8; stroke: #1f77b4; stroke-opacity: 0.8"/>
     <use xlink:href="#md4f5c21219" x="57.814957" y="256.470144" style="fill: #1f77b4; fill-opacity: 0.8; stroke: #1f77b4; stroke-opacity: 0.8"/>
     <use xlink:href="#md4f5c21219" x="154.766032" y="193.787814" style="fill: #1f77b4; fill-opacity: 0.8; stroke: #1f77b4; stroke-opacity: 0.8"/>
     <use xlink:href="#md4f5c21219" x="187.167725" y="213.518515" style="fill: #1f77b4; fill-opacity: 0.8; stroke: #1f77b4; stroke-opacity: 0.8"/>
     <use xlink:href="#md4f5c21219" x="144.726354" y="197.897281" style="fill: #1f77b4; fill-opacity: 0.8; stroke: #1f77b4; stroke-opacity: 0.8"/>
     <use xlink:href="#md4f5c21219" x="102.356837" y="187.280321" style="fill: #1f77b4; fill-opacity: 0.8; stroke: #1f77b4; stroke-opacity: 0.8"/>
     <use xlink:href="#md4f5c21219" x="136.785778" y="230.688222" style="fill: #1f77b4; fill-opacity: 0.8; stroke: #1f77b4; stroke-opacity: 0.8"/>
     <use xlink:href="#md4f5c21219" x="108.322553" y="232.488202" style="fill: #1f77b4; fill-opacity: 0.8; stroke: #1f77b4; stroke-opacity: 0.8"/>
     <use xlink:href="#md4f5c21219" x="164.173573" y="182.886821" style="fill: #1f77b4; fill-opacity: 0.8; stroke: #1f77b4; stroke-opacity: 0.8"/>
     <use xlink:href="#md4f5c21219" x="87.22747" y="187.141409" style="fill: #1f77b4; fill-opacity: 0.8; stroke: #1f77b4; stroke-opacity: 0.8"/>
     <use xlink:href="#md4f5c21219" x="67.546138" y="262.175844" style="fill: #1f77b4; fill-opacity: 0.8; stroke: #1f77b4; stroke-opacity: 0.8"/>
     <use xlink:href="#md4f5c21219" x="175.811325" y="300.091562" style="fill: #1f77b4; fill-opacity: 0.8; stroke: #1f77b4; stroke-opacity: 0.8"/>
     <use xlink:href="#md4f5c21219" x="96.588658" y="231.995663" style="fill: #1f77b4; fill-opacity: 0.8; stroke: #1f77b4; stroke-opacity: 0.8"/>
     <use xlink:href="#md4f5c21219" x="97.487837" y="251.281364" style="fill: #1f77b4; fill-opacity: 0.8; stroke: #1f77b4; stroke-opacity: 0.8"/>
     <use xlink:href="#md4f5c21219" x="56.690738" y="244.182941" style="fill: #1f77b4; fill-opacity: 0.8; stroke: #1f77b4; stroke-opacity: 0.8"/>
     <use xlink:href="#md4f5c21219" x="100.639047" y="254.397491" style="fill: #1f77b4; fill-opacity: 0.8; stroke: #1f77b4; stroke-opacity: 0.8"/>
     <use xlink:href="#md4f5c21219" x="103.336192" y="301.186516" style="fill: #1f77b4; fill-opacity: 0.8; stroke: #1f77b4; stroke-opacity: 0.8"/>
     <use xlink:href="#md4f5c21219" x="173.604741" y="240.090005" style="fill: #1f77b4; fill-opacity: 0.8; stroke: #1f77b4; stroke-opacity: 0.8"/>
     <use xlink:href="#md4f5c21219" x="88.825943" y="195.860788" style="fill: #1f77b4; fill-opacity: 0.8; stroke: #1f77b4; stroke-opacity: 0.8"/>
     <use xlink:href="#md4f5c21219" x="155.196302" y="175.559545" style="fill: #1f77b4; fill-opacity: 0.8; stroke: #1f77b4; stroke-opacity: 0.8"/>
     <use xlink:href="#md4f5c21219" x="52.26513" y="257.227021" style="fill: #1f77b4; fill-opacity: 0.8; stroke: #1f77b4; stroke-opacity: 0.8"/>
     <use xlink:href="#md4f5c21219" x="120.455561" y="302.349042" style="fill: #1f77b4; fill-opacity: 0.8; stroke: #1f77b4; stroke-opacity: 0.8"/>
     <use xlink:href="#md4f5c21219" x="119.566551" y="221.912037" style="fill: #1f77b4; fill-opacity: 0.8; stroke: #1f77b4; stroke-opacity: 0.8"/>
     <use xlink:href="#md4f5c21219" x="60.46626" y="178.058864" style="fill: #1f77b4; fill-opacity: 0.8; stroke: #1f77b4; stroke-opacity: 0.8"/>
     <use xlink:href="#md4f5c21219" x="72.774968" y="284.717088" style="fill: #1f77b4; fill-opacity: 0.8; stroke: #1f77b4; stroke-opacity: 0.8"/>
    </g>
   </g>
   <g id="FillBetweenPolyCollection_1">
    <path d="M 52.26513 211.399528 
L 52.26513 259.201045 
L 53.627782 258.806382 
L 54.990434 258.404956 
L 56.353087 258.025102 
L 57.715739 257.638012 
L 59.078391 257.246025 
L 60.441047 256.886589 
L 61.803696 256.463915 
L 63.166351 256.139243 
L 64.529 255.826586 
L 65.891656 255.413218 
L 67.254305 255.09101 
L 68.61696 254.653391 
L 69.979613 254.212792 
L 71.342265 253.771261 
L 72.704917 253.362495 
L 74.06757 253.041128 
L 75.430222 252.60608 
L 76.792874 252.364031 
L 78.15553 252.122936 
L 79.518179 252.100998 
L 80.880828 251.651091 
L 82.243483 251.305642 
L 83.606139 250.985333 
L 84.968788 250.594793 
L 86.331443 250.392219 
L 87.694099 250.242097 
L 89.056748 250.204101 
L 90.419397 250.036463 
L 91.782052 249.989458 
L 93.144708 249.82807 
L 94.507357 249.824162 
L 95.870006 249.581537 
L 97.232662 249.380524 
L 98.595317 249.328922 
L 99.957966 249.276958 
L 101.320615 248.970579 
L 102.683271 248.915062 
L 104.045926 248.929239 
L 105.408575 248.786776 
L 106.771224 248.560187 
L 108.133887 248.553288 
L 109.496535 248.61317 
L 110.859184 248.506391 
L 112.221833 248.369465 
L 113.584496 248.490855 
L 114.947145 248.645895 
L 116.309793 248.698512 
L 117.672456 248.672749 
L 119.035105 248.718594 
L 120.397754 248.716222 
L 121.760403 248.896692 
L 123.123065 249.016224 
L 124.485714 249.023383 
L 125.848363 249.111892 
L 127.211012 249.313065 
L 128.573674 249.51512 
L 129.936323 249.687089 
L 131.298972 249.742774 
L 132.661621 249.87383 
L 134.024283 249.971577 
L 135.386932 250.210157 
L 136.749581 250.502069 
L 138.11223 250.665705 
L 139.474892 250.928545 
L 140.837541 251.286067 
L 142.20019 251.548023 
L 143.562852 251.701983 
L 144.925501 251.956921 
L 146.28815 252.16024 
L 147.650799 252.431094 
L 149.013462 252.637053 
L 150.37611 252.819304 
L 151.738759 253.007292 
L 153.101408 253.319985 
L 154.464071 253.741175 
L 155.82672 254.080851 
L 157.189368 254.524259 
L 158.552017 255.064442 
L 159.91468 255.34773 
L 161.277329 255.842451 
L 162.639978 255.943682 
L 164.00264 256.410388 
L 165.365289 256.673232 
L 166.727938 256.920091 
L 168.0906 257.352004 
L 169.453249 257.732193 
L 170.815898 258.291206 
L 172.178547 258.644998 
L 173.541209 258.967347 
L 174.903858 259.286584 
L 176.266507 259.605821 
L 177.629156 259.905036 
L 178.991818 260.238132 
L 180.354467 260.571571 
L 181.717116 260.965025 
L 183.079779 261.250179 
L 184.442427 261.699836 
L 185.805076 262.148692 
L 187.167725 262.595118 
L 187.167725 211.148407 
L 187.167725 211.148407 
L 185.805076 211.475997 
L 184.442427 211.811665 
L 183.079779 212.148282 
L 181.717116 212.484903 
L 180.354467 212.984776 
L 178.991818 213.341331 
L 177.629156 213.69789 
L 176.266507 214.054446 
L 174.903858 214.412297 
L 173.541209 214.772197 
L 172.178547 215.132101 
L 170.815898 215.571101 
L 169.453249 216.051754 
L 168.0906 216.536239 
L 166.727938 217.044091 
L 165.365289 217.486257 
L 164.00264 217.881805 
L 162.639978 218.168406 
L 161.277329 218.483435 
L 159.91468 218.769285 
L 158.552017 219.243241 
L 157.189368 219.768691 
L 155.82672 220.061833 
L 154.464071 220.255164 
L 153.101408 220.519617 
L 151.738759 220.820286 
L 150.37611 221.062363 
L 149.013462 221.288875 
L 147.650799 221.539262 
L 146.28815 221.815994 
L 144.925501 222.045399 
L 143.562852 222.180343 
L 142.20019 222.283501 
L 140.837541 222.519864 
L 139.474892 222.776897 
L 138.11223 223.01025 
L 136.749581 223.102078 
L 135.386932 223.35345 
L 134.024283 223.424257 
L 132.661621 223.611732 
L 131.298972 223.667952 
L 129.936323 223.935518 
L 128.573674 224.167959 
L 127.211012 224.317118 
L 125.848363 224.330857 
L 124.485714 224.230423 
L 123.123065 224.186883 
L 121.760403 224.447784 
L 120.397754 224.7815 
L 119.035105 224.874955 
L 117.672456 224.818855 
L 116.309793 224.73859 
L 114.947145 224.663786 
L 113.584496 224.808051 
L 112.221833 224.612978 
L 110.859184 224.441978 
L 109.496535 224.203544 
L 108.133887 224.002283 
L 106.771224 223.801019 
L 105.408575 223.6548 
L 104.045926 223.550567 
L 102.683271 223.333966 
L 101.320615 222.98546 
L 99.957966 222.78391 
L 98.595317 222.638811 
L 97.232662 222.505398 
L 95.870006 222.291792 
L 94.507357 222.166751 
L 93.144708 221.943475 
L 91.782052 221.650783 
L 90.419397 221.386388 
L 89.056748 221.055098 
L 87.694099 220.838025 
L 86.331443 220.556406 
L 84.968788 220.504168 
L 83.606139 220.161803 
L 82.243483 219.763272 
L 80.880828 219.391779 
L 79.518179 218.882212 
L 78.15553 218.434145 
L 76.792874 218.075065 
L 75.430222 217.756634 
L 74.06757 217.436538 
L 72.704917 217.115765 
L 71.342265 216.794159 
L 69.979613 216.333047 
L 68.61696 215.81741 
L 67.254305 215.409821 
L 65.891656 215.01033 
L 64.529 214.633564 
L 63.166351 214.351673 
L 61.803696 213.944307 
L 60.441047 213.399878 
L 59.078391 212.999073 
L 57.715739 212.616054 
L 56.353087 212.334786 
L 54.990434 211.900596 
L 53.627782 211.722391 
L 52.26513 211.399528 
z
" clip-path="url(#p38a0441b16)" style="fill: #008000; fill-opacity: 0.15"/>
   </g>
   <g id="matplotlib.axis_2">
    <g id="xtick_4">
     <g id="line2d_4">
      <g>
       <use xlink:href="#md87481b7e8" x="75.95835" y="320.24" style="stroke: #000000; stroke-width: 0.8"/>
      </g>
     </g>
     <g id="text_3">
      <!-- 2 -->
      <g transform="translate(72.7771 334.838438) scale(0.1 -0.1)">
       <defs>
        <path id="DejaVuSans-32" d="M 1228 531 
L 3431 531 
L 3431 0 
L 469 0 
L 469 531 
Q 828 903 1448 1529 
Q 2069 2156 2228 2338 
Q 2531 2678 2651 2914 
Q 2772 3150 2772 3378 
Q 2772 3750 2511 3984 
Q 2250 4219 1831 4219 
Q 1534 4219 1204 4116 
Q 875 4013 500 3803 
L 500 4441 
Q 881 4594 1212 4672 
Q 1544 4750 1819 4750 
Q 2544 4750 2975 4387 
Q 3406 4025 3406 3419 
Q 3406 3131 3298 2873 
Q 3191 2616 2906 2266 
Q 2828 2175 2409 1742 
Q 1991 1309 1228 531 
z
" transform="scale(0.015625)"/>
       </defs>
       <use xlink:href="#DejaVuSans-32"/>
      </g>
     </g>
    </g>
    <g id="xtick_5">
     <g id="line2d_5">
      <g>
       <use xlink:href="#md87481b7e8" x="132.714692" y="320.24" style="stroke: #000000; stroke-width: 0.8"/>
      </g>
     </g>
     <g id="text_4">
      <!-- 4 -->
      <g transform="translate(129.533442 334.838438) scale(0.1 -0.1)">
       <defs>
        <path id="DejaVuSans-34" d="M 2419 4116 
L 825 1625 
L 2419 1625 
L 2419 4116 
z
M 2253 4666 
L 3047 4666 
L 3047 1625 
L 3713 1625 
L 3713 1100 
L 3047 1100 
L 3047 0 
L 2419 0 
L 2419 1100 
L 313 1100 
L 313 1709 
L 2253 4666 
z
" transform="scale(0.015625)"/>
       </defs>
       <use xlink:href="#DejaVuSans-34"/>
      </g>
     </g>
    </g>
    <g id="xtick_6">
     <g id="line2d_6">
      <g>
       <use xlink:href="#md87481b7e8" x="189.471035" y="320.24" style="stroke: #000000; stroke-width: 0.8"/>
      </g>
     </g>
     <g id="text_5">
      <!-- 6 -->
      <g transform="translate(186.289785 334.838438) scale(0.1 -0.1)">
       <defs>
        <path id="DejaVuSans-36" d="M 2113 2584 
Q 1688 2584 1439 2293 
Q 1191 2003 1191 1497 
Q 1191 994 1439 701 
Q 1688 409 2113 409 
Q 2538 409 2786 701 
Q 3034 994 3034 1497 
Q 3034 2003 2786 2293 
Q 2538 2584 2113 2584 
z
M 3366 4563 
L 3366 3988 
Q 3128 4100 2886 4159 
Q 2644 4219 2406 4219 
Q 1781 4219 1451 3797 
Q 1122 3375 1075 2522 
Q 1259 2794 1537 2939 
Q 1816 3084 2150 3084 
Q 2853 3084 3261 2657 
Q 3669 2231 3669 1497 
Q 3669 778 3244 343 
Q 2819 -91 2113 -91 
Q 1303 -91 875 529 
Q 447 1150 447 2328 
Q 447 3434 972 4092 
Q 1497 4750 2381 4750 
Q 2619 4750 2861 4703 
Q 3103 4656 3366 4563 
z
" transform="scale(0.015625)"/>
       </defs>
       <use xlink:href="#DejaVuSans-36"/>
      </g>
     </g>
    </g>
    <g id="text_6">
     <!-- dec temp -->
     <g transform="translate(96.046115 348.516563) scale(0.1 -0.1)">
      <defs>
       <path id="DejaVuSans-64" d="M 2906 2969 
L 2906 4863 
L 3481 4863 
L 3481 0 
L 2906 0 
L 2906 525 
Q 2725 213 2448 61 
Q 2172 -91 1784 -91 
Q 1150 -91 751 415 
Q 353 922 353 1747 
Q 353 2572 751 3078 
Q 1150 3584 1784 3584 
Q 2172 3584 2448 3432 
Q 2725 3281 2906 2969 
z
M 947 1747 
Q 947 1113 1208 752 
Q 1469 391 1925 391 
Q 2381 391 2643 752 
Q 2906 1113 2906 1747 
Q 2906 2381 2643 2742 
Q 2381 3103 1925 3103 
Q 1469 3103 1208 2742 
Q 947 2381 947 1747 
z
" transform="scale(0.015625)"/>
       <path id="DejaVuSans-65" d="M 3597 1894 
L 3597 1613 
L 953 1613 
Q 991 1019 1311 708 
Q 1631 397 2203 397 
Q 2534 397 2845 478 
Q 3156 559 3463 722 
L 3463 178 
Q 3153 47 2828 -22 
Q 2503 -91 2169 -91 
Q 1331 -91 842 396 
Q 353 884 353 1716 
Q 353 2575 817 3079 
Q 1281 3584 2069 3584 
Q 2775 3584 3186 3129 
Q 3597 2675 3597 1894 
z
M 3022 2063 
Q 3016 2534 2758 2815 
Q 2500 3097 2075 3097 
Q 1594 3097 1305 2825 
Q 1016 2553 972 2059 
L 3022 2063 
z
" transform="scale(0.015625)"/>
       <path id="DejaVuSans-63" d="M 3122 3366 
L 3122 2828 
Q 2878 2963 2633 3030 
Q 2388 3097 2138 3097 
Q 1578 3097 1268 2742 
Q 959 2388 959 1747 
Q 959 1106 1268 751 
Q 1578 397 2138 397 
Q 2388 397 2633 464 
Q 2878 531 3122 666 
L 3122 134 
Q 2881 22 2623 -34 
Q 2366 -91 2075 -91 
Q 1284 -91 818 406 
Q 353 903 353 1747 
Q 353 2603 823 3093 
Q 1294 3584 2113 3584 
Q 2378 3584 2631 3529 
Q 2884 3475 3122 3366 
z
" transform="scale(0.015625)"/>
       <path id="DejaVuSans-74" d="M 1172 4494 
L 1172 3500 
L 2356 3500 
L 2356 3053 
L 1172 3053 
L 1172 1153 
Q 1172 725 1289 603 
Q 1406 481 1766 481 
L 2356 481 
L 2356 0 
L 1766 0 
Q 1100 0 847 248 
Q 594 497 594 1153 
L 594 3053 
L 172 3053 
L 172 3500 
L 594 3500 
L 594 4494 
L 1172 4494 
z
" transform="scale(0.015625)"/>
       <path id="DejaVuSans-6d" d="M 3328 2828 
Q 3544 3216 3844 3400 
Q 4144 3584 4550 3584 
Q 5097 3584 5394 3201 
Q 5691 2819 5691 2113 
L 5691 0 
L 5113 0 
L 5113 2094 
Q 5113 2597 4934 2840 
Q 4756 3084 4391 3084 
Q 3944 3084 3684 2787 
Q 3425 2491 3425 1978 
L 3425 0 
L 2847 0 
L 2847 2094 
Q 2847 2600 2669 2842 
Q 2491 3084 2119 3084 
Q 1678 3084 1418 2786 
Q 1159 2488 1159 1978 
L 1159 0 
L 581 0 
L 581 3500 
L 1159 3500 
L 1159 2956 
Q 1356 3278 1631 3431 
Q 1906 3584 2284 3584 
Q 2666 3584 2933 3390 
Q 3200 3197 3328 2828 
z
" transform="scale(0.015625)"/>
      </defs>
      <use xlink:href="#DejaVuSans-64"/>
      <use xlink:href="#DejaVuSans-65" transform="translate(63.476562 0)"/>
      <use xlink:href="#DejaVuSans-63" transform="translate(125 0)"/>
      <use xlink:href="#DejaVuSans-20" transform="translate(179.980469 0)"/>
      <use xlink:href="#DejaVuSans-74" transform="translate(211.767578 0)"/>
      <use xlink:href="#DejaVuSans-65" transform="translate(250.976562 0)"/>
      <use xlink:href="#DejaVuSans-6d" transform="translate(312.5 0)"/>
      <use xlink:href="#DejaVuSans-70" transform="translate(409.912109 0)"/>
     </g>
    </g>
   </g>
   <g id="matplotlib.axis_3">
    <g id="ytick_1">
     <g id="line2d_7">
      <defs>
       <path id="m830f447411" d="M 0 0 
L -3.5 0 
" style="stroke: #000000; stroke-width: 0.8"/>
      </defs>
      <g>
       <use xlink:href="#m830f447411" x="45.52" y="313.506442" style="stroke: #000000; stroke-width: 0.8"/>
      </g>
     </g>
     <g id="text_7">
      <!-- 0.0 -->
      <g transform="translate(22.616875 317.305661) scale(0.1 -0.1)">
       <use xlink:href="#DejaVuSans-30"/>
       <use xlink:href="#DejaVuSans-2e" transform="translate(63.623047 0)"/>
       <use xlink:href="#DejaVuSans-30" transform="translate(95.410156 0)"/>
      </g>
     </g>
    </g>
    <g id="ytick_2">
     <g id="line2d_8">
      <g>
       <use xlink:href="#m830f447411" x="45.52" y="285.84224" style="stroke: #000000; stroke-width: 0.8"/>
      </g>
     </g>
     <g id="text_8">
      <!-- 0.2 -->
      <g transform="translate(22.616875 289.641459) scale(0.1 -0.1)">
       <use xlink:href="#DejaVuSans-30"/>
       <use xlink:href="#DejaVuSans-2e" transform="translate(63.623047 0)"/>
       <use xlink:href="#DejaVuSans-32" transform="translate(95.410156 0)"/>
      </g>
     </g>
    </g>
    <g id="ytick_3">
     <g id="line2d_9">
      <g>
       <use xlink:href="#m830f447411" x="45.52" y="258.178038" style="stroke: #000000; stroke-width: 0.8"/>
      </g>
     </g>
     <g id="text_9">
      <!-- 0.4 -->
      <g transform="translate(22.616875 261.977256) scale(0.1 -0.1)">
       <use xlink:href="#DejaVuSans-30"/>
       <use xlink:href="#DejaVuSans-2e" transform="translate(63.623047 0)"/>
       <use xlink:href="#DejaVuSans-34" transform="translate(95.410156 0)"/>
      </g>
     </g>
    </g>
    <g id="ytick_4">
     <g id="line2d_10">
      <g>
       <use xlink:href="#m830f447411" x="45.52" y="230.513836" style="stroke: #000000; stroke-width: 0.8"/>
      </g>
     </g>
     <g id="text_10">
      <!-- 0.6 -->
      <g transform="translate(22.616875 234.313054) scale(0.1 -0.1)">
       <use xlink:href="#DejaVuSans-30"/>
       <use xlink:href="#DejaVuSans-2e" transform="translate(63.623047 0)"/>
       <use xlink:href="#DejaVuSans-36" transform="translate(95.410156 0)"/>
      </g>
     </g>
    </g>
    <g id="ytick_5">
     <g id="line2d_11">
      <g>
       <use xlink:href="#m830f447411" x="45.52" y="202.849633" style="stroke: #000000; stroke-width: 0.8"/>
      </g>
     </g>
     <g id="text_11">
      <!-- 0.8 -->
      <g transform="translate(22.616875 206.648852) scale(0.1 -0.1)">
       <defs>
        <path id="DejaVuSans-38" d="M 2034 2216 
Q 1584 2216 1326 1975 
Q 1069 1734 1069 1313 
Q 1069 891 1326 650 
Q 1584 409 2034 409 
Q 2484 409 2743 651 
Q 3003 894 3003 1313 
Q 3003 1734 2745 1975 
Q 2488 2216 2034 2216 
z
M 1403 2484 
Q 997 2584 770 2862 
Q 544 3141 544 3541 
Q 544 4100 942 4425 
Q 1341 4750 2034 4750 
Q 2731 4750 3128 4425 
Q 3525 4100 3525 3541 
Q 3525 3141 3298 2862 
Q 3072 2584 2669 2484 
Q 3125 2378 3379 2068 
Q 3634 1759 3634 1313 
Q 3634 634 3220 271 
Q 2806 -91 2034 -91 
Q 1263 -91 848 271 
Q 434 634 434 1313 
Q 434 1759 690 2068 
Q 947 2378 1403 2484 
z
M 1172 3481 
Q 1172 3119 1398 2916 
Q 1625 2713 2034 2713 
Q 2441 2713 2670 2916 
Q 2900 3119 2900 3481 
Q 2900 3844 2670 4047 
Q 2441 4250 2034 4250 
Q 1625 4250 1398 4047 
Q 1172 3844 1172 3481 
z
" transform="scale(0.015625)"/>
       </defs>
       <use xlink:href="#DejaVuSans-30"/>
       <use xlink:href="#DejaVuSans-2e" transform="translate(63.623047 0)"/>
       <use xlink:href="#DejaVuSans-38" transform="translate(95.410156 0)"/>
      </g>
     </g>
    </g>
    <g id="ytick_6">
     <g id="line2d_12">
      <g>
       <use xlink:href="#m830f447411" x="45.52" y="175.185431" style="stroke: #000000; stroke-width: 0.8"/>
      </g>
     </g>
     <g id="text_12">
      <!-- 1.0 -->
      <g transform="translate(22.616875 178.98465) scale(0.1 -0.1)">
       <use xlink:href="#DejaVuSans-31"/>
       <use xlink:href="#DejaVuSans-2e" transform="translate(63.623047 0)"/>
       <use xlink:href="#DejaVuSans-30" transform="translate(95.410156 0)"/>
      </g>
     </g>
    </g>
    <g id="text_13">
     <!-- reward rate -->
     <g transform="translate(16.537188 273.515156) rotate(-90) scale(0.1 -0.1)">
      <defs>
       <path id="DejaVuSans-77" d="M 269 3500 
L 844 3500 
L 1563 769 
L 2278 3500 
L 2956 3500 
L 3675 769 
L 4391 3500 
L 4966 3500 
L 4050 0 
L 3372 0 
L 2619 2869 
L 1863 0 
L 1184 0 
L 269 3500 
z
" transform="scale(0.015625)"/>
       <path id="DejaVuSans-61" d="M 2194 1759 
Q 1497 1759 1228 1600 
Q 959 1441 959 1056 
Q 959 750 1161 570 
Q 1363 391 1709 391 
Q 2188 391 2477 730 
Q 2766 1069 2766 1631 
L 2766 1759 
L 2194 1759 
z
M 3341 1997 
L 3341 0 
L 2766 0 
L 2766 531 
Q 2569 213 2275 61 
Q 1981 -91 1556 -91 
Q 1019 -91 701 211 
Q 384 513 384 1019 
Q 384 1609 779 1909 
Q 1175 2209 1959 2209 
L 2766 2209 
L 2766 2266 
Q 2766 2663 2505 2880 
Q 2244 3097 1772 3097 
Q 1472 3097 1187 3025 
Q 903 2953 641 2809 
L 641 3341 
Q 956 3463 1253 3523 
Q 1550 3584 1831 3584 
Q 2591 3584 2966 3190 
Q 3341 2797 3341 1997 
z
" transform="scale(0.015625)"/>
      </defs>
      <use xlink:href="#DejaVuSans-72"/>
      <use xlink:href="#DejaVuSans-65" transform="translate(38.863281 0)"/>
      <use xlink:href="#DejaVuSans-77" transform="translate(100.386719 0)"/>
      <use xlink:href="#DejaVuSans-61" transform="translate(182.173828 0)"/>
      <use xlink:href="#DejaVuSans-72" transform="translate(243.453125 0)"/>
      <use xlink:href="#DejaVuSans-64" transform="translate(282.816406 0)"/>
      <use xlink:href="#DejaVuSans-20" transform="translate(346.292969 0)"/>
      <use xlink:href="#DejaVuSans-72" transform="translate(378.080078 0)"/>
      <use xlink:href="#DejaVuSans-61" transform="translate(419.193359 0)"/>
      <use xlink:href="#DejaVuSans-74" transform="translate(480.472656 0)"/>
      <use xlink:href="#DejaVuSans-65" transform="translate(519.681641 0)"/>
     </g>
    </g>
   </g>
   <g id="line2d_13">
    <path d="M 52.26513 234.799106 
L 53.627782 234.835983 
L 54.990434 234.87286 
L 56.353087 234.909737 
L 57.715739 234.946614 
L 59.078391 234.983491 
L 60.441047 235.020369 
L 61.803696 235.057246 
L 63.166351 235.094123 
L 64.529 235.131 
L 65.891656 235.167877 
L 67.254305 235.204754 
L 68.61696 235.241632 
L 69.979613 235.278509 
L 71.342265 235.315386 
L 72.704917 235.352263 
L 74.06757 235.38914 
L 75.430222 235.426017 
L 76.792874 235.462894 
L 78.15553 235.499772 
L 79.518179 235.536649 
L 80.880828 235.573526 
L 82.243483 235.610403 
L 83.606139 235.64728 
L 84.968788 235.684157 
L 86.331443 235.721034 
L 87.694099 235.757912 
L 89.056748 235.794789 
L 90.419397 235.831666 
L 91.782052 235.868543 
L 93.144708 235.90542 
L 94.507357 235.942297 
L 95.870006 235.979174 
L 97.232662 236.016051 
L 98.595317 236.052929 
L 99.957966 236.089806 
L 101.320615 236.126683 
L 102.683271 236.16356 
L 104.045926 236.200437 
L 105.408575 236.237314 
L 106.771224 236.274191 
L 108.133887 236.311069 
L 109.496535 236.347946 
L 110.859184 236.384823 
L 112.221833 236.4217 
L 113.584496 236.458577 
L 114.947145 236.495454 
L 116.309793 236.532331 
L 117.672456 236.569209 
L 119.035105 236.606086 
L 120.397754 236.642963 
L 121.760403 236.67984 
L 123.123065 236.716717 
L 124.485714 236.753594 
L 125.848363 236.790471 
L 127.211012 236.827348 
L 128.573674 236.864226 
L 129.936323 236.901103 
L 131.298972 236.93798 
L 132.661621 236.974857 
L 134.024283 237.011734 
L 135.386932 237.048611 
L 136.749581 237.085488 
L 138.11223 237.122365 
L 139.474892 237.159243 
L 140.837541 237.19612 
L 142.20019 237.232997 
L 143.562852 237.269874 
L 144.925501 237.306751 
L 146.28815 237.343628 
L 147.650799 237.380505 
L 149.013462 237.417383 
L 150.37611 237.45426 
L 151.738759 237.491137 
L 153.101408 237.528014 
L 154.464071 237.564891 
L 155.82672 237.601768 
L 157.189368 237.638645 
L 158.552017 237.675523 
L 159.91468 237.7124 
L 161.277329 237.749277 
L 162.639978 237.786154 
L 164.00264 237.823031 
L 165.365289 237.859908 
L 166.727938 237.896785 
L 168.0906 237.933663 
L 169.453249 237.97054 
L 170.815898 238.007417 
L 172.178547 238.044294 
L 173.541209 238.081171 
L 174.903858 238.118048 
L 176.266507 238.154926 
L 177.629156 238.191803 
L 178.991818 238.22868 
L 180.354467 238.265557 
L 181.717116 238.302434 
L 183.079779 238.339311 
L 184.442427 238.376189 
L 185.805076 238.413066 
L 187.167725 238.449943 
" clip-path="url(#p38a0441b16)" style="fill: none; stroke: #008000; stroke-opacity: 0.6; stroke-width: 2.25; stroke-linecap: square"/>
   </g>
   <g id="patch_5">
    <path d="M 45.52 320.24 
L 45.52 168.67 
" style="fill: none; stroke: #000000; stroke-width: 0.8; stroke-linejoin: miter; stroke-linecap: square"/>
   </g>
   <g id="patch_6">
    <path d="M 45.52 320.24 
L 193.912855 320.24 
" style="fill: none; stroke: #000000; stroke-width: 0.8; stroke-linejoin: miter; stroke-linecap: square"/>
   </g>
   <g id="text_14">
    <!-- r = -0.02  -->
    <g transform="translate(60.359285 183.827) scale(0.1 -0.1)">
     <defs>
      <path id="DejaVuSans-2d" d="M 313 2009 
L 1997 2009 
L 1997 1497 
L 313 1497 
L 313 2009 
z
" transform="scale(0.015625)"/>
     </defs>
     <use xlink:href="#DejaVuSans-72"/>
     <use xlink:href="#DejaVuSans-20" transform="translate(41.113281 0)"/>
     <use xlink:href="#DejaVuSans-3d" transform="translate(72.900391 0)"/>
     <use xlink:href="#DejaVuSans-20" transform="translate(156.689453 0)"/>
     <use xlink:href="#DejaVuSans-2d" transform="translate(188.476562 0)"/>
     <use xlink:href="#DejaVuSans-30" transform="translate(224.560547 0)"/>
     <use xlink:href="#DejaVuSans-2e" transform="translate(288.183594 0)"/>
     <use xlink:href="#DejaVuSans-30" transform="translate(319.970703 0)"/>
     <use xlink:href="#DejaVuSans-32" transform="translate(383.59375 0)"/>
     <use xlink:href="#DejaVuSans-20" transform="translate(447.216797 0)"/>
    </g>
   </g>
   <g id="text_15">
    <!-- p = 0.865 -->
    <g transform="translate(119.716427 183.827) scale(0.1 -0.1)">
     <defs>
      <path id="DejaVuSans-35" d="M 691 4666 
L 3169 4666 
L 3169 4134 
L 1269 4134 
L 1269 2991 
Q 1406 3038 1543 3061 
Q 1681 3084 1819 3084 
Q 2600 3084 3056 2656 
Q 3513 2228 3513 1497 
Q 3513 744 3044 326 
Q 2575 -91 1722 -91 
Q 1428 -91 1123 -41 
Q 819 9 494 109 
L 494 744 
Q 775 591 1075 516 
Q 1375 441 1709 441 
Q 2250 441 2565 725 
Q 2881 1009 2881 1497 
Q 2881 1984 2565 2268 
Q 2250 2553 1709 2553 
Q 1456 2553 1204 2497 
Q 953 2441 691 2322 
L 691 4666 
z
" transform="scale(0.015625)"/>
     </defs>
     <use xlink:href="#DejaVuSans-70"/>
     <use xlink:href="#DejaVuSans-20" transform="translate(63.476562 0)"/>
     <use xlink:href="#DejaVuSans-3d" transform="translate(95.263672 0)"/>
     <use xlink:href="#DejaVuSans-20" transform="translate(179.052734 0)"/>
     <use xlink:href="#DejaVuSans-30" transform="translate(210.839844 0)"/>
     <use xlink:href="#DejaVuSans-2e" transform="translate(274.462891 0)"/>
     <use xlink:href="#DejaVuSans-38" transform="translate(306.25 0)"/>
     <use xlink:href="#DejaVuSans-36" transform="translate(369.873047 0)"/>
     <use xlink:href="#DejaVuSans-35" transform="translate(433.496094 0)"/>
    </g>
   </g>
  </g>
  <g id="axes_3">
   <g id="patch_7">
    <path d="M 200.841182 320.24 
L 349.234037 320.24 
L 349.234037 168.67 
L 200.841182 168.67 
z
" style="fill: #ffffff"/>
   </g>
   <g id="matplotlib.axis_4">
    <g id="xtick_7">
     <g id="line2d_14">
      <g>
       <use xlink:href="#md87481b7e8" x="207.433594" y="320.24" style="stroke: #000000; stroke-width: 0.8"/>
      </g>
     </g>
     <g id="text_16">
      <!-- 0.0 -->
      <g transform="translate(199.482031 334.838438) scale(0.1 -0.1)">
       <use xlink:href="#DejaVuSans-30"/>
       <use xlink:href="#DejaVuSans-2e" transform="translate(63.623047 0)"/>
       <use xlink:href="#DejaVuSans-30" transform="translate(95.410156 0)"/>
      </g>
     </g>
    </g>
    <g id="xtick_8">
     <g id="line2d_15">
      <g>
       <use xlink:href="#md87481b7e8" x="275.144387" y="320.24" style="stroke: #000000; stroke-width: 0.8"/>
      </g>
     </g>
     <g id="text_17">
      <!-- 0.5 -->
      <g transform="translate(267.192824 334.838438) scale(0.1 -0.1)">
       <use xlink:href="#DejaVuSans-30"/>
       <use xlink:href="#DejaVuSans-2e" transform="translate(63.623047 0)"/>
       <use xlink:href="#DejaVuSans-35" transform="translate(95.410156 0)"/>
      </g>
     </g>
    </g>
    <g id="xtick_9">
     <g id="line2d_16">
      <g>
       <use xlink:href="#md87481b7e8" x="342.855179" y="320.24" style="stroke: #000000; stroke-width: 0.8"/>
      </g>
     </g>
     <g id="text_18">
      <!-- 1.0 -->
      <g transform="translate(334.903617 334.838438) scale(0.1 -0.1)">
       <use xlink:href="#DejaVuSans-31"/>
       <use xlink:href="#DejaVuSans-2e" transform="translate(63.623047 0)"/>
       <use xlink:href="#DejaVuSans-30" transform="translate(95.410156 0)"/>
      </g>
     </g>
    </g>
    <g id="text_19">
     <!-- reward rate -->
     <g transform="translate(245.977453 348.516563) scale(0.1 -0.1)">
      <use xlink:href="#DejaVuSans-72"/>
      <use xlink:href="#DejaVuSans-65" transform="translate(38.863281 0)"/>
      <use xlink:href="#DejaVuSans-77" transform="translate(100.386719 0)"/>
      <use xlink:href="#DejaVuSans-61" transform="translate(182.173828 0)"/>
      <use xlink:href="#DejaVuSans-72" transform="translate(243.453125 0)"/>
      <use xlink:href="#DejaVuSans-64" transform="translate(282.816406 0)"/>
      <use xlink:href="#DejaVuSans-20" transform="translate(346.292969 0)"/>
      <use xlink:href="#DejaVuSans-72" transform="translate(378.080078 0)"/>
      <use xlink:href="#DejaVuSans-61" transform="translate(419.193359 0)"/>
      <use xlink:href="#DejaVuSans-74" transform="translate(480.472656 0)"/>
      <use xlink:href="#DejaVuSans-65" transform="translate(519.681641 0)"/>
     </g>
    </g>
   </g>
   <g id="patch_8">
    <path d="M 200.841182 320.24 
L 349.234037 320.24 
" style="fill: none; stroke: #000000; stroke-width: 0.8; stroke-linejoin: miter; stroke-linecap: square"/>
   </g>
   <g id="text_20">
    <!-- r = 1.00  -->
    <g transform="translate(215.680467 183.827) scale(0.1 -0.1)">
     <use xlink:href="#DejaVuSans-72"/>
     <use xlink:href="#DejaVuSans-20" transform="translate(41.113281 0)"/>
     <use xlink:href="#DejaVuSans-3d" transform="translate(72.900391 0)"/>
     <use xlink:href="#DejaVuSans-20" transform="translate(156.689453 0)"/>
     <use xlink:href="#DejaVuSans-31" transform="translate(188.476562 0)"/>
     <use xlink:href="#DejaVuSans-2e" transform="translate(252.099609 0)"/>
     <use xlink:href="#DejaVuSans-30" transform="translate(283.886719 0)"/>
     <use xlink:href="#DejaVuSans-30" transform="translate(347.509766 0)"/>
     <use xlink:href="#DejaVuSans-20" transform="translate(411.132812 0)"/>
    </g>
   </g>
   <g id="text_21">
    <!-- p = 0.000 -->
    <g transform="translate(275.037609 183.827) scale(0.1 -0.1)">
     <use xlink:href="#DejaVuSans-70"/>
     <use xlink:href="#DejaVuSans-20" transform="translate(63.476562 0)"/>
     <use xlink:href="#DejaVuSans-3d" transform="translate(95.263672 0)"/>
     <use xlink:href="#DejaVuSans-20" transform="translate(179.052734 0)"/>
     <use xlink:href="#DejaVuSans-30" transform="translate(210.839844 0)"/>
     <use xlink:href="#DejaVuSans-2e" transform="translate(274.462891 0)"/>
     <use xlink:href="#DejaVuSans-30" transform="translate(306.25 0)"/>
     <use xlink:href="#DejaVuSans-30" transform="translate(369.873047 0)"/>
     <use xlink:href="#DejaVuSans-30" transform="translate(433.496094 0)"/>
    </g>
   </g>
  </g>
  <g id="axes_4">
   <g id="patch_9">
    <path d="M 52.26513 160.17 
L 71.536929 160.17 
L 71.536929 68.309394 
L 52.26513 68.309394 
z
" clip-path="url(#p802fe34f85)" style="fill: #1f77b4; fill-opacity: 0.75; stroke: #000000; stroke-linejoin: miter"/>
   </g>
   <g id="patch_10">
    <path d="M 71.536929 160.17 
L 90.808728 160.17 
L 90.808728 81.432338 
L 71.536929 81.432338 
z
" clip-path="url(#p802fe34f85)" style="fill: #1f77b4; fill-opacity: 0.75; stroke: #000000; stroke-linejoin: miter"/>
   </g>
   <g id="patch_11">
    <path d="M 90.808728 160.17 
L 110.080528 160.17 
L 110.080528 55.18645 
L 90.808728 55.18645 
z
" clip-path="url(#p802fe34f85)" style="fill: #1f77b4; fill-opacity: 0.75; stroke: #000000; stroke-linejoin: miter"/>
   </g>
   <g id="patch_12">
    <path d="M 110.080528 160.17 
L 129.352327 160.17 
L 129.352327 68.309394 
L 110.080528 68.309394 
z
" clip-path="url(#p802fe34f85)" style="fill: #1f77b4; fill-opacity: 0.75; stroke: #000000; stroke-linejoin: miter"/>
   </g>
   <g id="patch_13">
    <path d="M 129.352327 160.17 
L 148.624127 160.17 
L 148.624127 81.432338 
L 129.352327 81.432338 
z
" clip-path="url(#p802fe34f85)" style="fill: #1f77b4; fill-opacity: 0.75; stroke: #000000; stroke-linejoin: miter"/>
   </g>
   <g id="patch_14">
    <path d="M 148.624127 160.17 
L 167.895926 160.17 
L 167.895926 28.940563 
L 148.624127 28.940563 
z
" clip-path="url(#p802fe34f85)" style="fill: #1f77b4; fill-opacity: 0.75; stroke: #000000; stroke-linejoin: miter"/>
   </g>
   <g id="patch_15">
    <path d="M 167.895926 160.17 
L 187.167725 160.17 
L 187.167725 81.432338 
L 167.895926 81.432338 
z
" clip-path="url(#p802fe34f85)" style="fill: #1f77b4; fill-opacity: 0.75; stroke: #000000; stroke-linejoin: miter"/>
   </g>
  </g>
  <g id="axes_5">
   <g id="patch_16">
    <path d="M 207.586312 320.24 
L 226.858111 320.24 
L 226.858111 215.25645 
L 207.586312 215.25645 
z
" clip-path="url(#p30598ba5f3)" style="fill: #1f77b4; fill-opacity: 0.75; stroke: #000000; stroke-linejoin: miter"/>
   </g>
   <g id="patch_17">
    <path d="M 226.858111 320.24 
L 246.12991 320.24 
L 246.12991 280.871169 
L 226.858111 280.871169 
z
" clip-path="url(#p30598ba5f3)" style="fill: #1f77b4; fill-opacity: 0.75; stroke: #000000; stroke-linejoin: miter"/>
   </g>
   <g id="patch_18">
    <path d="M 246.12991 320.24 
L 265.40171 320.24 
L 265.40171 241.502338 
L 246.12991 241.502338 
z
" clip-path="url(#p30598ba5f3)" style="fill: #1f77b4; fill-opacity: 0.75; stroke: #000000; stroke-linejoin: miter"/>
   </g>
   <g id="patch_19">
    <path d="M 265.40171 320.24 
L 284.673509 320.24 
L 284.673509 228.379394 
L 265.40171 228.379394 
z
" clip-path="url(#p30598ba5f3)" style="fill: #1f77b4; fill-opacity: 0.75; stroke: #000000; stroke-linejoin: miter"/>
   </g>
   <g id="patch_20">
    <path d="M 284.673509 320.24 
L 303.945308 320.24 
L 303.945308 228.379394 
L 284.673509 228.379394 
z
" clip-path="url(#p30598ba5f3)" style="fill: #1f77b4; fill-opacity: 0.75; stroke: #000000; stroke-linejoin: miter"/>
   </g>
   <g id="patch_21">
    <path d="M 303.945308 320.24 
L 323.217108 320.24 
L 323.217108 215.25645 
L 303.945308 215.25645 
z
" clip-path="url(#p30598ba5f3)" style="fill: #1f77b4; fill-opacity: 0.75; stroke: #000000; stroke-linejoin: miter"/>
   </g>
   <g id="patch_22">
    <path d="M 323.217108 320.24 
L 342.488907 320.24 
L 342.488907 175.887619 
L 323.217108 175.887619 
z
" clip-path="url(#p30598ba5f3)" style="fill: #1f77b4; fill-opacity: 0.75; stroke: #000000; stroke-linejoin: miter"/>
   </g>
  </g>
 </g>
 <defs>
  <clipPath id="p38a0441b16">
   <rect x="45.52" y="168.67" width="148.392855" height="151.57"/>
  </clipPath>
  <clipPath id="p802fe34f85">
   <rect x="45.52" y="8.6" width="148.392855" height="151.57"/>
  </clipPath>
  <clipPath id="p30598ba5f3">
   <rect x="200.841182" y="168.67" width="148.392855" height="151.57"/>
  </clipPath>
 </defs>
</svg>
